ISO-10303-21;
HEADER;
FILE_DESCRIPTION (( 'STEP AP214' ),
    '1' );
FILE_NAME ('Dial Ring Chapter no markers.STEP',
    '2024-04-15T10:14:23',
    ( '' ),
    ( '' ),
    'SwSTEP 2.0',
    'SolidWorks 2024',
    '' );
FILE_SCHEMA (( 'AUTOMOTIVE_DESIGN' ));
ENDSEC;

DATA;
#1 = CARTESIAN_POINT ( 'NONE',  ( 9.646872667024325665, -0.2600000000000002864, 12.76471103261718909 ) ) ;
#2 = ORIENTED_EDGE ( 'NONE', *, *, #91, .F. ) ;
#3 = EDGE_CURVE ( 'NONE', #458, #190, #39, .T. ) ;
#4 = CYLINDRICAL_SURFACE ( 'NONE', #162, 15.90000000000000036 ) ;
#5 = ORIENTED_EDGE ( 'NONE', *, *, #27, .F. ) ;
#6 = ORIENTED_EDGE ( 'NONE', *, *, #551, .F. ) ;
#7 = ORIENTED_EDGE ( 'NONE', *, *, #392, .T. ) ;
#8 = ORIENTED_EDGE ( 'NONE', *, *, #234, .F. ) ;
#9 = EDGE_CURVE ( 'NONE', #192, #239, #476, .T. ) ;
#10 = CYLINDRICAL_SURFACE ( 'NONE', #472, 14.75000000000000000 ) ;
#11 = CARTESIAN_POINT ( 'NONE',  ( 0.000000000000000000, -0.1599999999999963951, 0.000000000000000000 ) ) ;
#12 = VERTEX_POINT ( 'NONE', #95 ) ;
#13 = DIRECTION ( 'NONE',  ( -0.000000000000000000, -1.000000000000000000, -0.000000000000000000 ) ) ;
#14 = EDGE_CURVE ( 'NONE', #236, #570, #292, .T. ) ;
#15 = CARTESIAN_POINT ( 'NONE',  ( 0.000000000000000000, -0.2600000000000002864, 0.000000000000000000 ) ) ;
#16 = DIRECTION ( 'NONE',  ( -0.000000000000000000, -1.000000000000000000, -0.000000000000000000 ) ) ;
#17 = LINE ( 'NONE', #204, #53 ) ;
#18 = CYLINDRICAL_SURFACE ( 'NONE', #66, 15.90000000000000036 ) ;
#19 = CARTESIAN_POINT ( 'NONE',  ( -9.646872667024336323, 5.728427124746196419, -12.76471103261719264 ) ) ;
#20 = CARTESIAN_POINT ( 'NONE',  ( 0.000000000000000000, -0.6600000000000003642, 0.000000000000000000 ) ) ;
#21 = DIRECTION ( 'NONE',  ( 0.000000000000000000, 1.000000000000000000, 0.000000000000000000 ) ) ;
#22 = CONICAL_SURFACE ( 'NONE', #132, 15.40000000000000391, 0.7853981633974412846 ) ;
#23 = CARTESIAN_POINT ( 'NONE',  ( 9.646872667024325665, 2.899999999999999911, 12.76471103261718909 ) ) ;
#24 = DIRECTION ( 'NONE',  ( 0.000000000000000000, 0.000000000000000000, 1.000000000000000000 ) ) ;
#25 = CARTESIAN_POINT ( 'NONE',  ( 9.646872667024325665, -0.2600000000000002864, 12.76471103261718909 ) ) ;
#26 = CARTESIAN_POINT ( 'NONE',  ( 0.000000000000000000, -0.1599999999999963951, 15.90000000000000036 ) ) ;
#27 = EDGE_CURVE ( 'NONE', #546, #186, #150, .T. ) ;
#28 = CARTESIAN_POINT ( 'NONE',  ( 8.731792800161658263, -0.2600000000000002864, 13.16798369132666480 ) ) ;
#29 = ORIENTED_EDGE ( 'NONE', *, *, #492, .T. ) ;
#30 = DIRECTION ( 'NONE',  ( -0.000000000000000000, -1.000000000000000000, -0.000000000000000000 ) ) ;
#31 = VERTEX_POINT ( 'NONE', #402 ) ;
#32 = EDGE_CURVE ( 'NONE', #195, #236, #466, .T. ) ;
#33 =( GEOMETRIC_REPRESENTATION_CONTEXT ( 3 ) GLOBAL_UNCERTAINTY_ASSIGNED_CONTEXT ( ( #406 ) ) GLOBAL_UNIT_ASSIGNED_CONTEXT ( ( #35, #140, #181 ) ) REPRESENTATION_CONTEXT ( 'NONE', 'WORKASPACE' ) );
#34 = FACE_OUTER_BOUND ( 'NONE', #435, .T. ) ;
#35 =( LENGTH_UNIT ( ) NAMED_UNIT ( * ) SI_UNIT ( .MILLI., .METRE. ) );
#36 = EDGE_CURVE ( 'NONE', #570, #93, #231, .T. ) ;
#37 = EDGE_LOOP ( 'NONE', ( #555, #174, #564, #385 ) ) ;
#38 = CIRCLE ( 'NONE', #119, 15.40000000000000391 ) ;
#39 = CIRCLE ( 'NONE', #393, 1.000000000000002665 ) ;
#40 = EDGE_LOOP ( 'NONE', ( #99, #419, #505, #235 ) ) ;
#41 = ADVANCED_BREP_SHAPE_REPRESENTATION ( 'Dial Ring Chapter no markers', ( #409, #432 ), #577 ) ;
#42 = CIRCLE ( 'NONE', #336, 1.000000000000002665 ) ;
#43 = ORIENTED_EDGE ( 'NONE', *, *, #9, .T. ) ;
#44 = DIRECTION ( 'NONE',  ( 0.000000000000000000, 0.000000000000000000, -1.000000000000000000 ) ) ;
#45 = ORIENTED_EDGE ( 'NONE', *, *, #295, .T. ) ;
#46 = ADVANCED_FACE ( 'NONE', ( #154 ), #481, .T. ) ;
#47 = ADVANCED_FACE ( 'NONE', ( #351 ), #18, .T. ) ;
#48 = DIRECTION ( 'NONE',  ( 0.000000000000000000, 0.000000000000000000, -1.000000000000000000 ) ) ;
#49 = EDGE_LOOP ( 'NONE', ( #593, #90, #76 ) ) ;
#50 = CIRCLE ( 'NONE', #184, 15.79999999999999893 ) ;
#51 =( LENGTH_UNIT ( ) NAMED_UNIT ( * ) SI_UNIT ( .MILLI., .METRE. ) );
#52 = CARTESIAN_POINT ( 'NONE',  ( 0.000000000000000000, -0.6600000000000003642, 15.40000000000000391 ) ) ;
#53 = VECTOR ( 'NONE', #362, 1000.000000000000000 ) ;
#54 = ADVANCED_FACE ( 'NONE', ( #59 ), #353, .T. ) ;
#55 = ORIENTED_EDGE ( 'NONE', *, *, #91, .T. ) ;
#56 = DIRECTION ( 'NONE',  ( 0.000000000000000000, 0.7071067811865525687, 0.7071067811865425767 ) ) ;
#57 = DIRECTION ( 'NONE',  ( 0.000000000000000000, 0.000000000000000000, 1.000000000000000000 ) ) ;
#58 = AXIS2_PLACEMENT_3D ( 'NONE', #400, #258, #308 ) ;
#59 = FACE_OUTER_BOUND ( 'NONE', #293, .T. ) ;
#60 = DIRECTION ( 'NONE',  ( 0.000000000000000000, -0.000000000000000000, 1.000000000000000000 ) ) ;
#61 = DIRECTION ( 'NONE',  ( -0.000000000000000000, -1.000000000000000000, -0.000000000000000000 ) ) ;
#62 = EDGE_CURVE ( 'NONE', #192, #517, #87, .T. ) ;
#63 = FACE_OUTER_BOUND ( 'NONE', #566, .T. ) ;
#64 = AXIS2_PLACEMENT_3D ( 'NONE', #418, #256, #403 ) ;
#65 = CARTESIAN_POINT ( 'NONE',  ( 0.000000000000000000, -0.2600000000000002864, 14.03318584070796504 ) ) ;
#66 = AXIS2_PLACEMENT_3D ( 'NONE', #107, #303, #484 ) ;
#67 = CARTESIAN_POINT ( 'NONE',  ( 10.33533346795049468, -0.1934138480537833937, 12.03866452493315009 ) ) ;
#68 = CARTESIAN_POINT ( 'NONE',  ( 0.000000000000000000, 2.899999999999999911, 0.000000000000000000 ) ) ;
#69 = CARTESIAN_POINT ( 'NONE',  ( 0.000000000000000000, -0.2600000000000002864, 0.000000000000000000 ) ) ;
#70 = CARTESIAN_POINT ( 'NONE',  ( 0.000000000000000000, -0.1599999999999963951, -15.90000000000000036 ) ) ;
#71 = DIRECTION ( 'NONE',  ( -0.000000000000000000, -1.000000000000000000, -0.000000000000000000 ) ) ;
#72 = CARTESIAN_POINT ( 'NONE',  ( -9.646872667024336323, -0.2600000000000002864, -12.76471103261719264 ) ) ;
#73 = ORIENTED_EDGE ( 'NONE', *, *, #9, .F. ) ;
#74 = ADVANCED_FACE ( 'NONE', ( #63 ), #579, .T. ) ;
#75 = CARTESIAN_POINT ( 'NONE',  ( -9.646872667024336323, -0.2600000000000002864, -12.76471103261719264 ) ) ;
#76 = ORIENTED_EDGE ( 'NONE', *, *, #386, .F. ) ;
#77 = DIRECTION ( 'NONE',  ( -0.000000000000000000, -1.000000000000000000, -0.000000000000000000 ) ) ;
#78 = ORIENTED_EDGE ( 'NONE', *, *, #203, .T. ) ;
#79 = ORIENTED_EDGE ( 'NONE', *, *, #300, .T. ) ;
#80 = EDGE_LOOP ( 'NONE', ( #565, #45 ) ) ;
#81 = AXIS2_PLACEMENT_3D ( 'NONE', #25, #537, #217 ) ;
#82 = FACE_OUTER_BOUND ( 'NONE', #80, .T. ) ;
#83 = ORIENTED_EDGE ( 'NONE', *, *, #560, .F. ) ;
#84 = CARTESIAN_POINT ( 'NONE',  ( 0.000000000000000000, 0.000000000000000000, -14.75000000000000000 ) ) ;
#85 = VERTEX_POINT ( 'NONE', #585 ) ;
#86 = CARTESIAN_POINT ( 'NONE',  ( 0.000000000000000000, 1.899999999999999689, 0.000000000000000000 ) ) ;
#87 = CIRCLE ( 'NONE', #259, 15.40000000000000391 ) ;
#88 = AXIS2_PLACEMENT_3D ( 'NONE', #86, #514, #556 ) ;
#89 = EDGE_LOOP ( 'NONE', ( #248, #233, #322, #138 ) ) ;
#90 = ORIENTED_EDGE ( 'NONE', *, *, #536, .T. ) ;
#91 = EDGE_CURVE ( 'NONE', #517, #546, #113, .T. ) ;
#92 = EDGE_LOOP ( 'NONE', ( #115, #243, #7, #331 ) ) ;
#93 = VERTEX_POINT ( 'NONE', #534 ) ;
#94 =( NAMED_UNIT ( * ) PLANE_ANGLE_UNIT ( ) SI_UNIT ( $, .RADIAN. ) );
#95 = CARTESIAN_POINT ( 'NONE',  ( -9.646872667024336323, -0.2600000000000002864, -13.76471103261719620 ) ) ;
#96 = VERTEX_POINT ( 'NONE', #263 ) ;
#97 = AXIS2_PLACEMENT_3D ( 'NONE', #262, #270, #360 ) ;
#98 = CARTESIAN_POINT ( 'NONE',  ( 0.000000000000000000, 0.000000000000000000, 0.000000000000000000 ) ) ;
#99 = ORIENTED_EDGE ( 'NONE', *, *, #480, .F. ) ;
#100 = EDGE_CURVE ( 'NONE', #319, #31, #50, .T. ) ;
#101 = AXIS2_PLACEMENT_3D ( 'NONE', #216, #206, #361 ) ;
#102 = DIRECTION ( 'NONE',  ( 0.000000000000000000, 0.000000000000000000, -1.000000000000000000 ) ) ;
#103 = VERTEX_POINT ( 'NONE', #118 ) ;
#104 = PRODUCT_CONTEXT ( 'NONE', #477, 'mechanical' ) ;
#105 = CARTESIAN_POINT ( 'NONE',  ( 0.000000000000000000, 1.899999999999999689, 0.000000000000000000 ) ) ;
#106 = CARTESIAN_POINT ( 'NONE',  ( 0.000000000000000000, 2.899999999999999911, 0.000000000000000000 ) ) ;
#107 = CARTESIAN_POINT ( 'NONE',  ( 0.000000000000000000, 0.000000000000000000, 0.000000000000000000 ) ) ;
#108 = CARTESIAN_POINT ( 'NONE',  ( -10.31056024212382738, -0.2267914013723058009, -12.01594252192150769 ) ) ;
#109 = EDGE_CURVE ( 'NONE', #470, #460, #313, .T. ) ;
#110 = CONICAL_SURFACE ( 'NONE', #339, 14.00000000000000000, 0.3204225339290183161 ) ;
#111 = DIRECTION ( 'NONE',  ( -0.000000000000000000, -1.000000000000000000, -0.000000000000000000 ) ) ;
#112 = CARTESIAN_POINT ( 'NONE',  ( -9.646872667024336323, 5.728427124746196419, -13.76471103261719620 ) ) ;
#113 = LINE ( 'NONE', #164, #557 ) ;
#114 = DIRECTION ( 'NONE',  ( 0.000000000000000000, 0.000000000000000000, 1.000000000000000000 ) ) ;
#115 = ORIENTED_EDGE ( 'NONE', *, *, #203, .F. ) ;
#116 = CARTESIAN_POINT ( 'NONE',  ( 0.000000000000000000, -0.2600000000000002864, 0.000000000000000000 ) ) ;
#117 = DIRECTION ( 'NONE',  ( 0.000000000000000000, 0.000000000000000000, -1.000000000000000000 ) ) ;
#118 = CARTESIAN_POINT ( 'NONE',  ( 8.777000652221977006, 2.899999999999999911, 13.25798851828191083 ) ) ;
#119 = AXIS2_PLACEMENT_3D ( 'NONE', #316, #450, #548 ) ;
#120 = CARTESIAN_POINT ( 'NONE',  ( -10.35885250809686298, -0.1599999999999960898, -12.06251112809829884 ) ) ;
#121 = ORIENTED_EDGE ( 'NONE', *, *, #358, .T. ) ;
#122 = VECTOR ( 'NONE', #242, 1000.000000000000000 ) ;
#123 = FACE_OUTER_BOUND ( 'NONE', #429, .T. ) ;
#124 = CYLINDRICAL_SURFACE ( 'NONE', #64, 14.10869565217391219 ) ;
#125 = ADVANCED_FACE ( 'NONE', ( #493 ), #504, .T. ) ;
#126 = LINE ( 'NONE', #456, #518 ) ;
#127 = LINE ( 'NONE', #321, #197 ) ;
#128 = ORIENTED_EDGE ( 'NONE', *, *, #179, .T. ) ;
#129 = CARTESIAN_POINT ( 'NONE',  ( -8.777000652221980559, 2.899999999999999911, -13.25798851828190550 ) ) ;
#130 = FACE_OUTER_BOUND ( 'NONE', #180, .T. ) ;
#131 = ORIENTED_EDGE ( 'NONE', *, *, #249, .F. ) ;
#132 = AXIS2_PLACEMENT_3D ( 'NONE', #221, #323, #599 ) ;
#133 = EDGE_CURVE ( 'NONE', #93, #570, #325, .T. ) ;
#134 = CARTESIAN_POINT ( 'NONE',  ( -8.731792800161665369, -0.2600000000000002864, -13.16798369132665947 ) ) ;
#135 = ORIENTED_EDGE ( 'NONE', *, *, #100, .F. ) ;
#136 = CARTESIAN_POINT ( 'NONE',  ( 8.745381831920486349, -0.2267914013723111577, 13.19881903090200659 ) ) ;
#137 = VERTEX_POINT ( 'NONE', #366 ) ;
#138 = ORIENTED_EDGE ( 'NONE', *, *, #109, .F. ) ;
#139 = ORIENTED_EDGE ( 'NONE', *, *, #346, .T. ) ;
#140 =( NAMED_UNIT ( * ) PLANE_ANGLE_UNIT ( ) SI_UNIT ( $, .RADIAN. ) );
#141 = ADVANCED_FACE ( 'NONE', ( #448, #123 ), #587, .F. ) ;
#142 = CARTESIAN_POINT ( 'NONE',  ( 0.000000000000000000, 2.899999999999999911, 15.90000000000000036 ) ) ;
#143 = ORIENTED_EDGE ( 'NONE', *, *, #320, .T. ) ;
#144 = CIRCLE ( 'NONE', #58, 14.03318584070796504 ) ;
#145 = EDGE_CURVE ( 'NONE', #523, #85, #265, .T. ) ;
#146 = EDGE_LOOP ( 'NONE', ( #230, #464, #183, #276 ) ) ;
#147 = ORIENTED_EDGE ( 'NONE', *, *, #157, .T. ) ;
#148 = DIRECTION ( 'NONE',  ( -0.000000000000000000, 1.000000000000000000, -0.000000000000000000 ) ) ;
#149 = EDGE_CURVE ( 'NONE', #239, #289, #298, .T. ) ;
#150 = CIRCLE ( 'NONE', #315, 15.90000000000000036 ) ;
#151 = ORIENTED_EDGE ( 'NONE', *, *, #453, .F. ) ;
#152 = CARTESIAN_POINT ( 'NONE',  ( 1.727816897057896224E-15, -0.6600000000000008082, -14.10869565217391219 ) ) ;
#153 = CARTESIAN_POINT ( 'NONE',  ( 10.35885250809685942, 1.320000000000000950, 12.06251112809830239 ) ) ;
#154 = FACE_OUTER_BOUND ( 'NONE', #382, .T. ) ;
#155 = VECTOR ( 'NONE', #350, 1000.000000000000000 ) ;
#156 = CARTESIAN_POINT ( 'NONE',  ( 0.000000000000000000, 2.899999999999999911, -14.75000000000000000 ) ) ;
#157 = EDGE_CURVE ( 'NONE', #31, #333, #539, .T. ) ;
#158 = DIRECTION ( 'NONE',  ( 0.000000000000000000, 0.000000000000000000, -1.000000000000000000 ) ) ;
#159 = DIRECTION ( 'NONE',  ( 0.000000000000000000, 1.000000000000000000, 0.000000000000000000 ) ) ;
#160 = CARTESIAN_POINT ( 'NONE',  ( 0.000000000000000000, 2.899999999999999911, -15.90000000000000036 ) ) ;
#161 = PRESENTATION_LAYER_ASSIGNMENT (  '', '', ( #591 ) ) ;
#162 = AXIS2_PLACEMENT_3D ( 'NONE', #380, #324, #328 ) ;
#163 = CYLINDRICAL_SURFACE ( 'NONE', #97, 14.10869565217391219 ) ;
#164 = CARTESIAN_POINT ( 'NONE',  ( 1.885956070686924595E-15, -0.6600000000000003642, -15.40000000000000391 ) ) ;
#165 = CARTESIAN_POINT ( 'NONE',  ( 0.000000000000000000, -0.3600000000000002642, 0.000000000000000000 ) ) ;
#166 = UNCERTAINTY_MEASURE_WITH_UNIT (LENGTH_MEASURE( 1.000000000000000082E-05 ), #51, 'distance_accuracy_value', 'NONE');
#167 = EDGE_CURVE ( 'NONE', #319, #31, #277, .T. ) ;
#168 = DIRECTION ( 'NONE',  ( 0.000000000000000000, 1.000000000000000000, 0.000000000000000000 ) ) ;
#169 = CARTESIAN_POINT ( 'NONE',  ( -8.731792800161665369, -0.2600000000000002864, -13.16798369132665947 ) ) ;
#170 = DIRECTION ( 'NONE',  ( 0.000000000000000000, 0.000000000000000000, 1.000000000000000000 ) ) ;
#171 = CYLINDRICAL_SURFACE ( 'NONE', #364, 1.000000000000002665 ) ;
#172 = VECTOR ( 'NONE', #421, 1000.000000000000000 ) ;
#173 = FACE_OUTER_BOUND ( 'NONE', #49, .T. ) ;
#174 = ORIENTED_EDGE ( 'NONE', *, *, #234, .T. ) ;
#175 = CARTESIAN_POINT ( 'NONE',  ( 0.000000000000000000, 0.000000000000000000, 0.000000000000000000 ) ) ;
#176 = CARTESIAN_POINT ( 'NONE',  ( -8.777000652221980559, -0.1599999999999960898, -13.25798851828190550 ) ) ;
#177 = B_SPLINE_CURVE_WITH_KNOTS ( 'NONE', 3,
 ( #176, #215, #408, #169 ),
 .UNSPECIFIED., .F., .F.,
 ( 4, 4 ),
 ( 6.234162491791650496E-19, 0.0001419317398017518484 ),
 .UNSPECIFIED. ) ;
#178 = VECTOR ( 'NONE', #373, 1000.000000000000000 ) ;
#179 = EDGE_CURVE ( 'NONE', #499, #239, #244, .T. ) ;
#180 = EDGE_LOOP ( 'NONE', ( #260, #227, #338, #415 ) ) ;
#181 =( NAMED_UNIT ( * ) SI_UNIT ( $, .STERADIAN. ) SOLID_ANGLE_UNIT ( ) );
#182 = PRODUCT ( 'Dial Ring Chapter no markers', 'Dial Ring Chapter no markers', '', ( #104 ) ) ;
#183 = ORIENTED_EDGE ( 'NONE', *, *, #27, .T. ) ;
#184 = AXIS2_PLACEMENT_3D ( 'NONE', #69, #307, #486 ) ;
#185 = DIRECTION ( 'NONE',  ( 0.000000000000000000, 1.000000000000000000, 0.000000000000000000 ) ) ;
#186 = VERTEX_POINT ( 'NONE', #554 ) ;
#187 = CARTESIAN_POINT ( 'NONE',  ( -9.646872667024336323, -0.2600000000000002864, -12.76471103261719264 ) ) ;
#188 = ADVANCED_FACE ( 'NONE', ( #372 ), #22, .T. ) ;
#189 = CIRCLE ( 'NONE', #272, 14.03318584070796504 ) ;
#190 = VERTEX_POINT ( 'NONE', #129 ) ;
#191 = ADVANCED_FACE ( 'NONE', ( #34 ), #416, .F. ) ;
#192 = VERTEX_POINT ( 'NONE', #202 ) ;
#193 = FACE_OUTER_BOUND ( 'NONE', #92, .T. ) ;
#194 = CIRCLE ( 'NONE', #532, 15.90000000000000036 ) ;
#195 = VERTEX_POINT ( 'NONE', #152 ) ;
#196 = ORIENTED_EDGE ( 'NONE', *, *, #179, .F. ) ;
#197 = VECTOR ( 'NONE', #500, 1000.000000000000000 ) ;
#198 = AXIS2_PLACEMENT_3D ( 'NONE', #208, #527, #305 ) ;
#199 = PLANE ( 'NONE',  #552 ) ;
#200 = EDGE_LOOP ( 'NONE', ( #269, #55, #384, #516, #135, #433, #562, #73 ) ) ;
#201 = AXIS2_PLACEMENT_3D ( 'NONE', #72, #455, #427 ) ;
#202 = CARTESIAN_POINT ( 'NONE',  ( 0.000000000000000000, -0.6600000000000003642, 15.40000000000000391 ) ) ;
#203 = EDGE_CURVE ( 'NONE', #85, #523, #255, .T. ) ;
#204 = CARTESIAN_POINT ( 'NONE',  ( 1.714505518806294638E-15, -0.3600000000000002642, -14.00000000000000000 ) ) ;
#205 = DIRECTION ( 'NONE',  ( 0.000000000000000000, 1.000000000000000000, 0.000000000000000000 ) ) ;
#206 = DIRECTION ( 'NONE',  ( -0.000000000000000000, -1.000000000000000000, -0.000000000000000000 ) ) ;
#207 = DIRECTION ( 'NONE',  ( 0.000000000000000000, 1.000000000000000000, 0.000000000000000000 ) ) ;
#208 = CARTESIAN_POINT ( 'NONE',  ( 0.000000000000000000, -0.6600000000000008082, 0.000000000000000000 ) ) ;
#209 = CARTESIAN_POINT ( 'NONE',  ( 1.727816897057896224E-15, -10.25999999999999979, -14.10869565217391219 ) ) ;
#210 = CARTESIAN_POINT ( 'NONE',  ( 0.000000000000000000, -0.2600000000000002864, 0.000000000000000000 ) ) ;
#211 = DIRECTION ( 'NONE',  ( 0.000000000000000000, 0.000000000000000000, 1.000000000000000000 ) ) ;
#212 = VECTOR ( 'NONE', #446, 1000.000000000000000 ) ;
#213 = EDGE_CURVE ( 'NONE', #96, #460, #391, .T. ) ;
#214 = DIRECTION ( 'NONE',  ( 0.000000000000000000, 1.000000000000000000, 0.000000000000000000 ) ) ;
#215 = CARTESIAN_POINT ( 'NONE',  ( -8.760479127633322705, -0.1934138480537752891, -13.22885357436246956 ) ) ;
#216 = CARTESIAN_POINT ( 'NONE',  ( 0.000000000000000000, 0.000000000000000000, 0.000000000000000000 ) ) ;
#217 = DIRECTION ( 'NONE',  ( 0.000000000000000000, 0.000000000000000000, 1.000000000000000000 ) ) ;
#218 = LINE ( 'NONE', #112, #443 ) ;
#219 = DIRECTION ( 'NONE',  ( 0.000000000000000000, 1.000000000000000000, 0.000000000000000000 ) ) ;
#220 = ORIENTED_EDGE ( 'NONE', *, *, #595, .T. ) ;
#221 = CARTESIAN_POINT ( 'NONE',  ( 0.000000000000000000, -0.6600000000000003642, 0.000000000000000000 ) ) ;
#222 = DIRECTION ( 'NONE',  ( 0.000000000000000000, 0.000000000000000000, -1.000000000000000000 ) ) ;
#223 = AXIS2_PLACEMENT_3D ( 'NONE', #15, #21, #211 ) ;
#224 = ORIENTED_EDGE ( 'NONE', *, *, #145, .T. ) ;
#225 = ADVANCED_FACE ( 'NONE', ( #268 ), #171, .T. ) ;
#226 = PRODUCT_DEFINITION_SHAPE ( 'NONE', 'NONE',  #266 ) ;
#227 = ORIENTED_EDGE ( 'NONE', *, *, #560, .T. ) ;
#228 = LINE ( 'NONE', #84, #172 ) ;
#229 = AXIS2_PLACEMENT_3D ( 'NONE', #75, #219, #590 ) ;
#230 = ORIENTED_EDGE ( 'NONE', *, *, #281, .T. ) ;
#231 = CIRCLE ( 'NONE', #511, 14.10869565217391219 ) ;
#232 = DIRECTION ( 'NONE',  ( 0.000000000000000000, 1.000000000000000000, 0.000000000000000000 ) ) ;
#233 = ORIENTED_EDGE ( 'NONE', *, *, #480, .T. ) ;
#234 = EDGE_CURVE ( 'NONE', #195, #93, #306, .T. ) ;
#235 = ORIENTED_EDGE ( 'NONE', *, *, #213, .F. ) ;
#236 = VERTEX_POINT ( 'NONE', #592 ) ;
#237 = PLANE ( 'NONE',  #437 ) ;
#238 = AXIS2_PLACEMENT_3D ( 'NONE', #106, #478, #251 ) ;
#239 = VERTEX_POINT ( 'NONE', #26 ) ;
#240 = ORIENTED_EDGE ( 'NONE', *, *, #463, .T. ) ;
#241 = CARTESIAN_POINT ( 'NONE',  ( 0.000000000000000000, -0.2600000000000002864, 14.10869565217391219 ) ) ;
#242 = DIRECTION ( 'NONE',  ( -0.000000000000000000, 1.000000000000000000, -0.000000000000000000 ) ) ;
#243 = ORIENTED_EDGE ( 'NONE', *, *, #510, .T. ) ;
#244 = CIRCLE ( 'NONE', #581, 15.90000000000000036 ) ;
#245 = ADVANCED_FACE ( 'NONE', ( #173 ), #412, .F. ) ;
#246 = SHAPE_DEFINITION_REPRESENTATION ( #226, #41 ) ;
#247 = CONICAL_SURFACE ( 'NONE', #584, 14.00000000000000000, 0.3204225339290183161 ) ;
#248 = ORIENTED_EDGE ( 'NONE', *, *, #595, .F. ) ;
#249 = EDGE_CURVE ( 'NONE', #458, #12, #218, .T. ) ;
#250 = COLOUR_RGB ( '',0.7921568627450980005, 0.8196078431372548767, 0.9333333333333333481 ) ;
#251 = DIRECTION ( 'NONE',  ( 0.000000000000000000, 0.000000000000000000, -1.000000000000000000 ) ) ;
#252 = DIRECTION ( 'NONE',  ( 0.000000000000000000, 0.000000000000000000, 1.000000000000000000 ) ) ;
#253 = CARTESIAN_POINT ( 'NONE',  ( -10.33533346795049823, -0.1934138480537832550, -12.03866452493314654 ) ) ;
#254 = DIRECTION ( 'NONE',  ( -0.000000000000000000, -1.000000000000000000, -0.000000000000000000 ) ) ;
#255 = CIRCLE ( 'NONE', #571, 14.75000000000000000 ) ;
#256 = DIRECTION ( 'NONE',  ( -0.000000000000000000, 1.000000000000000000, -0.000000000000000000 ) ) ;
#257 = CARTESIAN_POINT ( 'NONE',  ( 0.000000000000000000, -0.3600000000000002642, 14.00000000000000000 ) ) ;
#258 = DIRECTION ( 'NONE',  ( -0.000000000000000000, 1.000000000000000000, -0.000000000000000000 ) ) ;
#259 = AXIS2_PLACEMENT_3D ( 'NONE', #531, #254, #24 ) ;
#260 = ORIENTED_EDGE ( 'NONE', *, *, #275, .F. ) ;
#261 = DIRECTION ( 'NONE',  ( 0.000000000000000000, 0.000000000000000000, 1.000000000000000000 ) ) ;
#262 = CARTESIAN_POINT ( 'NONE',  ( 0.000000000000000000, -10.25999999999999979, 0.000000000000000000 ) ) ;
#263 = CARTESIAN_POINT ( 'NONE',  ( 1.806354028742345802E-15, 1.899999999999999689, -14.75000000000000000 ) ) ;
#264 = LINE ( 'NONE', #452, #155 ) ;
#265 = CIRCLE ( 'NONE', #529, 14.75000000000000000 ) ;
#266 = PRODUCT_DEFINITION ( 'UNKNOWN', '', #375, #489 ) ;
#267 = CARTESIAN_POINT ( 'NONE',  ( 10.31056024212382383, -0.2267914013723055788, 12.01594252192150947 ) ) ;
#268 = FACE_OUTER_BOUND ( 'NONE', #513, .T. ) ;
#269 = ORIENTED_EDGE ( 'NONE', *, *, #295, .F. ) ;
#270 = DIRECTION ( 'NONE',  ( -0.000000000000000000, 1.000000000000000000, -0.000000000000000000 ) ) ;
#271 = ORIENTED_EDGE ( 'NONE', *, *, #340, .F. ) ;
#272 = AXIS2_PLACEMENT_3D ( 'NONE', #474, #148, #44 ) ;
#273 = ADVANCED_FACE ( 'NONE', ( #367 ), #163, .F. ) ;
#274 = CARTESIAN_POINT ( 'NONE',  ( 10.35885250809685942, -0.1599999999999960898, 12.06251112809830239 ) ) ;
#275 = EDGE_CURVE ( 'NONE', #457, #546, #126, .T. ) ;
#276 = ORIENTED_EDGE ( 'NONE', *, *, #300, .F. ) ;
#277 = CIRCLE ( 'NONE', #81, 1.000000000000002665 ) ;
#278 = CARTESIAN_POINT ( 'NONE',  ( 8.777000652221977006, -0.1599999999999960898, 13.25798851828191083 ) ) ;
#279 = VECTOR ( 'NONE', #207, 1000.000000000000000 ) ;
#280 = ORIENTED_EDGE ( 'NONE', *, *, #357, .T. ) ;
#281 = EDGE_CURVE ( 'NONE', #190, #457, #601, .T. ) ;
#282 = AXIS2_PLACEMENT_3D ( 'NONE', #175, #521, #389 ) ;
#283 = EDGE_LOOP ( 'NONE', ( #390, #220 ) ) ;
#284 = CLOSED_SHELL ( 'NONE', ( #188, #273, #225, #568, #441, #47, #431, #74, #502, #410, #573, #191, #54, #438, #46, #245, #294, #141, #125 ) ) ;
#285 = SURFACE_SIDE_STYLE ('',( #430 ) ) ;
#286 = AXIS2_PLACEMENT_3D ( 'NONE', #187, #559, #468 ) ;
#287 = ORIENTED_EDGE ( 'NONE', *, *, #401, .T. ) ;
#288 = FILL_AREA_STYLE ('',( #563 ) ) ;
#289 = VERTEX_POINT ( 'NONE', #370 ) ;
#290 = ORIENTED_EDGE ( 'NONE', *, *, #36, .T. ) ;
#291 = DIRECTION ( 'NONE',  ( 0.000000000000000000, -1.000000000000000000, -0.000000000000000000 ) ) ;
#292 = LINE ( 'NONE', #473, #122 ) ;
#293 = EDGE_LOOP ( 'NONE', ( #512, #467, #317, #507, #147, #29 ) ) ;
#294 = ADVANCED_FACE ( 'NONE', ( #588 ), #124, .F. ) ;
#295 = EDGE_CURVE ( 'NONE', #517, #192, #38, .T. ) ;
#296 = APPLICATION_PROTOCOL_DEFINITION ( 'draft international standard', 'automotive_design', 1998, #572 ) ;
#297 = CARTESIAN_POINT ( 'NONE',  ( -9.646872667024336323, 2.899999999999999911, -12.76471103261719264 ) ) ;
#298 = CIRCLE ( 'NONE', #434, 15.90000000000000036 ) ;
#299 = FACE_BOUND ( 'NONE', #471, .T. ) ;
#300 = EDGE_CURVE ( 'NONE', #190, #186, #445, .T. ) ;
#301 = DIRECTION ( 'NONE',  ( -0.000000000000000000, -1.000000000000000000, -0.000000000000000000 ) ) ;
#302 = DIRECTION ( 'NONE',  ( 0.000000000000000000, 1.000000000000000000, 0.000000000000000000 ) ) ;
#303 = DIRECTION ( 'NONE',  ( -0.000000000000000000, -1.000000000000000000, -0.000000000000000000 ) ) ;
#304 = CARTESIAN_POINT ( 'NONE',  ( 0.000000000000000000, -0.6600000000000008082, 0.000000000000000000 ) ) ;
#305 = DIRECTION ( 'NONE',  ( 0.000000000000000000, 0.000000000000000000, 1.000000000000000000 ) ) ;
#306 = LINE ( 'NONE', #209, #178 ) ;
#307 = DIRECTION ( 'NONE',  ( 0.000000000000000000, 1.000000000000000000, 0.000000000000000000 ) ) ;
#308 = DIRECTION ( 'NONE',  ( 0.000000000000000000, 0.000000000000000000, -1.000000000000000000 ) ) ;
#309 = ORIENTED_EDGE ( 'NONE', *, *, #3, .F. ) ;
#310 = DIRECTION ( 'NONE',  ( 0.000000000000000000, -0.000000000000000000, 1.000000000000000000 ) ) ;
#311 = AXIS2_PLACEMENT_3D ( 'NONE', #105, #61, #414 ) ;
#312 = CARTESIAN_POINT ( 'NONE',  ( -10.28460494471004516, -0.2600000000000002864, -11.99445293171996596 ) ) ;
#313 = LINE ( 'NONE', #257, #212 ) ;
#314 = CARTESIAN_POINT ( 'NONE',  ( 1.806354028742345802E-15, 0.000000000000000000, 14.75000000000000000 ) ) ;
#315 = AXIS2_PLACEMENT_3D ( 'NONE', #11, #578, #252 ) ;
#316 = CARTESIAN_POINT ( 'NONE',  ( 0.000000000000000000, -0.6600000000000003642, 0.000000000000000000 ) ) ;
#317 = ORIENTED_EDGE ( 'NONE', *, *, #369, .T. ) ;
#318 = CARTESIAN_POINT ( 'NONE',  ( -8.777000652221980559, 1.320000000000000950, -13.25798851828190550 ) ) ;
#319 = VERTEX_POINT ( 'NONE', #28 ) ;
#320 = EDGE_CURVE ( 'NONE', #499, #137, #127, .T. ) ;
#321 = CARTESIAN_POINT ( 'NONE',  ( -10.35885250809686298, 1.320000000000000950, -12.06251112809829884 ) ) ;
#322 = ORIENTED_EDGE ( 'NONE', *, *, #392, .F. ) ;
#323 = DIRECTION ( 'NONE',  ( 0.000000000000000000, 1.000000000000000000, 0.000000000000000000 ) ) ;
#324 = DIRECTION ( 'NONE',  ( -0.000000000000000000, -1.000000000000000000, -0.000000000000000000 ) ) ;
#325 = CIRCLE ( 'NONE', #475, 14.10869565217391219 ) ;
#326 = ORIENTED_EDGE ( 'NONE', *, *, #133, .F. ) ;
#327 = DIRECTION ( 'NONE',  ( 0.000000000000000000, 0.000000000000000000, -1.000000000000000000 ) ) ;
#328 = DIRECTION ( 'NONE',  ( 0.000000000000000000, 0.000000000000000000, -1.000000000000000000 ) ) ;
#329 = VECTOR ( 'NONE', #586, 1000.000000000000000 ) ;
#330 = EDGE_CURVE ( 'NONE', #542, #103, #374, .T. ) ;
#331 = ORIENTED_EDGE ( 'NONE', *, *, #401, .F. ) ;
#332 = PRESENTATION_STYLE_ASSIGNMENT (( #378 ) ) ;
#333 = VERTEX_POINT ( 'NONE', #274 ) ;
#334 = VERTEX_POINT ( 'NONE', #312 ) ;
#335 = ORIENTED_EDGE ( 'NONE', *, *, #32, .T. ) ;
#336 = AXIS2_PLACEMENT_3D ( 'NONE', #544, #365, #490 ) ;
#337 =( NAMED_UNIT ( * ) SI_UNIT ( $, .STERADIAN. ) SOLID_ANGLE_UNIT ( ) );
#338 = ORIENTED_EDGE ( 'NONE', *, *, #492, .F. ) ;
#339 = AXIS2_PLACEMENT_3D ( 'NONE', #404, #302, #57 ) ;
#340 = EDGE_CURVE ( 'NONE', #103, #137, #413, .T. ) ;
#341 = ORIENTED_EDGE ( 'NONE', *, *, #14, .T. ) ;
#342 = APPLICATION_PROTOCOL_DEFINITION ( 'draft international standard', 'automotive_design', 1998, #477 ) ;
#343 = AXIS2_PLACEMENT_3D ( 'NONE', #23, #77, #117 ) ;
#344 = AXIS2_PLACEMENT_3D ( 'NONE', #444, #111, #158 ) ;
#345 = ORIENTED_EDGE ( 'NONE', *, *, #536, .F. ) ;
#346 = EDGE_CURVE ( 'NONE', #186, #426, #177, .T. ) ;
#347 = FACE_OUTER_BOUND ( 'NONE', #549, .T. ) ;
#348 = ORIENTED_EDGE ( 'NONE', *, *, #346, .F. ) ;
#349 = CARTESIAN_POINT ( 'NONE',  ( 0.000000000000000000, 2.899999999999999911, 0.000000000000000000 ) ) ;
#350 = DIRECTION ( 'NONE',  ( -0.000000000000000000, -1.000000000000000000, -0.000000000000000000 ) ) ;
#351 = FACE_OUTER_BOUND ( 'NONE', #146, .T. ) ;
#352 = FACE_OUTER_BOUND ( 'NONE', #89, .T. ) ;
#353 = CYLINDRICAL_SURFACE ( 'NONE', #423, 1.000000000000002665 ) ;
#354 = DIRECTION ( 'NONE',  ( 0.000000000000000000, 0.000000000000000000, 1.000000000000000000 ) ) ;
#355 = CARTESIAN_POINT ( 'NONE',  ( 0.000000000000000000, 1.899999999999999689, 14.75000000000000000 ) ) ;
#356 = AXIS2_PLACEMENT_3D ( 'NONE', #304, #541, #442 ) ;
#357 = EDGE_CURVE ( 'NONE', #137, #458, #42, .T. ) ;
#358 = EDGE_CURVE ( 'NONE', #426, #12, #394, .T. ) ;
#359 = CARTESIAN_POINT ( 'NONE',  ( 10.28460494471003983, -0.2600000000000002864, 11.99445293171996774 ) ) ;
#360 = DIRECTION ( 'NONE',  ( 0.000000000000000000, 0.000000000000000000, 1.000000000000000000 ) ) ;
#361 = DIRECTION ( 'NONE',  ( 0.000000000000000000, 0.000000000000000000, -1.000000000000000000 ) ) ;
#362 = DIRECTION ( 'NONE',  ( 3.857240836198567488E-17, 0.9491024183057669150, -0.3149676166943912725 ) ) ;
#363 = ORIENTED_EDGE ( 'NONE', *, *, #149, .T. ) ;
#364 = AXIS2_PLACEMENT_3D ( 'NONE', #19, #583, #547 ) ;
#365 = DIRECTION ( 'NONE',  ( -0.000000000000000000, -1.000000000000000000, -0.000000000000000000 ) ) ;
#366 = CARTESIAN_POINT ( 'NONE',  ( -10.35885250809683633, 2.899999999999999911, -12.06251112809832549 ) ) ;
#367 = FACE_OUTER_BOUND ( 'NONE', #37, .T. ) ;
#368 = VERTEX_POINT ( 'NONE', #425 ) ;
#369 = EDGE_CURVE ( 'NONE', #289, #319, #533, .T. ) ;
#370 = CARTESIAN_POINT ( 'NONE',  ( 8.777000652221977006, -0.1599999999999960898, 13.25798851828191083 ) ) ;
#371 = ORIENTED_EDGE ( 'NONE', *, *, #167, .F. ) ;
#372 = FACE_OUTER_BOUND ( 'NONE', #200, .T. ) ;
#373 = DIRECTION ( 'NONE',  ( -0.000000000000000000, 1.000000000000000000, -0.000000000000000000 ) ) ;
#374 = CIRCLE ( 'NONE', #343, 1.000000000000002665 ) ;
#375 = PRODUCT_DEFINITION_FORMATION_WITH_SPECIFIED_SOURCE ( 'ANY', '', #182, .NOT_KNOWN. ) ;
#376 = ORIENTED_EDGE ( 'NONE', *, *, #100, .T. ) ;
#377 = DIRECTION ( 'NONE',  ( -0.000000000000000000, -1.000000000000000000, -0.000000000000000000 ) ) ;
#378 = SURFACE_STYLE_USAGE ( .BOTH. , #285 ) ;
#379 = ORIENTED_EDGE ( 'NONE', *, *, #281, .F. ) ;
#380 = CARTESIAN_POINT ( 'NONE',  ( 0.000000000000000000, 0.000000000000000000, 0.000000000000000000 ) ) ;
#381 = EDGE_LOOP ( 'NONE', ( #2, #498, #43, #196, #151, #345, #348, #5 ) ) ;
#382 = EDGE_LOOP ( 'NONE', ( #131, #387, #79, #139, #121 ) ) ;
#383 = CARTESIAN_POINT ( 'NONE',  ( 8.731792800161658263, -0.2600000000000002864, 13.16798369132666480 ) ) ;
#384 = ORIENTED_EDGE ( 'NONE', *, *, #469, .F. ) ;
#385 = ORIENTED_EDGE ( 'NONE', *, *, #14, .F. ) ;
#386 = EDGE_CURVE ( 'NONE', #12, #334, #545, .T. ) ;
#387 = ORIENTED_EDGE ( 'NONE', *, *, #3, .T. ) ;
#388 = AXIS2_PLACEMENT_3D ( 'NONE', #1, #185, #60 ) ;
#389 = DIRECTION ( 'NONE',  ( 0.000000000000000000, 0.000000000000000000, -1.000000000000000000 ) ) ;
#390 = ORIENTED_EDGE ( 'NONE', *, *, #525, .T. ) ;
#391 = CIRCLE ( 'NONE', #311, 14.75000000000000000 ) ;
#392 = EDGE_CURVE ( 'NONE', #460, #96, #515, .T. ) ;
#393 = AXIS2_PLACEMENT_3D ( 'NONE', #297, #301, #48 ) ;
#394 = CIRCLE ( 'NONE', #201, 1.000000000000002665 ) ;
#395 = DIRECTION ( 'NONE',  ( 0.000000000000000000, 0.000000000000000000, -1.000000000000000000 ) ) ;
#396 = CARTESIAN_POINT ( 'NONE',  ( 0.000000000000000000, -0.2600000000000002864, 0.000000000000000000 ) ) ;
#397 = LINE ( 'NONE', #314, #329 ) ;
#398 = DIRECTION ( 'NONE',  ( 0.000000000000000000, 0.000000000000000000, -1.000000000000000000 ) ) ;
#399 = DIRECTION ( 'NONE',  ( 0.000000000000000000, 0.000000000000000000, 1.000000000000000000 ) ) ;
#400 = CARTESIAN_POINT ( 'NONE',  ( 0.000000000000000000, -0.2600000000000002864, 0.000000000000000000 ) ) ;
#401 = EDGE_CURVE ( 'NONE', #523, #96, #228, .T. ) ;
#402 = CARTESIAN_POINT ( 'NONE',  ( 10.28460494471003983, -0.2600000000000002864, 11.99445293171996774 ) ) ;
#403 = DIRECTION ( 'NONE',  ( 0.000000000000000000, 0.000000000000000000, 1.000000000000000000 ) ) ;
#404 = CARTESIAN_POINT ( 'NONE',  ( 0.000000000000000000, -0.3600000000000002642, 0.000000000000000000 ) ) ;
#405 = ORIENTED_EDGE ( 'NONE', *, *, #510, .F. ) ;
#406 = UNCERTAINTY_MEASURE_WITH_UNIT (LENGTH_MEASURE( 1.000000000000000082E-05 ), #35, 'distance_accuracy_value', 'NONE');
#407 = DIRECTION ( 'NONE',  ( 0.000000000000000000, 0.000000000000000000, -1.000000000000000000 ) ) ;
#408 = CARTESIAN_POINT ( 'NONE',  ( -8.745381831920491678, -0.2267914013723095201, -13.19881903090200126 ) ) ;
#409 = MANIFOLD_SOLID_BREP ( 'Chamfer2', #284 ) ;
#410 = ADVANCED_FACE ( 'NONE', ( #82, #465 ), #237, .F. ) ;
#411 = CARTESIAN_POINT ( 'NONE',  ( 0.000000000000000000, -0.1599999999999963951, 0.000000000000000000 ) ) ;
#412 = PLANE ( 'NONE',  #229 ) ;
#413 = CIRCLE ( 'NONE', #479, 15.90000000000000036 ) ;
#414 = DIRECTION ( 'NONE',  ( 0.000000000000000000, 0.000000000000000000, -1.000000000000000000 ) ) ;
#415 = ORIENTED_EDGE ( 'NONE', *, *, #469, .T. ) ;
#416 = CYLINDRICAL_SURFACE ( 'NONE', #282, 14.75000000000000000 ) ;
#417 = CIRCLE ( 'NONE', #356, 14.10869565217391219 ) ;
#418 = CARTESIAN_POINT ( 'NONE',  ( 0.000000000000000000, -10.25999999999999979, 0.000000000000000000 ) ) ;
#419 = ORIENTED_EDGE ( 'NONE', *, *, #525, .F. ) ;
#420 = ORIENTED_EDGE ( 'NONE', *, *, #320, .F. ) ;
#421 = DIRECTION ( 'NONE',  ( -0.000000000000000000, -1.000000000000000000, -0.000000000000000000 ) ) ;
#422 = AXIS2_PLACEMENT_3D ( 'NONE', #68, #485, #496 ) ;
#423 = AXIS2_PLACEMENT_3D ( 'NONE', #440, #16, #398 ) ;
#424 = ORIENTED_EDGE ( 'NONE', *, *, #386, .T. ) ;
#425 = CARTESIAN_POINT ( 'NONE',  ( 1.762461820454321280E-15, -0.2600000000000002864, -14.03318584070796504 ) ) ;
#426 = VERTEX_POINT ( 'NONE', #134 ) ;
#427 = DIRECTION ( 'NONE',  ( 0.000000000000000000, 0.000000000000000000, 1.000000000000000000 ) ) ;
#428 = ORIENTED_EDGE ( 'NONE', *, *, #463, .F. ) ;
#429 = EDGE_LOOP ( 'NONE', ( #569, #326 ) ) ;
#430 = SURFACE_STYLE_FILL_AREA ( #288 ) ;
#431 = ADVANCED_FACE ( 'NONE', ( #130 ), #4, .T. ) ;
#432 = AXIS2_PLACEMENT_3D ( 'NONE', #567, #522, #519 ) ;
#433 = ORIENTED_EDGE ( 'NONE', *, *, #369, .F. ) ;
#434 = AXIS2_PLACEMENT_3D ( 'NONE', #543, #168, #261 ) ;
#435 = EDGE_LOOP ( 'NONE', ( #405, #600, #287, #594 ) ) ;
#436 = ORIENTED_EDGE ( 'NONE', *, *, #340, .T. ) ;
#437 = AXIS2_PLACEMENT_3D ( 'NONE', #462, #232, #553 ) ;
#438 = ADVANCED_FACE ( 'NONE', ( #506 ), #503, .F. ) ;
#439 = FACE_OUTER_BOUND ( 'NONE', #40, .T. ) ;
#440 = CARTESIAN_POINT ( 'NONE',  ( 9.646872667024325665, 5.728427124746196419, 12.76471103261718909 ) ) ;
#441 = ADVANCED_FACE ( 'NONE', ( #352 ), #247, .F. ) ;
#442 = DIRECTION ( 'NONE',  ( 0.000000000000000000, 0.000000000000000000, 1.000000000000000000 ) ) ;
#443 = VECTOR ( 'NONE', #597, 1000.000000000000000 ) ;
#444 = CARTESIAN_POINT ( 'NONE',  ( -9.646872667024336323, 5.728427124746196419, -12.76471103261719264 ) ) ;
#445 = LINE ( 'NONE', #318, #488 ) ;
#446 = DIRECTION ( 'NONE',  ( 0.000000000000000000, 0.9491024183057669150, 0.3149676166943912725 ) ) ;
#447 = CARTESIAN_POINT ( 'NONE',  ( -10.35885250809686298, -0.1599999999999960898, -12.06251112809829884 ) ) ;
#448 = FACE_BOUND ( 'NONE', #283, .T. ) ;
#449 = AXIS2_PLACEMENT_3D ( 'NONE', #20, #451, #399 ) ;
#450 = DIRECTION ( 'NONE',  ( -0.000000000000000000, -1.000000000000000000, -0.000000000000000000 ) ) ;
#451 = DIRECTION ( 'NONE',  ( 0.000000000000000000, 1.000000000000000000, 0.000000000000000000 ) ) ;
#452 = CARTESIAN_POINT ( 'NONE',  ( 8.777000652221977006, 1.320000000000000950, 13.25798851828191083 ) ) ;
#453 = EDGE_CURVE ( 'NONE', #334, #499, #596, .T. ) ;
#454 = CARTESIAN_POINT ( 'NONE',  ( 10.35885250809685942, -0.1599999999999960898, 12.06251112809830239 ) ) ;
#455 = DIRECTION ( 'NONE',  ( 0.000000000000000000, 1.000000000000000000, 0.000000000000000000 ) ) ;
#456 = CARTESIAN_POINT ( 'NONE',  ( 0.000000000000000000, 0.000000000000000000, -15.90000000000000036 ) ) ;
#457 = VERTEX_POINT ( 'NONE', #160 ) ;
#458 = VERTEX_POINT ( 'NONE', #535 ) ;
#459 = CARTESIAN_POINT ( 'NONE',  ( 0.000000000000000000, 2.899999999999999911, 0.000000000000000000 ) ) ;
#460 = VERTEX_POINT ( 'NONE', #355 ) ;
#461 = EDGE_LOOP ( 'NONE', ( #8, #428, #341, #290 ) ) ;
#462 = CARTESIAN_POINT ( 'NONE',  ( 0.000000000000000000, -0.6600000000000003642, 14.00000000000000000 ) ) ;
#463 = EDGE_CURVE ( 'NONE', #236, #195, #417, .T. ) ;
#464 = ORIENTED_EDGE ( 'NONE', *, *, #275, .T. ) ;
#465 = FACE_BOUND ( 'NONE', #561, .T. ) ;
#466 = CIRCLE ( 'NONE', #198, 14.10869565217391219 ) ;
#467 = ORIENTED_EDGE ( 'NONE', *, *, #551, .T. ) ;
#468 = DIRECTION ( 'NONE',  ( 0.000000000000000000, 0.000000000000000000, 1.000000000000000000 ) ) ;
#469 = EDGE_CURVE ( 'NONE', #333, #546, #194, .T. ) ;
#470 = VERTEX_POINT ( 'NONE', #65 ) ;
#471 = EDGE_LOOP ( 'NONE', ( #224, #78 ) ) ;
#472 = AXIS2_PLACEMENT_3D ( 'NONE', #98, #13, #395 ) ;
#473 = CARTESIAN_POINT ( 'NONE',  ( 0.000000000000000000, -10.25999999999999979, 14.10869565217391219 ) ) ;
#474 = CARTESIAN_POINT ( 'NONE',  ( 0.000000000000000000, -0.2600000000000002864, 0.000000000000000000 ) ) ;
#475 = AXIS2_PLACEMENT_3D ( 'NONE', #210, #159, #354 ) ;
#476 = LINE ( 'NONE', #52, #491 ) ;
#477 = APPLICATION_CONTEXT ( 'automotive_design' ) ;
#478 = DIRECTION ( 'NONE',  ( -0.000000000000000000, -1.000000000000000000, -0.000000000000000000 ) ) ;
#479 = AXIS2_PLACEMENT_3D ( 'NONE', #459, #30, #222 ) ;
#480 = EDGE_CURVE ( 'NONE', #368, #96, #17, .T. ) ;
#481 = CYLINDRICAL_SURFACE ( 'NONE', #344, 1.000000000000002665 ) ;
#482 = CIRCLE ( 'NONE', #223, 15.79999999999999893 ) ;
#483 = CARTESIAN_POINT ( 'NONE',  ( 1.916572240665607987E-15, -0.6600000000000003642, -15.40000000000000391 ) ) ;
#484 = DIRECTION ( 'NONE',  ( 0.000000000000000000, 0.000000000000000000, -1.000000000000000000 ) ) ;
#485 = DIRECTION ( 'NONE',  ( -0.000000000000000000, -1.000000000000000000, -0.000000000000000000 ) ) ;
#486 = DIRECTION ( 'NONE',  ( 0.000000000000000000, 0.000000000000000000, 1.000000000000000000 ) ) ;
#487 = DIRECTION ( 'NONE',  ( 0.000000000000000000, 1.000000000000000000, 0.000000000000000000 ) ) ;
#488 = VECTOR ( 'NONE', #497, 1000.000000000000000 ) ;
#489 = PRODUCT_DEFINITION_CONTEXT ( 'detailed design', #572, 'design' ) ;
#490 = DIRECTION ( 'NONE',  ( 0.000000000000000000, 0.000000000000000000, -1.000000000000000000 ) ) ;
#491 = VECTOR ( 'NONE', #56, 999.9999999999998863 ) ;
#492 = EDGE_CURVE ( 'NONE', #333, #542, #574, .T. ) ;
#493 = FACE_OUTER_BOUND ( 'NONE', #381, .T. ) ;
#494 = CARTESIAN_POINT ( 'NONE',  ( 10.35885250809683455, 2.899999999999999911, 12.06251112809832904 ) ) ;
#495 = CARTESIAN_POINT ( 'NONE',  ( 0.000000000000000000, 2.899999999999999911, 0.000000000000000000 ) ) ;
#496 = DIRECTION ( 'NONE',  ( 0.000000000000000000, 0.000000000000000000, -1.000000000000000000 ) ) ;
#497 = DIRECTION ( 'NONE',  ( -0.000000000000000000, -1.000000000000000000, -0.000000000000000000 ) ) ;
#498 = ORIENTED_EDGE ( 'NONE', *, *, #62, .F. ) ;
#499 = VERTEX_POINT ( 'NONE', #120 ) ;
#500 = DIRECTION ( 'NONE',  ( 0.000000000000000000, 1.000000000000000000, 0.000000000000000000 ) ) ;
#501 = EDGE_LOOP ( 'NONE', ( #371, #376 ) ) ;
#502 = ADVANCED_FACE ( 'NONE', ( #439 ), #110, .F. ) ;
#503 = PLANE ( 'NONE',  #388 ) ;
#504 = CONICAL_SURFACE ( 'NONE', #449, 15.40000000000000391, 0.7853981633974412846 ) ;
#505 = ORIENTED_EDGE ( 'NONE', *, *, #109, .T. ) ;
#506 = FACE_OUTER_BOUND ( 'NONE', #501, .T. ) ;
#507 = ORIENTED_EDGE ( 'NONE', *, *, #167, .T. ) ;
#508 = CARTESIAN_POINT ( 'NONE',  ( 8.760479127633317376, -0.1934138480537753169, 13.22885357436247311 ) ) ;
#509 = MECHANICAL_DESIGN_GEOMETRIC_PRESENTATION_REPRESENTATION (  '', ( #591 ), #33 ) ;
#510 = EDGE_CURVE ( 'NONE', #85, #460, #397, .T. ) ;
#511 = AXIS2_PLACEMENT_3D ( 'NONE', #396, #205, #575 ) ;
#512 = ORIENTED_EDGE ( 'NONE', *, *, #330, .T. ) ;
#513 = EDGE_LOOP ( 'NONE', ( #280, #598, #424, #550, #143 ) ) ;
#514 = DIRECTION ( 'NONE',  ( -0.000000000000000000, -1.000000000000000000, -0.000000000000000000 ) ) ;
#515 = CIRCLE ( 'NONE', #88, 14.75000000000000000 ) ;
#516 = ORIENTED_EDGE ( 'NONE', *, *, #157, .F. ) ;
#517 = VERTEX_POINT ( 'NONE', #483 ) ;
#518 = VECTOR ( 'NONE', #538, 1000.000000000000000 ) ;
#519 = DIRECTION ( 'NONE',  ( 1.000000000000000000, 0.000000000000000000, 0.000000000000000000 ) ) ;
#520 = AXIS2_PLACEMENT_3D ( 'NONE', #116, #214, #310 ) ;
#521 = DIRECTION ( 'NONE',  ( -0.000000000000000000, -1.000000000000000000, -0.000000000000000000 ) ) ;
#522 = DIRECTION ( 'NONE',  ( 0.000000000000000000, 0.000000000000000000, 1.000000000000000000 ) ) ;
#523 = VERTEX_POINT ( 'NONE', #156 ) ;
#524 = DIRECTION ( 'NONE',  ( 0.000000000000000000, 1.000000000000000000, 0.000000000000000000 ) ) ;
#525 = EDGE_CURVE ( 'NONE', #470, #368, #144, .T. ) ;
#526 = CIRCLE ( 'NONE', #238, 15.90000000000000036 ) ;
#527 = DIRECTION ( 'NONE',  ( 0.000000000000000000, 1.000000000000000000, 0.000000000000000000 ) ) ;
#528 = CARTESIAN_POINT ( 'NONE',  ( 0.000000000000000000, -0.1599999999999963951, 0.000000000000000000 ) ) ;
#529 = AXIS2_PLACEMENT_3D ( 'NONE', #495, #71, #407 ) ;
#530 = PRODUCT_RELATED_PRODUCT_CATEGORY ( 'part', '', ( #182 ) ) ;
#531 = CARTESIAN_POINT ( 'NONE',  ( 0.000000000000000000, -0.6600000000000003642, 0.000000000000000000 ) ) ;
#532 = AXIS2_PLACEMENT_3D ( 'NONE', #528, #487, #114 ) ;
#533 = B_SPLINE_CURVE_WITH_KNOTS ( 'NONE', 3,
 ( #278, #508, #136, #383 ),
 .UNSPECIFIED., .F., .F.,
 ( 4, 4 ),
 ( 1.355252715606880543E-19, 0.0001419317398017510624 ),
 .UNSPECIFIED. ) ;
#534 = CARTESIAN_POINT ( 'NONE',  ( 1.727816897057896224E-15, -0.2600000000000002864, -14.10869565217391219 ) ) ;
#535 = CARTESIAN_POINT ( 'NONE',  ( -9.646872667024336323, 2.899999999999999911, -13.76471103261719620 ) ) ;
#536 = EDGE_CURVE ( 'NONE', #426, #334, #482, .T. ) ;
#537 = DIRECTION ( 'NONE',  ( 0.000000000000000000, 1.000000000000000000, 0.000000000000000000 ) ) ;
#538 = DIRECTION ( 'NONE',  ( -0.000000000000000000, -1.000000000000000000, -0.000000000000000000 ) ) ;
#539 = B_SPLINE_CURVE_WITH_KNOTS ( 'NONE', 3,
 ( #359, #267, #67, #454 ),
 .UNSPECIFIED., .F., .F.,
 ( 4, 4 ),
 ( 5.421010862427522170E-20, 0.0001419317398017527700 ),
 .UNSPECIFIED. ) ;
#540 = DIRECTION ( 'NONE',  ( 8.659560562354873694E-17, 0.7071067811865525687, -0.7071067811865425767 ) ) ;
#541 = DIRECTION ( 'NONE',  ( 0.000000000000000000, 1.000000000000000000, 0.000000000000000000 ) ) ;
#542 = VERTEX_POINT ( 'NONE', #494 ) ;
#543 = CARTESIAN_POINT ( 'NONE',  ( 0.000000000000000000, -0.1599999999999963951, 0.000000000000000000 ) ) ;
#544 = CARTESIAN_POINT ( 'NONE',  ( -9.646872667024336323, 2.899999999999999911, -12.76471103261719264 ) ) ;
#545 = CIRCLE ( 'NONE', #286, 1.000000000000002665 ) ;
#546 = VERTEX_POINT ( 'NONE', #70 ) ;
#547 = DIRECTION ( 'NONE',  ( 0.000000000000000000, 0.000000000000000000, -1.000000000000000000 ) ) ;
#548 = DIRECTION ( 'NONE',  ( 0.000000000000000000, 0.000000000000000000, 1.000000000000000000 ) ) ;
#549 = EDGE_LOOP ( 'NONE', ( #379, #309, #582, #271, #558, #83 ) ) ;
#550 = ORIENTED_EDGE ( 'NONE', *, *, #453, .T. ) ;
#551 = EDGE_CURVE ( 'NONE', #103, #289, #264, .T. ) ;
#552 = AXIS2_PLACEMENT_3D ( 'NONE', #142, #291, #102 ) ;
#553 = DIRECTION ( 'NONE',  ( 0.000000000000000000, -0.000000000000000000, 1.000000000000000000 ) ) ;
#554 = CARTESIAN_POINT ( 'NONE',  ( -8.777000652221980559, -0.1599999999999960898, -13.25798851828190550 ) ) ;
#555 = ORIENTED_EDGE ( 'NONE', *, *, #32, .F. ) ;
#556 = DIRECTION ( 'NONE',  ( 0.000000000000000000, 0.000000000000000000, -1.000000000000000000 ) ) ;
#557 = VECTOR ( 'NONE', #540, 999.9999999999998863 ) ;
#558 = ORIENTED_EDGE ( 'NONE', *, *, #330, .F. ) ;
#559 = DIRECTION ( 'NONE',  ( 0.000000000000000000, 1.000000000000000000, 0.000000000000000000 ) ) ;
#560 = EDGE_CURVE ( 'NONE', #457, #542, #526, .T. ) ;
#561 = EDGE_LOOP ( 'NONE', ( #240, #335 ) ) ;
#562 = ORIENTED_EDGE ( 'NONE', *, *, #149, .F. ) ;
#563 = FILL_AREA_STYLE_COLOUR ( '', #250 ) ;
#564 = ORIENTED_EDGE ( 'NONE', *, *, #133, .T. ) ;
#565 = ORIENTED_EDGE ( 'NONE', *, *, #62, .T. ) ;
#566 = EDGE_LOOP ( 'NONE', ( #420, #128, #363, #6, #436 ) ) ;
#567 = CARTESIAN_POINT ( 'NONE',  ( 0.000000000000000000, 0.000000000000000000, 0.000000000000000000 ) ) ;
#568 = ADVANCED_FACE ( 'NONE', ( #193 ), #10, .F. ) ;
#569 = ORIENTED_EDGE ( 'NONE', *, *, #36, .F. ) ;
#570 = VERTEX_POINT ( 'NONE', #241 ) ;
#571 = AXIS2_PLACEMENT_3D ( 'NONE', #349, #377, #327 ) ;
#572 = APPLICATION_CONTEXT ( 'automotive_design' ) ;
#573 = ADVANCED_FACE ( 'NONE', ( #347, #299 ), #199, .F. ) ;
#574 = LINE ( 'NONE', #153, #279 ) ;
#575 = DIRECTION ( 'NONE',  ( 0.000000000000000000, 0.000000000000000000, 1.000000000000000000 ) ) ;
#576 = DIRECTION ( 'NONE',  ( 0.000000000000000000, 0.000000000000000000, 1.000000000000000000 ) ) ;
#577 =( GEOMETRIC_REPRESENTATION_CONTEXT ( 3 ) GLOBAL_UNCERTAINTY_ASSIGNED_CONTEXT ( ( #166 ) ) GLOBAL_UNIT_ASSIGNED_CONTEXT ( ( #51, #94, #337 ) ) REPRESENTATION_CONTEXT ( 'NONE', 'WORKASPACE' ) );
#578 = DIRECTION ( 'NONE',  ( 0.000000000000000000, 1.000000000000000000, 0.000000000000000000 ) ) ;
#579 = CYLINDRICAL_SURFACE ( 'NONE', #101, 15.90000000000000036 ) ;
#580 = CARTESIAN_POINT ( 'NONE',  ( -10.28460494471004516, -0.2600000000000002864, -11.99445293171996596 ) ) ;
#581 = AXIS2_PLACEMENT_3D ( 'NONE', #411, #589, #170 ) ;
#582 = ORIENTED_EDGE ( 'NONE', *, *, #357, .F. ) ;
#583 = DIRECTION ( 'NONE',  ( -0.000000000000000000, -1.000000000000000000, -0.000000000000000000 ) ) ;
#584 = AXIS2_PLACEMENT_3D ( 'NONE', #165, #524, #576 ) ;
#585 = CARTESIAN_POINT ( 'NONE',  ( 1.806354028742345802E-15, 2.899999999999999911, 14.75000000000000000 ) ) ;
#586 = DIRECTION ( 'NONE',  ( -0.000000000000000000, -1.000000000000000000, -0.000000000000000000 ) ) ;
#587 = PLANE ( 'NONE',  #520 ) ;
#588 = FACE_OUTER_BOUND ( 'NONE', #461, .T. ) ;
#589 = DIRECTION ( 'NONE',  ( 0.000000000000000000, 1.000000000000000000, 0.000000000000000000 ) ) ;
#590 = DIRECTION ( 'NONE',  ( 0.000000000000000000, -0.000000000000000000, 1.000000000000000000 ) ) ;
#591 = STYLED_ITEM ( 'NONE', ( #332 ), #409 ) ;
#592 = CARTESIAN_POINT ( 'NONE',  ( 0.000000000000000000, -0.6600000000000008082, 14.10869565217391219 ) ) ;
#593 = ORIENTED_EDGE ( 'NONE', *, *, #358, .F. ) ;
#594 = ORIENTED_EDGE ( 'NONE', *, *, #213, .T. ) ;
#595 = EDGE_CURVE ( 'NONE', #368, #470, #189, .T. ) ;
#596 = B_SPLINE_CURVE_WITH_KNOTS ( 'NONE', 3,
 ( #580, #108, #253, #447 ),
 .UNSPECIFIED., .F., .F.,
 ( 4, 4 ),
 ( 5.963111948670274387E-19, 0.0001419317398017519026 ),
 .UNSPECIFIED. ) ;
#597 = DIRECTION ( 'NONE',  ( -0.000000000000000000, -1.000000000000000000, -0.000000000000000000 ) ) ;
#598 = ORIENTED_EDGE ( 'NONE', *, *, #249, .T. ) ;
#599 = DIRECTION ( 'NONE',  ( 0.000000000000000000, 0.000000000000000000, 1.000000000000000000 ) ) ;
#600 = ORIENTED_EDGE ( 'NONE', *, *, #145, .F. ) ;
#601 = CIRCLE ( 'NONE', #422, 15.90000000000000036 ) ;
ENDSEC;
END-ISO-10303-21;
