ISO-10303-21;
HEADER;
FILE_DESCRIPTION (( 'STEP AP214' ),
    '1' );
FILE_NAME ('20240606  Q Dial.STEP',
    '2024-06-06T08:08:40',
    ( '' ),
    ( '' ),
    'SwSTEP 2.0',
    'SolidWorks 2024',
    '' );
FILE_SCHEMA (( 'AUTOMOTIVE_DESIGN' ));
ENDSEC;

DATA;
#1 =( NAMED_UNIT ( * ) PLANE_ANGLE_UNIT ( ) SI_UNIT ( $, .RADIAN. ) );
#2 = LINE ( 'NONE', #287, #197 ) ;
#3 = AXIS2_PLACEMENT_3D ( 'NONE', #144, #255, #211 ) ;
#4 = EDGE_CURVE ( 'NONE', #54, #42, #157, .T. ) ;
#5 = FACE_OUTER_BOUND ( 'NONE', #275, .T. ) ;
#6 = DIRECTION ( 'NONE',  ( -0.000000000000000000, -1.000000000000000000, -0.000000000000000000 ) ) ;
#7 = PRESENTATION_STYLE_ASSIGNMENT (( #217 ) ) ;
#8 = ADVANCED_FACE ( 'NONE', ( #136 ), #206, .T. ) ;
#9 = ORIENTED_EDGE ( 'NONE', *, *, #32, .T. ) ;
#10 = UNCERTAINTY_MEASURE_WITH_UNIT (LENGTH_MEASURE( 1.000000000000000082E-05 ), #209, 'distance_accuracy_value', 'NONE');
#11 = VERTEX_POINT ( 'NONE', #57 ) ;
#12 = CARTESIAN_POINT ( 'NONE',  ( 1.102182119232617788E-16, 0.8000000000000000444, 0.9000000000000000222 ) ) ;
#13 = ADVANCED_FACE ( 'NONE', ( #114 ), #41, .T. ) ;
#14 = VERTEX_POINT ( 'NONE', #246 ) ;
#15 = VECTOR ( 'NONE', #184, 1000.000000000000000 ) ;
#16 = VECTOR ( 'NONE', #121, 1000.000000000000000 ) ;
#17 = LINE ( 'NONE', #12, #289 ) ;
#18 = DIRECTION ( 'NONE',  ( -0.000000000000000000, -1.000000000000000000, -0.000000000000000000 ) ) ;
#19 = DIRECTION ( 'NONE',  ( 0.000000000000000000, 0.000000000000000000, -1.000000000000000000 ) ) ;
#20 = LINE ( 'NONE', #37, #185 ) ;
#21 = AXIS2_PLACEMENT_3D ( 'NONE', #249, #280, #188 ) ;
#22 = CYLINDRICAL_SURFACE ( 'NONE', #163, 0.9499999999999992895 ) ;
#23 = CARTESIAN_POINT ( 'NONE',  ( 0.000000000000000000, 0.000000000000000000, 0.000000000000000000 ) ) ;
#24 = CARTESIAN_POINT ( 'NONE',  ( -15.50000000000000000, 0.000000000000000000, 0.000000000000000000 ) ) ;
#25 = CARTESIAN_POINT ( 'NONE',  ( 0.000000000000000000, 0.8000000000000000444, 0.000000000000000000 ) ) ;
#26 = DIRECTION ( 'NONE',  ( 0.000000000000000000, 1.000000000000000000, 0.000000000000000000 ) ) ;
#27 =( NAMED_UNIT ( * ) SI_UNIT ( $, .STERADIAN. ) SOLID_ANGLE_UNIT ( ) );
#28 = CIRCLE ( 'NONE', #77, 0.9499999999999992895 ) ;
#29 = APPLICATION_CONTEXT ( 'automotive_design' ) ;
#30 = CARTESIAN_POINT ( 'NONE',  ( -15.72290322580645672, 0.4000000000000000222, -0.9234793727664272200 ) ) ;
#31 = DIRECTION ( 'NONE',  ( 0.000000000000000000, 0.000000000000000000, -1.000000000000000000 ) ) ;
#32 = EDGE_CURVE ( 'NONE', #277, #36, #227, .T. ) ;
#33 = AXIS2_PLACEMENT_3D ( 'NONE', #248, #86, #19 ) ;
#34 = CIRCLE ( 'NONE', #3, 15.75000000000000000 ) ;
#35 = EDGE_CURVE ( 'NONE', #36, #176, #17, .T. ) ;
#36 = VERTEX_POINT ( 'NONE', #205 ) ;
#37 = CARTESIAN_POINT ( 'NONE',  ( 0.000000000000000000, 0.8000000000000000444, -0.9000000000000000222 ) ) ;
#38 = ORIENTED_EDGE ( 'NONE', *, *, #141, .F. ) ;
#39 = CARTESIAN_POINT ( 'NONE',  ( 0.000000000000000000, 0.8000000000000000444, 0.000000000000000000 ) ) ;
#40 = AXIS2_PLACEMENT_3D ( 'NONE', #94, #98, #262 ) ;
#41 = CYLINDRICAL_SURFACE ( 'NONE', #76, 0.9500000000000008438 ) ;
#42 = VERTEX_POINT ( 'NONE', #298 ) ;
#43 = DIRECTION ( 'NONE',  ( -0.000000000000000000, -1.000000000000000000, -0.000000000000000000 ) ) ;
#44 = DIRECTION ( 'NONE',  ( 0.000000000000000000, 0.000000000000000000, 1.000000000000000000 ) ) ;
#45 =( NAMED_UNIT ( * ) PLANE_ANGLE_UNIT ( ) SI_UNIT ( $, .RADIAN. ) );
#46 = CARTESIAN_POINT ( 'NONE',  ( 0.000000000000000000, 0.8000000000000000444, 0.000000000000000000 ) ) ;
#47 = DIRECTION ( 'NONE',  ( 0.000000000000000000, 1.000000000000000000, 0.000000000000000000 ) ) ;
#48 = CYLINDRICAL_SURFACE ( 'NONE', #96, 15.75000000000000000 ) ;
#49 = DIRECTION ( 'NONE',  ( 0.000000000000000000, 1.000000000000000000, 0.000000000000000000 ) ) ;
#50 = SURFACE_STYLE_FILL_AREA ( #263 ) ;
#51 = CIRCLE ( 'NONE', #221, 0.9500000000000008438 ) ;
#52 = DIRECTION ( 'NONE',  ( 0.000000000000000000, 0.000000000000000000, 1.000000000000000000 ) ) ;
#53 = EDGE_CURVE ( 'NONE', #277, #14, #20, .T. ) ;
#54 = VERTEX_POINT ( 'NONE', #90 ) ;
#55 = DIRECTION ( 'NONE',  ( 0.000000000000000000, 1.000000000000000000, 0.000000000000000000 ) ) ;
#56 = ORIENTED_EDGE ( 'NONE', *, *, #147, .T. ) ;
#57 = CARTESIAN_POINT ( 'NONE',  ( -15.72290322580645316, 0.000000000000000000, -0.9234793727664282192 ) ) ;
#58 = DIRECTION ( 'NONE',  ( 0.000000000000000000, 0.000000000000000000, 1.000000000000000000 ) ) ;
#59 = CIRCLE ( 'NONE', #21, 15.75000000000000000 ) ;
#60 = VERTEX_POINT ( 'NONE', #294 ) ;
#61 = EDGE_CURVE ( 'NONE', #156, #11, #258, .T. ) ;
#62 = ORIENTED_EDGE ( 'NONE', *, *, #35, .T. ) ;
#63 = LINE ( 'NONE', #149, #110 ) ;
#64 = DIRECTION ( 'NONE',  ( 0.000000000000000000, 0.000000000000000000, 1.000000000000000000 ) ) ;
#65 = CYLINDRICAL_SURFACE ( 'NONE', #134, 0.9000000000000000222 ) ;
#66 = EDGE_CURVE ( 'NONE', #54, #158, #51, .T. ) ;
#67 = CARTESIAN_POINT ( 'NONE',  ( 0.000000000000000000, 0.8000000000000000444, 0.000000000000000000 ) ) ;
#68 = DIRECTION ( 'NONE',  ( 0.000000000000000000, 1.000000000000000000, 0.000000000000000000 ) ) ;
#69 = FACE_BOUND ( 'NONE', #272, .T. ) ;
#70 = CYLINDRICAL_SURFACE ( 'NONE', #139, 0.9000000000000000222 ) ;
#71 = CARTESIAN_POINT ( 'NONE',  ( 0.000000000000000000, 0.8000000000000000444, -0.9000000000000000222 ) ) ;
#72 = DIRECTION ( 'NONE',  ( 0.000000000000000000, 1.000000000000000000, 0.000000000000000000 ) ) ;
#73 = DIRECTION ( 'NONE',  ( 0.000000000000000000, 0.000000000000000000, 1.000000000000000000 ) ) ;
#74 = MECHANICAL_DESIGN_GEOMETRIC_PRESENTATION_REPRESENTATION (  '', ( #164 ), #82 ) ;
#75 = EDGE_CURVE ( 'NONE', #87, #60, #59, .T. ) ;
#76 = AXIS2_PLACEMENT_3D ( 'NONE', #299, #300, #58 ) ;
#77 = AXIS2_PLACEMENT_3D ( 'NONE', #92, #150, #99 ) ;
#78 = ADVANCED_BREP_SHAPE_REPRESENTATION ( '20240606  Q Dial', ( #215, #242 ), #173 ) ;
#79 = EDGE_LOOP ( 'NONE', ( #129, #85, #296, #112 ) ) ;
#80 = ORIENTED_EDGE ( 'NONE', *, *, #297, .T. ) ;
#81 = EDGE_CURVE ( 'NONE', #128, #102, #2, .T. ) ;
#82 =( GEOMETRIC_REPRESENTATION_CONTEXT ( 3 ) GLOBAL_UNCERTAINTY_ASSIGNED_CONTEXT ( ( #10 ) ) GLOBAL_UNIT_ASSIGNED_CONTEXT ( ( #209, #45, #27 ) ) REPRESENTATION_CONTEXT ( 'NONE', 'WORKASPACE' ) );
#83 = ORIENTED_EDGE ( 'NONE', *, *, #303, .F. ) ;
#84 = DIRECTION ( 'NONE',  ( 0.000000000000000000, 1.000000000000000000, 0.000000000000000000 ) ) ;
#85 = ORIENTED_EDGE ( 'NONE', *, *, #4, .T. ) ;
#86 = DIRECTION ( 'NONE',  ( -0.000000000000000000, -1.000000000000000000, -0.000000000000000000 ) ) ;
#87 = VERTEX_POINT ( 'NONE', #210 ) ;
#88 = CLOSED_SHELL ( 'NONE', ( #161, #281, #8, #191, #241, #180, #219, #126, #13 ) ) ;
#89 = AXIS2_PLACEMENT_3D ( 'NONE', #187, #143, #162 ) ;
#90 = CARTESIAN_POINT ( 'NONE',  ( 15.72290322580644961, 0.000000000000000000, 0.9234793727664307728 ) ) ;
#91 = DIRECTION ( 'NONE',  ( 0.000000000000000000, 0.000000000000000000, 1.000000000000000000 ) ) ;
#92 = CARTESIAN_POINT ( 'NONE',  ( -15.50000000000000000, 0.8000000000000000444, 0.000000000000000000 ) ) ;
#93 = CARTESIAN_POINT ( 'NONE',  ( -15.72290322580645316, 0.8000000000000000444, -0.9234793727664282192 ) ) ;
#94 = CARTESIAN_POINT ( 'NONE',  ( 0.000000000000000000, 0.000000000000000000, 0.000000000000000000 ) ) ;
#95 = DIRECTION ( 'NONE',  ( 0.000000000000000000, 0.000000000000000000, 1.000000000000000000 ) ) ;
#96 = AXIS2_PLACEMENT_3D ( 'NONE', #148, #213, #235 ) ;
#97 = DIRECTION ( 'NONE',  ( -0.000000000000000000, -1.000000000000000000, -0.000000000000000000 ) ) ;
#98 = DIRECTION ( 'NONE',  ( 0.000000000000000000, 1.000000000000000000, 0.000000000000000000 ) ) ;
#99 = DIRECTION ( 'NONE',  ( 0.000000000000000000, 0.000000000000000000, 1.000000000000000000 ) ) ;
#100 = EDGE_CURVE ( 'NONE', #42, #87, #216, .T. ) ;
#101 = SHAPE_DEFINITION_REPRESENTATION ( #159, #78 ) ;
#102 = VERTEX_POINT ( 'NONE', #192 ) ;
#103 = EDGE_CURVE ( 'NONE', #87, #158, #140, .T. ) ;
#104 = ORIENTED_EDGE ( 'NONE', *, *, #169, .F. ) ;
#105 = CIRCLE ( 'NONE', #240, 15.75000000000000000 ) ;
#106 = APPLICATION_CONTEXT ( 'automotive_design' ) ;
#107 = ORIENTED_EDGE ( 'NONE', *, *, #288, .T. ) ;
#108 = EDGE_LOOP ( 'NONE', ( #9, #62, #38, #181 ) ) ;
#109 = DIRECTION ( 'NONE',  ( 0.000000000000000000, 0.000000000000000000, 1.000000000000000000 ) ) ;
#110 = VECTOR ( 'NONE', #189, 1000.000000000000000 ) ;
#111 = ORIENTED_EDGE ( 'NONE', *, *, #198, .T. ) ;
#112 = ORIENTED_EDGE ( 'NONE', *, *, #81, .T. ) ;
#113 = CARTESIAN_POINT ( 'NONE',  ( 15.72290322580643895, 0.4000000000000000222, 0.9234793727664329932 ) ) ;
#114 = FACE_OUTER_BOUND ( 'NONE', #254, .T. ) ;
#115 = PRODUCT_DEFINITION_FORMATION_WITH_SPECIFIED_SOURCE ( 'ANY', '', #253, .NOT_KNOWN. ) ;
#116 = ORIENTED_EDGE ( 'NONE', *, *, #212, .T. ) ;
#117 = CARTESIAN_POINT ( 'NONE',  ( 1.102182119232617788E-16, 0.000000000000000000, 0.9000000000000000222 ) ) ;
#118 = DIRECTION ( 'NONE',  ( 0.000000000000000000, 0.000000000000000000, -1.000000000000000000 ) ) ;
#119 = CARTESIAN_POINT ( 'NONE',  ( 0.000000000000000000, 0.000000000000000000, 0.000000000000000000 ) ) ;
#120 = AXIS2_PLACEMENT_3D ( 'NONE', #39, #55, #226 ) ;
#121 = DIRECTION ( 'NONE',  ( 0.000000000000000000, 1.000000000000000000, 0.000000000000000000 ) ) ;
#122 = AXIS2_PLACEMENT_3D ( 'NONE', #119, #167, #124 ) ;
#123 = CARTESIAN_POINT ( 'NONE',  ( 0.000000000000000000, 0.000000000000000000, -15.75000000000000000 ) ) ;
#124 = DIRECTION ( 'NONE',  ( 0.000000000000000000, 0.000000000000000000, 1.000000000000000000 ) ) ;
#125 = CIRCLE ( 'NONE', #89, 0.9000000000000000222 ) ;
#126 = ADVANCED_FACE ( 'NONE', ( #301 ), #22, .T. ) ;
#127 = ORIENTED_EDGE ( 'NONE', *, *, #297, .F. ) ;
#128 = VERTEX_POINT ( 'NONE', #282 ) ;
#129 = ORIENTED_EDGE ( 'NONE', *, *, #169, .T. ) ;
#130 = CARTESIAN_POINT ( 'NONE',  ( 0.000000000000000000, 0.000000000000000000, 0.000000000000000000 ) ) ;
#131 = ORIENTED_EDGE ( 'NONE', *, *, #4, .F. ) ;
#132 = ORIENTED_EDGE ( 'NONE', *, *, #103, .F. ) ;
#133 = EDGE_CURVE ( 'NONE', #11, #174, #284, .T. ) ;
#134 = AXIS2_PLACEMENT_3D ( 'NONE', #286, #6, #118 ) ;
#135 = ORIENTED_EDGE ( 'NONE', *, *, #66, .T. ) ;
#136 = FACE_OUTER_BOUND ( 'NONE', #79, .T. ) ;
#137 = ORIENTED_EDGE ( 'NONE', *, *, #303, .T. ) ;
#138 =( NAMED_UNIT ( * ) SI_UNIT ( $, .STERADIAN. ) SOLID_ANGLE_UNIT ( ) );
#139 = AXIS2_PLACEMENT_3D ( 'NONE', #67, #196, #31 ) ;
#140 = LINE ( 'NONE', #232, #290 ) ;
#141 = EDGE_CURVE ( 'NONE', #14, #176, #175, .T. ) ;
#142 = PLANE ( 'NONE',  #40 ) ;
#143 = DIRECTION ( 'NONE',  ( 0.000000000000000000, 1.000000000000000000, 0.000000000000000000 ) ) ;
#144 = CARTESIAN_POINT ( 'NONE',  ( 0.000000000000000000, 0.8000000000000000444, 0.000000000000000000 ) ) ;
#145 = DIRECTION ( 'NONE',  ( 0.000000000000000000, 1.000000000000000000, 0.000000000000000000 ) ) ;
#146 = DIRECTION ( 'NONE',  ( 0.000000000000000000, 0.000000000000000000, 1.000000000000000000 ) ) ;
#147 = EDGE_CURVE ( 'NONE', #174, #128, #28, .T. ) ;
#148 = CARTESIAN_POINT ( 'NONE',  ( 0.000000000000000000, 0.8000000000000000444, 0.000000000000000000 ) ) ;
#149 = CARTESIAN_POINT ( 'NONE',  ( 0.000000000000000000, 0.8000000000000000444, -15.75000000000000000 ) ) ;
#150 = DIRECTION ( 'NONE',  ( 0.000000000000000000, 1.000000000000000000, 0.000000000000000000 ) ) ;
#151 = AXIS2_PLACEMENT_3D ( 'NONE', #266, #72, #95 ) ;
#152 = CIRCLE ( 'NONE', #122, 15.75000000000000000 ) ;
#153 = ORIENTED_EDGE ( 'NONE', *, *, #251, .T. ) ;
#154 = ORIENTED_EDGE ( 'NONE', *, *, #229, .F. ) ;
#155 = EDGE_LOOP ( 'NONE', ( #292, #111, #228, #154 ) ) ;
#156 = VERTEX_POINT ( 'NONE', #123 ) ;
#157 = LINE ( 'NONE', #113, #15 ) ;
#158 = VERTEX_POINT ( 'NONE', #172 ) ;
#159 = PRODUCT_DEFINITION_SHAPE ( 'NONE', 'NONE',  #245 ) ;
#160 = ORIENTED_EDGE ( 'NONE', *, *, #100, .F. ) ;
#161 = ADVANCED_FACE ( 'NONE', ( #239 ), #70, .F. ) ;
#162 = DIRECTION ( 'NONE',  ( 0.000000000000000000, 0.000000000000000000, 1.000000000000000000 ) ) ;
#163 = AXIS2_PLACEMENT_3D ( 'NONE', #24, #145, #64 ) ;
#164 = STYLED_ITEM ( 'NONE', ( #7 ), #215 ) ;
#165 = DIRECTION ( 'NONE',  ( 0.000000000000000000, 1.000000000000000000, 0.000000000000000000 ) ) ;
#166 = DIRECTION ( 'NONE',  ( -0.000000000000000000, -1.000000000000000000, -0.000000000000000000 ) ) ;
#167 = DIRECTION ( 'NONE',  ( 0.000000000000000000, 1.000000000000000000, 0.000000000000000000 ) ) ;
#168 = FACE_OUTER_BOUND ( 'NONE', #222, .T. ) ;
#169 = EDGE_CURVE ( 'NONE', #102, #54, #152, .T. ) ;
#170 = PLANE ( 'NONE',  #199 ) ;
#171 = DIRECTION ( 'NONE',  ( 0.000000000000000000, 1.000000000000000000, 0.000000000000000000 ) ) ;
#172 = CARTESIAN_POINT ( 'NONE',  ( 15.72290322580644961, 0.000000000000000000, -0.9234793727664307728 ) ) ;
#173 =( GEOMETRIC_REPRESENTATION_CONTEXT ( 3 ) GLOBAL_UNCERTAINTY_ASSIGNED_CONTEXT ( ( #243 ) ) GLOBAL_UNIT_ASSIGNED_CONTEXT ( ( #214, #1, #138 ) ) REPRESENTATION_CONTEXT ( 'NONE', 'WORKASPACE' ) );
#174 = VERTEX_POINT ( 'NONE', #93 ) ;
#175 = CIRCLE ( 'NONE', #190, 0.9000000000000000222 ) ;
#176 = VERTEX_POINT ( 'NONE', #117 ) ;
#177 = ORIENTED_EDGE ( 'NONE', *, *, #141, .T. ) ;
#178 = AXIS2_PLACEMENT_3D ( 'NONE', #234, #26, #44 ) ;
#179 = ORIENTED_EDGE ( 'NONE', *, *, #103, .T. ) ;
#180 = ADVANCED_FACE ( 'NONE', ( #261 ), #48, .T. ) ;
#181 = ORIENTED_EDGE ( 'NONE', *, *, #53, .F. ) ;
#182 = EDGE_LOOP ( 'NONE', ( #127, #208, #179, #107 ) ) ;
#183 = DIRECTION ( 'NONE',  ( 0.000000000000000000, 1.000000000000000000, 0.000000000000000000 ) ) ;
#184 = DIRECTION ( 'NONE',  ( 0.000000000000000000, 1.000000000000000000, 0.000000000000000000 ) ) ;
#185 = VECTOR ( 'NONE', #18, 1000.000000000000000 ) ;
#186 = EDGE_LOOP ( 'NONE', ( #293, #200, #104, #83, #230 ) ) ;
#187 = CARTESIAN_POINT ( 'NONE',  ( 0.000000000000000000, 0.8000000000000000444, 0.000000000000000000 ) ) ;
#188 = DIRECTION ( 'NONE',  ( 0.000000000000000000, 0.000000000000000000, 1.000000000000000000 ) ) ;
#189 = DIRECTION ( 'NONE',  ( -0.000000000000000000, -1.000000000000000000, -0.000000000000000000 ) ) ;
#190 = AXIS2_PLACEMENT_3D ( 'NONE', #259, #68, #52 ) ;
#191 = ADVANCED_FACE ( 'NONE', ( #5, #304 ), #170, .T. ) ;
#192 = CARTESIAN_POINT ( 'NONE',  ( -15.72290322580645316, 0.000000000000000000, 0.9234793727664282192 ) ) ;
#193 = CARTESIAN_POINT ( 'NONE',  ( 0.000000000000000000, 0.000000000000000000, 0.000000000000000000 ) ) ;
#194 = FILL_AREA_STYLE_COLOUR ( '', #265 ) ;
#195 = CYLINDRICAL_SURFACE ( 'NONE', #203, 15.75000000000000000 ) ;
#196 = DIRECTION ( 'NONE',  ( -0.000000000000000000, -1.000000000000000000, -0.000000000000000000 ) ) ;
#197 = VECTOR ( 'NONE', #97, 1000.000000000000000 ) ;
#198 = EDGE_CURVE ( 'NONE', #36, #277, #125, .T. ) ;
#199 = AXIS2_PLACEMENT_3D ( 'NONE', #46, #165, #256 ) ;
#200 = ORIENTED_EDGE ( 'NONE', *, *, #66, .F. ) ;
#201 = ORIENTED_EDGE ( 'NONE', *, *, #147, .F. ) ;
#202 = CARTESIAN_POINT ( 'NONE',  ( 15.50000000000000000, 0.000000000000000000, 0.000000000000000000 ) ) ;
#203 = AXIS2_PLACEMENT_3D ( 'NONE', #25, #166, #264 ) ;
#204 = ORIENTED_EDGE ( 'NONE', *, *, #212, .F. ) ;
#205 = CARTESIAN_POINT ( 'NONE',  ( 1.102182119232617788E-16, 0.8000000000000000444, 0.9000000000000000222 ) ) ;
#206 = CYLINDRICAL_SURFACE ( 'NONE', #33, 15.75000000000000000 ) ;
#207 = FACE_OUTER_BOUND ( 'NONE', #155, .T. ) ;
#208 = ORIENTED_EDGE ( 'NONE', *, *, #75, .F. ) ;
#209 =( LENGTH_UNIT ( ) NAMED_UNIT ( * ) SI_UNIT ( .MILLI., .METRE. ) );
#210 = CARTESIAN_POINT ( 'NONE',  ( 15.72290322580644961, 0.8000000000000000444, -0.9234793727664307728 ) ) ;
#211 = DIRECTION ( 'NONE',  ( 0.000000000000000000, 0.000000000000000000, 1.000000000000000000 ) ) ;
#212 = EDGE_CURVE ( 'NONE', #60, #174, #295, .T. ) ;
#213 = DIRECTION ( 'NONE',  ( -0.000000000000000000, -1.000000000000000000, -0.000000000000000000 ) ) ;
#214 =( LENGTH_UNIT ( ) NAMED_UNIT ( * ) SI_UNIT ( .MILLI., .METRE. ) );
#215 = MANIFOLD_SOLID_BREP ( 'Boss-Extrude3', #88 ) ;
#216 = CIRCLE ( 'NONE', #151, 0.9500000000000008438 ) ;
#217 = SURFACE_STYLE_USAGE ( .BOTH. , #237 ) ;
#218 = APPLICATION_PROTOCOL_DEFINITION ( 'draft international standard', 'automotive_design', 1998, #29 ) ;
#219 = ADVANCED_FACE ( 'NONE', ( #207 ), #65, .F. ) ;
#220 = DIRECTION ( 'NONE',  ( 1.000000000000000000, 0.000000000000000000, 0.000000000000000000 ) ) ;
#221 = AXIS2_PLACEMENT_3D ( 'NONE', #202, #84, #276 ) ;
#222 = EDGE_LOOP ( 'NONE', ( #204, #80, #225, #267 ) ) ;
#223 = ORIENTED_EDGE ( 'NONE', *, *, #229, .T. ) ;
#224 = ORIENTED_EDGE ( 'NONE', *, *, #198, .F. ) ;
#225 = ORIENTED_EDGE ( 'NONE', *, *, #61, .T. ) ;
#226 = DIRECTION ( 'NONE',  ( 0.000000000000000000, 0.000000000000000000, 1.000000000000000000 ) ) ;
#227 = CIRCLE ( 'NONE', #120, 0.9000000000000000222 ) ;
#228 = ORIENTED_EDGE ( 'NONE', *, *, #53, .T. ) ;
#229 = EDGE_CURVE ( 'NONE', #176, #14, #236, .T. ) ;
#230 = ORIENTED_EDGE ( 'NONE', *, *, #61, .F. ) ;
#231 = EDGE_LOOP ( 'NONE', ( #247, #224 ) ) ;
#232 = CARTESIAN_POINT ( 'NONE',  ( 15.72290322580643895, 0.4000000000000000222, -0.9234793727664329932 ) ) ;
#233 = DIRECTION ( 'NONE',  ( 0.000000000000000000, 0.000000000000000000, 1.000000000000000000 ) ) ;
#234 = CARTESIAN_POINT ( 'NONE',  ( 0.000000000000000000, 0.8000000000000000444, 0.000000000000000000 ) ) ;
#235 = DIRECTION ( 'NONE',  ( 0.000000000000000000, 0.000000000000000000, -1.000000000000000000 ) ) ;
#236 = CIRCLE ( 'NONE', #273, 0.9000000000000000222 ) ;
#237 = SURFACE_SIDE_STYLE ('',( #50 ) ) ;
#238 = CARTESIAN_POINT ( 'NONE',  ( 0.000000000000000000, 0.000000000000000000, 0.000000000000000000 ) ) ;
#239 = FACE_OUTER_BOUND ( 'NONE', #108, .T. ) ;
#240 = AXIS2_PLACEMENT_3D ( 'NONE', #23, #47, #233 ) ;
#241 = ADVANCED_FACE ( 'NONE', ( #257, #69 ), #142, .F. ) ;
#242 = AXIS2_PLACEMENT_3D ( 'NONE', #238, #73, #220 ) ;
#243 = UNCERTAINTY_MEASURE_WITH_UNIT (LENGTH_MEASURE( 1.000000000000000082E-05 ), #214, 'distance_accuracy_value', 'NONE');
#244 = ORIENTED_EDGE ( 'NONE', *, *, #133, .F. ) ;
#245 = PRODUCT_DEFINITION ( 'UNKNOWN', '', #115, #291 ) ;
#246 = CARTESIAN_POINT ( 'NONE',  ( 0.000000000000000000, 0.000000000000000000, -0.9000000000000000222 ) ) ;
#247 = ORIENTED_EDGE ( 'NONE', *, *, #32, .F. ) ;
#248 = CARTESIAN_POINT ( 'NONE',  ( 0.000000000000000000, 0.8000000000000000444, 0.000000000000000000 ) ) ;
#249 = CARTESIAN_POINT ( 'NONE',  ( 0.000000000000000000, 0.8000000000000000444, 0.000000000000000000 ) ) ;
#250 = AXIS2_PLACEMENT_3D ( 'NONE', #130, #183, #109 ) ;
#251 = EDGE_CURVE ( 'NONE', #128, #42, #34, .T. ) ;
#252 = ORIENTED_EDGE ( 'NONE', *, *, #100, .T. ) ;
#253 = PRODUCT ( '20240606  Q Dial', '20240606  Q Dial', '', ( #269 ) ) ;
#254 = EDGE_LOOP ( 'NONE', ( #131, #135, #132, #160 ) ) ;
#255 = DIRECTION ( 'NONE',  ( 0.000000000000000000, 1.000000000000000000, 0.000000000000000000 ) ) ;
#256 = DIRECTION ( 'NONE',  ( 0.000000000000000000, -0.000000000000000000, 1.000000000000000000 ) ) ;
#257 = FACE_OUTER_BOUND ( 'NONE', #186, .T. ) ;
#258 = CIRCLE ( 'NONE', #250, 15.75000000000000000 ) ;
#259 = CARTESIAN_POINT ( 'NONE',  ( 0.000000000000000000, 0.000000000000000000, 0.000000000000000000 ) ) ;
#260 = APPLICATION_PROTOCOL_DEFINITION ( 'draft international standard', 'automotive_design', 1998, #106 ) ;
#261 = FACE_OUTER_BOUND ( 'NONE', #182, .T. ) ;
#262 = DIRECTION ( 'NONE',  ( 0.000000000000000000, -0.000000000000000000, 1.000000000000000000 ) ) ;
#263 = FILL_AREA_STYLE ('',( #194 ) ) ;
#264 = DIRECTION ( 'NONE',  ( 0.000000000000000000, 0.000000000000000000, -1.000000000000000000 ) ) ;
#265 = COLOUR_RGB ( '',0.7921568627450980005, 0.8196078431372548767, 0.9333333333333333481 ) ;
#266 = CARTESIAN_POINT ( 'NONE',  ( 15.50000000000000000, 0.8000000000000000444, 0.000000000000000000 ) ) ;
#267 = ORIENTED_EDGE ( 'NONE', *, *, #133, .T. ) ;
#268 = PRESENTATION_LAYER_ASSIGNMENT (  '', '', ( #164 ) ) ;
#269 = PRODUCT_CONTEXT ( 'NONE', #106, 'mechanical' ) ;
#270 = PRODUCT_RELATED_PRODUCT_CATEGORY ( 'part', '', ( #253 ) ) ;
#271 = ORIENTED_EDGE ( 'NONE', *, *, #75, .T. ) ;
#272 = EDGE_LOOP ( 'NONE', ( #177, #223 ) ) ;
#273 = AXIS2_PLACEMENT_3D ( 'NONE', #193, #171, #91 ) ;
#274 = ORIENTED_EDGE ( 'NONE', *, *, #81, .F. ) ;
#275 = EDGE_LOOP ( 'NONE', ( #153, #252, #271, #116, #56 ) ) ;
#276 = DIRECTION ( 'NONE',  ( 0.000000000000000000, 0.000000000000000000, 1.000000000000000000 ) ) ;
#277 = VERTEX_POINT ( 'NONE', #71 ) ;
#278 = AXIS2_PLACEMENT_3D ( 'NONE', #302, #49, #146 ) ;
#279 = EDGE_LOOP ( 'NONE', ( #244, #137, #274, #201 ) ) ;
#280 = DIRECTION ( 'NONE',  ( 0.000000000000000000, 1.000000000000000000, 0.000000000000000000 ) ) ;
#281 = ADVANCED_FACE ( 'NONE', ( #168 ), #195, .T. ) ;
#282 = CARTESIAN_POINT ( 'NONE',  ( -15.72290322580644961, 0.8000000000000000444, 0.9234793727664279972 ) ) ;
#283 = CIRCLE ( 'NONE', #278, 0.9499999999999992895 ) ;
#284 = LINE ( 'NONE', #30, #16 ) ;
#285 = DIRECTION ( 'NONE',  ( -0.000000000000000000, -1.000000000000000000, -0.000000000000000000 ) ) ;
#286 = CARTESIAN_POINT ( 'NONE',  ( 0.000000000000000000, 0.8000000000000000444, 0.000000000000000000 ) ) ;
#287 = CARTESIAN_POINT ( 'NONE',  ( -15.72290322580645672, 0.4000000000000000222, 0.9234793727664272200 ) ) ;
#288 = EDGE_CURVE ( 'NONE', #158, #156, #105, .T. ) ;
#289 = VECTOR ( 'NONE', #43, 1000.000000000000000 ) ;
#290 = VECTOR ( 'NONE', #285, 1000.000000000000000 ) ;
#291 = PRODUCT_DEFINITION_CONTEXT ( 'detailed design', #29, 'design' ) ;
#292 = ORIENTED_EDGE ( 'NONE', *, *, #35, .F. ) ;
#293 = ORIENTED_EDGE ( 'NONE', *, *, #288, .F. ) ;
#294 = CARTESIAN_POINT ( 'NONE',  ( 0.000000000000000000, 0.8000000000000000444, -15.75000000000000000 ) ) ;
#295 = CIRCLE ( 'NONE', #178, 15.75000000000000000 ) ;
#296 = ORIENTED_EDGE ( 'NONE', *, *, #251, .F. ) ;
#297 = EDGE_CURVE ( 'NONE', #60, #156, #63, .T. ) ;
#298 = CARTESIAN_POINT ( 'NONE',  ( 15.72290322580644961, 0.8000000000000000444, 0.9234793727664307728 ) ) ;
#299 = CARTESIAN_POINT ( 'NONE',  ( 15.50000000000000000, 0.000000000000000000, 0.000000000000000000 ) ) ;
#300 = DIRECTION ( 'NONE',  ( 0.000000000000000000, 1.000000000000000000, 0.000000000000000000 ) ) ;
#301 = FACE_OUTER_BOUND ( 'NONE', #279, .T. ) ;
#302 = CARTESIAN_POINT ( 'NONE',  ( -15.50000000000000000, 0.000000000000000000, 0.000000000000000000 ) ) ;
#303 = EDGE_CURVE ( 'NONE', #11, #102, #283, .T. ) ;
#304 = FACE_BOUND ( 'NONE', #231, .T. ) ;
ENDSEC;
END-ISO-10303-21;
