ISO-10303-21;
HEADER;
FILE_DESCRIPTION (( 'STEP AP214' ),
    '1' );
FILE_NAME ('Movement Holder.STEP',
    '2024-04-24T10:41:45',
    ( '' ),
    ( '' ),
    'SwSTEP 2.0',
    'SolidWorks 2024',
    '' );
FILE_SCHEMA (( 'AUTOMOTIVE_DESIGN' ));
ENDSEC;

DATA;
#1 = AXIS2_PLACEMENT_3D ( 'NONE', #821, #412, #744 ) ;
#2 = DIRECTION ( 'NONE',  ( 0.000000000000000000, 1.000000000000000000, 0.000000000000000000 ) ) ;
#3 = FACE_OUTER_BOUND ( 'NONE', #1067, .T. ) ;
#4 = AXIS2_PLACEMENT_3D ( 'NONE', #851, #586, #428 ) ;
#5 = CIRCLE ( 'NONE', #706, 12.16685290815968656 ) ;
#6 = ORIENTED_EDGE ( 'NONE', *, *, #227, .F. ) ;
#7 = FACE_OUTER_BOUND ( 'NONE', #30, .T. ) ;
#8 = DIRECTION ( 'NONE',  ( -0.000000000000000000, 1.000000000000000000, -0.000000000000000000 ) ) ;
#9 = AXIS2_PLACEMENT_3D ( 'NONE', #424, #922, #755 ) ;
#10 = ORIENTED_EDGE ( 'NONE', *, *, #416, .T. ) ;
#11 = CARTESIAN_POINT ( 'NONE',  ( 0.000000000000000000, 1.399999999999998579, 0.000000000000000000 ) ) ;
#12 = DIRECTION ( 'NONE',  ( 0.000000000000000000, 0.000000000000000000, 1.000000000000000000 ) ) ;
#13 = DIRECTION ( 'NONE',  ( 0.000000000000000000, 0.000000000000000000, 1.000000000000000000 ) ) ;
#14 = CARTESIAN_POINT ( 'NONE',  ( 2.296212748401289155E-15, 13.00000000000000000, 18.50000000000002842 ) ) ;
#15 = ORIENTED_EDGE ( 'NONE', *, *, #957, .T. ) ;
#16 = DIRECTION ( 'NONE',  ( -0.000000000000000000, 1.000000000000000000, -0.000000000000000000 ) ) ;
#17 = CARTESIAN_POINT ( 'NONE',  ( 0.000000000000000000, 1.000000000000000000, 0.000000000000000000 ) ) ;
#18 = VERTEX_POINT ( 'NONE', #541 ) ;
#19 = DIRECTION ( 'NONE',  ( 0.000000000000000000, 0.000000000000000000, 1.000000000000000000 ) ) ;
#20 = PRESENTATION_LAYER_ASSIGNMENT (  '', '', ( #812 ) ) ;
#21 = EDGE_CURVE ( 'NONE', #130, #77, #1031, .T. ) ;
#22 = DIRECTION ( 'NONE',  ( -0.000000000000000000, 1.000000000000000000, -0.000000000000000000 ) ) ;
#23 = ORIENTED_EDGE ( 'NONE', *, *, #867, .T. ) ;
#24 = CIRCLE ( 'NONE', #360, 17.00000000000001421 ) ;
#25 = ORIENTED_EDGE ( 'NONE', *, *, #288, .F. ) ;
#26 = CARTESIAN_POINT ( 'NONE',  ( 1.561424668912875111E-15, 13.00000000000000000, -12.75000000000000000 ) ) ;
#27 = CIRCLE ( 'NONE', #295, 11.90000000000000036 ) ;
#28 = EDGE_CURVE ( 'NONE', #562, #611, #555, .T. ) ;
#29 = PLANE ( 'NONE',  #663 ) ;
#30 = EDGE_LOOP ( 'NONE', ( #871, #893 ) ) ;
#31 = ADVANCED_FACE ( 'NONE', ( #133 ), #587, .T. ) ;
#32 = DIRECTION ( 'NONE',  ( 0.000000000000000000, 1.000000000000000000, 0.000000000000000000 ) ) ;
#33 = DIRECTION ( 'NONE',  ( 0.000000000000000000, 0.000000000000000000, 1.000000000000000000 ) ) ;
#34 = ORIENTED_EDGE ( 'NONE', *, *, #257, .F. ) ;
#35 = ORIENTED_EDGE ( 'NONE', *, *, #601, .F. ) ;
#36 =( NAMED_UNIT ( * ) SI_UNIT ( $, .STERADIAN. ) SOLID_ANGLE_UNIT ( ) );
#37 = APPLICATION_CONTEXT ( 'automotive_design' ) ;
#38 = AXIS2_PLACEMENT_3D ( 'NONE', #565, #502, #163 ) ;
#39 = LINE ( 'NONE', #879, #49 ) ;
#40 = EDGE_LOOP ( 'NONE', ( #409, #527, #952, #525 ) ) ;
#41 = VERTEX_POINT ( 'NONE', #215 ) ;
#42 = EDGE_CURVE ( 'NONE', #279, #464, #1010, .T. ) ;
#43 = FACE_BOUND ( 'NONE', #64, .T. ) ;
#44 = DIRECTION ( 'NONE',  ( 0.000000000000000000, -0.000000000000000000, 1.000000000000000000 ) ) ;
#45 = ORIENTED_EDGE ( 'NONE', *, *, #529, .F. ) ;
#46 = AXIS2_PLACEMENT_3D ( 'NONE', #17, #940, #689 ) ;
#47 = EDGE_LOOP ( 'NONE', ( #651, #23, #1055, #779 ) ) ;
#48 = VECTOR ( 'NONE', #173, 1000.000000000000000 ) ;
#49 = VECTOR ( 'NONE', #374, 1000.000000000000000 ) ;
#50 = DIRECTION ( 'NONE',  ( 0.000000000000000000, -1.000000000000000000, 0.000000000000000000 ) ) ;
#51 = DIRECTION ( 'NONE',  ( -0.000000000000000000, -1.000000000000000000, -0.000000000000000000 ) ) ;
#52 = ORIENTED_EDGE ( 'NONE', *, *, #241, .T. ) ;
#53 = ORIENTED_EDGE ( 'NONE', *, *, #849, .F. ) ;
#54 = CARTESIAN_POINT ( 'NONE',  ( 0.000000000000000000, 1.399999999999998579, 0.000000000000000000 ) ) ;
#55 = DIRECTION ( 'NONE',  ( 0.000000000000000000, 0.000000000000000000, 1.000000000000000000 ) ) ;
#56 = ADVANCED_FACE ( 'NONE', ( #445, #634 ), #137, .F. ) ;
#57 = CARTESIAN_POINT ( 'NONE',  ( 0.000000000000000000, 1.899999999999999023, 0.000000000000000000 ) ) ;
#58 = VERTEX_POINT ( 'NONE', #122 ) ;
#59 = AXIS2_PLACEMENT_3D ( 'NONE', #1019, #846, #593 ) ;
#60 = DIRECTION ( 'NONE',  ( 0.000000000000000000, 0.000000000000000000, 1.000000000000000000 ) ) ;
#61 = UNCERTAINTY_MEASURE_WITH_UNIT (LENGTH_MEASURE( 1.000000000000000082E-05 ), #303, 'distance_accuracy_value', 'NONE');
#62 = CARTESIAN_POINT ( 'NONE',  ( -0.9976257860395988386, 8.500000000000000000, 15.96886792452830228 ) ) ;
#63 = CARTESIAN_POINT ( 'NONE',  ( 0.000000000000000000, 13.00000000000000000, 0.000000000000000000 ) ) ;
#64 = EDGE_LOOP ( 'NONE', ( #538, #190 ) ) ;
#65 = ORIENTED_EDGE ( 'NONE', *, *, #241, .F. ) ;
#66 = CIRCLE ( 'NONE', #461, 13.16685290815967946 ) ;
#67 = DIRECTION ( 'NONE',  ( 0.000000000000000000, 1.000000000000000000, 0.000000000000000000 ) ) ;
#68 = CIRCLE ( 'NONE', #1080, 12.75000000000000000 ) ;
#69 = DIRECTION ( 'NONE',  ( 1.003171929053527335E-16, 0.5735764363510430508, -0.8191520442889939080 ) ) ;
#70 = CARTESIAN_POINT ( 'NONE',  ( 0.000000000000000000, 13.00000000000000000, -18.50000000000002842 ) ) ;
#71 = ORIENTED_EDGE ( 'NONE', *, *, #656, .F. ) ;
#72 = CARTESIAN_POINT ( 'NONE',  ( -0.9976257860396028354, 8.500000000000000000, -15.96886792452830228 ) ) ;
#73 = EDGE_CURVE ( 'NONE', #413, #517, #795, .T. ) ;
#74 = AXIS2_PLACEMENT_3D ( 'NONE', #650, #641, #55 ) ;
#75 = CARTESIAN_POINT ( 'NONE',  ( -2.261943355930542806E-16, 1.899999999999998579, 0.000000000000000000 ) ) ;
#76 = CARTESIAN_POINT ( 'NONE',  ( 0.000000000000000000, 12.50000000000000533, 0.000000000000000000 ) ) ;
#77 = VERTEX_POINT ( 'NONE', #449 ) ;
#78 = DIRECTION ( 'NONE',  ( 0.000000000000000000, 0.000000000000000000, 1.000000000000000000 ) ) ;
#79 = ADVANCED_FACE ( 'NONE', ( #43, #530 ), #1033, .T. ) ;
#80 = DIRECTION ( 'NONE',  ( -0.000000000000000000, 1.000000000000000000, -0.000000000000000000 ) ) ;
#81 = VERTEX_POINT ( 'NONE', #956 ) ;
#82 = CARTESIAN_POINT ( 'NONE',  ( 3.894376821288583549E-15, 8.500000000000000000, 16.90000000000000213 ) ) ;
#83 = CIRCLE ( 'NONE', #46, 12.39999999999998082 ) ;
#84 = CARTESIAN_POINT ( 'NONE',  ( 1.522009167578630112E-15, 1.399999999999998579, -12.42814800674212350 ) ) ;
#85 = AXIS2_PLACEMENT_3D ( 'NONE', #231, #881, #1051 ) ;
#86 = DIRECTION ( 'NONE',  ( -0.000000000000000000, 1.000000000000000000, 0.000000000000000000 ) ) ;
#87 = DIRECTION ( 'NONE',  ( 0.000000000000000000, 1.000000000000000000, 0.000000000000000000 ) ) ;
#88 = AXIS2_PLACEMENT_3D ( 'NONE', #388, #205, #297 ) ;
#89 = EDGE_LOOP ( 'NONE', ( #876, #1014 ) ) ;
#90 = EDGE_CURVE ( 'NONE', #877, #249, #539, .T. ) ;
#91 = CARTESIAN_POINT ( 'NONE',  ( 0.000000000000000000, 1.399999999999998579, 12.42814800674212350 ) ) ;
#92 = DIRECTION ( 'NONE',  ( 0.000000000000000000, 1.000000000000000000, 0.000000000000000000 ) ) ;
#93 = CIRCLE ( 'NONE', #917, 1.000000000000000888 ) ;
#94 = ORIENTED_EDGE ( 'NONE', *, *, #753, .T. ) ;
#95 = DIRECTION ( 'NONE',  ( -0.000000000000000000, -1.000000000000000000, -0.000000000000000000 ) ) ;
#96 = DIRECTION ( 'NONE',  ( 0.000000000000000000, 0.000000000000000000, 1.000000000000000000 ) ) ;
#97 = DIRECTION ( 'NONE',  ( 0.000000000000000000, 0.000000000000000000, 1.000000000000000000 ) ) ;
#98 = MECHANICAL_DESIGN_GEOMETRIC_PRESENTATION_REPRESENTATION (  '', ( #812 ), #799 ) ;
#99 = DIRECTION ( 'NONE',  ( 0.000000000000000000, 0.000000000000000000, 1.000000000000000000 ) ) ;
#100 = VERTEX_POINT ( 'NONE', #1053 ) ;
#101 = APPLICATION_CONTEXT ( 'automotive_design' ) ;
#102 = CARTESIAN_POINT ( 'NONE',  ( 0.000000000000000000, 6.999999999999993783, 0.000000000000000000 ) ) ;
#103 = EDGE_CURVE ( 'NONE', #611, #608, #39, .T. ) ;
#104 = ADVANCED_FACE ( 'NONE', ( #308 ), #752, .F. ) ;
#105 = ORIENTED_EDGE ( 'NONE', *, *, #103, .T. ) ;
#106 = DIRECTION ( 'NONE',  ( -0.000000000000000000, -1.000000000000000000, -0.000000000000000000 ) ) ;
#107 = DIRECTION ( 'NONE',  ( -0.000000000000000000, -1.000000000000000000, -0.000000000000000000 ) ) ;
#108 = ORIENTED_EDGE ( 'NONE', *, *, #774, .F. ) ;
#109 = AXIS2_PLACEMENT_3D ( 'NONE', #421, #1003, #896 ) ;
#110 = ORIENTED_EDGE ( 'NONE', *, *, #891, .T. ) ;
#111 = ADVANCED_FACE ( 'NONE', ( #550 ), #265, .F. ) ;
#112 = CARTESIAN_POINT ( 'NONE',  ( 0.000000000000000000, 6.999999999999993783, 0.000000000000000000 ) ) ;
#113 = DIRECTION ( 'NONE',  ( 0.000000000000000000, 0.000000000000000000, 1.000000000000000000 ) ) ;
#114 = ORIENTED_EDGE ( 'NONE', *, *, #191, .T. ) ;
#115 = AXIS2_PLACEMENT_3D ( 'NONE', #569, #924, #906 ) ;
#116 = LINE ( 'NONE', #455, #558 ) ;
#117 = CARTESIAN_POINT ( 'NONE',  ( 1.457329690985350393E-15, 0.000000000000000000, -11.90000000000000036 ) ) ;
#118 = ORIENTED_EDGE ( 'NONE', *, *, #432, .T. ) ;
#119 = EDGE_LOOP ( 'NONE', ( #948, #438 ) ) ;
#120 = ADVANCED_BREP_SHAPE_REPRESENTATION ( 'Movement Holder', ( #576, #938, #454 ), #254 ) ;
#121 = AXIS2_PLACEMENT_3D ( 'NONE', #886, #561, #898 ) ;
#122 = CARTESIAN_POINT ( 'NONE',  ( 1.551242086924809720E-15, 8.000000000000000000, 12.16685290815968656 ) ) ;
#123 = FACE_OUTER_BOUND ( 'NONE', #546, .T. ) ;
#124 = ORIENTED_EDGE ( 'NONE', *, *, #730, .T. ) ;
#125 = EDGE_CURVE ( 'NONE', #631, #282, #1036, .T. ) ;
#126 = VERTEX_POINT ( 'NONE', #369 ) ;
#127 = DIRECTION ( 'NONE',  ( 0.000000000000000000, 0.000000000000000000, 1.000000000000000000 ) ) ;
#128 = CARTESIAN_POINT ( 'NONE',  ( -1.224646799147365903E-17, 8.500000000000000000, -15.90000000000000036 ) ) ;
#129 = CARTESIAN_POINT ( 'NONE',  ( -13.16685290815967946, 8.000000000000000000, 0.000000000000000000 ) ) ;
#130 = VERTEX_POINT ( 'NONE', #892 ) ;
#131 = DIRECTION ( 'NONE',  ( 0.000000000000000000, 0.000000000000000000, 1.000000000000000000 ) ) ;
#132 = DIRECTION ( 'NONE',  ( 8.659560562354874926E-17, -0.7071067811865524577, 0.7071067811865426878 ) ) ;
#133 = FACE_OUTER_BOUND ( 'NONE', #866, .T. ) ;
#134 = VERTEX_POINT ( 'NONE', #625 ) ;
#135 = CLOSED_SHELL ( 'NONE', ( #459, #857, #758, #422, #868, #1013, #1048, #624, #368, #807, #503, #31 ) ) ;
#136 = EDGE_CURVE ( 'NONE', #464, #279, #1069, .T. ) ;
#137 = PLANE ( 'NONE',  #384 ) ;
#138 = SURFACE_STYLE_FILL_AREA ( #222 ) ;
#139 = ORIENTED_EDGE ( 'NONE', *, *, #351, .F. ) ;
#140 = ORIENTED_EDGE ( 'NONE', *, *, #665, .F. ) ;
#141 = FACE_OUTER_BOUND ( 'NONE', #40, .T. ) ;
#142 = AXIS2_PLACEMENT_3D ( 'NONE', #988, #664, #578 ) ;
#143 = CARTESIAN_POINT ( 'NONE',  ( -0.9976257860396142707, 12.49999999999999822, 15.96886792452830228 ) ) ;
#144 = EDGE_CURVE ( 'NONE', #562, #358, #116, .T. ) ;
#145 = EDGE_CURVE ( 'NONE', #282, #631, #508, .T. ) ;
#146 = CYLINDRICAL_SURFACE ( 'NONE', #942, 11.90000000000000036 ) ;
#147 = ORIENTED_EDGE ( 'NONE', *, *, #136, .F. ) ;
#148 = ORIENTED_EDGE ( 'NONE', *, *, #1083, .F. ) ;
#149 = DIRECTION ( 'NONE',  ( -0.000000000000000000, 1.000000000000000000, -0.000000000000000000 ) ) ;
#150 = APPLICATION_PROTOCOL_DEFINITION ( 'draft international standard', 'automotive_design', 1998, #37 ) ;
#151 = DIRECTION ( 'NONE',  ( 0.000000000000000000, 1.000000000000000000, -0.000000000000000000 ) ) ;
#152 = DIRECTION ( 'NONE',  ( -0.000000000000000000, 1.000000000000000000, -0.000000000000000000 ) ) ;
#153 = ORIENTED_EDGE ( 'NONE', *, *, #90, .T. ) ;
#154 = CIRCLE ( 'NONE', #818, 12.75000000000000000 ) ;
#155 = CARTESIAN_POINT ( 'NONE',  ( 0.000000000000000000, 8.500000000000000000, 0.000000000000000000 ) ) ;
#156 = CIRCLE ( 'NONE', #764, 12.75000000000000000 ) ;
#157 = DIRECTION ( 'NONE',  ( 1.000000000000000000, 0.000000000000000000, 0.000000000000000000 ) ) ;
#158 = DIRECTION ( 'NONE',  ( 0.000000000000000000, 0.000000000000000000, 1.000000000000000000 ) ) ;
#159 = LINE ( 'NONE', #477, #878 ) ;
#160 = ORIENTED_EDGE ( 'NONE', *, *, #460, .T. ) ;
#161 = DIRECTION ( 'NONE',  ( -0.000000000000000000, 1.000000000000000000, -0.000000000000000000 ) ) ;
#162 = ADVANCED_FACE ( 'NONE', ( #198 ), #301, .T. ) ;
#163 = DIRECTION ( 'NONE',  ( 0.000000000000000000, 0.000000000000000000, 1.000000000000000000 ) ) ;
#164 = EDGE_LOOP ( 'NONE', ( #458, #704, #118, #710 ) ) ;
#165 = CIRCLE ( 'NONE', #439, 11.90000000000000036 ) ;
#166 = DIRECTION ( 'NONE',  ( 0.000000000000000000, 0.000000000000000000, 1.000000000000000000 ) ) ;
#167 = DIRECTION ( 'NONE',  ( 0.000000000000000000, 1.000000000000000000, 0.000000000000000000 ) ) ;
#168 = CONICAL_SURFACE ( 'NONE', #115, 13.16685290815967946, 0.7853981633974415066 ) ;
#169 = DIRECTION ( 'NONE',  ( -0.000000000000000000, 1.000000000000000000, -0.000000000000000000 ) ) ;
#170 = ADVANCED_FACE ( 'NONE', ( #874 ), #524, .T. ) ;
#171 = CIRCLE ( 'NONE', #1009, 16.00000000000000000 ) ;
#172 = EDGE_CURVE ( 'NONE', #905, #390, #175, .T. ) ;
#173 = DIRECTION ( 'NONE',  ( -0.000000000000000000, 1.000000000000000000, -0.000000000000000000 ) ) ;
#174 = CARTESIAN_POINT ( 'NONE',  ( 0.000000000000000000, -1.734723475976807094E-15, 0.000000000000000000 ) ) ;
#175 = CIRCLE ( 'NONE', #387, 11.00000000000000000 ) ;
#176 = ORIENTED_EDGE ( 'NONE', *, *, #889, .F. ) ;
#177 = DIRECTION ( 'NONE',  ( 0.000000000000000000, 0.000000000000000000, -1.000000000000000000 ) ) ;
#178 = AXIS2_PLACEMENT_3D ( 'NONE', #63, #400, #567 ) ;
#179 = CARTESIAN_POINT ( 'NONE',  ( 0.000000000000000000, 8.000000000000000000, 0.000000000000000000 ) ) ;
#180 = CARTESIAN_POINT ( 'NONE',  ( 0.000000000000000000, 0.5000000000000134337, 0.000000000000000000 ) ) ;
#181 = CARTESIAN_POINT ( 'NONE',  ( -1.224646799147365903E-17, 12.49999999999999822, -15.90000000000000036 ) ) ;
#182 = FACE_BOUND ( 'NONE', #552, .T. ) ;
#183 = VERTEX_POINT ( 'NONE', #897 ) ;
#184 = EDGE_CURVE ( 'NONE', #279, #293, #1071, .T. ) ;
#185 = DIRECTION ( 'NONE',  ( 0.000000000000000000, 0.000000000000000000, -1.000000000000000000 ) ) ;
#186 = VECTOR ( 'NONE', #189, 1000.000000000000000 ) ;
#187 = AXIS2_PLACEMENT_3D ( 'NONE', #359, #671, #96 ) ;
#188 = CARTESIAN_POINT ( 'NONE',  ( 0.000000000000000000, 12.49999999999999822, 17.00000000000001421 ) ) ;
#189 = DIRECTION ( 'NONE',  ( 0.000000000000000000, 0.7071067811865524577, 0.7071067811865426878 ) ) ;
#190 = ORIENTED_EDGE ( 'NONE', *, *, #967, .F. ) ;
#191 = EDGE_CURVE ( 'NONE', #435, #573, #670, .T. ) ;
#192 = ADVANCED_FACE ( 'NONE', ( #739 ), #146, .F. ) ;
#193 =( LENGTH_UNIT ( ) NAMED_UNIT ( * ) SI_UNIT ( .MILLI., .METRE. ) );
#194 = LINE ( 'NONE', #619, #534 ) ;
#195 = EDGE_LOOP ( 'NONE', ( #342, #533, #140, #470 ) ) ;
#196 = COLOUR_RGB ( '',0.7921568627450980005, 0.8196078431372548767, 0.9333333333333333481 ) ;
#197 = ORIENTED_EDGE ( 'NONE', *, *, #28, .F. ) ;
#198 = FACE_OUTER_BOUND ( 'NONE', #872, .T. ) ;
#199 = DIRECTION ( 'NONE',  ( -0.000000000000000000, 1.000000000000000000, -0.000000000000000000 ) ) ;
#200 = ORIENTED_EDGE ( 'NONE', *, *, #423, .T. ) ;
#201 = EDGE_LOOP ( 'NONE', ( #961, #944 ) ) ;
#202 = AXIS2_PLACEMENT_3D ( 'NONE', #998, #737, #827 ) ;
#203 = EDGE_CURVE ( 'NONE', #77, #976, #159, .T. ) ;
#204 = CONICAL_SURFACE ( 'NONE', #909, 13.16685290815967946, 0.7853981633974415066 ) ;
#205 = DIRECTION ( 'NONE',  ( 0.000000000000000000, 1.000000000000000000, 0.000000000000000000 ) ) ;
#206 = DIRECTION ( 'NONE',  ( -0.000000000000000000, 1.000000000000000000, -0.000000000000000000 ) ) ;
#207 = ORIENTED_EDGE ( 'NONE', *, *, #1076, .F. ) ;
#208 = EDGE_LOOP ( 'NONE', ( #1023, #782 ) ) ;
#209 = CIRCLE ( 'NONE', #696, 1.000000000000000888 ) ;
#210 = CARTESIAN_POINT ( 'NONE',  ( -13.16685290815967946, 1.000000000000000000, 0.000000000000000000 ) ) ;
#211 = FACE_BOUND ( 'NONE', #694, .T. ) ;
#212 = ORIENTED_EDGE ( 'NONE', *, *, #1002, .T. ) ;
#213 = ORIENTED_EDGE ( 'NONE', *, *, #306, .T. ) ;
#214 = VECTOR ( 'NONE', #132, 1000.000000000000000 ) ;
#215 = CARTESIAN_POINT ( 'NONE',  ( 1.522009167578630112E-15, 1.399999999999998579, -12.42814800674212350 ) ) ;
#216 = DIRECTION ( 'NONE',  ( -0.000000000000000000, 1.000000000000000000, -0.000000000000000000 ) ) ;
#217 = VERTEX_POINT ( 'NONE', #332 ) ;
#218 = ORIENTED_EDGE ( 'NONE', *, *, #647, .F. ) ;
#219 = ADVANCED_FACE ( 'NONE', ( #1066 ), #914, .F. ) ;
#220 = EDGE_CURVE ( 'NONE', #798, #305, #467, .T. ) ;
#221 = CARTESIAN_POINT ( 'NONE',  ( 0.000000000000000000, 0.5000000000000134337, 0.000000000000000000 ) ) ;
#222 = FILL_AREA_STYLE ('',( #1050 ) ) ;
#223 = EDGE_LOOP ( 'NONE', ( #768, #311 ) ) ;
#224 = CIRCLE ( 'NONE', #1045, 12.75000000000000000 ) ;
#225 = ORIENTED_EDGE ( 'NONE', *, *, #478, .F. ) ;
#226 = DIRECTION ( 'NONE',  ( -0.000000000000000000, 1.000000000000000000, -0.000000000000000000 ) ) ;
#227 = EDGE_CURVE ( 'NONE', #293, #949, #1016, .T. ) ;
#228 = ADVANCED_FACE ( 'NONE', ( #814 ), #571, .F. ) ;
#229 = CARTESIAN_POINT ( 'NONE',  ( 0.000000000000000000, 1.899999999999999023, 12.75000000000000000 ) ) ;
#230 = CARTESIAN_POINT ( 'NONE',  ( 1.347111479062088405E-15, 0.3999999999999993006, -11.00000000000000000 ) ) ;
#231 = CARTESIAN_POINT ( 'NONE',  ( 0.000000000000000000, 8.000000000000000000, 0.000000000000000000 ) ) ;
#232 = ORIENTED_EDGE ( 'NONE', *, *, #172, .T. ) ;
#233 = DIRECTION ( 'NONE',  ( 0.000000000000000000, 1.000000000000000000, 0.000000000000000000 ) ) ;
#234 = CARTESIAN_POINT ( 'NONE',  ( 0.000000000000000000, 6.346694638965782786, 0.000000000000000000 ) ) ;
#235 = FACE_BOUND ( 'NONE', #352, .T. ) ;
#236 = ORIENTED_EDGE ( 'NONE', *, *, #727, .T. ) ;
#237 = CIRCLE ( 'NONE', #927, 1.000000000000000888 ) ;
#238 = DIRECTION ( 'NONE',  ( 0.000000000000000000, 0.000000000000000000, -1.000000000000000000 ) ) ;
#239 = DIRECTION ( 'NONE',  ( -0.000000000000000000, 1.000000000000000000, -0.000000000000000000 ) ) ;
#240 = CARTESIAN_POINT ( 'NONE',  ( 0.000000000000000000, 0.3999999999999993006, 0.000000000000000000 ) ) ;
#241 = EDGE_CURVE ( 'NONE', #882, #217, #171, .T. ) ;
#242 = ORIENTED_EDGE ( 'NONE', *, *, #767, .F. ) ;
#243 = AXIS2_PLACEMENT_3D ( 'NONE', #292, #1022, #12 ) ;
#244 = DIRECTION ( 'NONE',  ( 0.000000000000000000, 0.000000000000000000, -1.000000000000000000 ) ) ;
#245 = COLOUR_RGB ( '',0.7921568627450980005, 0.8196078431372548767, 0.9333333333333333481 ) ;
#246 = DIRECTION ( 'NONE',  ( 0.000000000000000000, 0.000000000000000000, 1.000000000000000000 ) ) ;
#247 = AXIS2_PLACEMENT_3D ( 'NONE', #57, #1060, #315 ) ;
#248 = DIRECTION ( 'NONE',  ( 0.000000000000000000, 0.000000000000000000, 1.000000000000000000 ) ) ;
#249 = VERTEX_POINT ( 'NONE', #974 ) ;
#250 = DIRECTION ( 'NONE',  ( 0.000000000000000000, 0.000000000000000000, 1.000000000000000000 ) ) ;
#251 = DIRECTION ( 'NONE',  ( 0.000000000000000000, 0.000000000000000000, 1.000000000000000000 ) ) ;
#252 = VECTOR ( 'NONE', #239, 1000.000000000000000 ) ;
#253 = DIRECTION ( 'NONE',  ( 0.000000000000000000, 0.000000000000000000, 1.000000000000000000 ) ) ;
#254 =( GEOMETRIC_REPRESENTATION_CONTEXT ( 3 ) GLOBAL_UNCERTAINTY_ASSIGNED_CONTEXT ( ( #979 ) ) GLOBAL_UNIT_ASSIGNED_CONTEXT ( ( #661, #984, #36 ) ) REPRESENTATION_CONTEXT ( 'NONE', 'WORKASPACE' ) );
#255 = EDGE_CURVE ( 'NONE', #305, #721, #209, .T. ) ;
#256 = CARTESIAN_POINT ( 'NONE',  ( 0.000000000000000000, -1.734723475976807094E-15, 11.00000000000000000 ) ) ;
#257 = EDGE_CURVE ( 'NONE', #843, #126, #473, .T. ) ;
#258 = DIRECTION ( 'NONE',  ( 0.000000000000000000, 0.000000000000000000, 1.000000000000000000 ) ) ;
#259 = AXIS2_PLACEMENT_3D ( 'NONE', #811, #817, #244 ) ;
#260 = CARTESIAN_POINT ( 'NONE',  ( 3.894376821288583549E-15, 12.49999999999999822, 15.90000000000000036 ) ) ;
#261 = VERTEX_POINT ( 'NONE', #229 ) ;
#262 = LINE ( 'NONE', #554, #838 ) ;
#263 = DIRECTION ( 'NONE',  ( -0.000000000000000000, 1.000000000000000000, -0.000000000000000000 ) ) ;
#264 = CARTESIAN_POINT ( 'NONE',  ( 1.457329690985350393E-15, 6.346694638965782786, -11.90000000000000036 ) ) ;
#265 = CONICAL_SURFACE ( 'NONE', #592, 11.90000000000000036, 0.7853981633974415066 ) ;
#266 = EDGE_LOOP ( 'NONE', ( #856, #740, #94, #822 ) ) ;
#267 = EDGE_CURVE ( 'NONE', #249, #287, #612, .T. ) ;
#268 = FACE_BOUND ( 'NONE', #119, .T. ) ;
#269 = CARTESIAN_POINT ( 'NONE',  ( -0.9976257860396028354, 8.500000000000000000, -15.96886792452830228 ) ) ;
#270 = CARTESIAN_POINT ( 'NONE',  ( 1.518562030942715600E-15, 1.000000000000000000, -12.39999999999998082 ) ) ;
#271 = FACE_OUTER_BOUND ( 'NONE', #309, .T. ) ;
#272 = ORIENTED_EDGE ( 'NONE', *, *, #867, .F. ) ;
#273 = DIRECTION ( 'NONE',  ( 0.000000000000000000, -0.000000000000000000, 1.000000000000000000 ) ) ;
#274 = ADVANCED_FACE ( 'NONE', ( #733, #235 ), #903, .F. ) ;
#275 = DIRECTION ( 'NONE',  ( -0.000000000000000000, 1.000000000000000000, -0.000000000000000000 ) ) ;
#276 = ORIENTED_EDGE ( 'NONE', *, *, #267, .T. ) ;
#277 = EDGE_CURVE ( 'NONE', #611, #562, #826, .T. ) ;
#278 = CIRCLE ( 'NONE', #187, 11.00000000000000000 ) ;
#279 = VERTEX_POINT ( 'NONE', #475 ) ;
#280 = SURFACE_STYLE_FILL_AREA ( #939 ) ;
#281 = LINE ( 'NONE', #269, #873 ) ;
#282 = VERTEX_POINT ( 'NONE', #913 ) ;
#283 = EDGE_LOOP ( 'NONE', ( #45, #772, #457, #894 ) ) ;
#284 = AXIS2_PLACEMENT_3D ( 'NONE', #708, #1043, #801 ) ;
#285 = DIRECTION ( 'NONE',  ( 0.000000000000000000, 0.000000000000000000, 1.000000000000000000 ) ) ;
#286 = CARTESIAN_POINT ( 'NONE',  ( -1.224646799147365903E-17, 8.500000000000000000, -15.90000000000000036 ) ) ;
#287 = VERTEX_POINT ( 'NONE', #836 ) ;
#288 = EDGE_CURVE ( 'NONE', #573, #41, #743, .T. ) ;
#289 = VECTOR ( 'NONE', #731, 1000.000000000000000 ) ;
#290 = VECTOR ( 'NONE', #749, 1000.000000000000114 ) ;
#291 = CARTESIAN_POINT ( 'NONE',  ( 0.000000000000000000, 13.00000000000000000, 0.000000000000000000 ) ) ;
#292 = CARTESIAN_POINT ( 'NONE',  ( 3.894376821288583549E-15, 8.500000000000000000, 15.90000000000000036 ) ) ;
#293 = VERTEX_POINT ( 'NONE', #407 ) ;
#294 = ORIENTED_EDGE ( 'NONE', *, *, #943, .T. ) ;
#295 = AXIS2_PLACEMENT_3D ( 'NONE', #895, #233, #238 ) ;
#296 = AXIS2_PLACEMENT_3D ( 'NONE', #336, #86, #591 ) ;
#297 = DIRECTION ( 'NONE',  ( 0.000000000000000000, 0.000000000000000000, 1.000000000000000000 ) ) ;
#298 = VERTEX_POINT ( 'NONE', #992 ) ;
#299 = ORIENTED_EDGE ( 'NONE', *, *, #967, .T. ) ;
#300 = CIRCLE ( 'NONE', #202, 16.00000000000000000 ) ;
#301 = CYLINDRICAL_SURFACE ( 'NONE', #610, 19.00000000000000000 ) ;
#302 = EDGE_CURVE ( 'NONE', #937, #700, #300, .T. ) ;
#303 =( LENGTH_UNIT ( ) NAMED_UNIT ( * ) SI_UNIT ( .MILLI., .METRE. ) );
#304 = VERTEX_POINT ( 'NONE', #813 ) ;
#305 = VERTEX_POINT ( 'NONE', #62 ) ;
#306 = EDGE_CURVE ( 'NONE', #877, #989, #24, .T. ) ;
#307 = AXIS2_PLACEMENT_3D ( 'NONE', #597, #773, #19 ) ;
#308 = FACE_OUTER_BOUND ( 'NONE', #47, .T. ) ;
#309 = EDGE_LOOP ( 'NONE', ( #726, #553, #523, #328 ) ) ;
#310 = ADVANCED_FACE ( 'NONE', ( #1086 ), #831, .F. ) ;
#311 = ORIENTED_EDGE ( 'NONE', *, *, #172, .F. ) ;
#312 = DIRECTION ( 'NONE',  ( 8.659560562354874926E-17, 0.7071067811865524577, -0.7071067811865426878 ) ) ;
#313 = DIRECTION ( 'NONE',  ( 0.000000000000000000, 0.000000000000000000, 1.000000000000000000 ) ) ;
#314 = DIRECTION ( 'NONE',  ( 0.000000000000000000, 0.000000000000000000, 1.000000000000000000 ) ) ;
#315 = DIRECTION ( 'NONE',  ( 0.000000000000000000, 0.000000000000000000, 1.000000000000000000 ) ) ;
#316 = AXIS2_PLACEMENT_3D ( 'NONE', #286, #865, #113 ) ;
#317 = ORIENTED_EDGE ( 'NONE', *, *, #1002, .F. ) ;
#318 = DIRECTION ( 'NONE',  ( -0.000000000000000000, 1.000000000000000000, -0.000000000000000000 ) ) ;
#319 = UNCERTAINTY_MEASURE_WITH_UNIT (LENGTH_MEASURE( 1.000000000000000082E-05 ), #193, 'distance_accuracy_value', 'NONE');
#320 = FACE_OUTER_BOUND ( 'NONE', #164, .T. ) ;
#321 = CARTESIAN_POINT ( 'NONE',  ( 1.561424668912875111E-15, 1.399999999999998579, -12.75000000000000000 ) ) ;
#322 = DIRECTION ( 'NONE',  ( 0.000000000000000000, 1.000000000000000000, 0.000000000000000000 ) ) ;
#323 = ORIENTED_EDGE ( 'NONE', *, *, #742, .T. ) ;
#324 = DIRECTION ( 'NONE',  ( 0.000000000000000000, 0.000000000000000000, -1.000000000000000000 ) ) ;
#325 = ADVANCED_FACE ( 'NONE', ( #672 ), #1070, .F. ) ;
#326 = DIRECTION ( 'NONE',  ( 0.000000000000000000, 0.000000000000000000, 1.000000000000000000 ) ) ;
#327 = DIRECTION ( 'NONE',  ( 0.000000000000000000, 0.000000000000000000, 1.000000000000000000 ) ) ;
#328 = ORIENTED_EDGE ( 'NONE', *, *, #1063, .F. ) ;
#329 = AXIS2_PLACEMENT_3D ( 'NONE', #102, #87, #345 ) ;
#330 = CARTESIAN_POINT ( 'NONE',  ( 0.000000000000000000, 1.899999999999999023, 0.000000000000000000 ) ) ;
#331 = DIRECTION ( 'NONE',  ( -0.000000000000000000, 1.000000000000000000, 0.000000000000000000 ) ) ;
#332 = CARTESIAN_POINT ( 'NONE',  ( 0.9976257860396028354, 12.50000000000000533, -15.96886792452830228 ) ) ;
#333 = EDGE_LOOP ( 'NONE', ( #147, #899, #6, #864 ) ) ;
#334 = CYLINDRICAL_SURFACE ( 'NONE', #953, 11.50000000000000000 ) ;
#335 = PLANE ( 'NONE',  #901 ) ;
#336 = CARTESIAN_POINT ( 'NONE',  ( 0.000000000000000000, -6.735557395310442023E-16, 0.000000000000000000 ) ) ;
#337 = CARTESIAN_POINT ( 'NONE',  ( 0.000000000000000000, 12.49999999999999822, 0.000000000000000000 ) ) ;
#338 = AXIS2_PLACEMENT_3D ( 'NONE', #234, #648, #246 ) ;
#339 = DIRECTION ( 'NONE',  ( -0.000000000000000000, 1.000000000000000000, 0.000000000000000000 ) ) ;
#340 = EDGE_CURVE ( 'NONE', #721, #937, #93, .T. ) ;
#341 = CARTESIAN_POINT ( 'NONE',  ( 0.000000000000000000, 13.00000000000000000, 0.000000000000000000 ) ) ;
#342 = ORIENTED_EDGE ( 'NONE', *, *, #837, .T. ) ;
#343 = PLANE ( 'NONE',  #666 ) ;
#344 = VECTOR ( 'NONE', #226, 1000.000000000000000 ) ;
#345 = DIRECTION ( 'NONE',  ( 0.000000000000000000, 0.000000000000000000, 1.000000000000000000 ) ) ;
#346 = ORIENTED_EDGE ( 'NONE', *, *, #21, .F. ) ;
#347 = DIRECTION ( 'NONE',  ( 0.000000000000000000, 0.000000000000000000, 1.000000000000000000 ) ) ;
#348 = DIRECTION ( 'NONE',  ( 0.000000000000000000, 0.000000000000000000, 1.000000000000000000 ) ) ;
#349 = CARTESIAN_POINT ( 'NONE',  ( 0.000000000000000000, 12.49999999999999822, 17.00000000000001421 ) ) ;
#350 = PLANE ( 'NONE',  #307 ) ;
#351 = EDGE_CURVE ( 'NONE', #390, #435, #1065, .T. ) ;
#352 = EDGE_LOOP ( 'NONE', ( #451, #793 ) ) ;
#353 = DIRECTION ( 'NONE',  ( 0.000000000000000000, 0.000000000000000000, 1.000000000000000000 ) ) ;
#354 = CYLINDRICAL_SURFACE ( 'NONE', #853, 11.90000000000000036 ) ;
#355 = ORIENTED_EDGE ( 'NONE', *, *, #730, .F. ) ;
#356 = AXIS2_PLACEMENT_3D ( 'NONE', #681, #766, #436 ) ;
#357 = FACE_OUTER_BOUND ( 'NONE', #982, .T. ) ;
#358 = VERTEX_POINT ( 'NONE', #415 ) ;
#359 = CARTESIAN_POINT ( 'NONE',  ( 0.000000000000000000, 0.3999999999999993006, 0.000000000000000000 ) ) ;
#360 = AXIS2_PLACEMENT_3D ( 'NONE', #411, #399, #570 ) ;
#361 = DIRECTION ( 'NONE',  ( -0.000000000000000000, 1.000000000000000000, -0.000000000000000000 ) ) ;
#362 = EDGE_LOOP ( 'NONE', ( #10, #52, #35, #887 ) ) ;
#363 = CIRCLE ( 'NONE', #763, 19.00000000000000000 ) ;
#364 = ORIENTED_EDGE ( 'NONE', *, *, #529, .T. ) ;
#365 = DIRECTION ( 'NONE',  ( 0.000000000000000000, 1.000000000000000000, 0.000000000000000000 ) ) ;
#366 = CARTESIAN_POINT ( 'NONE',  ( 3.894376821288583549E-15, 8.500000000000000000, 16.90000000000000213 ) ) ;
#367 = ORIENTED_EDGE ( 'NONE', *, *, #1030, .T. ) ;
#368 = ADVANCED_FACE ( 'NONE', ( #747, #1081 ), #335, .T. ) ;
#369 = CARTESIAN_POINT ( 'NONE',  ( 0.000000000000000000, 0.000000000000000000, -19.00000000000000000 ) ) ;
#370 = DIRECTION ( 'NONE',  ( -0.000000000000000000, 1.000000000000000000, -0.000000000000000000 ) ) ;
#371 = ORIENTED_EDGE ( 'NONE', *, *, #302, .T. ) ;
#372 = ORIENTED_EDGE ( 'NONE', *, *, #144, .T. ) ;
#373 = CIRCLE ( 'NONE', #38, 12.16685290815968656 ) ;
#374 = DIRECTION ( 'NONE',  ( -0.000000000000000000, 1.000000000000000000, -0.000000000000000000 ) ) ;
#375 = CARTESIAN_POINT ( 'NONE',  ( 1.612474426882176900E-15, 6.999999999999993783, -13.16685290815967946 ) ) ;
#376 = ORIENTED_EDGE ( 'NONE', *, *, #677, .T. ) ;
#377 = VERTEX_POINT ( 'NONE', #143 ) ;
#378 = EDGE_CURVE ( 'NONE', #413, #58, #373, .T. ) ;
#379 = AXIS2_PLACEMENT_3D ( 'NONE', #1085, #167, #253 ) ;
#380 = CARTESIAN_POINT ( 'NONE',  ( 0.000000000000000000, 8.500000000000000000, 0.000000000000000000 ) ) ;
#381 = FACE_OUTER_BOUND ( 'NONE', #792, .T. ) ;
#382 = ORIENTED_EDGE ( 'NONE', *, *, #1000, .T. ) ;
#383 = VERTEX_POINT ( 'NONE', #321 ) ;
#384 = AXIS2_PLACEMENT_3D ( 'NONE', #210, #50, #535 ) ;
#385 = EDGE_CURVE ( 'NONE', #77, #130, #476, .T. ) ;
#386 = EDGE_CURVE ( 'NONE', #989, #877, #1004, .T. ) ;
#387 = AXIS2_PLACEMENT_3D ( 'NONE', #629, #544, #884 ) ;
#388 = CARTESIAN_POINT ( 'NONE',  ( 0.000000000000000000, 0.000000000000000000, 0.000000000000000000 ) ) ;
#389 = CARTESIAN_POINT ( 'NONE',  ( 1.612474426882176900E-15, 6.999999999999993783, 13.16685290815967946 ) ) ;
#390 = VERTEX_POINT ( 'NONE', #256 ) ;
#391 = VERTEX_POINT ( 'NONE', #980 ) ;
#392 = CARTESIAN_POINT ( 'NONE',  ( 0.000000000000000000, 13.00000000000000000, 0.000000000000000000 ) ) ;
#393 = VECTOR ( 'NONE', #469, 1000.000000000000000 ) ;
#394 = CARTESIAN_POINT ( 'NONE',  ( 0.000000000000000000, 6.346694638965782786, 0.000000000000000000 ) ) ;
#395 = SURFACE_STYLE_USAGE ( .BOTH. , #1054 ) ;
#396 = ORIENTED_EDGE ( 'NONE', *, *, #883, .F. ) ;
#397 = ORIENTED_EDGE ( 'NONE', *, *, #542, .T. ) ;
#398 = CYLINDRICAL_SURFACE ( 'NONE', #604, 11.00000000000000000 ) ;
#399 = DIRECTION ( 'NONE',  ( 0.000000000000000000, 1.000000000000000000, 0.000000000000000000 ) ) ;
#400 = DIRECTION ( 'NONE',  ( 0.000000000000000000, 1.000000000000000000, 0.000000000000000000 ) ) ;
#401 = ORIENTED_EDGE ( 'NONE', *, *, #42, .F. ) ;
#402 = AXIS2_PLACEMENT_3D ( 'NONE', #722, #563, #736 ) ;
#403 = ORIENTED_EDGE ( 'NONE', *, *, #727, .F. ) ;
#404 = FACE_OUTER_BOUND ( 'NONE', #465, .T. ) ;
#405 = EDGE_CURVE ( 'NONE', #608, #358, #426, .T. ) ;
#406 = AXIS2_PLACEMENT_3D ( 'NONE', #380, #968, #285 ) ;
#407 = CARTESIAN_POINT ( 'NONE',  ( 0.000000000000000000, 12.50000000000002309, -19.00000000000000000 ) ) ;
#408 = DIRECTION ( 'NONE',  ( -0.000000000000000000, 1.000000000000000000, -0.000000000000000000 ) ) ;
#409 = ORIENTED_EDGE ( 'NONE', *, *, #90, .F. ) ;
#410 = FACE_OUTER_BOUND ( 'NONE', #283, .T. ) ;
#411 = CARTESIAN_POINT ( 'NONE',  ( 0.000000000000000000, 12.49999999999999822, 0.000000000000000000 ) ) ;
#412 = DIRECTION ( 'NONE',  ( 0.000000000000000000, 1.000000000000000000, 0.000000000000000000 ) ) ;
#413 = VERTEX_POINT ( 'NONE', #819 ) ;
#414 = FACE_OUTER_BOUND ( 'NONE', #447, .T. ) ;
#415 = CARTESIAN_POINT ( 'NONE',  ( 1.457329690985350393E-15, 8.500000000000000000, -11.90000000000000036 ) ) ;
#416 = EDGE_CURVE ( 'NONE', #937, #882, #654, .T. ) ;
#417 = EDGE_CURVE ( 'NONE', #287, #249, #655, .T. ) ;
#418 = AXIS2_PLACEMENT_3D ( 'NONE', #392, #652, #60 ) ;
#419 = VECTOR ( 'NONE', #429, 1000.000000000000000 ) ;
#420 = CARTESIAN_POINT ( 'NONE',  ( 2.265596578422606946E-15, 13.00000000000000000, 18.50000000000002842 ) ) ;
#421 = CARTESIAN_POINT ( 'NONE',  ( 0.000000000000000000, 1.899999999999999023, 0.000000000000000000 ) ) ;
#422 = ADVANCED_FACE ( 'NONE', ( #425 ), #932, .T. ) ;
#423 = EDGE_CURVE ( 'NONE', #304, #41, #617, .T. ) ;
#424 = CARTESIAN_POINT ( 'NONE',  ( 0.000000000000000000, 8.500000000000000000, 0.000000000000000000 ) ) ;
#425 = FACE_OUTER_BOUND ( 'NONE', #1008, .T. ) ;
#426 = CIRCLE ( 'NONE', #512, 11.90000000000000036 ) ;
#427 = CARTESIAN_POINT ( 'NONE',  ( 2.326828918379970576E-15, 12.50000000000002309, 19.00000000000000000 ) ) ;
#428 = DIRECTION ( 'NONE',  ( 0.000000000000000000, 0.000000000000000000, 1.000000000000000000 ) ) ;
#429 = DIRECTION ( 'NONE',  ( -0.000000000000000000, 1.000000000000000000, -0.000000000000000000 ) ) ;
#430 = CARTESIAN_POINT ( 'NONE',  ( 0.000000000000000000, 8.500000000000000000, 0.000000000000000000 ) ) ;
#431 = VECTOR ( 'NONE', #531, 1000.000000000000000 ) ;
#432 = EDGE_CURVE ( 'NONE', #391, #716, #165, .T. ) ;
#433 = FACE_BOUND ( 'NONE', #703, .T. ) ;
#434 = DIRECTION ( 'NONE',  ( -0.000000000000000000, 1.000000000000000000, -0.000000000000000000 ) ) ;
#435 = VERTEX_POINT ( 'NONE', #923 ) ;
#436 = DIRECTION ( 'NONE',  ( 0.000000000000000000, 0.000000000000000000, 1.000000000000000000 ) ) ;
#437 = DIRECTION ( 'NONE',  ( 0.000000000000000000, 0.000000000000000000, -1.000000000000000000 ) ) ;
#438 = ORIENTED_EDGE ( 'NONE', *, *, #267, .F. ) ;
#439 = AXIS2_PLACEMENT_3D ( 'NONE', #180, #92, #185 ) ;
#440 = EDGE_CURVE ( 'NONE', #390, #905, #633, .T. ) ;
#441 = CARTESIAN_POINT ( 'NONE',  ( 2.081899558550502252E-15, 12.49999999999999822, -17.00000000000001421 ) ) ;
#442 = LINE ( 'NONE', #645, #344 ) ;
#443 = ORIENTED_EDGE ( 'NONE', *, *, #351, .T. ) ;
#444 = CIRCLE ( 'NONE', #316, 1.000000000000000888 ) ;
#445 = FACE_BOUND ( 'NONE', #89, .T. ) ;
#446 = CARTESIAN_POINT ( 'NONE',  ( 0.000000000000000000, 6.346694638965782786, 0.000000000000000000 ) ) ;
#447 = EDGE_LOOP ( 'NONE', ( #954, #212, #810, #108 ) ) ;
#448 = EDGE_LOOP ( 'NONE', ( #272, #911, #628, #53 ) ) ;
#449 = CARTESIAN_POINT ( 'NONE',  ( 0.000000000000000000, 1.899999999999999023, 11.50000000000000000 ) ) ;
#450 = LINE ( 'NONE', #607, #518 ) ;
#451 = ORIENTED_EDGE ( 'NONE', *, *, #277, .T. ) ;
#452 = ORIENTED_EDGE ( 'NONE', *, *, #191, .F. ) ;
#453 = EDGE_CURVE ( 'NONE', #134, #761, #966, .T. ) ;
#454 = AXIS2_PLACEMENT_3D ( 'NONE', #907, #250, #157 ) ;
#455 = CARTESIAN_POINT ( 'NONE',  ( 1.457329690985350393E-15, 6.346694638965782786, -11.90000000000000036 ) ) ;
#456 = DIRECTION ( 'NONE',  ( -0.000000000000000000, 1.000000000000000000, -0.000000000000000000 ) ) ;
#457 = ORIENTED_EDGE ( 'NONE', *, *, #73, .T. ) ;
#458 = ORIENTED_EDGE ( 'NONE', *, *, #125, .F. ) ;
#459 = ADVANCED_FACE ( 'NONE', ( #271 ), #705, .T. ) ;
#460 = EDGE_CURVE ( 'NONE', #949, #293, #566, .T. ) ;
#461 = AXIS2_PLACEMENT_3D ( 'NONE', #824, #978, #78 ) ;
#462 = CARTESIAN_POINT ( 'NONE',  ( 0.000000000000000000, 13.00000000000000000, 0.000000000000000000 ) ) ;
#463 = CARTESIAN_POINT ( 'NONE',  ( 1.408343819019456176E-15, 13.00000000000000000, -11.50000000000000000 ) ) ;
#464 = VERTEX_POINT ( 'NONE', #14 ) ;
#465 = EDGE_LOOP ( 'NONE', ( #499, #471, #735, #627 ) ) ;
#466 = CYLINDRICAL_SURFACE ( 'NONE', #418, 12.75000000000000000 ) ;
#467 = CIRCLE ( 'NONE', #142, 16.00000000000000000 ) ;
#468 = CARTESIAN_POINT ( 'NONE',  ( 2.081899558550502252E-15, 12.49999999999999822, -17.00000000000001421 ) ) ;
#469 = DIRECTION ( 'NONE',  ( -0.000000000000000000, 1.000000000000000000, -0.000000000000000000 ) ) ;
#470 = ORIENTED_EDGE ( 'NONE', *, *, #511, .F. ) ;
#471 = ORIENTED_EDGE ( 'NONE', *, *, #574, .T. ) ;
#472 = DIRECTION ( 'NONE',  ( 0.000000000000000000, 0.000000000000000000, 1.000000000000000000 ) ) ;
#473 = CIRCLE ( 'NONE', #1, 19.00000000000000000 ) ;
#474 = CYLINDRICAL_SURFACE ( 'NONE', #657, 11.90000000000000036 ) ;
#475 = CARTESIAN_POINT ( 'NONE',  ( 0.000000000000000000, 13.00000000000000000, -18.50000000000002842 ) ) ;
#476 = CIRCLE ( 'NONE', #109, 11.50000000000000000 ) ;
#477 = CARTESIAN_POINT ( 'NONE',  ( 0.000000000000000000, 13.00000000000000000, 11.50000000000000000 ) ) ;
#478 = EDGE_CURVE ( 'NONE', #517, #298, #673, .T. ) ;
#479 = ORIENTED_EDGE ( 'NONE', *, *, #806, .T. ) ;
#480 = ORIENTED_EDGE ( 'NONE', *, *, #497, .F. ) ;
#481 = ADVANCED_FACE ( 'NONE', ( #3 ), #514, .F. ) ;
#482 = CARTESIAN_POINT ( 'NONE',  ( 0.000000000000000000, 13.00000000000000000, 0.000000000000000000 ) ) ;
#483 = PRODUCT_CONTEXT ( 'NONE', #37, 'mechanical' ) ;
#484 = DIRECTION ( 'NONE',  ( 0.000000000000000000, 0.000000000000000000, 1.000000000000000000 ) ) ;
#485 = VECTOR ( 'NONE', #312, 1000.000000000000000 ) ;
#486 = DIRECTION ( 'NONE',  ( 0.000000000000000000, 1.000000000000000000, -0.000000000000000000 ) ) ;
#487 = AXIS2_PLACEMENT_3D ( 'NONE', #918, #507, #13 ) ;
#488 = EDGE_LOOP ( 'NONE', ( #371, #236, #809, #960, #863 ) ) ;
#489 = DIRECTION ( 'NONE',  ( 0.000000000000000000, 0.000000000000000000, 1.000000000000000000 ) ) ;
#490 = SHAPE_DEFINITION_REPRESENTATION ( #751, #120 ) ;
#491 = CARTESIAN_POINT ( 'NONE',  ( 3.894376821288583549E-15, 8.500000000000000000, 15.90000000000000036 ) ) ;
#492 = CARTESIAN_POINT ( 'NONE',  ( 3.894376821288583549E-15, 8.500000000000000000, 15.90000000000000036 ) ) ;
#493 = ORIENTED_EDGE ( 'NONE', *, *, #220, .F. ) ;
#494 = DIRECTION ( 'NONE',  ( 0.000000000000000000, -1.000000000000000000, 0.000000000000000000 ) ) ;
#495 = AXIS2_PLACEMENT_3D ( 'NONE', #869, #613, #946 ) ;
#496 = DIRECTION ( 'NONE',  ( 0.000000000000000000, 0.000000000000000000, 1.000000000000000000 ) ) ;
#497 = EDGE_CURVE ( 'NONE', #631, #391, #676, .T. ) ;
#498 = VECTOR ( 'NONE', #51, 1000.000000000000000 ) ;
#499 = ORIENTED_EDGE ( 'NONE', *, *, #385, .T. ) ;
#500 = LINE ( 'NONE', #420, #290 ) ;
#501 = EDGE_CURVE ( 'NONE', #882, #100, #237, .T. ) ;
#502 = DIRECTION ( 'NONE',  ( 0.000000000000000000, -1.000000000000000000, 0.000000000000000000 ) ) ;
#503 = ADVANCED_FACE ( 'NONE', ( #433, #357 ), #350, .F. ) ;
#504 = CIRCLE ( 'NONE', #1007, 11.50000000000000000 ) ;
#505 = DIRECTION ( 'NONE',  ( 0.000000000000000000, 0.000000000000000000, 1.000000000000000000 ) ) ;
#506 = DIRECTION ( 'NONE',  ( 0.000000000000000000, -1.000000000000000000, 0.000000000000000000 ) ) ;
#507 = DIRECTION ( 'NONE',  ( -0.000000000000000000, -1.000000000000000000, -0.000000000000000000 ) ) ;
#508 = CIRCLE ( 'NONE', #495, 11.90000000000000036 ) ;
#509 = CARTESIAN_POINT ( 'NONE',  ( 0.000000000000000000, 1.399999999999998579, 0.000000000000000000 ) ) ;
#510 = CARTESIAN_POINT ( 'NONE',  ( 1.347111479062088405E-15, -1.734723475976807094E-15, -11.00000000000000000 ) ) ;
#511 = EDGE_CURVE ( 'NONE', #1041, #261, #975, .T. ) ;
#512 = AXIS2_PLACEMENT_3D ( 'NONE', #902, #151, #484 ) ;
#513 = CARTESIAN_POINT ( 'NONE',  ( 0.000000000000000000, 8.500000000000000000, 11.50000000000000000 ) ) ;
#514 = CYLINDRICAL_SURFACE ( 'NONE', #356, 13.16685290815967946 ) ;
#515 = LINE ( 'NONE', #188, #419 ) ;
#516 = LINE ( 'NONE', #947, #431 ) ;
#517 = VERTEX_POINT ( 'NONE', #375 ) ;
#518 = VECTOR ( 'NONE', #206, 1000.000000000000000 ) ;
#519 = VECTOR ( 'NONE', #848, 1000.000000000000000 ) ;
#520 = DIRECTION ( 'NONE',  ( -0.000000000000000000, 1.000000000000000000, -0.000000000000000000 ) ) ;
#521 = FACE_OUTER_BOUND ( 'NONE', #594, .T. ) ;
#522 = CARTESIAN_POINT ( 'NONE',  ( 0.9976257860396028354, 8.500000000000000000, -15.96886792452830228 ) ) ;
#523 = ORIENTED_EDGE ( 'NONE', *, *, #423, .F. ) ;
#524 = CONICAL_SURFACE ( 'NONE', #649, 18.50000000000002842, 0.7853981633974447263 ) ;
#525 = ORIENTED_EDGE ( 'NONE', *, *, #417, .T. ) ;
#526 = DIRECTION ( 'NONE',  ( 0.000000000000000000, 1.000000000000000000, 0.000000000000000000 ) ) ;
#527 = ORIENTED_EDGE ( 'NONE', *, *, #386, .F. ) ;
#528 = VECTOR ( 'NONE', #456, 1000.000000000000000 ) ;
#529 = EDGE_CURVE ( 'NONE', #58, #298, #551, .T. ) ;
#530 = FACE_OUTER_BOUND ( 'NONE', #488, .T. ) ;
#531 = DIRECTION ( 'NONE',  ( -0.000000000000000000, 1.000000000000000000, -0.000000000000000000 ) ) ;
#532 = EDGE_LOOP ( 'NONE', ( #197, #372, #299, #589 ) ) ;
#533 = ORIENTED_EDGE ( 'NONE', *, *, #921, .T. ) ;
#534 = VECTOR ( 'NONE', #275, 1000.000000000000000 ) ;
#535 = DIRECTION ( 'NONE',  ( 0.000000000000000000, -0.000000000000000000, -1.000000000000000000 ) ) ;
#536 = LINE ( 'NONE', #781, #186 ) ;
#537 = ORIENTED_EDGE ( 'NONE', *, *, #136, .T. ) ;
#538 = ORIENTED_EDGE ( 'NONE', *, *, #405, .F. ) ;
#539 = LINE ( 'NONE', #468, #823 ) ;
#540 = FACE_OUTER_BOUND ( 'NONE', #678, .T. ) ;
#541 = CARTESIAN_POINT ( 'NONE',  ( -0.9976257860396181565, 12.49999999999999822, -15.96886792452830228 ) ) ;
#542 = EDGE_CURVE ( 'NONE', #949, #843, #959, .T. ) ;
#543 = ORIENTED_EDGE ( 'NONE', *, *, #227, .T. ) ;
#544 = DIRECTION ( 'NONE',  ( -0.000000000000000000, 1.000000000000000000, -0.000000000000000000 ) ) ;
#545 = DIRECTION ( 'NONE',  ( -0.000000000000000000, 1.000000000000000000, -0.000000000000000000 ) ) ;
#546 = EDGE_LOOP ( 'NONE', ( #964, #965, #995, #218 ) ) ;
#547 = EDGE_LOOP ( 'NONE', ( #480, #802, #1035, #479 ) ) ;
#548 = AXIS2_PLACEMENT_3D ( 'NONE', #963, #545, #699 ) ;
#549 = AXIS2_PLACEMENT_3D ( 'NONE', #181, #106, #598 ) ;
#550 = FACE_OUTER_BOUND ( 'NONE', #448, .T. ) ;
#551 = LINE ( 'NONE', #389, #214 ) ;
#552 = EDGE_LOOP ( 'NONE', ( #970, #15, #637, #833, #65 ) ) ;
#553 = ORIENTED_EDGE ( 'NONE', *, *, #288, .T. ) ;
#554 = CARTESIAN_POINT ( 'NONE',  ( -0.9976257860395988386, 8.500000000000000000, 15.96886792452830228 ) ) ;
#555 = CIRCLE ( 'NONE', #85, 11.90000000000000036 ) ;
#556 = DIRECTION ( 'NONE',  ( -0.000000000000000000, 1.000000000000000000, -0.000000000000000000 ) ) ;
#557 = ADVANCED_FACE ( 'NONE', ( #885 ), #969, .F. ) ;
#558 = VECTOR ( 'NONE', #618, 1000.000000000000000 ) ;
#559 = CARTESIAN_POINT ( 'NONE',  ( 3.894376821288583549E-15, 8.500000000000000000, 15.90000000000000036 ) ) ;
#560 = CARTESIAN_POINT ( 'NONE',  ( 0.000000000000000000, 0.000000000000000000, 0.000000000000000000 ) ) ;
#561 = DIRECTION ( 'NONE',  ( -0.000000000000000000, 1.000000000000000000, -0.000000000000000000 ) ) ;
#562 = VERTEX_POINT ( 'NONE', #719 ) ;
#563 = DIRECTION ( 'NONE',  ( -0.000000000000000000, 1.000000000000000000, -0.000000000000000000 ) ) ;
#564 = PRODUCT_DEFINITION_CONTEXT ( 'detailed design', #101, 'design' ) ;
#565 = CARTESIAN_POINT ( 'NONE',  ( 0.000000000000000000, 8.000000000000000000, 0.000000000000000000 ) ) ;
#566 = CIRCLE ( 'NONE', #1057, 19.00000000000000000 ) ;
#567 = DIRECTION ( 'NONE',  ( 0.000000000000000000, 0.000000000000000000, 1.000000000000000000 ) ) ;
#568 = ORIENTED_EDGE ( 'NONE', *, *, #144, .F. ) ;
#569 = CARTESIAN_POINT ( 'NONE',  ( 0.000000000000000000, 6.999999999999993783, 0.000000000000000000 ) ) ;
#570 = DIRECTION ( 'NONE',  ( 0.000000000000000000, 0.000000000000000000, 1.000000000000000000 ) ) ;
#571 = CYLINDRICAL_SURFACE ( 'NONE', #734, 1.000000000000000888 ) ;
#572 = MECHANICAL_DESIGN_GEOMETRIC_PRESENTATION_REPRESENTATION (  '', ( #955 ), #936 ) ;
#573 = VERTEX_POINT ( 'NONE', #230 ) ;
#574 = EDGE_CURVE ( 'NONE', #130, #81, #725, .T. ) ;
#575 = LINE ( 'NONE', #1058, #485 ) ;
#576 = MANIFOLD_SOLID_BREP ( 'Chamfer4', #135 ) ;
#577 = DIRECTION ( 'NONE',  ( 0.000000000000000000, 1.000000000000000000, -0.000000000000000000 ) ) ;
#578 = DIRECTION ( 'NONE',  ( 0.000000000000000000, 0.000000000000000000, 1.000000000000000000 ) ) ;
#579 = VERTEX_POINT ( 'NONE', #626 ) ;
#580 = ADVANCED_FACE ( 'NONE', ( #211, #540 ), #715, .F. ) ;
#581 = ADVANCED_FACE ( 'NONE', ( #381 ), #630, .F. ) ;
#582 = CARTESIAN_POINT ( 'NONE',  ( 0.000000000000000000, 13.00000000000000000, 11.00000000000000000 ) ) ;
#583 = CARTESIAN_POINT ( 'NONE',  ( 0.000000000000000000, 1.399999999999998579, 12.75000000000000000 ) ) ;
#584 = DIRECTION ( 'NONE',  ( -0.000000000000000000, 1.000000000000000000, -0.000000000000000000 ) ) ;
#585 = LINE ( 'NONE', #91, #800 ) ;
#586 = DIRECTION ( 'NONE',  ( 0.000000000000000000, 1.000000000000000000, 0.000000000000000000 ) ) ;
#587 = CONICAL_SURFACE ( 'NONE', #121, 12.42814800674212350, 0.9599310885968850293 ) ;
#588 = EDGE_CURVE ( 'NONE', #282, #716, #516, .T. ) ;
#589 = ORIENTED_EDGE ( 'NONE', *, *, #103, .F. ) ;
#590 = DIRECTION ( 'NONE',  ( 0.000000000000000000, 0.000000000000000000, 1.000000000000000000 ) ) ;
#591 = DIRECTION ( 'NONE',  ( 0.000000000000000000, 0.000000000000000000, 1.000000000000000000 ) ) ;
#592 = AXIS2_PLACEMENT_3D ( 'NONE', #221, #32, #131 ) ;
#593 = DIRECTION ( 'NONE',  ( 0.000000000000000000, 0.000000000000000000, 1.000000000000000000 ) ) ;
#594 = EDGE_LOOP ( 'NONE', ( #207, #364, #225, #620 ) ) ;
#595 = SURFACE_SIDE_STYLE ('',( #280 ) ) ;
#596 = CARTESIAN_POINT ( 'NONE',  ( 0.000000000000000000, 13.00000000000000000, 0.000000000000000000 ) ) ;
#597 = CARTESIAN_POINT ( 'NONE',  ( -1.666695104369873232E-16, 1.399999999999998579, 0.000000000000000000 ) ) ;
#598 = DIRECTION ( 'NONE',  ( 0.000000000000000000, 0.000000000000000000, 1.000000000000000000 ) ) ;
#599 = CARTESIAN_POINT ( 'NONE',  ( 0.000000000000000000, 1.899999999999999023, 0.000000000000000000 ) ) ;
#600 = EDGE_LOOP ( 'NONE', ( #1029, #815, #682, #711 ) ) ;
#601 = EDGE_CURVE ( 'NONE', #700, #217, #684, .T. ) ;
#602 = CIRCLE ( 'NONE', #259, 12.39999999999998082 ) ;
#603 = EDGE_CURVE ( 'NONE', #798, #18, #281, .T. ) ;
#604 = AXIS2_PLACEMENT_3D ( 'NONE', #1062, #318, #347 ) ;
#605 = ORIENTED_EDGE ( 'NONE', *, *, #478, .T. ) ;
#606 = PRESENTATION_STYLE_ASSIGNMENT (( #861 ) ) ;
#607 = CARTESIAN_POINT ( 'NONE',  ( 1.347111479062088405E-15, 13.00000000000000000, -11.00000000000000000 ) ) ;
#608 = VERTEX_POINT ( 'NONE', #854 ) ;
#609 = ADVANCED_FACE ( 'NONE', ( #870 ), #875, .F. ) ;
#610 = AXIS2_PLACEMENT_3D ( 'NONE', #701, #1039, #714 ) ;
#611 = VERTEX_POINT ( 'NONE', #785 ) ;
#612 = CIRCLE ( 'NONE', #178, 17.00000000000001421 ) ;
#613 = DIRECTION ( 'NONE',  ( 0.000000000000000000, 1.000000000000000000, 0.000000000000000000 ) ) ;
#614 = FACE_OUTER_BOUND ( 'NONE', #787, .T. ) ;
#615 = EDGE_LOOP ( 'NONE', ( #971, #537 ) ) ;
#616 = ORIENTED_EDGE ( 'NONE', *, *, #440, .T. ) ;
#617 = CIRCLE ( 'NONE', #1038, 12.42814800674212350 ) ;
#618 = DIRECTION ( 'NONE',  ( -0.000000000000000000, 1.000000000000000000, -0.000000000000000000 ) ) ;
#619 = CARTESIAN_POINT ( 'NONE',  ( 0.000000000000000000, 6.346694638965782786, 13.16685290815967946 ) ) ;
#620 = ORIENTED_EDGE ( 'NONE', *, *, #73, .F. ) ;
#621 = ORIENTED_EDGE ( 'NONE', *, *, #125, .T. ) ;
#622 = CIRCLE ( 'NONE', #732, 11.50000000000000000 ) ;
#623 = CIRCLE ( 'NONE', #712, 16.00000000000000000 ) ;
#624 = ADVANCED_FACE ( 'NONE', ( #123 ), #951, .T. ) ;
#625 = CARTESIAN_POINT ( 'NONE',  ( 0.000000000000000000, 1.000000000000000000, 13.16685290815967946 ) ) ;
#626 = CARTESIAN_POINT ( 'NONE',  ( 0.000000000000000000, 1.000000000000000000, 12.39999999999998082 ) ) ;
#627 = ORIENTED_EDGE ( 'NONE', *, *, #203, .F. ) ;
#628 = ORIENTED_EDGE ( 'NONE', *, *, #692, .T. ) ;
#629 = CARTESIAN_POINT ( 'NONE',  ( 0.000000000000000000, -1.734723475976807094E-15, 0.000000000000000000 ) ) ;
#630 = CYLINDRICAL_SURFACE ( 'NONE', #548, 17.00000000000001421 ) ;
#631 = VERTEX_POINT ( 'NONE', #117 ) ;
#632 = ORIENTED_EDGE ( 'NONE', *, *, #405, .T. ) ;
#633 = CIRCLE ( 'NONE', #832, 11.00000000000000000 ) ;
#634 = FACE_OUTER_BOUND ( 'NONE', #915, .T. ) ;
#635 =( NAMED_UNIT ( * ) PLANE_ANGLE_UNIT ( ) SI_UNIT ( $, .RADIAN. ) );
#636 = EDGE_LOOP ( 'NONE', ( #1024, #346 ) ) ;
#637 = ORIENTED_EDGE ( 'NONE', *, *, #1000, .F. ) ;
#638 = DIRECTION ( 'NONE',  ( -0.000000000000000000, 1.000000000000000000, -0.000000000000000000 ) ) ;
#639 = ADVANCED_FACE ( 'NONE', ( #771 ), #354, .F. ) ;
#640 = AXIS2_PLACEMENT_3D ( 'NONE', #482, #494, #324 ) ;
#641 = DIRECTION ( 'NONE',  ( 0.000000000000000000, -1.000000000000000000, 0.000000000000000000 ) ) ;
#642 = PRESENTATION_STYLE_ASSIGNMENT (( #395 ) ) ;
#643 = ORIENTED_EDGE ( 'NONE', *, *, #1063, .T. ) ;
#644 = ORIENTED_EDGE ( 'NONE', *, *, #184, .T. ) ;
#645 = CARTESIAN_POINT ( 'NONE',  ( 1.612474426882176900E-15, 6.346694638965782786, -13.16685290815967946 ) ) ;
#646 = PRODUCT_DEFINITION ( 'UNKNOWN', '', #1074, #564 ) ;
#647 = EDGE_CURVE ( 'NONE', #81, #976, #622, .T. ) ;
#648 = DIRECTION ( 'NONE',  ( -0.000000000000000000, 1.000000000000000000, -0.000000000000000000 ) ) ;
#649 = AXIS2_PLACEMENT_3D ( 'NONE', #291, #1049, #962 ) ;
#650 = CARTESIAN_POINT ( 'NONE',  ( 0.000000000000000000, 12.50000000000002309, 0.000000000000000000 ) ) ;
#651 = ORIENTED_EDGE ( 'NONE', *, *, #432, .F. ) ;
#652 = DIRECTION ( 'NONE',  ( -0.000000000000000000, 1.000000000000000000, -0.000000000000000000 ) ) ;
#653 = CARTESIAN_POINT ( 'NONE',  ( 0.000000000000000000, 6.346694638965782786, 0.000000000000000000 ) ) ;
#654 = LINE ( 'NONE', #987, #252 ) ;
#655 = CIRCLE ( 'NONE', #4, 17.00000000000001421 ) ;
#656 = EDGE_CURVE ( 'NONE', #905, #573, #450, .T. ) ;
#657 = AXIS2_PLACEMENT_3D ( 'NONE', #653, #556, #788 ) ;
#658 = DIRECTION ( 'NONE',  ( 0.000000000000000000, -1.000000000000000000, 0.000000000000000000 ) ) ;
#659 = ORIENTED_EDGE ( 'NONE', *, *, #542, .F. ) ;
#660 = CARTESIAN_POINT ( 'NONE',  ( 2.326828918379970576E-15, 0.000000000000000000, 19.00000000000000000 ) ) ;
#661 =( LENGTH_UNIT ( ) NAMED_UNIT ( * ) SI_UNIT ( .MILLI., .METRE. ) );
#662 = DIRECTION ( 'NONE',  ( -0.000000000000000000, 1.000000000000000000, -0.000000000000000000 ) ) ;
#663 = AXIS2_PLACEMENT_3D ( 'NONE', #1040, #526, #935 ) ;
#664 = DIRECTION ( 'NONE',  ( 0.000000000000000000, 1.000000000000000000, -0.000000000000000000 ) ) ;
#665 = EDGE_CURVE ( 'NONE', #261, #183, #154, .T. ) ;
#666 = AXIS2_PLACEMENT_3D ( 'NONE', #430, #339, #674 ) ;
#667 = ORIENTED_EDGE ( 'NONE', *, *, #891, .F. ) ;
#668 = FACE_OUTER_BOUND ( 'NONE', #195, .T. ) ;
#669 = DIRECTION ( 'NONE',  ( 0.000000000000000000, 0.000000000000000000, 1.000000000000000000 ) ) ;
#670 = CIRCLE ( 'NONE', #1087, 11.00000000000000000 ) ;
#671 = DIRECTION ( 'NONE',  ( 0.000000000000000000, -1.000000000000000000, 0.000000000000000000 ) ) ;
#672 = FACE_OUTER_BOUND ( 'NONE', #728, .T. ) ;
#673 = CIRCLE ( 'NONE', #329, 13.16685290815967946 ) ;
#674 = DIRECTION ( 'NONE',  ( 0.000000000000000000, 0.000000000000000000, 1.000000000000000000 ) ) ;
#675 = EDGE_CURVE ( 'NONE', #579, #1078, #83, .T. ) ;
#676 = LINE ( 'NONE', #264, #757 ) ;
#677 = EDGE_CURVE ( 'NONE', #134, #298, #194, .T. ) ;
#678 = EDGE_LOOP ( 'NONE', ( #778, #34 ) ) ;
#679 = AXIS2_PLACEMENT_3D ( 'NONE', #1079, #149, #472 ) ;
#680 = FACE_OUTER_BOUND ( 'NONE', #362, .T. ) ;
#681 = CARTESIAN_POINT ( 'NONE',  ( 0.000000000000000000, 6.346694638965782786, 0.000000000000000000 ) ) ;
#682 = ORIENTED_EDGE ( 'NONE', *, *, #501, .F. ) ;
#683 = CARTESIAN_POINT ( 'NONE',  ( 0.000000000000000000, 13.00000000000000000, 0.000000000000000000 ) ) ;
#684 = LINE ( 'NONE', #693, #973 ) ;
#685 = CARTESIAN_POINT ( 'NONE',  ( 0.000000000000000000, 1.399999999999998579, 0.000000000000000000 ) ) ;
#686 = DIRECTION ( 'NONE',  ( -0.000000000000000000, 1.000000000000000000, -0.000000000000000000 ) ) ;
#687 = ADVANCED_FACE ( 'NONE', ( #614, #182 ), #29, .T. ) ;
#688 = CARTESIAN_POINT ( 'NONE',  ( 0.000000000000000000, 13.00000000000000000, -19.00000000000000000 ) ) ;
#689 = DIRECTION ( 'NONE',  ( 0.000000000000000000, 0.000000000000000000, -1.000000000000000000 ) ) ;
#690 = ORIENTED_EDGE ( 'NONE', *, *, #460, .F. ) ;
#691 = FACE_OUTER_BOUND ( 'NONE', #615, .T. ) ;
#692 = EDGE_CURVE ( 'NONE', #716, #579, #536, .T. ) ;
#693 = CARTESIAN_POINT ( 'NONE',  ( 0.9976257860396028354, 8.500000000000000000, -15.96886792452830228 ) ) ;
#694 = EDGE_LOOP ( 'NONE', ( #697, #621 ) ) ;
#695 = AXIS2_PLACEMENT_3D ( 'NONE', #862, #107, #437 ) ;
#696 = AXIS2_PLACEMENT_3D ( 'NONE', #492, #486, #828 ) ;
#697 = ORIENTED_EDGE ( 'NONE', *, *, #145, .T. ) ;
#698 = DIRECTION ( 'NONE',  ( 0.000000000000000000, 1.000000000000000000, 0.000000000000000000 ) ) ;
#699 = DIRECTION ( 'NONE',  ( 0.000000000000000000, 0.000000000000000000, 1.000000000000000000 ) ) ;
#700 = VERTEX_POINT ( 'NONE', #522 ) ;
#701 = CARTESIAN_POINT ( 'NONE',  ( 0.000000000000000000, 13.00000000000000000, 0.000000000000000000 ) ) ;
#702 = DIRECTION ( 'NONE',  ( -0.000000000000000000, 1.000000000000000000, -0.000000000000000000 ) ) ;
#703 = EDGE_LOOP ( 'NONE', ( #200, #745 ) ) ;
#704 = ORIENTED_EDGE ( 'NONE', *, *, #497, .T. ) ;
#705 = CONICAL_SURFACE ( 'NONE', #776, 12.42814800674212350, 0.9599310885968850293 ) ;
#706 = AXIS2_PLACEMENT_3D ( 'NONE', #179, #835, #1018 ) ;
#707 = ADVANCED_FACE ( 'NONE', ( #1034 ), #930, .T. ) ;
#708 = CARTESIAN_POINT ( 'NONE',  ( 0.000000000000000000, 0.5000000000000134337, 0.000000000000000000 ) ) ;
#709 =( NAMED_UNIT ( * ) SI_UNIT ( $, .STERADIAN. ) SOLID_ANGLE_UNIT ( ) );
#710 = ORIENTED_EDGE ( 'NONE', *, *, #588, .F. ) ;
#711 = ORIENTED_EDGE ( 'NONE', *, *, #416, .F. ) ;
#712 = AXIS2_PLACEMENT_3D ( 'NONE', #840, #2, #258 ) ;
#713 = CLOSED_SHELL ( 'NONE', ( #581, #929, #825, #104, #219, #481, #1084, #707, #228, #609, #557, #162, #919, #580, #1064, #325, #79, #639, #56, #310, #274, #192, #111, #170, #839, #687, #844 ) ) ;
#714 = DIRECTION ( 'NONE',  ( 0.000000000000000000, 0.000000000000000000, -1.000000000000000000 ) ) ;
#715 = PLANE ( 'NONE',  #888 ) ;
#716 = VERTEX_POINT ( 'NONE', #1027 ) ;
#717 = ORIENTED_EDGE ( 'NONE', *, *, #601, .T. ) ;
#718 = CARTESIAN_POINT ( 'NONE',  ( 0.000000000000000000, 6.999999999999993783, -13.16685290815967946 ) ) ;
#719 = CARTESIAN_POINT ( 'NONE',  ( 1.457329690985350393E-15, 8.000000000000000000, -11.90000000000000036 ) ) ;
#720 = ORIENTED_EDGE ( 'NONE', *, *, #453, .F. ) ;
#721 = VERTEX_POINT ( 'NONE', #366 ) ;
#722 = CARTESIAN_POINT ( 'NONE',  ( 0.000000000000000000, 13.00000000000000000, 0.000000000000000000 ) ) ;
#723 = AXIS2_PLACEMENT_3D ( 'NONE', #128, #216, #314 ) ;
#724 = DIRECTION ( 'NONE',  ( -0.000000000000000000, 1.000000000000000000, -0.000000000000000000 ) ) ;
#725 = LINE ( 'NONE', #463, #393 ) ;
#726 = ORIENTED_EDGE ( 'NONE', *, *, #943, .F. ) ;
#727 = EDGE_CURVE ( 'NONE', #700, #798, #444, .T. ) ;
#728 = EDGE_LOOP ( 'NONE', ( #860, #382, #1052, #493 ) ) ;
#729 = CARTESIAN_POINT ( 'NONE',  ( 1.612474426882176900E-15, 1.000000000000000000, -13.16685290815967946 ) ) ;
#730 = EDGE_CURVE ( 'NONE', #761, #517, #442, .T. ) ;
#731 = DIRECTION ( 'NONE',  ( -0.000000000000000000, 1.000000000000000000, -0.000000000000000000 ) ) ;
#732 = AXIS2_PLACEMENT_3D ( 'NONE', #777, #22, #33 ) ;
#733 = FACE_OUTER_BOUND ( 'NONE', #201, .T. ) ;
#734 = AXIS2_PLACEMENT_3D ( 'NONE', #559, #724, #910 ) ;
#735 = ORIENTED_EDGE ( 'NONE', *, *, #754, .F. ) ;
#736 = DIRECTION ( 'NONE',  ( 0.000000000000000000, 0.000000000000000000, 1.000000000000000000 ) ) ;
#737 = DIRECTION ( 'NONE',  ( 0.000000000000000000, 1.000000000000000000, -0.000000000000000000 ) ) ;
#738 = VECTOR ( 'NONE', #1077, 1000.000000000000114 ) ;
#739 = FACE_OUTER_BOUND ( 'NONE', #786, .T. ) ;
#740 = ORIENTED_EDGE ( 'NONE', *, *, #255, .F. ) ;
#741 = CARTESIAN_POINT ( 'NONE',  ( 0.000000000000000000, 13.00000000000000000, 0.000000000000000000 ) ) ;
#742 = EDGE_CURVE ( 'NONE', #126, #843, #363, .T. ) ;
#743 = LINE ( 'NONE', #84, #958 ) ;
#744 = DIRECTION ( 'NONE',  ( 0.000000000000000000, 0.000000000000000000, 1.000000000000000000 ) ) ;
#745 = ORIENTED_EDGE ( 'NONE', *, *, #889, .T. ) ;
#746 = DIRECTION ( 'NONE',  ( 0.000000000000000000, 0.000000000000000000, 1.000000000000000000 ) ) ;
#747 = FACE_OUTER_BOUND ( 'NONE', #208, .T. ) ;
#748 = CIRCLE ( 'NONE', #9, 11.90000000000000036 ) ;
#749 = DIRECTION ( 'NONE',  ( 8.659560562354903276E-17, -0.7071067811865500152, 0.7071067811865451302 ) ) ;
#750 = DIRECTION ( 'NONE',  ( 0.000000000000000000, 1.000000000000000000, 0.000000000000000000 ) ) ;
#751 = PRODUCT_DEFINITION_SHAPE ( 'NONE', 'NONE',  #646 ) ;
#752 = CONICAL_SURFACE ( 'NONE', #284, 11.90000000000000036, 0.7853981633974415066 ) ;
#753 = EDGE_CURVE ( 'NONE', #305, #377, #262, .T. ) ;
#754 = EDGE_CURVE ( 'NONE', #976, #81, #504, .T. ) ;
#755 = DIRECTION ( 'NONE',  ( 0.000000000000000000, 0.000000000000000000, 1.000000000000000000 ) ) ;
#756 = CARTESIAN_POINT ( 'NONE',  ( 0.000000000000000000, 1.399999999999998579, 0.000000000000000000 ) ) ;
#757 = VECTOR ( 'NONE', #169, 1000.000000000000000 ) ;
#758 = ADVANCED_FACE ( 'NONE', ( #404 ), #334, .T. ) ;
#759 = DIRECTION ( 'NONE',  ( 0.000000000000000000, 0.5735764363510430508, 0.8191520442889939080 ) ) ;
#760 = DIRECTION ( 'NONE',  ( 0.000000000000000000, 0.000000000000000000, 1.000000000000000000 ) ) ;
#761 = VERTEX_POINT ( 'NONE', #729 ) ;
#762 = CARTESIAN_POINT ( 'NONE',  ( 0.9976257860396067212, 8.500000000000000000, 15.96886792452830228 ) ) ;
#763 = AXIS2_PLACEMENT_3D ( 'NONE', #1073, #67, #972 ) ;
#764 = AXIS2_PLACEMENT_3D ( 'NONE', #685, #845, #505 ) ;
#765 = FACE_OUTER_BOUND ( 'NONE', #223, .T. ) ;
#766 = DIRECTION ( 'NONE',  ( -0.000000000000000000, 1.000000000000000000, -0.000000000000000000 ) ) ;
#767 = EDGE_CURVE ( 'NONE', #761, #134, #66, .T. ) ;
#768 = ORIENTED_EDGE ( 'NONE', *, *, #440, .F. ) ;
#769 =( NAMED_UNIT ( * ) PLANE_ANGLE_UNIT ( ) SI_UNIT ( $, .RADIAN. ) );
#770 = AXIS2_PLACEMENT_3D ( 'NONE', #908, #662, #669 ) ;
#771 = FACE_OUTER_BOUND ( 'NONE', #547, .T. ) ;
#772 = ORIENTED_EDGE ( 'NONE', *, *, #378, .F. ) ;
#773 = DIRECTION ( 'NONE',  ( -0.000000000000000000, 1.000000000000000000, 0.000000000000000000 ) ) ;
#774 = EDGE_CURVE ( 'NONE', #183, #261, #224, .T. ) ;
#775 = LINE ( 'NONE', #688, #1082 ) ;
#776 = AXIS2_PLACEMENT_3D ( 'NONE', #509, #8, #1012 ) ;
#777 = CARTESIAN_POINT ( 'NONE',  ( 0.000000000000000000, 8.500000000000000000, 0.000000000000000000 ) ) ;
#778 = ORIENTED_EDGE ( 'NONE', *, *, #742, .F. ) ;
#779 = ORIENTED_EDGE ( 'NONE', *, *, #692, .F. ) ;
#780 =( NAMED_UNIT ( * ) SI_UNIT ( $, .STERADIAN. ) SOLID_ANGLE_UNIT ( ) );
#781 = CARTESIAN_POINT ( 'NONE',  ( 0.000000000000000000, 0.5000000000000134337, 11.90000000000000036 ) ) ;
#782 = ORIENTED_EDGE ( 'NONE', *, *, #774, .T. ) ;
#783 = AXIS2_PLACEMENT_3D ( 'NONE', #596, #199, #1017 ) ;
#784 = DIRECTION ( 'NONE',  ( 0.000000000000000000, 0.000000000000000000, 1.000000000000000000 ) ) ;
#785 = CARTESIAN_POINT ( 'NONE',  ( 0.000000000000000000, 8.000000000000000000, 11.90000000000000036 ) ) ;
#786 = EDGE_LOOP ( 'NONE', ( #568, #931, #105, #632 ) ) ;
#787 = EDGE_LOOP ( 'NONE', ( #1061, #213 ) ) ;
#788 = DIRECTION ( 'NONE',  ( 0.000000000000000000, 0.000000000000000000, 1.000000000000000000 ) ) ;
#789 = AXIS2_PLACEMENT_3D ( 'NONE', #129, #331, #496 ) ;
#790 = DIRECTION ( 'NONE',  ( 0.000000000000000000, -0.7071067811865524577, -0.7071067811865426878 ) ) ;
#791 = CARTESIAN_POINT ( 'NONE',  ( 2.326828918379970576E-15, 13.00000000000000000, 19.00000000000000000 ) ) ;
#792 = EDGE_LOOP ( 'NONE', ( #941, #153, #276, #797 ) ) ;
#793 = ORIENTED_EDGE ( 'NONE', *, *, #28, .T. ) ;
#794 = AXIS2_PLACEMENT_3D ( 'NONE', #341, #686, #760 ) ;
#795 = LINE ( 'NONE', #718, #996 ) ;
#796 = CARTESIAN_POINT ( 'NONE',  ( 0.000000000000000000, 13.00000000000000000, 12.75000000000000000 ) ) ;
#797 = ORIENTED_EDGE ( 'NONE', *, *, #904, .F. ) ;
#798 = VERTEX_POINT ( 'NONE', #72 ) ;
#799 =( GEOMETRIC_REPRESENTATION_CONTEXT ( 3 ) GLOBAL_UNCERTAINTY_ASSIGNED_CONTEXT ( ( #61 ) ) GLOBAL_UNIT_ASSIGNED_CONTEXT ( ( #303, #635, #709 ) ) REPRESENTATION_CONTEXT ( 'NONE', 'WORKASPACE' ) );
#800 = VECTOR ( 'NONE', #759, 1000.000000000000114 ) ;
#801 = DIRECTION ( 'NONE',  ( 0.000000000000000000, 0.000000000000000000, 1.000000000000000000 ) ) ;
#802 = ORIENTED_EDGE ( 'NONE', *, *, #145, .F. ) ;
#803 = ORIENTED_EDGE ( 'NONE', *, *, #453, .T. ) ;
#804 = DIRECTION ( 'NONE',  ( -0.000000000000000000, 1.000000000000000000, -0.000000000000000000 ) ) ;
#805 = AXIS2_PLACEMENT_3D ( 'NONE', #1059, #152, #327 ) ;
#806 = EDGE_CURVE ( 'NONE', #716, #391, #27, .T. ) ;
#807 = ADVANCED_FACE ( 'NONE', ( #414 ), #830, .T. ) ;
#808 = CARTESIAN_POINT ( 'NONE',  ( 0.000000000000000000, 13.00000000000000000, 0.000000000000000000 ) ) ;
#809 = ORIENTED_EDGE ( 'NONE', *, *, #220, .T. ) ;
#810 = ORIENTED_EDGE ( 'NONE', *, *, #511, .T. ) ;
#811 = CARTESIAN_POINT ( 'NONE',  ( 0.000000000000000000, 1.000000000000000000, 0.000000000000000000 ) ) ;
#812 = STYLED_ITEM ( 'NONE', ( #642 ), #576 ) ;
#813 = CARTESIAN_POINT ( 'NONE',  ( 0.000000000000000000, 1.399999999999998579, 12.42814800674212350 ) ) ;
#814 = FACE_OUTER_BOUND ( 'NONE', #600, .T. ) ;
#815 = ORIENTED_EDGE ( 'NONE', *, *, #1037, .T. ) ;
#816 = EDGE_LOOP ( 'NONE', ( #71, #232, #443, #114 ) ) ;
#817 = DIRECTION ( 'NONE',  ( 0.000000000000000000, -1.000000000000000000, 0.000000000000000000 ) ) ;
#818 = AXIS2_PLACEMENT_3D ( 'NONE', #599, #370, #348 ) ;
#819 = CARTESIAN_POINT ( 'NONE',  ( 0.000000000000000000, 8.000000000000000000, -12.16685290815968656 ) ) ;
#820 = PRESENTATION_LAYER_ASSIGNMENT (  '', '', ( #955 ) ) ;
#821 = CARTESIAN_POINT ( 'NONE',  ( 0.000000000000000000, 0.000000000000000000, 0.000000000000000000 ) ) ;
#822 = ORIENTED_EDGE ( 'NONE', *, *, #957, .F. ) ;
#823 = VECTOR ( 'NONE', #950, 1000.000000000000000 ) ;
#824 = CARTESIAN_POINT ( 'NONE',  ( 0.000000000000000000, 1.000000000000000000, 0.000000000000000000 ) ) ;
#825 = ADVANCED_FACE ( 'NONE', ( #912 ), #934, .T. ) ;
#826 = CIRCLE ( 'NONE', #770, 11.90000000000000036 ) ;
#827 = DIRECTION ( 'NONE',  ( 0.000000000000000000, 0.000000000000000000, 1.000000000000000000 ) ) ;
#828 = DIRECTION ( 'NONE',  ( 0.000000000000000000, 0.000000000000000000, 1.000000000000000000 ) ) ;
#829 = ORIENTED_EDGE ( 'NONE', *, *, #767, .T. ) ;
#830 = CYLINDRICAL_SURFACE ( 'NONE', #402, 12.75000000000000000 ) ;
#831 = CYLINDRICAL_SURFACE ( 'NONE', #338, 13.16685290815967946 ) ;
#832 = AXIS2_PLACEMENT_3D ( 'NONE', #174, #520, #920 ) ;
#833 = ORIENTED_EDGE ( 'NONE', *, *, #883, .T. ) ;
#834 = PRODUCT ( 'Movement Holder', 'Movement Holder', '', ( #483 ) ) ;
#835 = DIRECTION ( 'NONE',  ( 0.000000000000000000, -1.000000000000000000, 0.000000000000000000 ) ) ;
#836 = CARTESIAN_POINT ( 'NONE',  ( 0.000000000000000000, 13.00000000000000000, 17.00000000000001421 ) ) ;
#837 = EDGE_CURVE ( 'NONE', #1041, #383, #68, .T. ) ;
#838 = VECTOR ( 'NONE', #161, 1000.000000000000000 ) ;
#839 = ADVANCED_FACE ( 'NONE', ( #410 ), #168, .F. ) ;
#840 = CARTESIAN_POINT ( 'NONE',  ( 0.000000000000000000, 12.50000000000000533, 0.000000000000000000 ) ) ;
#841 = DIRECTION ( 'NONE',  ( 0.000000000000000000, 0.000000000000000000, 1.000000000000000000 ) ) ;
#842 = PRODUCT_RELATED_PRODUCT_CATEGORY ( 'part', '', ( #834 ) ) ;
#843 = VERTEX_POINT ( 'NONE', #660 ) ;
#844 = ADVANCED_FACE ( 'NONE', ( #141 ), #990, .F. ) ;
#845 = DIRECTION ( 'NONE',  ( -0.000000000000000000, 1.000000000000000000, -0.000000000000000000 ) ) ;
#846 = DIRECTION ( 'NONE',  ( -0.000000000000000000, 1.000000000000000000, -0.000000000000000000 ) ) ;
#847 = ORIENTED_EDGE ( 'NONE', *, *, #257, .T. ) ;
#848 = DIRECTION ( 'NONE',  ( -0.000000000000000000, 1.000000000000000000, -0.000000000000000000 ) ) ;
#849 = EDGE_CURVE ( 'NONE', #1078, #579, #602, .T. ) ;
#850 = CARTESIAN_POINT ( 'NONE',  ( 0.000000000000000000, 8.500000000000000000, 0.000000000000000000 ) ) ;
#851 = CARTESIAN_POINT ( 'NONE',  ( 0.000000000000000000, 13.00000000000000000, 0.000000000000000000 ) ) ;
#852 = DIRECTION ( 'NONE',  ( -0.000000000000000000, -1.000000000000000000, -0.000000000000000000 ) ) ;
#853 = AXIS2_PLACEMENT_3D ( 'NONE', #446, #434, #99 ) ;
#854 = CARTESIAN_POINT ( 'NONE',  ( 0.000000000000000000, 8.500000000000000000, 11.90000000000000036 ) ) ;
#855 = CIRCLE ( 'NONE', #379, 13.16685290815967946 ) ;
#856 = ORIENTED_EDGE ( 'NONE', *, *, #1037, .F. ) ;
#857 = ADVANCED_FACE ( 'NONE', ( #668 ), #466, .T. ) ;
#858 = CARTESIAN_POINT ( 'NONE',  ( 0.000000000000000000, 12.50000000000002309, 0.000000000000000000 ) ) ;
#859 = AXIS2_PLACEMENT_3D ( 'NONE', #462, #365, #784 ) ;
#860 = ORIENTED_EDGE ( 'NONE', *, *, #603, .T. ) ;
#861 = SURFACE_STYLE_USAGE ( .BOTH. , #595 ) ;
#862 = CARTESIAN_POINT ( 'NONE',  ( 0.000000000000000000, 13.00000000000000000, 0.000000000000000000 ) ) ;
#863 = ORIENTED_EDGE ( 'NONE', *, *, #340, .T. ) ;
#864 = ORIENTED_EDGE ( 'NONE', *, *, #184, .F. ) ;
#865 = DIRECTION ( 'NONE',  ( 0.000000000000000000, 1.000000000000000000, -0.000000000000000000 ) ) ;
#866 = EDGE_LOOP ( 'NONE', ( #25, #452, #643, #176 ) ) ;
#867 = EDGE_CURVE ( 'NONE', #391, #1078, #575, .T. ) ;
#868 = ADVANCED_FACE ( 'NONE', ( #1068 ), #398, .T. ) ;
#869 = CARTESIAN_POINT ( 'NONE',  ( 0.000000000000000000, 0.000000000000000000, 0.000000000000000000 ) ) ;
#870 = FACE_OUTER_BOUND ( 'NONE', #266, .T. ) ;
#871 = ORIENTED_EDGE ( 'NONE', *, *, #754, .T. ) ;
#872 = EDGE_LOOP ( 'NONE', ( #659, #160, #110, #323 ) ) ;
#873 = VECTOR ( 'NONE', #361, 1000.000000000000000 ) ;
#874 = FACE_OUTER_BOUND ( 'NONE', #1042, .T. ) ;
#875 = CYLINDRICAL_SURFACE ( 'NONE', #243, 1.000000000000000888 ) ;
#876 = ORIENTED_EDGE ( 'NONE', *, *, #675, .T. ) ;
#877 = VERTEX_POINT ( 'NONE', #441 ) ;
#878 = VECTOR ( 'NONE', #408, 1000.000000000000000 ) ;
#879 = CARTESIAN_POINT ( 'NONE',  ( 0.000000000000000000, 6.346694638965782786, 11.90000000000000036 ) ) ;
#880 = DIRECTION ( 'NONE',  ( 0.000000000000000000, 1.000000000000000000, 0.000000000000000000 ) ) ;
#881 = DIRECTION ( 'NONE',  ( -0.000000000000000000, 1.000000000000000000, -0.000000000000000000 ) ) ;
#882 = VERTEX_POINT ( 'NONE', #928 ) ;
#883 = EDGE_CURVE ( 'NONE', #18, #217, #1026, .T. ) ;
#884 = DIRECTION ( 'NONE',  ( 0.000000000000000000, 0.000000000000000000, 1.000000000000000000 ) ) ;
#885 = FACE_OUTER_BOUND ( 'NONE', #1072, .T. ) ;
#886 = CARTESIAN_POINT ( 'NONE',  ( 0.000000000000000000, 1.399999999999998579, 0.000000000000000000 ) ) ;
#887 = ORIENTED_EDGE ( 'NONE', *, *, #302, .F. ) ;
#888 = AXIS2_PLACEMENT_3D ( 'NONE', #560, #880, #44 ) ;
#889 = EDGE_CURVE ( 'NONE', #41, #304, #993, .T. ) ;
#890 = AXIS2_PLACEMENT_3D ( 'NONE', #11, #16, #353 ) ;
#891 = EDGE_CURVE ( 'NONE', #293, #126, #775, .T. ) ;
#892 = CARTESIAN_POINT ( 'NONE',  ( 1.408343819019456176E-15, 1.899999999999999023, -11.50000000000000000 ) ) ;
#893 = ORIENTED_EDGE ( 'NONE', *, *, #647, .T. ) ;
#894 = ORIENTED_EDGE ( 'NONE', *, *, #1030, .F. ) ;
#895 = CARTESIAN_POINT ( 'NONE',  ( 0.000000000000000000, 0.5000000000000134337, 0.000000000000000000 ) ) ;
#896 = DIRECTION ( 'NONE',  ( 0.000000000000000000, 0.000000000000000000, 1.000000000000000000 ) ) ;
#897 = CARTESIAN_POINT ( 'NONE',  ( 1.561424668912875111E-15, 1.899999999999999023, -12.75000000000000000 ) ) ;
#898 = DIRECTION ( 'NONE',  ( 0.000000000000000000, 0.000000000000000000, 1.000000000000000000 ) ) ;
#899 = ORIENTED_EDGE ( 'NONE', *, *, #1083, .T. ) ;
#900 = DIRECTION ( 'NONE',  ( -0.000000000000000000, 1.000000000000000000, -0.000000000000000000 ) ) ;
#901 = AXIS2_PLACEMENT_3D ( 'NONE', #75, #916, #166 ) ;
#902 = CARTESIAN_POINT ( 'NONE',  ( 0.000000000000000000, 8.500000000000000000, 0.000000000000000000 ) ) ;
#903 = PLANE ( 'NONE',  #789 ) ;
#904 = EDGE_CURVE ( 'NONE', #989, #287, #515, .T. ) ;
#905 = VERTEX_POINT ( 'NONE', #510 ) ;
#906 = DIRECTION ( 'NONE',  ( 0.000000000000000000, 0.000000000000000000, -1.000000000000000000 ) ) ;
#907 = CARTESIAN_POINT ( 'NONE',  ( 0.000000000000000000, 0.000000000000000000, 0.000000000000000000 ) ) ;
#908 = CARTESIAN_POINT ( 'NONE',  ( 0.000000000000000000, 8.000000000000000000, 0.000000000000000000 ) ) ;
#909 = AXIS2_PLACEMENT_3D ( 'NONE', #112, #852, #177 ) ;
#910 = DIRECTION ( 'NONE',  ( 0.000000000000000000, 0.000000000000000000, 1.000000000000000000 ) ) ;
#911 = ORIENTED_EDGE ( 'NONE', *, *, #806, .F. ) ;
#912 = FACE_OUTER_BOUND ( 'NONE', #333, .T. ) ;
#913 = CARTESIAN_POINT ( 'NONE',  ( 0.000000000000000000, 0.000000000000000000, 11.90000000000000036 ) ) ;
#914 = CYLINDRICAL_SURFACE ( 'NONE', #805, 11.90000000000000036 ) ;
#915 = EDGE_LOOP ( 'NONE', ( #803, #829 ) ) ;
#916 = DIRECTION ( 'NONE',  ( -0.000000000000000000, 1.000000000000000000, 0.000000000000000000 ) ) ;
#917 = AXIS2_PLACEMENT_3D ( 'NONE', #491, #577, #251 ) ;
#918 = CARTESIAN_POINT ( 'NONE',  ( 3.894376821288583549E-15, 12.49999999999999822, 15.90000000000000036 ) ) ;
#919 = ADVANCED_FACE ( 'NONE', ( #268, #691 ), #933, .T. ) ;
#920 = DIRECTION ( 'NONE',  ( 0.000000000000000000, 0.000000000000000000, 1.000000000000000000 ) ) ;
#921 = EDGE_CURVE ( 'NONE', #383, #183, #1025, .T. ) ;
#922 = DIRECTION ( 'NONE',  ( 0.000000000000000000, 1.000000000000000000, -0.000000000000000000 ) ) ;
#923 = CARTESIAN_POINT ( 'NONE',  ( 0.000000000000000000, 0.3999999999999993006, 11.00000000000000000 ) ) ;
#924 = DIRECTION ( 'NONE',  ( -0.000000000000000000, -1.000000000000000000, -0.000000000000000000 ) ) ;
#925 = DIRECTION ( 'NONE',  ( 0.000000000000000000, 0.000000000000000000, 1.000000000000000000 ) ) ;
#926 = DIRECTION ( 'NONE',  ( -8.881784197001252323E-16, 0.000000000000000000, 1.000000000000000000 ) ) ;
#927 = AXIS2_PLACEMENT_3D ( 'NONE', #260, #1006, #926 ) ;
#928 = CARTESIAN_POINT ( 'NONE',  ( 0.9976257860396220423, 12.49999999999999822, 15.96886792452830228 ) ) ;
#929 = ADVANCED_FACE ( 'NONE', ( #521 ), #204, .F. ) ;
#930 = CYLINDRICAL_SURFACE ( 'NONE', #695, 19.00000000000000000 ) ;
#931 = ORIENTED_EDGE ( 'NONE', *, *, #277, .F. ) ;
#932 = CYLINDRICAL_SURFACE ( 'NONE', #794, 11.00000000000000000 ) ;
#933 = PLANE ( 'NONE',  #1028 ) ;
#934 = CONICAL_SURFACE ( 'NONE', #640, 18.50000000000002842, 0.7853981633974447263 ) ;
#935 = DIRECTION ( 'NONE',  ( 0.000000000000000000, -0.000000000000000000, 1.000000000000000000 ) ) ;
#936 =( GEOMETRIC_REPRESENTATION_CONTEXT ( 3 ) GLOBAL_UNCERTAINTY_ASSIGNED_CONTEXT ( ( #319 ) ) GLOBAL_UNIT_ASSIGNED_CONTEXT ( ( #193, #769, #780 ) ) REPRESENTATION_CONTEXT ( 'NONE', 'WORKASPACE' ) );
#937 = VERTEX_POINT ( 'NONE', #762 ) ;
#938 = MANIFOLD_SOLID_BREP ( 'Cut-Extrude2', #713 ) ;
#939 = FILL_AREA_STYLE ('',( #1015 ) ) ;
#940 = DIRECTION ( 'NONE',  ( 0.000000000000000000, -1.000000000000000000, 0.000000000000000000 ) ) ;
#941 = ORIENTED_EDGE ( 'NONE', *, *, #306, .F. ) ;
#942 = AXIS2_PLACEMENT_3D ( 'NONE', #394, #981, #248 ) ;
#943 = EDGE_CURVE ( 'NONE', #573, #435, #278, .T. ) ;
#944 = ORIENTED_EDGE ( 'NONE', *, *, #1076, .T. ) ;
#945 = AXIS2_PLACEMENT_3D ( 'NONE', #1075, #80, #158 ) ;
#946 = DIRECTION ( 'NONE',  ( 0.000000000000000000, 0.000000000000000000, 1.000000000000000000 ) ) ;
#947 = CARTESIAN_POINT ( 'NONE',  ( 0.000000000000000000, 6.346694638965782786, 11.90000000000000036 ) ) ;
#948 = ORIENTED_EDGE ( 'NONE', *, *, #417, .F. ) ;
#949 = VERTEX_POINT ( 'NONE', #427 ) ;
#950 = DIRECTION ( 'NONE',  ( -0.000000000000000000, 1.000000000000000000, -0.000000000000000000 ) ) ;
#951 = CYLINDRICAL_SURFACE ( 'NONE', #783, 11.50000000000000000 ) ;
#952 = ORIENTED_EDGE ( 'NONE', *, *, #904, .T. ) ;
#953 = AXIS2_PLACEMENT_3D ( 'NONE', #741, #638, #489 ) ;
#954 = ORIENTED_EDGE ( 'NONE', *, *, #921, .F. ) ;
#955 = STYLED_ITEM ( 'NONE', ( #606 ), #938 ) ;
#956 = CARTESIAN_POINT ( 'NONE',  ( 1.408343819019456176E-15, 8.500000000000000000, -11.50000000000000000 ) ) ;
#957 = EDGE_CURVE ( 'NONE', #100, #377, #1047, .T. ) ;
#958 = VECTOR ( 'NONE', #69, 1000.000000000000114 ) ;
#959 = LINE ( 'NONE', #791, #498 ) ;
#960 = ORIENTED_EDGE ( 'NONE', *, *, #255, .T. ) ;
#961 = ORIENTED_EDGE ( 'NONE', *, *, #378, .T. ) ;
#962 = DIRECTION ( 'NONE',  ( 0.000000000000000000, 0.000000000000000000, -1.000000000000000000 ) ) ;
#963 = CARTESIAN_POINT ( 'NONE',  ( 0.000000000000000000, 12.49999999999999822, 0.000000000000000000 ) ) ;
#964 = ORIENTED_EDGE ( 'NONE', *, *, #574, .F. ) ;
#965 = ORIENTED_EDGE ( 'NONE', *, *, #21, .T. ) ;
#966 = CIRCLE ( 'NONE', #59, 13.16685290815967946 ) ;
#967 = EDGE_CURVE ( 'NONE', #358, #608, #748, .T. ) ;
#968 = DIRECTION ( 'NONE',  ( 0.000000000000000000, 1.000000000000000000, -0.000000000000000000 ) ) ;
#969 = CYLINDRICAL_SURFACE ( 'NONE', #723, 1.000000000000000888 ) ;
#970 = ORIENTED_EDGE ( 'NONE', *, *, #501, .T. ) ;
#971 = ORIENTED_EDGE ( 'NONE', *, *, #42, .T. ) ;
#972 = DIRECTION ( 'NONE',  ( 0.000000000000000000, 0.000000000000000000, 1.000000000000000000 ) ) ;
#973 = VECTOR ( 'NONE', #702, 1000.000000000000000 ) ;
#974 = CARTESIAN_POINT ( 'NONE',  ( 2.081899558550502252E-15, 13.00000000000000000, -17.00000000000001421 ) ) ;
#975 = LINE ( 'NONE', #796, #528 ) ;
#976 = VERTEX_POINT ( 'NONE', #513 ) ;
#977 = ORIENTED_EDGE ( 'NONE', *, *, #603, .F. ) ;
#978 = DIRECTION ( 'NONE',  ( -0.000000000000000000, 1.000000000000000000, -0.000000000000000000 ) ) ;
#979 = UNCERTAINTY_MEASURE_WITH_UNIT (LENGTH_MEASURE( 1.000000000000000082E-05 ), #661, 'distance_accuracy_value', 'NONE');
#980 = CARTESIAN_POINT ( 'NONE',  ( 1.457329690985350393E-15, 0.5000000000000134337, -11.90000000000000036 ) ) ;
#981 = DIRECTION ( 'NONE',  ( -0.000000000000000000, 1.000000000000000000, -0.000000000000000000 ) ) ;
#982 = EDGE_LOOP ( 'NONE', ( #1046, #317 ) ) ;
#983 = DIRECTION ( 'NONE',  ( -0.000000000000000000, 1.000000000000000000, -0.000000000000000000 ) ) ;
#984 =( NAMED_UNIT ( * ) PLANE_ANGLE_UNIT ( ) SI_UNIT ( $, .RADIAN. ) );
#985 = AXIS2_PLACEMENT_3D ( 'NONE', #337, #750, #326 ) ;
#986 = AXIS2_PLACEMENT_3D ( 'NONE', #850, #263, #925 ) ;
#987 = CARTESIAN_POINT ( 'NONE',  ( 0.9976257860396067212, 8.500000000000000000, 15.96886792452830228 ) ) ;
#988 = CARTESIAN_POINT ( 'NONE',  ( 0.000000000000000000, 8.500000000000000000, 0.000000000000000000 ) ) ;
#989 = VERTEX_POINT ( 'NONE', #349 ) ;
#990 = CYLINDRICAL_SURFACE ( 'NONE', #679, 17.00000000000001421 ) ;
#991 = APPLICATION_PROTOCOL_DEFINITION ( 'draft international standard', 'automotive_design', 1998, #101 ) ;
#992 = CARTESIAN_POINT ( 'NONE',  ( 0.000000000000000000, 6.999999999999993783, 13.16685290815967946 ) ) ;
#993 = CIRCLE ( 'NONE', #890, 12.42814800674212350 ) ;
#994 = DIRECTION ( 'NONE',  ( 0.000000000000000000, 0.000000000000000000, 1.000000000000000000 ) ) ;
#995 = ORIENTED_EDGE ( 'NONE', *, *, #203, .T. ) ;
#996 = VECTOR ( 'NONE', #790, 1000.000000000000000 ) ;
#997 = DIRECTION ( 'NONE',  ( 0.000000000000000000, 0.000000000000000000, 1.000000000000000000 ) ) ;
#998 = CARTESIAN_POINT ( 'NONE',  ( 0.000000000000000000, 8.500000000000000000, 0.000000000000000000 ) ) ;
#999 = AXIS2_PLACEMENT_3D ( 'NONE', #808, #698, #127 ) ;
#1000 = EDGE_CURVE ( 'NONE', #18, #377, #623, .T. ) ;
#1001 = PLANE ( 'NONE',  #296 ) ;
#1002 = EDGE_CURVE ( 'NONE', #383, #1041, #156, .T. ) ;
#1003 = DIRECTION ( 'NONE',  ( -0.000000000000000000, 1.000000000000000000, -0.000000000000000000 ) ) ;
#1004 = CIRCLE ( 'NONE', #985, 17.00000000000001421 ) ;
#1005 = LINE ( 'NONE', #82, #48 ) ;
#1006 = DIRECTION ( 'NONE',  ( -0.000000000000000000, -1.000000000000000000, -0.000000000000000000 ) ) ;
#1007 = AXIS2_PLACEMENT_3D ( 'NONE', #155, #804, #590 ) ;
#1008 = EDGE_LOOP ( 'NONE', ( #616, #1020, #294, #139 ) ) ;
#1009 = AXIS2_PLACEMENT_3D ( 'NONE', #76, #322, #313 ) ;
#1010 = CIRCLE ( 'NONE', #859, 18.50000000000002842 ) ;
#1011 = CYLINDRICAL_SURFACE ( 'NONE', #986, 16.00000000000000000 ) ;
#1012 = DIRECTION ( 'NONE',  ( 0.000000000000000000, 0.000000000000000000, 1.000000000000000000 ) ) ;
#1013 = ADVANCED_FACE ( 'NONE', ( #765 ), #1001, .F. ) ;
#1014 = ORIENTED_EDGE ( 'NONE', *, *, #849, .T. ) ;
#1015 = FILL_AREA_STYLE_COLOUR ( '', #245 ) ;
#1016 = CIRCLE ( 'NONE', #74, 19.00000000000000000 ) ;
#1017 = DIRECTION ( 'NONE',  ( 0.000000000000000000, 0.000000000000000000, 1.000000000000000000 ) ) ;
#1018 = DIRECTION ( 'NONE',  ( 0.000000000000000000, 0.000000000000000000, 1.000000000000000000 ) ) ;
#1019 = CARTESIAN_POINT ( 'NONE',  ( 0.000000000000000000, 1.000000000000000000, 0.000000000000000000 ) ) ;
#1020 = ORIENTED_EDGE ( 'NONE', *, *, #656, .T. ) ;
#1021 = DIRECTION ( 'NONE',  ( 0.000000000000000000, 1.000000000000000000, 0.000000000000000000 ) ) ;
#1022 = DIRECTION ( 'NONE',  ( -0.000000000000000000, 1.000000000000000000, -0.000000000000000000 ) ) ;
#1023 = ORIENTED_EDGE ( 'NONE', *, *, #665, .T. ) ;
#1024 = ORIENTED_EDGE ( 'NONE', *, *, #385, .F. ) ;
#1025 = LINE ( 'NONE', #26, #519 ) ;
#1026 = CIRCLE ( 'NONE', #549, 1.000000000000000888 ) ;
#1027 = CARTESIAN_POINT ( 'NONE',  ( 0.000000000000000000, 0.5000000000000134337, 11.90000000000000036 ) ) ;
#1028 = AXIS2_PLACEMENT_3D ( 'NONE', #683, #1021, #273 ) ;
#1029 = ORIENTED_EDGE ( 'NONE', *, *, #340, .F. ) ;
#1030 = EDGE_CURVE ( 'NONE', #298, #517, #855, .T. ) ;
#1031 = CIRCLE ( 'NONE', #247, 11.50000000000000000 ) ;
#1032 = EDGE_LOOP ( 'NONE', ( #355, #720, #376, #367 ) ) ;
#1033 = PLANE ( 'NONE',  #406 ) ;
#1034 = FACE_OUTER_BOUND ( 'NONE', #1056, .T. ) ;
#1035 = ORIENTED_EDGE ( 'NONE', *, *, #588, .T. ) ;
#1036 = CIRCLE ( 'NONE', #88, 11.90000000000000036 ) ;
#1037 = EDGE_CURVE ( 'NONE', #721, #100, #1005, .T. ) ;
#1038 = AXIS2_PLACEMENT_3D ( 'NONE', #756, #584, #97 ) ;
#1039 = DIRECTION ( 'NONE',  ( -0.000000000000000000, -1.000000000000000000, -0.000000000000000000 ) ) ;
#1040 = CARTESIAN_POINT ( 'NONE',  ( 0.000000000000000000, 12.49999999999999822, 0.000000000000000000 ) ) ;
#1041 = VERTEX_POINT ( 'NONE', #583 ) ;
#1042 = EDGE_LOOP ( 'NONE', ( #148, #401, #644, #690 ) ) ;
#1043 = DIRECTION ( 'NONE',  ( 0.000000000000000000, 1.000000000000000000, 0.000000000000000000 ) ) ;
#1044 = ORIENTED_EDGE ( 'NONE', *, *, #677, .F. ) ;
#1045 = AXIS2_PLACEMENT_3D ( 'NONE', #330, #983, #997 ) ;
#1046 = ORIENTED_EDGE ( 'NONE', *, *, #837, .F. ) ;
#1047 = CIRCLE ( 'NONE', #487, 1.000000000000000888 ) ;
#1048 = ADVANCED_FACE ( 'NONE', ( #7 ), #343, .T. ) ;
#1049 = DIRECTION ( 'NONE',  ( 0.000000000000000000, -1.000000000000000000, 0.000000000000000000 ) ) ;
#1050 = FILL_AREA_STYLE_COLOUR ( '', #196 ) ;
#1051 = DIRECTION ( 'NONE',  ( 0.000000000000000000, 0.000000000000000000, 1.000000000000000000 ) ) ;
#1052 = ORIENTED_EDGE ( 'NONE', *, *, #753, .F. ) ;
#1053 = CARTESIAN_POINT ( 'NONE',  ( 3.894376821288583549E-15, 12.49999999999999822, 16.90000000000000213 ) ) ;
#1054 = SURFACE_SIDE_STYLE ('',( #138 ) ) ;
#1055 = ORIENTED_EDGE ( 'NONE', *, *, #675, .F. ) ;
#1056 = EDGE_LOOP ( 'NONE', ( #543, #397, #847, #667 ) ) ;
#1057 = AXIS2_PLACEMENT_3D ( 'NONE', #858, #506, #841 ) ;
#1058 = CARTESIAN_POINT ( 'NONE',  ( 1.457329690985350393E-15, 0.5000000000000134337, -11.90000000000000036 ) ) ;
#1059 = CARTESIAN_POINT ( 'NONE',  ( 0.000000000000000000, 6.346694638965782786, 0.000000000000000000 ) ) ;
#1060 = DIRECTION ( 'NONE',  ( -0.000000000000000000, 1.000000000000000000, -0.000000000000000000 ) ) ;
#1061 = ORIENTED_EDGE ( 'NONE', *, *, #386, .T. ) ;
#1062 = CARTESIAN_POINT ( 'NONE',  ( 0.000000000000000000, 13.00000000000000000, 0.000000000000000000 ) ) ;
#1063 = EDGE_CURVE ( 'NONE', #435, #304, #585, .T. ) ;
#1064 = ADVANCED_FACE ( 'NONE', ( #680 ), #1011, .F. ) ;
#1065 = LINE ( 'NONE', #582, #289 ) ;
#1066 = FACE_OUTER_BOUND ( 'NONE', #532, .T. ) ;
#1067 = EDGE_LOOP ( 'NONE', ( #242, #124, #605, #1044 ) ) ;
#1068 = FACE_OUTER_BOUND ( 'NONE', #816, .T. ) ;
#1069 = CIRCLE ( 'NONE', #999, 18.50000000000002842 ) ;
#1070 = CYLINDRICAL_SURFACE ( 'NONE', #945, 16.00000000000000000 ) ;
#1071 = LINE ( 'NONE', #70, #738 ) ;
#1072 = EDGE_LOOP ( 'NONE', ( #396, #977, #403, #717 ) ) ;
#1073 = CARTESIAN_POINT ( 'NONE',  ( 0.000000000000000000, 0.000000000000000000, 0.000000000000000000 ) ) ;
#1074 = PRODUCT_DEFINITION_FORMATION_WITH_SPECIFIED_SOURCE ( 'ANY', '', #834, .NOT_KNOWN. ) ;
#1075 = CARTESIAN_POINT ( 'NONE',  ( 0.000000000000000000, 8.500000000000000000, 0.000000000000000000 ) ) ;
#1076 = EDGE_CURVE ( 'NONE', #58, #413, #5, .T. ) ;
#1077 = DIRECTION ( 'NONE',  ( 0.000000000000000000, -0.7071067811865500152, -0.7071067811865451302 ) ) ;
#1078 = VERTEX_POINT ( 'NONE', #270 ) ;
#1079 = CARTESIAN_POINT ( 'NONE',  ( 0.000000000000000000, 12.49999999999999822, 0.000000000000000000 ) ) ;
#1080 = AXIS2_PLACEMENT_3D ( 'NONE', #54, #900, #746 ) ;
#1081 = FACE_BOUND ( 'NONE', #636, .T. ) ;
#1082 = VECTOR ( 'NONE', #95, 1000.000000000000000 ) ;
#1083 = EDGE_CURVE ( 'NONE', #464, #949, #500, .T. ) ;
#1084 = ADVANCED_FACE ( 'NONE', ( #320 ), #474, .F. ) ;
#1085 = CARTESIAN_POINT ( 'NONE',  ( 0.000000000000000000, 6.999999999999993783, 0.000000000000000000 ) ) ;
#1086 = FACE_OUTER_BOUND ( 'NONE', #1032, .T. ) ;
#1087 = AXIS2_PLACEMENT_3D ( 'NONE', #240, #658, #994 ) ;
ENDSEC;
END-ISO-10303-21;
