ISO-10303-21;
HEADER;
FILE_DESCRIPTION (( 'STEP AP214' ),
    '1' );
FILE_NAME ('Crown Jig.STEP',
    '2024-04-24T07:24:55',
    ( '' ),
    ( '' ),
    'SwSTEP 2.0',
    'SolidWorks 2024',
    '' );
FILE_SCHEMA (( 'AUTOMOTIVE_DESIGN' ));
ENDSEC;

DATA;
#1 = PRESENTATION_STYLE_ASSIGNMENT (( #462 ) ) ;
#2 = DIRECTION ( 'NONE',  ( 0.000000000000000000, -1.626303258728256404E-16, -1.000000000000000000 ) ) ;
#3 = DIRECTION ( 'NONE',  ( -1.000000000000000000, -0.000000000000000000, -0.000000000000000000 ) ) ;
#4 = EDGE_CURVE ( 'NONE', #451, #33, #631, .T. ) ;
#5 = VERTEX_POINT ( 'NONE', #314 ) ;
#6 = LINE ( 'NONE', #583, #115 ) ;
#7 = CARTESIAN_POINT ( 'NONE',  ( 3.399999999999999911, 0.000000000000000000, 0.000000000000000000 ) ) ;
#8 = EDGE_CURVE ( 'NONE', #176, #410, #618, .T. ) ;
#9 = ORIENTED_EDGE ( 'NONE', *, *, #44, .F. ) ;
#10 = VECTOR ( 'NONE', #655, 1000.000000000000000 ) ;
#11 = DIRECTION ( 'NONE',  ( -1.000000000000000000, -0.000000000000000000, -0.000000000000000000 ) ) ;
#12 = ORIENTED_EDGE ( 'NONE', *, *, #303, .F. ) ;
#13 = VERTEX_POINT ( 'NONE', #195 ) ;
#14 = CARTESIAN_POINT ( 'NONE',  ( 3.399999999999999911, 0.000000000000000000, 3.250000000000000444 ) ) ;
#15 = VERTEX_POINT ( 'NONE', #519 ) ;
#16 = ADVANCED_FACE ( 'NONE', ( #584 ), #418, .T. ) ;
#17 = ORIENTED_EDGE ( 'NONE', *, *, #325, .F. ) ;
#18 = DIRECTION ( 'NONE',  ( -1.000000000000000000, -0.000000000000000000, -0.000000000000000000 ) ) ;
#19 = LINE ( 'NONE', #653, #437 ) ;
#20 = AXIS2_PLACEMENT_3D ( 'NONE', #576, #3, #113 ) ;
#21 = EDGE_CURVE ( 'NONE', #104, #137, #254, .T. ) ;
#22 = DIRECTION ( 'NONE',  ( -1.000000000000000000, 0.000000000000000000, 0.000000000000000000 ) ) ;
#23 = ADVANCED_FACE ( 'NONE', ( #363 ), #525, .F. ) ;
#24 = VERTEX_POINT ( 'NONE', #14 ) ;
#25 = CARTESIAN_POINT ( 'NONE',  ( 0.000000000000000000, -5.500000000000000000, 5.000000000000000000 ) ) ;
#26 = LINE ( 'NONE', #221, #48 ) ;
#27 = LINE ( 'NONE', #30, #93 ) ;
#28 = ORIENTED_EDGE ( 'NONE', *, *, #565, .F. ) ;
#29 = DIRECTION ( 'NONE',  ( 0.000000000000000000, 0.000000000000000000, -1.000000000000000000 ) ) ;
#30 = CARTESIAN_POINT ( 'NONE',  ( 0.000000000000000000, -0.000000000000000000, -5.000000000000000000 ) ) ;
#31 = SHAPE_DEFINITION_REPRESENTATION ( #555, #377 ) ;
#32 = LINE ( 'NONE', #322, #581 ) ;
#33 = VERTEX_POINT ( 'NONE', #263 ) ;
#34 = VERTEX_POINT ( 'NONE', #304 ) ;
#35 = DIRECTION ( 'NONE',  ( 0.000000000000000000, 0.000000000000000000, -1.000000000000000000 ) ) ;
#36 = PRODUCT_DEFINITION_FORMATION_WITH_SPECIFIED_SOURCE ( 'ANY', '', #664, .NOT_KNOWN. ) ;
#37 = AXIS2_PLACEMENT_3D ( 'NONE', #332, #83, #541 ) ;
#38 = ORIENTED_EDGE ( 'NONE', *, *, #649, .T. ) ;
#39 = PLANE ( 'NONE',  #545 ) ;
#40 = EDGE_CURVE ( 'NONE', #176, #15, #421, .T. ) ;
#41 = EDGE_LOOP ( 'NONE', ( #600, #312, #186, #283 ) ) ;
#42 = FILL_AREA_STYLE ('',( #569 ) ) ;
#43 = ORIENTED_EDGE ( 'NONE', *, *, #246, .F. ) ;
#44 = EDGE_CURVE ( 'NONE', #150, #80, #512, .T. ) ;
#45 = DIRECTION ( 'NONE',  ( -0.000000000000000000, 1.000000000000000000, 0.000000000000000000 ) ) ;
#46 = CARTESIAN_POINT ( 'NONE',  ( 3.399999999999999911, 0.000000000000000000, 0.000000000000000000 ) ) ;
#47 = CIRCLE ( 'NONE', #607, 1.449999999999999956 ) ;
#48 = VECTOR ( 'NONE', #244, 1000.000000000000000 ) ;
#49 = VECTOR ( 'NONE', #385, 1000.000000000000000 ) ;
#50 = VERTEX_POINT ( 'NONE', #360 ) ;
#51 = VERTEX_POINT ( 'NONE', #62 ) ;
#52 = ORIENTED_EDGE ( 'NONE', *, *, #325, .T. ) ;
#53 = DIRECTION ( 'NONE',  ( 0.000000000000000000, 1.626303258728256404E-16, 1.000000000000000000 ) ) ;
#54 = EDGE_CURVE ( 'NONE', #142, #99, #629, .T. ) ;
#55 = EDGE_LOOP ( 'NONE', ( #172, #674, #249, #181 ) ) ;
#56 = DIRECTION ( 'NONE',  ( 0.000000000000000000, -1.000000000000000000, 0.000000000000000000 ) ) ;
#57 = CARTESIAN_POINT ( 'NONE',  ( 6.299999999999999822, 0.5000000000000012212, 8.131516293641301744E-17 ) ) ;
#58 = ORIENTED_EDGE ( 'NONE', *, *, #649, .F. ) ;
#59 = AXIS2_PLACEMENT_3D ( 'NONE', #513, #612, #252 ) ;
#60 = AXIS2_PLACEMENT_3D ( 'NONE', #460, #641, #300 ) ;
#61 = VECTOR ( 'NONE', #383, 1000.000000000000000 ) ;
#62 = CARTESIAN_POINT ( 'NONE',  ( 0.000000000000000000, -0.4999999999999991673, 5.000000000000000000 ) ) ;
#63 = ORIENTED_EDGE ( 'NONE', *, *, #390, .F. ) ;
#64 = CARTESIAN_POINT ( 'NONE',  ( 6.299999999999999822, 0.5000000000000009992, -1.361065758881619514 ) ) ;
#65 = APPLICATION_PROTOCOL_DEFINITION ( 'draft international standard', 'automotive_design', 1998, #163 ) ;
#66 = FACE_OUTER_BOUND ( 'NONE', #393, .T. ) ;
#67 = ADVANCED_FACE ( 'NONE', ( #467 ), #422, .F. ) ;
#68 = DIRECTION ( 'NONE',  ( 0.000000000000000000, 0.000000000000000000, -1.000000000000000000 ) ) ;
#69 = DIRECTION ( 'NONE',  ( 0.000000000000000000, 0.000000000000000000, 1.000000000000000000 ) ) ;
#70 = DIRECTION ( 'NONE',  ( 0.000000000000000000, 1.626303258728256404E-16, 1.000000000000000000 ) ) ;
#71 = ORIENTED_EDGE ( 'NONE', *, *, #454, .F. ) ;
#72 = CARTESIAN_POINT ( 'NONE',  ( 6.299999999999999822, -0.2999999999999999334, 0.4000000000000001332 ) ) ;
#73 = VECTOR ( 'NONE', #204, 1000.000000000000000 ) ;
#74 =( NAMED_UNIT ( * ) PLANE_ANGLE_UNIT ( ) SI_UNIT ( $, .RADIAN. ) );
#75 = EDGE_LOOP ( 'NONE', ( #243, #523, #446, #63 ) ) ;
#76 = CARTESIAN_POINT ( 'NONE',  ( 0.000000000000000000, 0.000000000000000000, 5.000000000000000000 ) ) ;
#77 = ADVANCED_FACE ( 'NONE', ( #413 ), #261, .T. ) ;
#78 = ORIENTED_EDGE ( 'NONE', *, *, #568, .T. ) ;
#79 = CARTESIAN_POINT ( 'NONE',  ( 6.299999999999999822, 0.5000000000000009992, -1.361065758881619514 ) ) ;
#80 = VERTEX_POINT ( 'NONE', #201 ) ;
#81 = PLANE ( 'NONE',  #336 ) ;
#82 = VECTOR ( 'NONE', #18, 1000.000000000000000 ) ;
#83 = DIRECTION ( 'NONE',  ( -0.000000000000000000, 0.5999999999999994227, 0.8000000000000004885 ) ) ;
#84 = PRODUCT_CONTEXT ( 'NONE', #163, 'mechanical' ) ;
#85 = VECTOR ( 'NONE', #310, 1000.000000000000000 ) ;
#86 = AXIS2_PLACEMENT_3D ( 'NONE', #502, #455, #230 ) ;
#87 = EDGE_LOOP ( 'NONE', ( #456, #396, #573, #662 ) ) ;
#88 = ORIENTED_EDGE ( 'NONE', *, *, #126, .F. ) ;
#89 = DIRECTION ( 'NONE',  ( 0.000000000000000000, 1.626303258728256404E-16, 1.000000000000000000 ) ) ;
#90 = ORIENTED_EDGE ( 'NONE', *, *, #233, .F. ) ;
#91 = CARTESIAN_POINT ( 'NONE',  ( 25.00000000000000000, -0.2999999999999999334, -0.4000000000000002998 ) ) ;
#92 = EDGE_CURVE ( 'NONE', #668, #451, #580, .T. ) ;
#93 = VECTOR ( 'NONE', #493, 1000.000000000000000 ) ;
#94 = DIRECTION ( 'NONE',  ( 0.000000000000000000, 0.000000000000000000, 1.000000000000000000 ) ) ;
#95 = ORIENTED_EDGE ( 'NONE', *, *, #21, .F. ) ;
#96 = PLANE ( 'NONE',  #311 ) ;
#97 = FACE_OUTER_BOUND ( 'NONE', #75, .T. ) ;
#98 = UNCERTAINTY_MEASURE_WITH_UNIT (LENGTH_MEASURE( 1.000000000000000082E-05 ), #271, 'distance_accuracy_value', 'NONE');
#99 = VERTEX_POINT ( 'NONE', #634 ) ;
#100 = CARTESIAN_POINT ( 'NONE',  ( 25.00000000000000000, 0.5000000000000005551, -4.000000000000002665 ) ) ;
#101 = CYLINDRICAL_SURFACE ( 'NONE', #156, 3.250000000000000444 ) ;
#102 = ORIENTED_EDGE ( 'NONE', *, *, #258, .T. ) ;
#103 = AXIS2_PLACEMENT_3D ( 'NONE', #654, #663, #542 ) ;
#104 = VERTEX_POINT ( 'NONE', #369 ) ;
#105 = CARTESIAN_POINT ( 'NONE',  ( 3.399999999999999911, 0.5000000000000006661, -3.211308144666282338 ) ) ;
#106 = VERTEX_POINT ( 'NONE', #110 ) ;
#107 = EDGE_LOOP ( 'NONE', ( #17, #468, #38, #364, #626, #630, #191, #609 ) ) ;
#108 = LINE ( 'NONE', #307, #344 ) ;
#109 = ADVANCED_FACE ( 'NONE', ( #298 ), #530, .F. ) ;
#110 = CARTESIAN_POINT ( 'NONE',  ( 3.399999999999999911, 3.980102097228898231E-16, -3.250000000000000444 ) ) ;
#111 = EDGE_LOOP ( 'NONE', ( #373, #184, #602, #262, #200, #473, #339, #567, #331, #238 ) ) ;
#112 = PLANE ( 'NONE',  #168 ) ;
#113 = DIRECTION ( 'NONE',  ( 0.000000000000000000, 0.000000000000000000, 1.000000000000000000 ) ) ;
#114 = ORIENTED_EDGE ( 'NONE', *, *, #273, .F. ) ;
#115 = VECTOR ( 'NONE', #11, 1000.000000000000000 ) ;
#116 = AXIS2_PLACEMENT_3D ( 'NONE', #374, #478, #194 ) ;
#117 = DIRECTION ( 'NONE',  ( 0.000000000000000000, -0.000000000000000000, 1.000000000000000000 ) ) ;
#118 = APPLICATION_CONTEXT ( 'automotive_design' ) ;
#119 = DIRECTION ( 'NONE',  ( 1.000000000000000000, 0.000000000000000000, 0.000000000000000000 ) ) ;
#120 = EDGE_CURVE ( 'NONE', #207, #13, #122, .T. ) ;
#121 = CARTESIAN_POINT ( 'NONE',  ( 0.000000000000000000, 0.000000000000000000, 0.000000000000000000 ) ) ;
#122 = LINE ( 'NONE', #375, #157 ) ;
#123 = CARTESIAN_POINT ( 'NONE',  ( 6.299999999999999822, 0.000000000000000000, 0.000000000000000000 ) ) ;
#124 = CARTESIAN_POINT ( 'NONE',  ( 0.000000000000000000, 3.980102097228898231E-16, -3.250000000000000444 ) ) ;
#125 = LINE ( 'NONE', #144, #543 ) ;
#126 = EDGE_CURVE ( 'NONE', #207, #593, #209, .T. ) ;
#127 = DIRECTION ( 'NONE',  ( 0.000000000000000000, -0.7071067811865451302, 0.7071067811865500152 ) ) ;
#128 = VECTOR ( 'NONE', #397, 1000.000000000000000 ) ;
#129 = LINE ( 'NONE', #76, #506 ) ;
#130 = VERTEX_POINT ( 'NONE', #72 ) ;
#131 = DIRECTION ( 'NONE',  ( -0.000000000000000000, -0.7071067811865500152, -0.7071067811865451302 ) ) ;
#132 = DIRECTION ( 'NONE',  ( -1.000000000000000000, -0.000000000000000000, -0.000000000000000000 ) ) ;
#133 = EDGE_LOOP ( 'NONE', ( #114, #291, #149, #239 ) ) ;
#134 = CARTESIAN_POINT ( 'NONE',  ( 3.399999999999999911, 0.000000000000000000, 0.000000000000000000 ) ) ;
#135 = EDGE_CURVE ( 'NONE', #593, #33, #19, .T. ) ;
#136 = DIRECTION ( 'NONE',  ( -1.000000000000000000, 0.000000000000000000, 0.000000000000000000 ) ) ;
#137 = VERTEX_POINT ( 'NONE', #379 ) ;
#138 = VECTOR ( 'NONE', #255, 1000.000000000000000 ) ;
#139 = VECTOR ( 'NONE', #219, 1000.000000000000000 ) ;
#140 = EDGE_CURVE ( 'NONE', #593, #166, #587, .T. ) ;
#141 = ORIENTED_EDGE ( 'NONE', *, *, #135, .T. ) ;
#142 = VERTEX_POINT ( 'NONE', #433 ) ;
#143 = FACE_OUTER_BOUND ( 'NONE', #416, .T. ) ;
#144 = CARTESIAN_POINT ( 'NONE',  ( 3.400000000000000355, 0.5000000000000012212, -8.131516293641301744E-17 ) ) ;
#145 = ORIENTED_EDGE ( 'NONE', *, *, #177, .T. ) ;
#146 = AXIS2_PLACEMENT_3D ( 'NONE', #481, #22, #211 ) ;
#147 = CLOSED_SHELL ( 'NONE', ( #505, #67, #604, #465, #190, #23, #347, #315, #371, #660, #16, #359, #430, #77, #485, #450, #109, #224, #159, #615, #492 ) ) ;
#148 = DIRECTION ( 'NONE',  ( 0.000000000000000000, -0.8000000000000005995, -0.5999999999999994227 ) ) ;
#149 = ORIENTED_EDGE ( 'NONE', *, *, #284, .T. ) ;
#150 = VERTEX_POINT ( 'NONE', #639 ) ;
#151 = SURFACE_STYLE_FILL_AREA ( #42 ) ;
#152 = CARTESIAN_POINT ( 'NONE',  ( 6.299999999999999822, 0.5000000000000009992, 1.361065758881619514 ) ) ;
#153 = VERTEX_POINT ( 'NONE', #124 ) ;
#154 = LINE ( 'NONE', #105, #196 ) ;
#155 = ORIENTED_EDGE ( 'NONE', *, *, #273, .T. ) ;
#156 = AXIS2_PLACEMENT_3D ( 'NONE', #429, #320, #242 ) ;
#157 = VECTOR ( 'NONE', #484, 1000.000000000000000 ) ;
#158 = ORIENTED_EDGE ( 'NONE', *, *, #390, .T. ) ;
#159 = ADVANCED_FACE ( 'NONE', ( #319 ), #590, .F. ) ;
#160 = CARTESIAN_POINT ( 'NONE',  ( 25.00000000000000000, -0.5000000000000037748, -5.000000000000000000 ) ) ;
#161 = ORIENTED_EDGE ( 'NONE', *, *, #577, .F. ) ;
#162 = DIRECTION ( 'NONE',  ( -1.000000000000000000, 0.000000000000000000, 0.000000000000000000 ) ) ;
#163 = APPLICATION_CONTEXT ( 'automotive_design' ) ;
#164 = EDGE_CURVE ( 'NONE', #106, #24, #521, .T. ) ;
#165 = CARTESIAN_POINT ( 'NONE',  ( 22.19999999999999929, -0.2999999999999997113, 0.4000000000000002998 ) ) ;
#166 = VERTEX_POINT ( 'NONE', #25 ) ;
#167 = DIRECTION ( 'NONE',  ( -1.000000000000000000, -0.000000000000000000, -0.000000000000000000 ) ) ;
#168 = AXIS2_PLACEMENT_3D ( 'NONE', #121, #411, #68 ) ;
#169 = ORIENTED_EDGE ( 'NONE', *, *, #637, .T. ) ;
#170 = DIRECTION ( 'NONE',  ( 0.000000000000000000, 0.7071067811865463515, -0.7071067811865487940 ) ) ;
#171 = CARTESIAN_POINT ( 'NONE',  ( 0.000000000000000000, 0.5000000000000012212, 8.131516293641301744E-17 ) ) ;
#172 = ORIENTED_EDGE ( 'NONE', *, *, #444, .F. ) ;
#173 = CARTESIAN_POINT ( 'NONE',  ( 22.19999999999999929, 0.000000000000000000, 0.000000000000000000 ) ) ;
#174 = DIRECTION ( 'NONE',  ( -1.000000000000000000, -0.000000000000000000, -0.000000000000000000 ) ) ;
#175 = CARTESIAN_POINT ( 'NONE',  ( 6.299999999999999822, 0.000000000000000000, 0.000000000000000000 ) ) ;
#176 = VERTEX_POINT ( 'NONE', #79 ) ;
#177 = EDGE_CURVE ( 'NONE', #508, #13, #225, .T. ) ;
#178 = VECTOR ( 'NONE', #56, 1000.000000000000000 ) ;
#179 = EDGE_LOOP ( 'NONE', ( #145, #578, #475, #9, #453, #280, #398, #346, #189, #352, #419, #482, #169, #494, #487, #566 ) ) ;
#180 = DIRECTION ( 'NONE',  ( 0.000000000000000000, 0.000000000000000000, 1.000000000000000000 ) ) ;
#181 = ORIENTED_EDGE ( 'NONE', *, *, #495, .F. ) ;
#182 = EDGE_LOOP ( 'NONE', ( #656, #603, #516, #95 ) ) ;
#183 = VECTOR ( 'NONE', #428, 1000.000000000000000 ) ;
#184 = ORIENTED_EDGE ( 'NONE', *, *, #611, .T. ) ;
#185 = ORIENTED_EDGE ( 'NONE', *, *, #4, .F. ) ;
#186 = ORIENTED_EDGE ( 'NONE', *, *, #135, .F. ) ;
#187 = DIRECTION ( 'NONE',  ( -1.000000000000000000, -0.000000000000000000, -0.000000000000000000 ) ) ;
#188 = VECTOR ( 'NONE', #119, 1000.000000000000000 ) ;
#189 = ORIENTED_EDGE ( 'NONE', *, *, #258, .F. ) ;
#190 = ADVANCED_FACE ( 'NONE', ( #435 ), #644, .T. ) ;
#191 = ORIENTED_EDGE ( 'NONE', *, *, #284, .F. ) ;
#192 = CARTESIAN_POINT ( 'NONE',  ( 3.399999999999999911, 0.5000000000000006661, 3.211308144666282338 ) ) ;
#193 = ORIENTED_EDGE ( 'NONE', *, *, #627, .T. ) ;
#194 = DIRECTION ( 'NONE',  ( 0.000000000000000000, 0.000000000000000000, -1.000000000000000000 ) ) ;
#195 = CARTESIAN_POINT ( 'NONE',  ( 23.99999999999999645, 0.5000000000000018874, 3.999999999999995559 ) ) ;
#196 = VECTOR ( 'NONE', #563, 1000.000000000000000 ) ;
#197 = ORIENTED_EDGE ( 'NONE', *, *, #642, .F. ) ;
#198 = DIRECTION ( 'NONE',  ( 0.000000000000000000, 0.000000000000000000, 1.000000000000000000 ) ) ;
#199 = LINE ( 'NONE', #57, #138 ) ;
#200 = ORIENTED_EDGE ( 'NONE', *, *, #378, .T. ) ;
#201 = CARTESIAN_POINT ( 'NONE',  ( 0.000000000000000000, 0.5000000000000005551, -4.000000000000002665 ) ) ;
#202 = DIRECTION ( 'NONE',  ( 0.000000000000000000, 0.000000000000000000, 1.000000000000000000 ) ) ;
#203 = CARTESIAN_POINT ( 'NONE',  ( 6.299999999999999822, -0.2999999999999999334, -0.4000000000000002998 ) ) ;
#204 = DIRECTION ( 'NONE',  ( -1.000000000000000000, -0.000000000000000000, -0.000000000000000000 ) ) ;
#205 = LINE ( 'NONE', #334, #82 ) ;
#206 = CIRCLE ( 'NONE', #299, 1.449999999999999956 ) ;
#207 = VERTEX_POINT ( 'NONE', #443 ) ;
#208 = LINE ( 'NONE', #469, #646 ) ;
#209 = LINE ( 'NONE', #538, #49 ) ;
#210 = EDGE_CURVE ( 'NONE', #166, #335, #579, .T. ) ;
#211 = DIRECTION ( 'NONE',  ( 0.000000000000000000, 0.000000000000000000, 1.000000000000000000 ) ) ;
#212 = CARTESIAN_POINT ( 'NONE',  ( 0.000000000000000000, -0.4999999999999991673, 5.000000000000000000 ) ) ;
#213 =( NAMED_UNIT ( * ) SI_UNIT ( $, .STERADIAN. ) SOLID_ANGLE_UNIT ( ) );
#214 = DIRECTION ( 'NONE',  ( 0.000000000000000000, 0.000000000000000000, 1.000000000000000000 ) ) ;
#215 = CARTESIAN_POINT ( 'NONE',  ( 25.00000000000000000, -0.2999999999999999334, 0.4000000000000001332 ) ) ;
#216 = CARTESIAN_POINT ( 'NONE',  ( 6.299999999999999822, -0.2999999999999998224, -0.4000000000000003553 ) ) ;
#217 = AXIS2_PLACEMENT_3D ( 'NONE', #557, #452, #546 ) ;
#218 = ORIENTED_EDGE ( 'NONE', *, *, #233, .T. ) ;
#219 = DIRECTION ( 'NONE',  ( 1.000000000000000000, 0.000000000000000000, 0.000000000000000000 ) ) ;
#220 = AXIS2_PLACEMENT_3D ( 'NONE', #477, #524, #202 ) ;
#221 = CARTESIAN_POINT ( 'NONE',  ( 6.299999999999999822, 0.5000000000000009992, 1.361065758881619514 ) ) ;
#222 = PLANE ( 'NONE',  #354 ) ;
#223 = ORIENTED_EDGE ( 'NONE', *, *, #522, .T. ) ;
#224 = ADVANCED_FACE ( 'NONE', ( #306 ), #420, .T. ) ;
#225 = LINE ( 'NONE', #488, #139 ) ;
#226 = CARTESIAN_POINT ( 'NONE',  ( 3.400000000000000355, 0.5000000000000012212, 8.131516293641301744E-17 ) ) ;
#227 = ORIENTED_EDGE ( 'NONE', *, *, #126, .T. ) ;
#228 = CARTESIAN_POINT ( 'NONE',  ( 6.299999999999999822, 0.000000000000000000, 1.449999999999999956 ) ) ;
#229 = ORIENTED_EDGE ( 'NONE', *, *, #539, .F. ) ;
#230 = DIRECTION ( 'NONE',  ( 0.000000000000000000, 0.000000000000000000, 1.000000000000000000 ) ) ;
#231 = AXIS2_PLACEMENT_3D ( 'NONE', #651, #132, #180 ) ;
#232 = AXIS2_PLACEMENT_3D ( 'NONE', #597, #127, #269 ) ;
#233 = EDGE_CURVE ( 'NONE', #451, #207, #32, .T. ) ;
#234 = DIRECTION ( 'NONE',  ( -1.000000000000000000, 0.000000000000000000, 0.000000000000000000 ) ) ;
#235 = ORIENTED_EDGE ( 'NONE', *, *, #92, .F. ) ;
#236 = SURFACE_SIDE_STYLE ('',( #151 ) ) ;
#237 = CARTESIAN_POINT ( 'NONE',  ( 22.19999999999999929, 0.5000000000000004441, -5.000000000000000000 ) ) ;
#238 = ORIENTED_EDGE ( 'NONE', *, *, #210, .F. ) ;
#239 = ORIENTED_EDGE ( 'NONE', *, *, #637, .F. ) ;
#240 = DIRECTION ( 'NONE',  ( 0.000000000000000000, 0.000000000000000000, 1.000000000000000000 ) ) ;
#241 = CIRCLE ( 'NONE', #635, 0.5000000000000000000 ) ;
#242 = DIRECTION ( 'NONE',  ( 0.000000000000000000, 0.000000000000000000, 1.000000000000000000 ) ) ;
#243 = ORIENTED_EDGE ( 'NONE', *, *, #164, .F. ) ;
#244 = DIRECTION ( 'NONE',  ( -1.000000000000000000, -0.000000000000000000, -0.000000000000000000 ) ) ;
#245 = CARTESIAN_POINT ( 'NONE',  ( 3.399999999999999911, 0.000000000000000000, 0.000000000000000000 ) ) ;
#246 = EDGE_CURVE ( 'NONE', #15, #389, #536, .T. ) ;
#247 = CARTESIAN_POINT ( 'NONE',  ( 25.00000000000000000, 0.000000000000000000, -5.000000000000000000 ) ) ;
#248 = DIRECTION ( 'NONE',  ( 0.5773502691896296168, -0.5773502691896258421, -0.5773502691896219563 ) ) ;
#249 = ORIENTED_EDGE ( 'NONE', *, *, #534, .T. ) ;
#250 = FACE_OUTER_BOUND ( 'NONE', #614, .T. ) ;
#251 = DIRECTION ( 'NONE',  ( 0.000000000000000000, 1.000000000000000000, -1.626303258728256404E-16 ) ) ;
#252 = DIRECTION ( 'NONE',  ( -1.000000000000000000, 0.000000000000000000, -0.000000000000000000 ) ) ;
#253 = ORIENTED_EDGE ( 'NONE', *, *, #621, .F. ) ;
#254 = LINE ( 'NONE', #165, #448 ) ;
#255 = DIRECTION ( 'NONE',  ( 0.000000000000000000, 1.626303258728256404E-16, -1.000000000000000000 ) ) ;
#256 = CIRCLE ( 'NONE', #146, 1.449999999999999956 ) ;
#257 = VECTOR ( 'NONE', #170, 1000.000000000000000 ) ;
#258 = EDGE_CURVE ( 'NONE', #361, #15, #440, .T. ) ;
#259 = VECTOR ( 'NONE', #571, 1000.000000000000000 ) ;
#260 = ORIENTED_EDGE ( 'NONE', *, *, #511, .T. ) ;
#261 = PLANE ( 'NONE',  #570 ) ;
#262 = ORIENTED_EDGE ( 'NONE', *, *, #565, .T. ) ;
#263 = CARTESIAN_POINT ( 'NONE',  ( 25.00000000000000000, -5.500000000000000000, -5.000000000000000000 ) ) ;
#264 = CARTESIAN_POINT ( 'NONE',  ( 3.399999999999999911, 0.000000000000000000, 0.000000000000000000 ) ) ;
#265 = CARTESIAN_POINT ( 'NONE',  ( 25.00000000000000000, -5.500000000000000000, 5.000000000000000000 ) ) ;
#266 = CARTESIAN_POINT ( 'NONE',  ( 0.000000000000000000, -0.4999999999999991673, 5.000000000000000000 ) ) ;
#267 = VECTOR ( 'NONE', #313, 1000.000000000000000 ) ;
#268 = DIRECTION ( 'NONE',  ( -1.000000000000000000, -0.000000000000000000, -0.000000000000000000 ) ) ;
#269 = DIRECTION ( 'NONE',  ( -1.000000000000000000, 0.000000000000000000, 0.000000000000000000 ) ) ;
#270 = EDGE_CURVE ( 'NONE', #153, #150, #277, .T. ) ;
#271 =( LENGTH_UNIT ( ) NAMED_UNIT ( * ) SI_UNIT ( .MILLI., .METRE. ) );
#272 = DIRECTION ( 'NONE',  ( -1.000000000000000000, 0.000000000000000000, 0.000000000000000000 ) ) ;
#273 = EDGE_CURVE ( 'NONE', #293, #619, #206, .T. ) ;
#274 = CARTESIAN_POINT ( 'NONE',  ( 25.00000000000000000, -0.4999999999999962252, 8.131516293641220393E-17 ) ) ;
#275 = EDGE_CURVE ( 'NONE', #24, #142, #394, .T. ) ;
#276 = CARTESIAN_POINT ( 'NONE',  ( 25.00000000000000000, -0.5000000000000037748, -5.000000000000000000 ) ) ;
#277 = CIRCLE ( 'NONE', #559, 3.250000000000000444 ) ;
#278 = COLOUR_RGB ( '',0.7921568627450980005, 0.8196078431372548767, 0.9333333333333333481 ) ;
#279 = LINE ( 'NONE', #667, #425 ) ;
#280 = ORIENTED_EDGE ( 'NONE', *, *, #547, .T. ) ;
#281 = DIRECTION ( 'NONE',  ( -1.000000000000000000, 0.000000000000000000, 0.000000000000000000 ) ) ;
#282 = DIRECTION ( 'NONE',  ( 0.000000000000000000, 1.626303258728256404E-16, -1.000000000000000000 ) ) ;
#283 = ORIENTED_EDGE ( 'NONE', *, *, #140, .T. ) ;
#284 = EDGE_CURVE ( 'NONE', #549, #34, #381, .T. ) ;
#285 = LINE ( 'NONE', #226, #366 ) ;
#286 = EDGE_LOOP ( 'NONE', ( #496, #102, #514, #678 ) ) ;
#287 = CARTESIAN_POINT ( 'NONE',  ( 25.00000000000000000, 0.000000000000000000, 0.000000000000000000 ) ) ;
#288 = VECTOR ( 'NONE', #517, 999.9999999999998863 ) ;
#289 = AXIS2_PLACEMENT_3D ( 'NONE', #287, #676, #670 ) ;
#290 = EDGE_CURVE ( 'NONE', #668, #335, #27, .T. ) ;
#291 = ORIENTED_EDGE ( 'NONE', *, *, #424, .T. ) ;
#292 = CARTESIAN_POINT ( 'NONE',  ( 0.000000000000000000, -5.500000000000000000, -5.000000000000000000 ) ) ;
#293 = VERTEX_POINT ( 'NONE', #228 ) ;
#294 = CARTESIAN_POINT ( 'NONE',  ( 23.99999999999999645, 0.5000000000000012212, -8.131516293641301744E-17 ) ) ;
#295 = LINE ( 'NONE', #91, #661 ) ;
#296 = EDGE_LOOP ( 'NONE', ( #253, #197, #365, #90 ) ) ;
#297 = PRODUCT_RELATED_PRODUCT_CATEGORY ( 'part', '', ( #664 ) ) ;
#298 = FACE_OUTER_BOUND ( 'NONE', #606, .T. ) ;
#299 = AXIS2_PLACEMENT_3D ( 'NONE', #382, #281, #328 ) ;
#300 = DIRECTION ( 'NONE',  ( 1.000000000000000000, 0.000000000000000000, 0.000000000000000000 ) ) ;
#301 = VERTEX_POINT ( 'NONE', #658 ) ;
#302 = CARTESIAN_POINT ( 'NONE',  ( 22.19999999999999929, 0.5000000000000011102, -1.000000000000000000 ) ) ;
#303 = EDGE_CURVE ( 'NONE', #301, #80, #605, .T. ) ;
#304 = CARTESIAN_POINT ( 'NONE',  ( 3.399999999999999911, 0.5000000000000009992, 1.361065758881619514 ) ) ;
#305 = ORIENTED_EDGE ( 'NONE', *, *, #4, .T. ) ;
#306 = FACE_OUTER_BOUND ( 'NONE', #182, .T. ) ;
#307 = CARTESIAN_POINT ( 'NONE',  ( 25.00000000000000000, 0.5000000000000009992, 1.000000000000000000 ) ) ;
#308 = CARTESIAN_POINT ( 'NONE',  ( 25.00000000000000000, 0.5000000000000012212, -8.131516293641301744E-17 ) ) ;
#309 = VERTEX_POINT ( 'NONE', #507 ) ;
#310 = DIRECTION ( 'NONE',  ( 0.000000000000000000, 1.626303258728256404E-16, 1.000000000000000000 ) ) ;
#311 = AXIS2_PLACEMENT_3D ( 'NONE', #408, #500, #353 ) ;
#312 = ORIENTED_EDGE ( 'NONE', *, *, #522, .F. ) ;
#313 = DIRECTION ( 'NONE',  ( 0.000000000000000000, 0.000000000000000000, -1.000000000000000000 ) ) ;
#314 = CARTESIAN_POINT ( 'NONE',  ( 3.399999999999999911, 1.775737858763661916E-16, -1.449999999999999956 ) ) ;
#315 = ADVANCED_FACE ( 'NONE', ( #143 ), #39, .F. ) ;
#316 = DIRECTION ( 'NONE',  ( -1.000000000000000000, -0.000000000000000000, -0.000000000000000000 ) ) ;
#317 = DIRECTION ( 'NONE',  ( -1.000000000000000000, 0.000000000000000000, 0.000000000000000000 ) ) ;
#318 = EDGE_CURVE ( 'NONE', #501, #389, #295, .T. ) ;
#319 = FACE_OUTER_BOUND ( 'NONE', #338, .T. ) ;
#320 = DIRECTION ( 'NONE',  ( -1.000000000000000000, -0.000000000000000000, -0.000000000000000000 ) ) ;
#321 = AXIS2_PLACEMENT_3D ( 'NONE', #391, #449, #94 ) ;
#322 = CARTESIAN_POINT ( 'NONE',  ( 25.00000000000000000, -0.4999999999999962252, 8.131516293641220393E-17 ) ) ;
#323 = VECTOR ( 'NONE', #2, 1000.000000000000000 ) ;
#324 = ORIENTED_EDGE ( 'NONE', *, *, #140, .F. ) ;
#325 = EDGE_CURVE ( 'NONE', #410, #5, #532, .T. ) ;
#326 = CYLINDRICAL_SURFACE ( 'NONE', #86, 3.250000000000000444 ) ;
#327 = DIRECTION ( 'NONE',  ( 0.000000000000000000, -1.000000000000000000, 0.000000000000000000 ) ) ;
#328 = DIRECTION ( 'NONE',  ( 0.000000000000000000, 0.000000000000000000, 1.000000000000000000 ) ) ;
#329 =( LENGTH_UNIT ( ) NAMED_UNIT ( * ) SI_UNIT ( .MILLI., .METRE. ) );
#330 = EDGE_CURVE ( 'NONE', #361, #104, #503, .T. ) ;
#331 = ORIENTED_EDGE ( 'NONE', *, *, #290, .T. ) ;
#332 = CARTESIAN_POINT ( 'NONE',  ( 25.00000000000000000, -0.2999999999999998224, -0.4000000000000003553 ) ) ;
#333 = DIRECTION ( 'NONE',  ( 0.000000000000000000, 0.000000000000000000, 1.000000000000000000 ) ) ;
#334 = CARTESIAN_POINT ( 'NONE',  ( 25.00000000000000000, -5.500000000000000000, -5.000000000000000000 ) ) ;
#335 = VERTEX_POINT ( 'NONE', #292 ) ;
#336 = AXIS2_PLACEMENT_3D ( 'NONE', #432, #640, #643 ) ;
#337 = CARTESIAN_POINT ( 'NONE',  ( 0.000000000000000000, 0.000000000000000000, 0.000000000000000000 ) ) ;
#338 = EDGE_LOOP ( 'NONE', ( #12, #553, #235, #71 ) ) ;
#339 = ORIENTED_EDGE ( 'NONE', *, *, #44, .T. ) ;
#340 = EDGE_CURVE ( 'NONE', #309, #150, #154, .T. ) ;
#341 = CARTESIAN_POINT ( 'NONE',  ( 25.00000000000000000, 0.000000000000000000, 5.000000000000000000 ) ) ;
#342 = ORIENTED_EDGE ( 'NONE', *, *, #275, .F. ) ;
#343 = DIRECTION ( 'NONE',  ( 0.000000000000000000, 1.517883041479706208E-16, 1.000000000000000000 ) ) ;
#344 = VECTOR ( 'NONE', #268, 1000.000000000000000 ) ;
#345 = PRODUCT_DEFINITION_CONTEXT ( 'detailed design', #118, 'design' ) ;
#346 = ORIENTED_EDGE ( 'NONE', *, *, #40, .T. ) ;
#347 = ADVANCED_FACE ( 'NONE', ( #463 ), #96, .F. ) ;
#348 = CARTESIAN_POINT ( 'NONE',  ( 6.299999999999999822, 0.5000000000000009992, 0.9999999999999995559 ) ) ;
#349 = EDGE_LOOP ( 'NONE', ( #229, #441, #78, #666 ) ) ;
#350 = DIRECTION ( 'NONE',  ( 0.000000000000000000, 0.000000000000000000, -1.000000000000000000 ) ) ;
#351 = CARTESIAN_POINT ( 'NONE',  ( 24.33333333333333570, 0.1666666666666635488, -4.333333333333337478 ) ) ;
#352 = ORIENTED_EDGE ( 'NONE', *, *, #330, .T. ) ;
#353 = DIRECTION ( 'NONE',  ( 0.000000000000000000, -0.8000000000000005995, -0.5999999999999994227 ) ) ;
#354 = AXIS2_PLACEMENT_3D ( 'NONE', #274, #647, #431 ) ;
#355 = CARTESIAN_POINT ( 'NONE',  ( 25.00000000000000000, 0.000000000000000000, 0.000000000000000000 ) ) ;
#356 = DIRECTION ( 'NONE',  ( -1.000000000000000000, 0.000000000000000000, 0.000000000000000000 ) ) ;
#357 = AXIS2_PLACEMENT_3D ( 'NONE', #386, #489, #598 ) ;
#358 = EDGE_LOOP ( 'NONE', ( #550, #518, #399, #43, #652, #466, #407, #155 ) ) ;
#359 = ADVANCED_FACE ( 'NONE', ( #250 ), #458, .T. ) ;
#360 = CARTESIAN_POINT ( 'NONE',  ( 6.299999999999999822, 1.775737858763661916E-16, -1.449999999999999956 ) ) ;
#361 = VERTEX_POINT ( 'NONE', #302 ) ;
#362 = DIRECTION ( 'NONE',  ( 0.000000000000000000, 0.000000000000000000, 1.000000000000000000 ) ) ;
#363 = FACE_OUTER_BOUND ( 'NONE', #55, .T. ) ;
#364 = ORIENTED_EDGE ( 'NONE', *, *, #164, .T. ) ;
#365 = ORIENTED_EDGE ( 'NONE', *, *, #120, .F. ) ;
#366 = VECTOR ( 'NONE', #282, 1000.000000000000000 ) ;
#367 = AXIS2_PLACEMENT_3D ( 'NONE', #175, #316, #595 ) ;
#368 = MECHANICAL_DESIGN_GEOMETRIC_PRESENTATION_REPRESENTATION (  '', ( #459 ), #548 ) ;
#369 = CARTESIAN_POINT ( 'NONE',  ( 22.19999999999999929, 0.5000000000000009992, 1.000000000000000000 ) ) ;
#370 = CARTESIAN_POINT ( 'NONE',  ( 0.000000000000000000, 0.000000000000000000, 0.000000000000000000 ) ) ;
#371 = ADVANCED_FACE ( 'NONE', ( #510 ), #401, .F. ) ;
#372 = CARTESIAN_POINT ( 'NONE',  ( 0.000000000000000000, -5.500000000000000000, 0.000000000000000000 ) ) ;
#373 = ORIENTED_EDGE ( 'NONE', *, *, #627, .F. ) ;
#374 = CARTESIAN_POINT ( 'NONE',  ( 0.000000000000000000, 0.000000000000000000, 0.000000000000000000 ) ) ;
#375 = CARTESIAN_POINT ( 'NONE',  ( 25.00000000000000355, -0.4999999999999978351, 4.999999999999999112 ) ) ;
#376 = DIRECTION ( 'NONE',  ( 0.000000000000000000, 0.000000000000000000, 1.000000000000000000 ) ) ;
#377 = ADVANCED_BREP_SHAPE_REPRESENTATION ( 'Crown Jig', ( #476, #544 ), #447 ) ;
#378 = EDGE_CURVE ( 'NONE', #405, #153, #403, .T. ) ;
#379 = CARTESIAN_POINT ( 'NONE',  ( 22.19999999999999929, -0.2999999999999999334, 0.4000000000000001332 ) ) ;
#380 = AXIS2_PLACEMENT_3D ( 'NONE', #46, #356, #240 ) ;
#381 = CIRCLE ( 'NONE', #357, 1.449999999999999956 ) ;
#382 = CARTESIAN_POINT ( 'NONE',  ( 6.299999999999999822, 0.000000000000000000, 0.000000000000000000 ) ) ;
#383 = DIRECTION ( 'NONE',  ( -1.000000000000000000, -0.000000000000000000, -0.000000000000000000 ) ) ;
#384 = EDGE_LOOP ( 'NONE', ( #342, #158, #28, #461 ) ) ;
#385 = DIRECTION ( 'NONE',  ( 0.000000000000000000, -1.000000000000000000, 0.000000000000000000 ) ) ;
#386 = CARTESIAN_POINT ( 'NONE',  ( 3.399999999999999911, 0.000000000000000000, 0.000000000000000000 ) ) ;
#387 = CARTESIAN_POINT ( 'NONE',  ( 0.000000000000000000, 0.5000000000000005551, 3.999999999999995559 ) ) ;
#388 = CARTESIAN_POINT ( 'NONE',  ( 25.00000000000000000, 0.5000000000000011102, -1.000000000000000000 ) ) ;
#389 = VERTEX_POINT ( 'NONE', #203 ) ;
#390 = EDGE_CURVE ( 'NONE', #24, #405, #208, .T. ) ;
#391 = CARTESIAN_POINT ( 'NONE',  ( 6.299999999999999822, 0.000000000000000000, 0.000000000000000000 ) ) ;
#392 = DIRECTION ( 'NONE',  ( 1.000000000000000000, -0.000000000000000000, 0.000000000000000000 ) ) ;
#393 = EDGE_LOOP ( 'NONE', ( #562, #58, #445, #558 ) ) ;
#394 = CIRCLE ( 'NONE', #103, 3.250000000000000444 ) ;
#395 = EDGE_CURVE ( 'NONE', #104, #616, #108, .T. ) ;
#396 = ORIENTED_EDGE ( 'NONE', *, *, #21, .T. ) ;
#397 = DIRECTION ( 'NONE',  ( -1.000000000000000000, 0.000000000000000000, 0.000000000000000000 ) ) ;
#398 = ORIENTED_EDGE ( 'NONE', *, *, #8, .F. ) ;
#399 = ORIENTED_EDGE ( 'NONE', *, *, #534, .F. ) ;
#400 = VECTOR ( 'NONE', #343, 1000.000000000000000 ) ;
#401 = PLANE ( 'NONE',  #472 ) ;
#402 = EDGE_CURVE ( 'NONE', #106, #153, #6, .T. ) ;
#403 = CIRCLE ( 'NONE', #116, 3.250000000000000444 ) ;
#404 = CARTESIAN_POINT ( 'NONE',  ( 3.399999999999999911, 0.000000000000000000, 0.000000000000000000 ) ) ;
#405 = VERTEX_POINT ( 'NONE', #633 ) ;
#406 = FACE_OUTER_BOUND ( 'NONE', #575, .T. ) ;
#407 = ORIENTED_EDGE ( 'NONE', *, *, #539, .T. ) ;
#408 = CARTESIAN_POINT ( 'NONE',  ( 25.00000000000000000, -0.2999999999999997113, 0.4000000000000002998 ) ) ;
#409 = DIRECTION ( 'NONE',  ( -1.000000000000000000, 0.000000000000000000, 0.000000000000000000 ) ) ;
#410 = VERTEX_POINT ( 'NONE', #417 ) ;
#411 = DIRECTION ( 'NONE',  ( 1.000000000000000000, -0.000000000000000000, 0.000000000000000000 ) ) ;
#412 = VECTOR ( 'NONE', #136, 1000.000000000000000 ) ;
#413 = FACE_OUTER_BOUND ( 'NONE', #107, .T. ) ;
#414 = LINE ( 'NONE', #625, #288 ) ;
#415 = VECTOR ( 'NONE', #648, 999.9999999999998863 ) ;
#416 = EDGE_LOOP ( 'NONE', ( #88, #260, #193, #324 ) ) ;
#417 = CARTESIAN_POINT ( 'NONE',  ( 3.399999999999999911, 0.5000000000000009992, -1.361065758881619514 ) ) ;
#418 = PLANE ( 'NONE',  #622 ) ;
#419 = ORIENTED_EDGE ( 'NONE', *, *, #395, .T. ) ;
#420 = PLANE ( 'NONE',  #220 ) ;
#421 = LINE ( 'NONE', #464, #85 ) ;
#422 = CYLINDRICAL_SURFACE ( 'NONE', #20, 1.449999999999999956 ) ;
#423 = CIRCLE ( 'NONE', #321, 1.449999999999999956 ) ;
#424 = EDGE_CURVE ( 'NONE', #293, #549, #638, .T. ) ;
#425 = VECTOR ( 'NONE', #148, 999.9999999999998863 ) ;
#426 = AXIS2_PLACEMENT_3D ( 'NONE', #355, #167, #198 ) ;
#427 = LINE ( 'NONE', #171, #671 ) ;
#428 = DIRECTION ( 'NONE',  ( -1.000000000000000000, -0.000000000000000000, -0.000000000000000000 ) ) ;
#429 = CARTESIAN_POINT ( 'NONE',  ( 3.399999999999999911, 0.000000000000000000, 0.000000000000000000 ) ) ;
#430 = ADVANCED_FACE ( 'NONE', ( #515 ), #112, .F. ) ;
#431 = DIRECTION ( 'NONE',  ( 0.000000000000000000, 1.626303258728256404E-16, 1.000000000000000000 ) ) ;
#432 = CARTESIAN_POINT ( 'NONE',  ( 6.299999999999999822, 0.000000000000000000, 0.000000000000000000 ) ) ;
#433 = CARTESIAN_POINT ( 'NONE',  ( 3.399999999999999911, 0.5000000000000006661, 3.211308144666282338 ) ) ;
#434 = CARTESIAN_POINT ( 'NONE',  ( 6.299999999999999822, 1.775737858763661916E-16, -1.449999999999999956 ) ) ;
#435 = FACE_OUTER_BOUND ( 'NONE', #286, .T. ) ;
#436 = DIRECTION ( 'NONE',  ( -1.000000000000000000, -0.000000000000000000, -0.000000000000000000 ) ) ;
#437 = VECTOR ( 'NONE', #29, 1000.000000000000000 ) ;
#438 = ORIENTED_EDGE ( 'NONE', *, *, #92, .T. ) ;
#439 = FACE_OUTER_BOUND ( 'NONE', #349, .T. ) ;
#440 = LINE ( 'NONE', #388, #10 ) ;
#441 = ORIENTED_EDGE ( 'NONE', *, *, #677, .T. ) ;
#442 = LINE ( 'NONE', #657, #490 ) ;
#443 = CARTESIAN_POINT ( 'NONE',  ( 25.00000000000000000, -0.4999999999999991673, 5.000000000000000000 ) ) ;
#444 = EDGE_CURVE ( 'NONE', #501, #137, #241, .T. ) ;
#445 = ORIENTED_EDGE ( 'NONE', *, *, #340, .T. ) ;
#446 = ORIENTED_EDGE ( 'NONE', *, *, #378, .F. ) ;
#447 =( GEOMETRIC_REPRESENTATION_CONTEXT ( 3 ) GLOBAL_UNCERTAINTY_ASSIGNED_CONTEXT ( ( #564 ) ) GLOBAL_UNIT_ASSIGNED_CONTEXT ( ( #329, #636, #528 ) ) REPRESENTATION_CONTEXT ( 'NONE', 'WORKASPACE' ) );
#448 = VECTOR ( 'NONE', #471, 999.9999999999998863 ) ;
#449 = DIRECTION ( 'NONE',  ( -1.000000000000000000, 0.000000000000000000, 0.000000000000000000 ) ) ;
#450 = ADVANCED_FACE ( 'NONE', ( #483 ), #81, .T. ) ;
#451 = VERTEX_POINT ( 'NONE', #276 ) ;
#452 = DIRECTION ( 'NONE',  ( 1.000000000000000000, -0.000000000000000000, 0.000000000000000000 ) ) ;
#453 = ORIENTED_EDGE ( 'NONE', *, *, #340, .F. ) ;
#454 = EDGE_CURVE ( 'NONE', #80, #668, #442, .T. ) ;
#455 = DIRECTION ( 'NONE',  ( -1.000000000000000000, -0.000000000000000000, -0.000000000000000000 ) ) ;
#456 = ORIENTED_EDGE ( 'NONE', *, *, #395, .F. ) ;
#457 = CIRCLE ( 'NONE', #380, 3.250000000000000444 ) ;
#458 = PLANE ( 'NONE',  #289 ) ;
#459 = STYLED_ITEM ( 'NONE', ( #1 ), #476 ) ;
#460 = CARTESIAN_POINT ( 'NONE',  ( 25.00000000000000000, -0.4999999999999991673, 5.000000000000000000 ) ) ;
#461 = ORIENTED_EDGE ( 'NONE', *, *, #54, .F. ) ;
#462 = SURFACE_STYLE_USAGE ( .BOTH. , #236 ) ;
#463 = FACE_OUTER_BOUND ( 'NONE', #87, .T. ) ;
#464 = CARTESIAN_POINT ( 'NONE',  ( 6.299999999999999822, 0.5000000000000012212, -8.131516293641301744E-17 ) ) ;
#465 = ADVANCED_FACE ( 'NONE', ( #594 ), #326, .F. ) ;
#466 = ORIENTED_EDGE ( 'NONE', *, *, #577, .T. ) ;
#467 = FACE_OUTER_BOUND ( 'NONE', #133, .T. ) ;
#468 = ORIENTED_EDGE ( 'NONE', *, *, #547, .F. ) ;
#469 = CARTESIAN_POINT ( 'NONE',  ( 3.399999999999999911, 0.000000000000000000, 3.250000000000000444 ) ) ;
#470 = VECTOR ( 'NONE', #436, 1000.000000000000000 ) ;
#471 = DIRECTION ( 'NONE',  ( 0.000000000000000000, -0.8000000000000005995, -0.5999999999999994227 ) ) ;
#472 = AXIS2_PLACEMENT_3D ( 'NONE', #610, #45, #117 ) ;
#473 = ORIENTED_EDGE ( 'NONE', *, *, #270, .T. ) ;
#474 = EDGE_LOOP ( 'NONE', ( #498, #504, #509, #491 ) ) ;
#475 = ORIENTED_EDGE ( 'NONE', *, *, #303, .T. ) ;
#476 = MANIFOLD_SOLID_BREP ( 'Chamfer3', #147 ) ;
#477 = CARTESIAN_POINT ( 'NONE',  ( 22.19999999999999929, -2.399999999999999467, -4.999999999999999112 ) ) ;
#478 = DIRECTION ( 'NONE',  ( 1.000000000000000000, -0.000000000000000000, 0.000000000000000000 ) ) ;
#479 = CARTESIAN_POINT ( 'NONE',  ( 0.000000000000000000, 0.5000000000000012212, -8.131516293641301744E-17 ) ) ;
#480 = LINE ( 'NONE', #351, #645 ) ;
#481 = CARTESIAN_POINT ( 'NONE',  ( 6.299999999999999822, 0.000000000000000000, 0.000000000000000000 ) ) ;
#482 = ORIENTED_EDGE ( 'NONE', *, *, #669, .F. ) ;
#483 = FACE_OUTER_BOUND ( 'NONE', #358, .T. ) ;
#484 = DIRECTION ( 'NONE',  ( -0.5773502691896278405, 0.5773502691896237327, -0.5773502691896257311 ) ) ;
#485 = ADVANCED_FACE ( 'NONE', ( #66 ), #535, .F. ) ;
#486 = LINE ( 'NONE', #215, #470 ) ;
#487 = ORIENTED_EDGE ( 'NONE', *, *, #54, .T. ) ;
#488 = CARTESIAN_POINT ( 'NONE',  ( 25.00000000000000000, 0.5000000000000018874, 3.999999999999995559 ) ) ;
#489 = DIRECTION ( 'NONE',  ( -1.000000000000000000, 0.000000000000000000, 0.000000000000000000 ) ) ;
#490 = VECTOR ( 'NONE', #131, 1000.000000000000114 ) ;
#491 = ORIENTED_EDGE ( 'NONE', *, *, #611, .F. ) ;
#492 = ADVANCED_FACE ( 'NONE', ( #533 ), #222, .F. ) ;
#493 = DIRECTION ( 'NONE',  ( 0.000000000000000000, -1.000000000000000000, 0.000000000000000000 ) ) ;
#494 = ORIENTED_EDGE ( 'NONE', *, *, #551, .F. ) ;
#495 = EDGE_CURVE ( 'NONE', #137, #130, #486, .T. ) ;
#496 = ORIENTED_EDGE ( 'NONE', *, *, #665, .F. ) ;
#497 = AXIS2_PLACEMENT_3D ( 'NONE', #245, #560, #617 ) ;
#498 = ORIENTED_EDGE ( 'NONE', *, *, #511, .F. ) ;
#499 = LINE ( 'NONE', #294, #323 ) ;
#500 = DIRECTION ( 'NONE',  ( 0.000000000000000000, -0.5999999999999994227, 0.8000000000000004885 ) ) ;
#501 = VERTEX_POINT ( 'NONE', #596 ) ;
#502 = CARTESIAN_POINT ( 'NONE',  ( 3.399999999999999911, 0.000000000000000000, 0.000000000000000000 ) ) ;
#503 = LINE ( 'NONE', #237, #400 ) ;
#504 = ORIENTED_EDGE ( 'NONE', *, *, #120, .T. ) ;
#505 = ADVANCED_FACE ( 'NONE', ( #439 ), #588, .F. ) ;
#506 = VECTOR ( 'NONE', #327, 1000.000000000000000 ) ;
#507 = CARTESIAN_POINT ( 'NONE',  ( 3.399999999999999911, 0.5000000000000006661, -3.211308144666282338 ) ) ;
#508 = VERTEX_POINT ( 'NONE', #387 ) ;
#509 = ORIENTED_EDGE ( 'NONE', *, *, #177, .F. ) ;
#510 = FACE_OUTER_BOUND ( 'NONE', #41, .T. ) ;
#511 = EDGE_CURVE ( 'NONE', #207, #51, #599, .T. ) ;
#512 = LINE ( 'NONE', #479, #601 ) ;
#513 = CARTESIAN_POINT ( 'NONE',  ( 25.00000000000000000, 0.000000000000000000, -5.000000000000000000 ) ) ;
#514 = ORIENTED_EDGE ( 'NONE', *, *, #246, .T. ) ;
#515 = FACE_OUTER_BOUND ( 'NONE', #111, .T. ) ;
#516 = ORIENTED_EDGE ( 'NONE', *, *, #444, .T. ) ;
#517 = DIRECTION ( 'NONE',  ( 0.000000000000000000, -0.8000000000000005995, 0.5999999999999994227 ) ) ;
#518 = ORIENTED_EDGE ( 'NONE', *, *, #589, .T. ) ;
#519 = CARTESIAN_POINT ( 'NONE',  ( 6.299999999999999822, 0.5000000000000011102, -1.000000000000000000 ) ) ;
#520 = CARTESIAN_POINT ( 'NONE',  ( 0.000000000000000000, -0.5000000000000037748, -5.000000000000000000 ) ) ;
#521 = CIRCLE ( 'NONE', #592, 3.250000000000000444 ) ;
#522 = EDGE_CURVE ( 'NONE', #33, #335, #205, .T. ) ;
#523 = ORIENTED_EDGE ( 'NONE', *, *, #402, .T. ) ;
#524 = DIRECTION ( 'NONE',  ( -1.000000000000000000, 0.000000000000000000, 0.000000000000000000 ) ) ;
#525 = CYLINDRICAL_SURFACE ( 'NONE', #426, 0.5000000000000000000 ) ;
#526 = LINE ( 'NONE', #434, #61 ) ;
#527 = DIRECTION ( 'NONE',  ( -1.000000000000000000, -0.000000000000000000, -0.000000000000000000 ) ) ;
#528 =( NAMED_UNIT ( * ) SI_UNIT ( $, .STERADIAN. ) SOLID_ANGLE_UNIT ( ) );
#529 = EDGE_CURVE ( 'NONE', #99, #508, #427, .T. ) ;
#530 = CYLINDRICAL_SURFACE ( 'NONE', #367, 1.449999999999999956 ) ;
#531 = LINE ( 'NONE', #212, #257 ) ;
#532 = CIRCLE ( 'NONE', #497, 1.449999999999999956 ) ;
#533 = FACE_OUTER_BOUND ( 'NONE', #296, .T. ) ;
#534 = EDGE_CURVE ( 'NONE', #389, #130, #620, .T. ) ;
#535 = CYLINDRICAL_SURFACE ( 'NONE', #659, 3.250000000000000444 ) ;
#536 = LINE ( 'NONE', #216, #415 ) ;
#537 = ORIENTED_EDGE ( 'NONE', *, *, #290, .F. ) ;
#538 = CARTESIAN_POINT ( 'NONE',  ( 25.00000000000000000, 0.000000000000000000, 5.000000000000000000 ) ) ;
#539 = EDGE_CURVE ( 'NONE', #50, #293, #256, .T. ) ;
#540 = ORIENTED_EDGE ( 'NONE', *, *, #677, .F. ) ;
#541 = DIRECTION ( 'NONE',  ( 0.000000000000000000, -0.8000000000000005995, 0.5999999999999994227 ) ) ;
#542 = DIRECTION ( 'NONE',  ( 0.000000000000000000, 0.000000000000000000, 1.000000000000000000 ) ) ;
#543 = VECTOR ( 'NONE', #89, 1000.000000000000000 ) ;
#544 = AXIS2_PLACEMENT_3D ( 'NONE', #370, #333, #650 ) ;
#545 = AXIS2_PLACEMENT_3D ( 'NONE', #341, #350, #554 ) ;
#546 = DIRECTION ( 'NONE',  ( 0.000000000000000000, 0.000000000000000000, -1.000000000000000000 ) ) ;
#547 = EDGE_CURVE ( 'NONE', #309, #410, #125, .T. ) ;
#548 =( GEOMETRIC_REPRESENTATION_CONTEXT ( 3 ) GLOBAL_UNCERTAINTY_ASSIGNED_CONTEXT ( ( #98 ) ) GLOBAL_UNIT_ASSIGNED_CONTEXT ( ( #271, #74, #213 ) ) REPRESENTATION_CONTEXT ( 'NONE', 'WORKASPACE' ) );
#549 = VERTEX_POINT ( 'NONE', #672 ) ;
#550 = ORIENTED_EDGE ( 'NONE', *, *, #669, .T. ) ;
#551 = EDGE_CURVE ( 'NONE', #142, #34, #285, .T. ) ;
#552 = APPLICATION_PROTOCOL_DEFINITION ( 'draft international standard', 'automotive_design', 1998, #118 ) ;
#553 = ORIENTED_EDGE ( 'NONE', *, *, #621, .T. ) ;
#554 = DIRECTION ( 'NONE',  ( -1.000000000000000000, 0.000000000000000000, -0.000000000000000000 ) ) ;
#555 = PRODUCT_DEFINITION_SHAPE ( 'NONE', 'NONE',  #556 ) ;
#556 = PRODUCT_DEFINITION ( 'UNKNOWN', '', #36, #345 ) ;
#557 = CARTESIAN_POINT ( 'NONE',  ( 0.000000000000000000, 0.000000000000000000, 0.000000000000000000 ) ) ;
#558 = ORIENTED_EDGE ( 'NONE', *, *, #270, .F. ) ;
#559 = AXIS2_PLACEMENT_3D ( 'NONE', #337, #392, #35 ) ;
#560 = DIRECTION ( 'NONE',  ( -1.000000000000000000, 0.000000000000000000, 0.000000000000000000 ) ) ;
#561 = CARTESIAN_POINT ( 'NONE',  ( 25.00000000000000000, -5.500000000000000000, 5.000000000000000000 ) ) ;
#562 = ORIENTED_EDGE ( 'NONE', *, *, #402, .F. ) ;
#563 = DIRECTION ( 'NONE',  ( -1.000000000000000000, -0.000000000000000000, -0.000000000000000000 ) ) ;
#564 = UNCERTAINTY_MEASURE_WITH_UNIT (LENGTH_MEASURE( 1.000000000000000082E-05 ), #329, 'distance_accuracy_value', 'NONE');
#565 = EDGE_CURVE ( 'NONE', #99, #405, #608, .T. ) ;
#566 = ORIENTED_EDGE ( 'NONE', *, *, #529, .T. ) ;
#567 = ORIENTED_EDGE ( 'NONE', *, *, #454, .T. ) ;
#568 = EDGE_CURVE ( 'NONE', #5, #549, #47, .T. ) ;
#569 = FILL_AREA_STYLE_COLOUR ( '', #278 ) ;
#570 = AXIS2_PLACEMENT_3D ( 'NONE', #7, #409, #624 ) ;
#571 = DIRECTION ( 'NONE',  ( -1.000000000000000000, -0.000000000000000000, -0.000000000000000000 ) ) ;
#572 = PLANE ( 'NONE',  #59 ) ;
#573 = ORIENTED_EDGE ( 'NONE', *, *, #495, .T. ) ;
#574 = DIRECTION ( 'NONE',  ( 0.000000000000000000, -1.626303258728256404E-16, -1.000000000000000000 ) ) ;
#575 = EDGE_LOOP ( 'NONE', ( #537, #438, #305, #223 ) ) ;
#576 = CARTESIAN_POINT ( 'NONE',  ( 6.299999999999999822, 0.000000000000000000, 0.000000000000000000 ) ) ;
#577 = EDGE_CURVE ( 'NONE', #176, #50, #423, .T. ) ;
#578 = ORIENTED_EDGE ( 'NONE', *, *, #642, .T. ) ;
#579 = LINE ( 'NONE', #372, #267 ) ;
#580 = LINE ( 'NONE', #160, #188 ) ;
#581 = VECTOR ( 'NONE', #70, 1000.000000000000000 ) ;
#582 = FACE_OUTER_BOUND ( 'NONE', #474, .T. ) ;
#583 = CARTESIAN_POINT ( 'NONE',  ( 3.399999999999999911, 3.980102097228898231E-16, -3.250000000000000444 ) ) ;
#584 = FACE_OUTER_BOUND ( 'NONE', #179, .T. ) ;
#585 = DIRECTION ( 'NONE',  ( 0.000000000000000000, -1.626303258728256404E-16, 1.000000000000000000 ) ) ;
#586 = ORIENTED_EDGE ( 'NONE', *, *, #8, .T. ) ;
#587 = LINE ( 'NONE', #265, #183 ) ;
#588 = CYLINDRICAL_SURFACE ( 'NONE', #231, 1.449999999999999956 ) ;
#589 = EDGE_CURVE ( 'NONE', #616, #130, #279, .T. ) ;
#590 = PLANE ( 'NONE',  #232 ) ;
#591 = AXIS2_PLACEMENT_3D ( 'NONE', #123, #317, #69 ) ;
#592 = AXIS2_PLACEMENT_3D ( 'NONE', #134, #272, #214 ) ;
#593 = VERTEX_POINT ( 'NONE', #561 ) ;
#594 = FACE_OUTER_BOUND ( 'NONE', #384, .T. ) ;
#595 = DIRECTION ( 'NONE',  ( 0.000000000000000000, 0.000000000000000000, 1.000000000000000000 ) ) ;
#596 = CARTESIAN_POINT ( 'NONE',  ( 22.19999999999999929, -0.2999999999999998224, -0.4000000000000001332 ) ) ;
#597 = CARTESIAN_POINT ( 'NONE',  ( 25.00000000000000000, 0.5000000000000005551, -4.000000000000002665 ) ) ;
#598 = DIRECTION ( 'NONE',  ( 0.000000000000000000, 0.000000000000000000, 1.000000000000000000 ) ) ;
#599 = LINE ( 'NONE', #266, #412 ) ;
#600 = ORIENTED_EDGE ( 'NONE', *, *, #210, .T. ) ;
#601 = VECTOR ( 'NONE', #574, 1000.000000000000000 ) ;
#602 = ORIENTED_EDGE ( 'NONE', *, *, #529, .F. ) ;
#603 = ORIENTED_EDGE ( 'NONE', *, *, #665, .T. ) ;
#604 = ADVANCED_FACE ( 'NONE', ( #97 ), #101, .F. ) ;
#605 = LINE ( 'NONE', #100, #128 ) ;
#606 = EDGE_LOOP ( 'NONE', ( #540, #161, #586, #52 ) ) ;
#607 = AXIS2_PLACEMENT_3D ( 'NONE', #404, #234, #613 ) ;
#608 = CIRCLE ( 'NONE', #217, 3.250000000000000444 ) ;
#609 = ORIENTED_EDGE ( 'NONE', *, *, #568, .F. ) ;
#610 = CARTESIAN_POINT ( 'NONE',  ( 25.00000000000000000, -5.500000000000000000, 0.000000000000000000 ) ) ;
#611 = EDGE_CURVE ( 'NONE', #51, #508, #531, .T. ) ;
#612 = DIRECTION ( 'NONE',  ( 0.000000000000000000, 0.000000000000000000, -1.000000000000000000 ) ) ;
#613 = DIRECTION ( 'NONE',  ( 0.000000000000000000, 0.000000000000000000, 1.000000000000000000 ) ) ;
#614 = EDGE_LOOP ( 'NONE', ( #185, #218, #227, #141 ) ) ;
#615 = ADVANCED_FACE ( 'NONE', ( #582 ), #632, .T. ) ;
#616 = VERTEX_POINT ( 'NONE', #348 ) ;
#617 = DIRECTION ( 'NONE',  ( 0.000000000000000000, 0.000000000000000000, 1.000000000000000000 ) ) ;
#618 = LINE ( 'NONE', #64, #259 ) ;
#619 = VERTEX_POINT ( 'NONE', #152 ) ;
#620 = CIRCLE ( 'NONE', #591, 0.5000000000000000000 ) ;
#621 = EDGE_CURVE ( 'NONE', #301, #451, #480, .T. ) ;
#622 = AXIS2_PLACEMENT_3D ( 'NONE', #308, #251, #53 ) ;
#623 = DIRECTION ( 'NONE',  ( -1.000000000000000000, -0.000000000000000000, -0.000000000000000000 ) ) ;
#624 = DIRECTION ( 'NONE',  ( 0.000000000000000000, 0.000000000000000000, 1.000000000000000000 ) ) ;
#625 = CARTESIAN_POINT ( 'NONE',  ( 22.19999999999999929, -0.2999999999999998224, -0.4000000000000003553 ) ) ;
#626 = ORIENTED_EDGE ( 'NONE', *, *, #275, .T. ) ;
#627 = EDGE_CURVE ( 'NONE', #51, #166, #129, .T. ) ;
#628 = CARTESIAN_POINT ( 'NONE',  ( 6.299999999999999822, 0.000000000000000000, 1.449999999999999956 ) ) ;
#629 = LINE ( 'NONE', #192, #73 ) ;
#630 = ORIENTED_EDGE ( 'NONE', *, *, #551, .T. ) ;
#631 = LINE ( 'NONE', #247, #178 ) ;
#632 = PLANE ( 'NONE',  #60 ) ;
#633 = CARTESIAN_POINT ( 'NONE',  ( 0.000000000000000000, 0.000000000000000000, 3.250000000000000444 ) ) ;
#634 = CARTESIAN_POINT ( 'NONE',  ( 0.000000000000000000, 0.5000000000000006661, 3.211308144666282338 ) ) ;
#635 = AXIS2_PLACEMENT_3D ( 'NONE', #173, #162, #362 ) ;
#636 =( NAMED_UNIT ( * ) PLANE_ANGLE_UNIT ( ) SI_UNIT ( $, .RADIAN. ) );
#637 = EDGE_CURVE ( 'NONE', #619, #34, #26, .T. ) ;
#638 = LINE ( 'NONE', #628, #673 ) ;
#639 = CARTESIAN_POINT ( 'NONE',  ( 0.000000000000000000, 0.5000000000000006661, -3.211308144666282338 ) ) ;
#640 = DIRECTION ( 'NONE',  ( -1.000000000000000000, 0.000000000000000000, 0.000000000000000000 ) ) ;
#641 = DIRECTION ( 'NONE',  ( -0.000000000000000000, 0.7071067811865487940, 0.7071067811865463515 ) ) ;
#642 = EDGE_CURVE ( 'NONE', #13, #301, #499, .T. ) ;
#643 = DIRECTION ( 'NONE',  ( 0.000000000000000000, 0.000000000000000000, 1.000000000000000000 ) ) ;
#644 = PLANE ( 'NONE',  #37 ) ;
#645 = VECTOR ( 'NONE', #248, 1000.000000000000000 ) ;
#646 = VECTOR ( 'NONE', #623, 1000.000000000000000 ) ;
#647 = DIRECTION ( 'NONE',  ( -0.7071067811865451302, -0.7071067811865500152, 1.149970062512534425E-16 ) ) ;
#648 = DIRECTION ( 'NONE',  ( 0.000000000000000000, -0.8000000000000005995, 0.5999999999999994227 ) ) ;
#649 = EDGE_CURVE ( 'NONE', #309, #106, #457, .T. ) ;
#650 = DIRECTION ( 'NONE',  ( 1.000000000000000000, 0.000000000000000000, 0.000000000000000000 ) ) ;
#651 = CARTESIAN_POINT ( 'NONE',  ( 6.299999999999999822, 0.000000000000000000, 0.000000000000000000 ) ) ;
#652 = ORIENTED_EDGE ( 'NONE', *, *, #40, .F. ) ;
#653 = CARTESIAN_POINT ( 'NONE',  ( 25.00000000000000000, -5.500000000000000000, 0.000000000000000000 ) ) ;
#654 = CARTESIAN_POINT ( 'NONE',  ( 3.399999999999999911, 0.000000000000000000, 0.000000000000000000 ) ) ;
#655 = DIRECTION ( 'NONE',  ( -1.000000000000000000, -0.000000000000000000, -0.000000000000000000 ) ) ;
#656 = ORIENTED_EDGE ( 'NONE', *, *, #330, .F. ) ;
#657 = CARTESIAN_POINT ( 'NONE',  ( 0.000000000000000000, 0.5000000000000005551, -4.000000000000002665 ) ) ;
#658 = CARTESIAN_POINT ( 'NONE',  ( 23.99999999999999645, 0.5000000000000005551, -4.000000000000002665 ) ) ;
#659 = AXIS2_PLACEMENT_3D ( 'NONE', #264, #174, #376 ) ;
#660 = ADVANCED_FACE ( 'NONE', ( #406 ), #572, .T. ) ;
#661 = VECTOR ( 'NONE', #187, 1000.000000000000000 ) ;
#662 = ORIENTED_EDGE ( 'NONE', *, *, #589, .F. ) ;
#663 = DIRECTION ( 'NONE',  ( -1.000000000000000000, 0.000000000000000000, 0.000000000000000000 ) ) ;
#664 = PRODUCT ( 'Crown Jig', 'Crown Jig', '', ( #84 ) ) ;
#665 = EDGE_CURVE ( 'NONE', #361, #501, #414, .T. ) ;
#666 = ORIENTED_EDGE ( 'NONE', *, *, #424, .F. ) ;
#667 = CARTESIAN_POINT ( 'NONE',  ( 6.299999999999999822, -0.2999999999999997113, 0.4000000000000002998 ) ) ;
#668 = VERTEX_POINT ( 'NONE', #520 ) ;
#669 = EDGE_CURVE ( 'NONE', #619, #616, #199, .T. ) ;
#670 = DIRECTION ( 'NONE',  ( 0.000000000000000000, 0.000000000000000000, -1.000000000000000000 ) ) ;
#671 = VECTOR ( 'NONE', #585, 1000.000000000000000 ) ;
#672 = CARTESIAN_POINT ( 'NONE',  ( 3.399999999999999911, 0.000000000000000000, 1.449999999999999956 ) ) ;
#673 = VECTOR ( 'NONE', #527, 1000.000000000000000 ) ;
#674 = ORIENTED_EDGE ( 'NONE', *, *, #318, .T. ) ;
#675 = PRESENTATION_LAYER_ASSIGNMENT (  '', '', ( #459 ) ) ;
#676 = DIRECTION ( 'NONE',  ( 1.000000000000000000, -0.000000000000000000, 0.000000000000000000 ) ) ;
#677 = EDGE_CURVE ( 'NONE', #50, #5, #526, .T. ) ;
#678 = ORIENTED_EDGE ( 'NONE', *, *, #318, .F. ) ;
ENDSEC;
END-ISO-10303-21;
