ISO-10303-21;
HEADER;
FILE_DESCRIPTION (( 'STEP AP214' ),
    '1' );
FILE_NAME ('TPW Movement Base.STEP',
    '2024-02-15T11:47:14',
    ( '' ),
    ( '' ),
    'SwSTEP 2.0',
    'SolidWorks 2023',
    '' );
FILE_SCHEMA (( 'AUTOMOTIVE_DESIGN' ));
ENDSEC;

DATA;
#1 = ORIENTED_EDGE ( 'NONE', *, *, #269, .F. ) ;
#2 = CARTESIAN_POINT ( 'NONE',  ( -2.133510080238321116, 17.38364156270754535, 13.83965450567229816 ) ) ;
#3 = CARTESIAN_POINT ( 'NONE',  ( 2.020667217937319897E-15, 16.99999999999999645, 16.50000000000000000 ) ) ;
#4 = CARTESIAN_POINT ( 'NONE',  ( -5.802966967018674538, 21.42431873231852180, -15.44611998769771688 ) ) ;
#5 = CARTESIAN_POINT ( 'NONE',  ( -2.417496511190847741, 17.50000070799315210, 13.79253078190852300 ) ) ;
#6 = EDGE_CURVE ( 'NONE', #607, #510, #246, .T. ) ;
#7 =( LENGTH_UNIT ( ) NAMED_UNIT ( * ) SI_UNIT ( .MILLI., .METRE. ) );
#8 = VECTOR ( 'NONE', #629, 1000.000000000000000 ) ;
#10 = CARTESIAN_POINT ( 'NONE',  ( -2.667530221506194010, 17.61140561485951039, 16.28701863446746856 ) ) ;
#9 =( GEOMETRIC_REPRESENTATION_CONTEXT ( 3 ) GLOBAL_UNCERTAINTY_ASSIGNED_CONTEXT ( ( #581 ) ) GLOBAL_UNIT_ASSIGNED_CONTEXT ( ( #7, #100, #423 ) ) REPRESENTATION_CONTEXT ( 'NONE', 'WORKASPACE' ) );
#11 = CARTESIAN_POINT ( 'NONE',  ( -5.158480054500837575, 19.87495134691011245, 13.02092729085184963 ) ) ;
#12 = CARTESIAN_POINT ( 'NONE',  ( -6.000000000000000888, 23.00000000000000000, 25.00000000000000000 ) ) ;
#13 = VECTOR ( 'NONE', #31, 1000.000000000000000 ) ;
#14 = EDGE_CURVE ( 'NONE', #211, #93, #630, .T. ) ;
#15 = UNCERTAINTY_MEASURE_WITH_UNIT (LENGTH_MEASURE( 1.000000000000000082E-05 ), #656, 'distance_accuracy_value', 'NONE');
#16 = CARTESIAN_POINT ( 'NONE',  ( 0.000000000000000000, 23.00000000000000000, 0.000000000000000000 ) ) ;
#17 = CIRCLE ( 'NONE', #556, 16.50000000000000000 ) ;
#18 = DIRECTION ( 'NONE',  ( 0.000000000000000000, 1.000000000000000000, 0.000000000000000000 ) ) ;
#19 = CARTESIAN_POINT ( 'NONE',  ( 2.417496511190847741, 17.50000070799315566, -13.79253078190852300 ) ) ;
#20 = CARTESIAN_POINT ( 'NONE',  ( 0.000000000000000000, 23.00000000000000000, 0.000000000000000000 ) ) ;
#21 = ORIENTED_EDGE ( 'NONE', *, *, #531, .T. ) ;
#22 = DIRECTION ( 'NONE',  ( 0.000000000000000000, -0.000000000000000000, 1.000000000000000000 ) ) ;
#23 = DIRECTION ( 'NONE',  ( -0.000000000000000000, -1.000000000000000000, -0.000000000000000000 ) ) ;
#24 = APPLICATION_PROTOCOL_DEFINITION ( 'draft international standard', 'automotive_design', 1998, #234 ) ;
#25 = ADVANCED_FACE ( 'NONE', ( #660 ), #204, .F. ) ;
#26 = ORIENTED_EDGE ( 'NONE', *, *, #230, .F. ) ;
#27 = FILL_AREA_STYLE_COLOUR ( '', #374 ) ;
#28 = DIRECTION ( 'NONE',  ( 0.000000000000000000, 1.000000000000000000, 0.000000000000000000 ) ) ;
#29 = AXIS2_PLACEMENT_3D ( 'NONE', #388, #594, #149 ) ;
#30 = DIRECTION ( 'NONE',  ( 0.000000000000000000, 0.000000000000000000, 1.000000000000000000 ) ) ;
#31 = DIRECTION ( 'NONE',  ( -0.000000000000000000, -0.000000000000000000, 1.000000000000000000 ) ) ;
#32 = AXIS2_PLACEMENT_3D ( 'NONE', #184, #582, #136 ) ;
#33 = CARTESIAN_POINT ( 'NONE',  ( -5.884545383091075443, 21.64400777833475331, 13.79973060095979775 ) ) ;
#34 = ORIENTED_EDGE ( 'NONE', *, *, #165, .F. ) ;
#35 = ADVANCED_FACE ( 'NONE', ( #504 ), #348, .T. ) ;
#36 = CARTESIAN_POINT ( 'NONE',  ( 6.000000000000000888, 23.00000000000000000, -13.74772708486751860 ) ) ;
#37 = DIRECTION ( 'NONE',  ( 0.000000000000000000, -0.000000000000000000, 1.000000000000000000 ) ) ;
#38 = CARTESIAN_POINT ( 'NONE',  ( 1.941941238105975076, 17.31951668501390174, -16.38642629779766580 ) ) ;
#39 = ORIENTED_EDGE ( 'NONE', *, *, #187, .T. ) ;
#40 = ORIENTED_EDGE ( 'NONE', *, *, #649, .T. ) ;
#41 = CARTESIAN_POINT ( 'NONE',  ( -6.000000000000000888, 23.00000000000000000, 13.74772708486751860 ) ) ;
#42 = CIRCLE ( 'NONE', #307, 21.00000000000000000 ) ;
#43 = CARTESIAN_POINT ( 'NONE',  ( 0.000000000000000000, 3.000000000000000000, 0.000000000000000000 ) ) ;
#44 = VERTEX_POINT ( 'NONE', #652 ) ;
#45 = EDGE_CURVE ( 'NONE', #454, #144, #42, .T. ) ;
#46 = CARTESIAN_POINT ( 'NONE',  ( -6.000000000000000888, 22.31021800190611160, 13.74772708486751860 ) ) ;
#47 = EDGE_LOOP ( 'NONE', ( #78, #88, #95, #620, #102, #117 ) ) ;
#48 = CARTESIAN_POINT ( 'NONE',  ( -5.844364431577314001, 21.62809755544311585, 15.43033106573254898 ) ) ;
#49 = CARTESIAN_POINT ( 'NONE',  ( 3.666095041485346595, 18.23398427622164775, -16.09103579337473988 ) ) ;
#50 = ADVANCED_FACE ( 'NONE', ( #207 ), #244, .T. ) ;
#51 = VERTEX_POINT ( 'NONE', #286 ) ;
#52 = B_SPLINE_CURVE_WITH_KNOTS ( 'NONE', 3,
 ( #414, #268, #11, #57, #130, #473, #426, #568, #371, #5, #2, #367, #180, #222, #572, #322 ),
 .UNSPECIFIED., .F., .F.,
 ( 4, 2, 2, 2, 2, 2, 2, 4 ),
 ( 0.000000000000000000, 0.001865490913901784792, 0.002798236370852677946, 0.003730981827803571318, 0.004663727284754464256, 0.005596472741705357627, 0.006529218198656250999, 0.007461963655607144370 ),
 .UNSPECIFIED. ) ;
#53 = CARTESIAN_POINT ( 'NONE',  ( 0.000000000000000000, 0.000000000000000000, -21.00000000000000000 ) ) ;
#54 = CARTESIAN_POINT ( 'NONE',  ( 2.130789968893871844, 17.38262442149024167, 13.84006853810290671 ) ) ;
#55 = EDGE_LOOP ( 'NONE', ( #552, #549, #507, #403 ) ) ;
#56 = CARTESIAN_POINT ( 'NONE',  ( 6.000000000000000888, 22.31021800190611515, 13.74772708486751860 ) ) ;
#57 = CARTESIAN_POINT ( 'NONE',  ( -4.604518022529828336, 19.14093597236150046, 13.22259542513426211 ) ) ;
#58 = DIRECTION ( 'NONE',  ( 0.000000000000000000, 1.000000000000000000, 0.000000000000000000 ) ) ;
#59 = EDGE_CURVE ( 'NONE', #243, #489, #450, .T. ) ;
#60 = B_SPLINE_CURVE_WITH_KNOTS ( 'NONE', 3,
 ( #236, #333, #383, #233, #389, #634, #579, #337, #133, #19, #326, #435, #535, #186, #70, #494 ),
 .UNSPECIFIED., .F., .F.,
 ( 4, 2, 2, 2, 2, 2, 2, 4 ),
 ( 0.000000000000000000, 0.001865490913901783490, 0.002798236370852676212, 0.003730981827803568716, 0.004663727284754462521, 0.005596472741705355025, 0.006529218198656249264, 0.007461963655607142636 ),
 .UNSPECIFIED. ) ;
#61 = DIRECTION ( 'NONE',  ( -0.000000000000000000, -1.000000000000000000, -0.000000000000000000 ) ) ;
#62 = CARTESIAN_POINT ( 'NONE',  ( -4.402684840938996480, 18.91221416289472401, -13.29169651395973517 ) ) ;
#63 = CARTESIAN_POINT ( 'NONE',  ( -1.564078434365474557, 17.20408030462421678, 16.42680009120961060 ) ) ;
#64 = CARTESIAN_POINT ( 'NONE',  ( 0.000000000000000000, 3.000000000000000000, -16.50000000000000000 ) ) ;
#65 = ADVANCED_FACE ( 'NONE', ( #197 ), #657, .F. ) ;
#66 = CARTESIAN_POINT ( 'NONE',  ( 0.6243435298764090646, 17.02438054658095368, 13.98949916150054662 ) ) ;
#67 = APPLICATION_CONTEXT ( 'automotive_design' ) ;
#68 = DIRECTION ( 'NONE',  ( -0.000000000000000000, -1.000000000000000000, -0.000000000000000000 ) ) ;
#69 = FACE_OUTER_BOUND ( 'NONE', #613, .T. ) ;
#70 = CARTESIAN_POINT ( 'NONE',  ( 0.3110760707841923600, 16.99999999999999645, -14.00000000000000000 ) ) ;
#71 = CYLINDRICAL_SURFACE ( 'NONE', #323, 15.00000000000000000 ) ;
#72 = VERTEX_POINT ( 'NONE', #36 ) ;
#73 = AXIS2_PLACEMENT_3D ( 'NONE', #274, #537, #486 ) ;
#74 = EDGE_CURVE ( 'NONE', #44, #562, #226, .T. ) ;
#75 = DIRECTION ( 'NONE',  ( 0.000000000000000000, 0.000000000000000000, -1.000000000000000000 ) ) ;
#76 = CARTESIAN_POINT ( 'NONE',  ( 0.000000000000000000, 3.000000000000000000, -21.00000000000000000 ) ) ;
#77 = CARTESIAN_POINT ( 'NONE',  ( -6.000000000000000888, 23.00000000000000000, -13.74772708486751860 ) ) ;
#78 = ORIENTED_EDGE ( 'NONE', *, *, #583, .T. ) ;
#79 = DIRECTION ( 'NONE',  ( 0.000000000000000000, 1.000000000000000000, 0.000000000000000000 ) ) ;
#80 = CARTESIAN_POINT ( 'NONE',  ( -0.3103256489529270246, 16.99999999999999645, -14.00000000000000000 ) ) ;
#81 = CARTESIAN_POINT ( 'NONE',  ( 0.000000000000000000, 3.000000000000000000, 0.000000000000000000 ) ) ;
#82 = DIRECTION ( 'NONE',  ( 0.000000000000000000, 0.000000000000000000, -1.000000000000000000 ) ) ;
#83 = ORIENTED_EDGE ( 'NONE', *, *, #599, .T. ) ;
#84 = CARTESIAN_POINT ( 'NONE',  ( -2.673650520009418052, 17.61407680806078702, -16.28611848313643407 ) ) ;
#85 = FACE_OUTER_BOUND ( 'NONE', #566, .T. ) ;
#86 = DIRECTION ( 'NONE',  ( 0.000000000000000000, 1.000000000000000000, 0.000000000000000000 ) ) ;
#87 = DIRECTION ( 'NONE',  ( 0.000000000000000000, 1.000000000000000000, 0.000000000000000000 ) ) ;
#88 = ORIENTED_EDGE ( 'NONE', *, *, #242, .T. ) ;
#89 = DIRECTION ( 'NONE',  ( 0.000000000000000000, 1.000000000000000000, 0.000000000000000000 ) ) ;
#90 = CARTESIAN_POINT ( 'NONE',  ( 6.000000000000000888, 23.00000000000000000, -13.74772708486751860 ) ) ;
#91 = APPLICATION_PROTOCOL_DEFINITION ( 'draft international standard', 'automotive_design', 1998, #67 ) ;
#92 = CARTESIAN_POINT ( 'NONE',  ( 3.011533761651676411, 17.79559579443160189, -16.22628577830744945 ) ) ;
#93 = VERTEX_POINT ( 'NONE', #623 ) ;
#94 = B_SPLINE_CURVE_WITH_KNOTS ( 'NONE', 3,
 ( #467, #670, #515, #155, #363, #245, #214, #547, #668, #258, #166, #452, #561, #659, #49, #92, #159, #253, #38, #460, #664, #203, #98, #350 ),
 .UNSPECIFIED., .F., .F.,
 ( 4, 2, 2, 2, 2, 2, 2, 2, 2, 2, 2, 4 ),
 ( 0.000000000000000000, 0.001182967793956524486, 0.001774451690934786838, 0.002365935587913048973, 0.003548903381869562834, 0.004140387278847821283, 0.004731871175826078864, 0.005914838969782590557, 0.007097806763739102250, 0.007689290660717359831, 0.008280774557695616545, 0.009463742351652135176 ),
 .UNSPECIFIED. ) ;
#95 = ORIENTED_EDGE ( 'NONE', *, *, #576, .T. ) ;
#96 = CARTESIAN_POINT ( 'NONE',  ( 0.000000000000000000, 20.99999999999999645, 0.000000000000000000 ) ) ;
#97 = PRODUCT_CONTEXT ( 'NONE', #234, 'mechanical' ) ;
#98 = CARTESIAN_POINT ( 'NONE',  ( 0.3955044809220349400, 16.99999999999999289, -16.50000000000000355 ) ) ;
#99 = ORIENTED_EDGE ( 'NONE', *, *, #531, .F. ) ;
#100 =( NAMED_UNIT ( * ) PLANE_ANGLE_UNIT ( ) SI_UNIT ( $, .RADIAN. ) );
#101 = ADVANCED_FACE ( 'NONE', ( #237 ), #469, .T. ) ;
#102 = ORIENTED_EDGE ( 'NONE', *, *, #148, .T. ) ;
#103 = PRESENTATION_STYLE_ASSIGNMENT (( #614 ) ) ;
#104 = MECHANICAL_DESIGN_GEOMETRIC_PRESENTATION_REPRESENTATION (  '', ( #511 ), #644 ) ;
#105 = AXIS2_PLACEMENT_3D ( 'NONE', #201, #89, #455 ) ;
#106 = CARTESIAN_POINT ( 'NONE',  ( -6.000000000000000888, 23.00000000000000000, 13.74772708486751860 ) ) ;
#107 = PRODUCT_DEFINITION_FORMATION_WITH_SPECIFIED_SOURCE ( 'ANY', '', #429, .NOT_KNOWN. ) ;
#108 = EDGE_LOOP ( 'NONE', ( #395, #674, #645, #215, #308, #391 ) ) ;
#109 = CARTESIAN_POINT ( 'NONE',  ( -6.000000000000000888, 23.00000000000000000, 15.37042614893939785 ) ) ;
#110 = EDGE_CURVE ( 'NONE', #444, #669, #501, .T. ) ;
#111 = AXIS2_PLACEMENT_3D ( 'NONE', #16, #437, #280 ) ;
#112 = PLANE ( 'NONE',  #135 ) ;
#113 = AXIS2_PLACEMENT_3D ( 'NONE', #422, #126, #523 ) ;
#114 = ORIENTED_EDGE ( 'NONE', *, *, #500, .F. ) ;
#115 = DIRECTION ( 'NONE',  ( 0.000000000000000000, 0.000000000000000000, -1.000000000000000000 ) ) ;
#116 = CARTESIAN_POINT ( 'NONE',  ( 3.728186166962841330, 18.28901995447547080, 13.49689578274410096 ) ) ;
#117 = ORIENTED_EDGE ( 'NONE', *, *, #611, .T. ) ;
#118 = CARTESIAN_POINT ( 'NONE',  ( -5.449192523815415967, 20.41264394232366897, -12.89797807996107437 ) ) ;
#119 = VECTOR ( 'NONE', #518, 1000.000000000000000 ) ;
#120 = CARTESIAN_POINT ( 'NONE',  ( 1.714502515283549045E-15, 16.99999999999999645, 14.00000000000000000 ) ) ;
#121 = CARTESIAN_POINT ( 'NONE',  ( 1.714505518806294638E-15, 2.999999999999999112, 14.00000000000000000 ) ) ;
#122 = B_SPLINE_CURVE_WITH_KNOTS ( 'NONE', 3,
 ( #120, #418, #66, #272, #627, #54, #483, #410, #621, #116, #175, #312, #376, #189, #277, #138 ),
 .UNSPECIFIED., .F., .F.,
 ( 4, 2, 2, 2, 2, 2, 2, 4 ),
 ( 0.007461963655607144370, 0.008392459011635308719, 0.009322954367663472200, 0.01025344972369163568, 0.01118394507971980090, 0.01211444043574796611, 0.01304493579177613133, 0.01490592650383246003 ),
 .UNSPECIFIED. ) ;
#123 = EDGE_CURVE ( 'NONE', #144, #454, #176, .T. ) ;
#124 = CARTESIAN_POINT ( 'NONE',  ( -5.656854249492380582, 20.99999999999999645, -12.80624847486569884 ) ) ;
#125 = CARTESIAN_POINT ( 'NONE',  ( -4.508960568168420835, 19.03673821288251133, 15.87249204987568163 ) ) ;
#126 = DIRECTION ( 'NONE',  ( 0.000000000000000000, 1.000000000000000000, 0.000000000000000000 ) ) ;
#127 = VECTOR ( 'NONE', #147, 1000.000000000000000 ) ;
#128 = CYLINDRICAL_SURFACE ( 'NONE', #569, 14.00000000000000000 ) ;
#129 = EDGE_CURVE ( 'NONE', #93, #221, #534, .T. ) ;
#130 = CARTESIAN_POINT ( 'NONE',  ( -4.400622539115881082, 18.91014866767338276, 13.29235309343387961 ) ) ;
#131 = CARTESIAN_POINT ( 'NONE',  ( 5.656854249492380582, 20.99999999999999645, 13.89244398944980396 ) ) ;
#132 = AXIS2_PLACEMENT_3D ( 'NONE', #192, #115, #600 ) ;
#133 = CARTESIAN_POINT ( 'NONE',  ( 2.966327210210012666, 17.77552065027878214, -13.68499534649104810 ) ) ;
#134 = CARTESIAN_POINT ( 'NONE',  ( 3.961034522651997847, 18.48907720506517194, 16.01824890980673644 ) ) ;
#135 = AXIS2_PLACEMENT_3D ( 'NONE', #163, #557, #256 ) ;
#136 = DIRECTION ( 'NONE',  ( 0.000000000000000000, 0.000000000000000000, -1.000000000000000000 ) ) ;
#137 = CARTESIAN_POINT ( 'NONE',  ( 4.106759208636919567, 18.62137081570834241, 15.98138876228280125 ) ) ;
#138 = CARTESIAN_POINT ( 'NONE',  ( 5.656854249492380582, 20.99999999999999645, 12.80624847486569884 ) ) ;
#139 = DIRECTION ( 'NONE',  ( -0.000000000000000000, -0.000000000000000000, 1.000000000000000000 ) ) ;
#140 = CARTESIAN_POINT ( 'NONE',  ( 5.199309077103110965, 19.98024816092494049, 15.66106682364167391 ) ) ;
#141 = ADVANCED_FACE ( 'NONE', ( #85 ), #342, .F. ) ;
#142 = AXIS2_PLACEMENT_3D ( 'NONE', #158, #550, #22 ) ;
#143 = CARTESIAN_POINT ( 'NONE',  ( 6.000000000000000888, 23.00000000000000000, 15.37042614893939785 ) ) ;
#144 = VERTEX_POINT ( 'NONE', #53 ) ;
#145 = CIRCLE ( 'NONE', #111, 16.50000000000000000 ) ;
#146 = DIRECTION ( 'NONE',  ( -0.000000000000000000, 1.000000000000000000, -0.000000000000000000 ) ) ;
#147 = DIRECTION ( 'NONE',  ( -0.000000000000000000, -1.000000000000000000, -0.000000000000000000 ) ) ;
#148 = EDGE_CURVE ( 'NONE', #284, #156, #339, .T. ) ;
#149 = DIRECTION ( 'NONE',  ( 0.000000000000000000, 0.000000000000000000, 1.000000000000000000 ) ) ;
#150 = DIRECTION ( 'NONE',  ( -0.000000000000000000, -1.000000000000000000, -0.000000000000000000 ) ) ;
#151 = ORIENTED_EDGE ( 'NONE', *, *, #129, .F. ) ;
#152 = CARTESIAN_POINT ( 'NONE',  ( -3.658988012101480169, 18.24079568847887955, -16.08993161431903829 ) ) ;
#153 = DIRECTION ( 'NONE',  ( 0.000000000000000000, 0.000000000000000000, 1.000000000000000000 ) ) ;
#154 = CARTESIAN_POINT ( 'NONE',  ( 0.000000000000000000, 20.99999999999999645, 0.000000000000000000 ) ) ;
#155 = CARTESIAN_POINT ( 'NONE',  ( 5.844364431577312224, 21.62809755544311585, -15.43033106573254365 ) ) ;
#156 = VERTEX_POINT ( 'NONE', #124 ) ;
#157 = AXIS2_PLACEMENT_3D ( 'NONE', #154, #658, #37 ) ;
#158 = CARTESIAN_POINT ( 'NONE',  ( 0.000000000000000000, 3.000000000000000000, 0.000000000000000000 ) ) ;
#159 = CARTESIAN_POINT ( 'NONE',  ( 2.667530221506197563, 17.61140561485952105, -16.28701863446747211 ) ) ;
#160 = EDGE_LOOP ( 'NONE', ( #402, #506, #641, #297 ) ) ;
#161 = EDGE_LOOP ( 'NONE', ( #40, #39, #357, #279, #496, #169, #206, #151, #260, #164 ) ) ;
#162 = B_SPLINE_CURVE_WITH_KNOTS ( 'NONE', 3,
 ( #632, #379, #434, #587, #487, #530, #331, #328, #287, #134, #137, #580, #502, #140, #239, #495, #338, #538, #231, #143 ),
 .UNSPECIFIED., .F., .F.,
 ( 4, 2, 2, 2, 2, 2, 2, 2, 2, 4 ),
 ( 0.009463742351652136911, 0.01064500992097973560, 0.01182627749030733429, 0.01300754505963493124, 0.01359817884429873058, 0.01418881262896252819, 0.01537008019829013035, 0.01655134776761773424, 0.01773261533694533640, 0.01891388290627293856 ),
 .UNSPECIFIED. ) ;
#163 = CARTESIAN_POINT ( 'NONE',  ( 0.000000000000000000, 3.000000000000000000, 0.000000000000000000 ) ) ;
#164 = ORIENTED_EDGE ( 'NONE', *, *, #663, .F. ) ;
#165 = EDGE_CURVE ( 'NONE', #622, #44, #198, .T. ) ;
#166 = CARTESIAN_POINT ( 'NONE',  ( 4.757236668669173163, 19.33846088689568177, -15.79985533341789150 ) ) ;
#167 = ORIENTED_EDGE ( 'NONE', *, *, #464, .F. ) ;
#168 = CARTESIAN_POINT ( 'NONE',  ( 0.000000000000000000, 2.999999999999999112, 0.000000000000000000 ) ) ;
#169 = ORIENTED_EDGE ( 'NONE', *, *, #599, .F. ) ;
#170 = CARTESIAN_POINT ( 'NONE',  ( -6.000000000000000888, 22.59970095541876134, 15.37042614893939962 ) ) ;
#171 = DIRECTION ( 'NONE',  ( 0.000000000000000000, 0.000000000000000000, -1.000000000000000000 ) ) ;
#172 = VERTEX_POINT ( 'NONE', #324 ) ;
#173 = CARTESIAN_POINT ( 'NONE',  ( -3.728186166962840886, 18.28901995447547080, -13.49689578274409918 ) ) ;
#174 = CARTESIAN_POINT ( 'NONE',  ( -5.613035820576089741, 20.87105917901024910, 15.51612937688627092 ) ) ;
#175 = CARTESIAN_POINT ( 'NONE',  ( 3.963991438389388389, 18.48553450173244173, 13.42905811679356276 ) ) ;
#176 = CIRCLE ( 'NONE', #29, 21.00000000000000000 ) ;
#177 = DIRECTION ( 'NONE',  ( 0.000000000000000000, 1.000000000000000000, 0.000000000000000000 ) ) ;
#178 = VECTOR ( 'NONE', #275, 1000.000000000000000 ) ;
#179 = EDGE_CURVE ( 'NONE', #156, #211, #316, .T. ) ;
#180 = CARTESIAN_POINT ( 'NONE',  ( -1.238612598839218704, 17.12092346792770670, 13.94853458209119346 ) ) ;
#181 = CARTESIAN_POINT ( 'NONE',  ( 6.000000000000000888, 23.00000000000000000, 13.74772708486751860 ) ) ;
#182 = EDGE_CURVE ( 'NONE', #172, #655, #386, .T. ) ;
#183 = CARTESIAN_POINT ( 'NONE',  ( -5.656854249492380582, 20.99999999999999645, -13.89244398944980396 ) ) ;
#184 = CARTESIAN_POINT ( 'NONE',  ( 0.000000000000000000, 23.00000000000000000, 0.000000000000000000 ) ) ;
#185 = CARTESIAN_POINT ( 'NONE',  ( -5.656854249492380582, 20.99999999999999645, 12.80624847486569884 ) ) ;
#186 = CARTESIAN_POINT ( 'NONE',  ( 0.6210182984521944727, 17.02404498737197969, -13.98964311305991615 ) ) ;
#187 = EDGE_CURVE ( 'NONE', #373, #516, #162, .T. ) ;
#188 = ORIENTED_EDGE ( 'NONE', *, *, #6, .F. ) ;
#189 = CARTESIAN_POINT ( 'NONE',  ( 5.151994643583210021, 19.86554870289964470, 13.02337980071340695 ) ) ;
#190 = AXIS2_PLACEMENT_3D ( 'NONE', #264, #58, #475 ) ;
#191 = ORIENTED_EDGE ( 'NONE', *, *, #619, .T. ) ;
#192 = CARTESIAN_POINT ( 'NONE',  ( 0.000000000000000000, 23.00000000000000000, 25.00000000000000000 ) ) ;
#193 = EDGE_CURVE ( 'NONE', #489, #351, #558, .T. ) ;
#194 = CYLINDRICAL_SURFACE ( 'NONE', #442, 14.00000000000000000 ) ;
#195 = ORIENTED_EDGE ( 'NONE', *, *, #290, .T. ) ;
#196 = CARTESIAN_POINT ( 'NONE',  ( -0.7957902549229234346, 17.03999570708375444, -16.48533922126134144 ) ) ;
#197 = FACE_OUTER_BOUND ( 'NONE', #161, .T. ) ;
#198 = B_SPLINE_CURVE_WITH_KNOTS ( 'NONE', 3,
 ( #181, #56, #479, #131 ),
 .UNSPECIFIED., .F., .F.,
 ( 4, 4 ),
 ( 0.000000000000000000, 0.002034377543270501909 ),
 .UNSPECIFIED. ) ;
#199 = ORIENTED_EDGE ( 'NONE', *, *, #427, .T. ) ;
#200 = ORIENTED_EDGE ( 'NONE', *, *, #123, .T. ) ;
#201 = CARTESIAN_POINT ( 'NONE',  ( 0.000000000000000000, 23.00000000000000000, 0.000000000000000000 ) ) ;
#202 = FACE_OUTER_BOUND ( 'NONE', #160, .T. ) ;
#203 = CARTESIAN_POINT ( 'NONE',  ( 0.7874124532878283844, 17.03872542311692584, -16.48579821407630419 ) ) ;
#204 = PLANE ( 'NONE',  #292 ) ;
#205 = AXIS2_PLACEMENT_3D ( 'NONE', #168, #228, #321 ) ;
#206 = ORIENTED_EDGE ( 'NONE', *, *, #583, .F. ) ;
#207 = FACE_OUTER_BOUND ( 'NONE', #55, .T. ) ;
#208 = CARTESIAN_POINT ( 'NONE',  ( -6.000000000000000888, 23.00000000000000000, 15.37042614893939785 ) ) ;
#209 = CYLINDRICAL_SURFACE ( 'NONE', #638, 6.000000000000000888 ) ;
#210 = ORIENTED_EDGE ( 'NONE', *, *, #381, .F. ) ;
#211 = VERTEX_POINT ( 'NONE', #648 ) ;
#212 = SURFACE_SIDE_STYLE ('',( #445 ) ) ;
#213 = ADVANCED_FACE ( 'NONE', ( #639 ), #194, .F. ) ;
#214 = CARTESIAN_POINT ( 'NONE',  ( 5.613035820576088852, 20.87105917901024554, -15.51612937688627092 ) ) ;
#215 = ORIENTED_EDGE ( 'NONE', *, *, #642, .F. ) ;
#216 = AXIS2_PLACEMENT_3D ( 'NONE', #544, #218, #289 ) ;
#217 = ORIENTED_EDGE ( 'NONE', *, *, #123, .F. ) ;
#218 = DIRECTION ( 'NONE',  ( 0.000000000000000000, 1.000000000000000000, 0.000000000000000000 ) ) ;
#219 = AXIS2_PLACEMENT_3D ( 'NONE', #43, #404, #295 ) ;
#220 = FACE_OUTER_BOUND ( 'NONE', #360, .T. ) ;
#221 = VERTEX_POINT ( 'NONE', #185 ) ;
#222 = CARTESIAN_POINT ( 'NONE',  ( -0.6210182984521919192, 17.02404498737197969, 13.98964311305991615 ) ) ;
#223 = DIRECTION ( 'NONE',  ( 0.000000000000000000, 0.000000000000000000, -1.000000000000000000 ) ) ;
#224 = ADVANCED_FACE ( 'NONE', ( #69 ), #71, .F. ) ;
#225 = CARTESIAN_POINT ( 'NONE',  ( 5.656854249492380582, 20.99999999999999645, 25.00000000000000000 ) ) ;
#226 = CIRCLE ( 'NONE', #591, 15.00000000000000000 ) ;
#227 = CARTESIAN_POINT ( 'NONE',  ( -1.941941238105972412, 17.31951668501390529, 16.38642629779766580 ) ) ;
#228 = DIRECTION ( 'NONE',  ( -0.000000000000000000, -1.000000000000000000, -0.000000000000000000 ) ) ;
#229 = CIRCLE ( 'NONE', #352, 16.50000000000000000 ) ;
#230 = EDGE_CURVE ( 'NONE', #243, #625, #525, .T. ) ;
#231 = CARTESIAN_POINT ( 'NONE',  ( 6.000000000000002665, 22.60021266612559643, 15.37042614893939962 ) ) ;
#232 = ADVANCED_FACE ( 'NONE', ( #529 ), #439, .T. ) ;
#233 = CARTESIAN_POINT ( 'NONE',  ( 4.604518022529828336, 19.14093597236149691, -13.22259542513425856 ) ) ;
#234 = APPLICATION_CONTEXT ( 'automotive_design' ) ;
#235 = VECTOR ( 'NONE', #617, 1000.000000000000000 ) ;
#236 = CARTESIAN_POINT ( 'NONE',  ( 5.656854249492380582, 20.99999999999999645, -12.80624847486569884 ) ) ;
#237 = FACE_OUTER_BOUND ( 'NONE', #346, .T. ) ;
#238 = EDGE_CURVE ( 'NONE', #243, #211, #432, .T. ) ;
#239 = CARTESIAN_POINT ( 'NONE',  ( 5.387368697591259803, 20.33006557174769213, 15.59652820351759317 ) ) ;
#240 = ORIENTED_EDGE ( 'NONE', *, *, #110, .F. ) ;
#241 = CARTESIAN_POINT ( 'NONE',  ( 6.000000000000000888, 23.00000000000000000, 25.00000000000000000 ) ) ;
#242 = EDGE_CURVE ( 'NONE', #334, #669, #385, .T. ) ;
#243 = VERTEX_POINT ( 'NONE', #77 ) ;
#244 = PLANE ( 'NONE',  #216 ) ;
#245 = CARTESIAN_POINT ( 'NONE',  ( 5.680549220225677765, 21.05820546063090148, -15.49145458517928020 ) ) ;
#246 = LINE ( 'NONE', #453, #647 ) ;
#247 = ORIENTED_EDGE ( 'NONE', *, *, #193, .T. ) ;
#248 = CARTESIAN_POINT ( 'NONE',  ( 1.714502515283549045E-15, 16.99999999999999645, 14.00000000000000000 ) ) ;
#249 = ORIENTED_EDGE ( 'NONE', *, *, #59, .F. ) ;
#250 = EDGE_LOOP ( 'NONE', ( #217, #654 ) ) ;
#251 = CARTESIAN_POINT ( 'NONE',  ( 6.559378426912713162E-25, 16.99999999999999645, -16.50000000000000000 ) ) ;
#252 = EDGE_CURVE ( 'NONE', #622, #516, #602, .T. ) ;
#253 = CARTESIAN_POINT ( 'NONE',  ( 2.126489956821476124, 17.38607025372676063, -16.36341082519387768 ) ) ;
#254 = ORIENTED_EDGE ( 'NONE', *, *, #276, .T. ) ;
#255 = ADVANCED_BREP_SHAPE_REPRESENTATION ( 'TPW Movement Base', ( #640, #345 ), #9 ) ;
#256 = DIRECTION ( 'NONE',  ( 0.000000000000000000, -0.000000000000000000, 1.000000000000000000 ) ) ;
#257 = EDGE_LOOP ( 'NONE', ( #195, #671 ) ) ;
#258 = CARTESIAN_POINT ( 'NONE',  ( 4.875081320704856225, 19.49688564914560374, -15.76377565687566573 ) ) ;
#259 = EDGE_CURVE ( 'NONE', #622, #72, #281, .T. ) ;
#260 = ORIENTED_EDGE ( 'NONE', *, *, #419, .T. ) ;
#261 = CARTESIAN_POINT ( 'NONE',  ( 0.000000000000000000, 20.99999999999999645, 0.000000000000000000 ) ) ;
#262 = CARTESIAN_POINT ( 'NONE',  ( -6.000000000000000888, 23.00000000000000000, -15.37042614893939785 ) ) ;
#263 = ORIENTED_EDGE ( 'NONE', *, *, #527, .T. ) ;
#264 = CARTESIAN_POINT ( 'NONE',  ( 0.000000000000000000, 3.000000000000000000, 0.000000000000000000 ) ) ;
#265 = CARTESIAN_POINT ( 'NONE',  ( -5.387368697591258027, 20.33006557174768858, -15.59652820351759139 ) ) ;
#266 = CYLINDRICAL_SURFACE ( 'NONE', #283, 16.50000000000000000 ) ;
#267 = CARTESIAN_POINT ( 'NONE',  ( -3.011533761651675523, 17.79559579443160189, 16.22628577830744945 ) ) ;
#268 = CARTESIAN_POINT ( 'NONE',  ( -5.448661365484325891, 20.41114159969248121, 12.89821270646143070 ) ) ;
#269 = EDGE_CURVE ( 'NONE', #358, #284, #60, .T. ) ;
#270 = AXIS2_PLACEMENT_3D ( 'NONE', #488, #492, #443 ) ;
#271 = CARTESIAN_POINT ( 'NONE',  ( -2.970661992501822724, 17.77788692263509063, -13.68408447538138084 ) ) ;
#272 = CARTESIAN_POINT ( 'NONE',  ( 1.242293241546678750, 17.12168900130435745, 13.94821132385548701 ) ) ;
#273 = CIRCLE ( 'NONE', #73, 21.00000000000000000 ) ;
#274 = CARTESIAN_POINT ( 'NONE',  ( 0.000000000000000000, 3.000000000000000000, 0.000000000000000000 ) ) ;
#275 = DIRECTION ( 'NONE',  ( -0.000000000000000000, -0.000000000000000000, 1.000000000000000000 ) ) ;
#276 = EDGE_CURVE ( 'NONE', #655, #144, #528, .T. ) ;
#277 = CARTESIAN_POINT ( 'NONE',  ( 5.449192523815417744, 20.41264394232367962, 12.89797807996107615 ) ) ;
#278 = CARTESIAN_POINT ( 'NONE',  ( 0.000000000000000000, 23.00000000000000000, 0.000000000000000000 ) ) ;
#279 = ORIENTED_EDGE ( 'NONE', *, *, #165, .T. ) ;
#280 = DIRECTION ( 'NONE',  ( 0.000000000000000000, 0.000000000000000000, 1.000000000000000000 ) ) ;
#281 = CIRCLE ( 'NONE', #327, 15.00000000000000000 ) ;
#282 = DIRECTION ( 'NONE',  ( 0.000000000000000000, 1.000000000000000000, 0.000000000000000000 ) ) ;
#283 = AXIS2_PLACEMENT_3D ( 'NONE', #577, #522, #171 ) ;
#284 = VERTEX_POINT ( 'NONE', #646 ) ;
#285 = EDGE_CURVE ( 'NONE', #666, #44, #595, .T. ) ;
#286 = CARTESIAN_POINT ( 'NONE',  ( 2.020667218593133100E-15, 3.000000000000000000, 16.50000000000000000 ) ) ;
#287 = CARTESIAN_POINT ( 'NONE',  ( 3.658988012101481502, 18.24079568847888666, 16.08993161431904539 ) ) ;
#288 = ORIENTED_EDGE ( 'NONE', *, *, #14, .F. ) ;
#289 = DIRECTION ( 'NONE',  ( 0.000000000000000000, -0.000000000000000000, 1.000000000000000000 ) ) ;
#290 = EDGE_CURVE ( 'NONE', #655, #172, #273, .T. ) ;
#291 = DIRECTION ( 'NONE',  ( 0.000000000000000000, 0.000000000000000000, 1.000000000000000000 ) ) ;
#292 = AXIS2_PLACEMENT_3D ( 'NONE', #399, #396, #294 ) ;
#293 = CARTESIAN_POINT ( 'NONE',  ( -3.018237841764068285, 17.79986038789629177, -16.22495057382034389 ) ) ;
#294 = DIRECTION ( 'NONE',  ( 0.000000000000000000, -0.000000000000000000, 1.000000000000000000 ) ) ;
#295 = DIRECTION ( 'NONE',  ( 0.000000000000000000, 0.000000000000000000, -1.000000000000000000 ) ) ;
#296 = DIRECTION ( 'NONE',  ( 0.000000000000000000, 0.000000000000000000, 1.000000000000000000 ) ) ;
#297 = ORIENTED_EDGE ( 'NONE', *, *, #252, .T. ) ;
#298 = DIRECTION ( 'NONE',  ( 0.000000000000000000, 0.000000000000000000, 1.000000000000000000 ) ) ;
#299 = DIRECTION ( 'NONE',  ( 0.000000000000000000, 1.000000000000000000, 0.000000000000000000 ) ) ;
#300 = CARTESIAN_POINT ( 'NONE',  ( 6.000000000000000888, 23.00000000000000000, 25.00000000000000000 ) ) ;
#301 = ORIENTED_EDGE ( 'NONE', *, *, #269, .T. ) ;
#302 = ORIENTED_EDGE ( 'NONE', *, *, #642, .T. ) ;
#303 = EDGE_CURVE ( 'NONE', #516, #542, #145, .T. ) ;
#304 = DIRECTION ( 'NONE',  ( -1.000000000000000000, 0.000000000000000000, 0.000000000000000000 ) ) ;
#305 = CIRCLE ( 'NONE', #497, 14.00000000000000000 ) ;
#306 = ORIENTED_EDGE ( 'NONE', *, *, #242, .F. ) ;
#307 = AXIS2_PLACEMENT_3D ( 'NONE', #354, #28, #153 ) ;
#308 = ORIENTED_EDGE ( 'NONE', *, *, #6, .T. ) ;
#309 = FACE_OUTER_BOUND ( 'NONE', #257, .T. ) ;
#310 = EDGE_LOOP ( 'NONE', ( #368, #539, #553, #661 ) ) ;
#311 = CARTESIAN_POINT ( 'NONE',  ( -5.656854249492380582, 20.99999999999999645, 25.00000000000000000 ) ) ;
#312 = CARTESIAN_POINT ( 'NONE',  ( 4.402684840938999145, 18.91221416289472401, 13.29169651395973695 ) ) ;
#313 = ORIENTED_EDGE ( 'NONE', *, *, #464, .T. ) ;
#314 = CARTESIAN_POINT ( 'NONE',  ( -5.656854249492380582, 20.99999999999999645, -12.80624847486569884 ) ) ;
#315 = CARTESIAN_POINT ( 'NONE',  ( 6.000000000000000888, 23.00000000000000000, -15.37042614893939785 ) ) ;
#316 = LINE ( 'NONE', #420, #8 ) ;
#317 = CIRCLE ( 'NONE', #113, 14.00000000000000000 ) ;
#318 = CARTESIAN_POINT ( 'NONE',  ( -5.151994643583208244, 19.86554870289964114, -13.02337980071340517 ) ) ;
#319 = CARTESIAN_POINT ( 'NONE',  ( -4.106759208636919567, 18.62137081570834241, -15.98138876228280481 ) ) ;
#320 = EDGE_CURVE ( 'NONE', #510, #51, #229, .T. ) ;
#321 = DIRECTION ( 'NONE',  ( 0.000000000000000000, 0.000000000000000000, 1.000000000000000000 ) ) ;
#322 = CARTESIAN_POINT ( 'NONE',  ( 1.714502515283549045E-15, 16.99999999999999645, 14.00000000000000000 ) ) ;
#323 = AXIS2_PLACEMENT_3D ( 'NONE', #390, #597, #637 ) ;
#324 = CARTESIAN_POINT ( 'NONE',  ( 2.571758278209441661E-15, 3.000000000000000000, 21.00000000000000000 ) ) ;
#325 = ADVANCED_FACE ( 'NONE', ( #430 ), #636, .T. ) ;
#326 = CARTESIAN_POINT ( 'NONE',  ( 2.133510080238324669, 17.38364156270754890, -13.83965450567229638 ) ) ;
#327 = AXIS2_PLACEMENT_3D ( 'NONE', #278, #18, #291 ) ;
#328 = CARTESIAN_POINT ( 'NONE',  ( 3.502717335836154522, 18.12467701798747655, 16.12476872588644028 ) ) ;
#329 = CARTESIAN_POINT ( 'NONE',  ( -5.884545383091075443, 21.64400777833475331, -13.79973060095979775 ) ) ;
#330 = AXIS2_PLACEMENT_3D ( 'NONE', #344, #87, #296 ) ;
#331 = CARTESIAN_POINT ( 'NONE',  ( 3.018237841764069618, 17.79986038789629177, 16.22495057382034389 ) ) ;
#332 = EDGE_LOOP ( 'NONE', ( #313, #302, #249, #559, #589, #468, #1, #449, #458, #650 ) ) ;
#333 = CARTESIAN_POINT ( 'NONE',  ( 5.448661365484325891, 20.41114159969248121, -12.89821270646143425 ) ) ;
#334 = VERTEX_POINT ( 'NONE', #248 ) ;
#335 = CARTESIAN_POINT ( 'NONE',  ( 0.000000000000000000, 23.00000000000000000, -14.00000000000000000 ) ) ;
#336 = CARTESIAN_POINT ( 'NONE',  ( 3.003521632312963884E-21, 16.99999999999999645, -14.00000000000000000 ) ) ;
#337 = CARTESIAN_POINT ( 'NONE',  ( 3.233112783252490186, 17.93633867125708292, -13.62399373077409770 ) ) ;
#338 = CARTESIAN_POINT ( 'NONE',  ( 5.802966967018674538, 21.42431873231851469, 15.44611998769771688 ) ) ;
#339 = B_SPLINE_CURVE_WITH_KNOTS ( 'NONE', 3,
 ( #336, #80, #498, #635, #416, #524, #369, #271, #567, #173, #428, #62, #424, #318, #118, #314 ),
 .UNSPECIFIED., .F., .F.,
 ( 4, 2, 2, 2, 2, 2, 2, 4 ),
 ( 0.007461963655607142636, 0.008392459011635306984, 0.009322954367663472200, 0.01025344972369163568, 0.01118394507971980090, 0.01211444043574796611, 0.01304493579177613133, 0.01490592650383246003 ),
 .UNSPECIFIED. ) ;
#340 = ORIENTED_EDGE ( 'NONE', *, *, #500, .T. ) ;
#341 = CARTESIAN_POINT ( 'NONE',  ( -1.943173434178640857, 17.30959994927265555, -16.38933004593559417 ) ) ;
#342 = CYLINDRICAL_SURFACE ( 'NONE', #362, 15.00000000000000000 ) ;
#343 = FACE_OUTER_BOUND ( 'NONE', #612, .T. ) ;
#344 = CARTESIAN_POINT ( 'NONE',  ( 0.000000000000000000, 20.99999999999999645, 0.000000000000000000 ) ) ;
#345 = AXIS2_PLACEMENT_3D ( 'NONE', #461, #355, #551 ) ;
#346 = EDGE_LOOP ( 'NONE', ( #247, #665, #26, #465 ) ) ;
#347 = LINE ( 'NONE', #335, #382 ) ;
#348 = PLANE ( 'NONE',  #142 ) ;
#349 = CARTESIAN_POINT ( 'NONE',  ( 2.020667217937319897E-15, 16.99999999999999645, 16.50000000000000000 ) ) ;
#350 = CARTESIAN_POINT ( 'NONE',  ( 6.559378426912713162E-25, 16.99999999999999645, -16.50000000000000000 ) ) ;
#351 = VERTEX_POINT ( 'NONE', #208 ) ;
#352 = AXIS2_PLACEMENT_3D ( 'NONE', #81, #433, #491 ) ;
#353 = ORIENTED_EDGE ( 'NONE', *, *, #576, .F. ) ;
#354 = CARTESIAN_POINT ( 'NONE',  ( 0.000000000000000000, 0.000000000000000000, 0.000000000000000000 ) ) ;
#355 = DIRECTION ( 'NONE',  ( 0.000000000000000000, 0.000000000000000000, 1.000000000000000000 ) ) ;
#356 = LINE ( 'NONE', #394, #235 ) ;
#357 = ORIENTED_EDGE ( 'NONE', *, *, #252, .F. ) ;
#358 = VERTEX_POINT ( 'NONE', #541 ) ;
#359 = ADVANCED_FACE ( 'NONE', ( #343 ), #606, .T. ) ;
#360 = EDGE_LOOP ( 'NONE', ( #306, #83, #340, #301, #191, #411 ) ) ;
#361 = CARTESIAN_POINT ( 'NONE',  ( -6.000000000000000000, 22.60021266612558932, -15.37042614893939430 ) ) ;
#362 = AXIS2_PLACEMENT_3D ( 'NONE', #540, #146, #517 ) ;
#363 = CARTESIAN_POINT ( 'NONE',  ( 5.796211410157837030, 21.43694569343022138, -15.44855132032886935 ) ) ;
#364 = ORIENTED_EDGE ( 'NONE', *, *, #74, .F. ) ;
#365 = CARTESIAN_POINT ( 'NONE',  ( -5.796211410157836141, 21.43694569343022138, 15.44855132032886935 ) ) ;
#366 = ADVANCED_FACE ( 'NONE', ( #202 ), #393, .T. ) ;
#367 = CARTESIAN_POINT ( 'NONE',  ( -1.545685656627457272, 17.19429563192192845, 13.91757011657387189 ) ) ;
#368 = ORIENTED_EDGE ( 'NONE', *, *, #182, .F. ) ;
#369 = CARTESIAN_POINT ( 'NONE',  ( -2.419033611744529466, 17.50058420814259108, -13.79229049100688087 ) ) ;
#370 = CARTESIAN_POINT ( 'NONE',  ( -3.966672199493622042, 18.48159570221910997, 16.01861812081407521 ) ) ;
#371 = CARTESIAN_POINT ( 'NONE',  ( -2.966327210210012666, 17.77552065027878569, 13.68499534649105343 ) ) ;
#372 = B_SPLINE_CURVE_WITH_KNOTS ( 'NONE', 3,
 ( #505, #33, #46, #106 ),
 .UNSPECIFIED., .F., .F.,
 ( 4, 4 ),
 ( 0.000000000000000000, 0.002034377543270502343 ),
 .UNSPECIFIED. ) ;
#373 = VERTEX_POINT ( 'NONE', #349 ) ;
#374 = COLOUR_RGB ( '',0.7921568627450980005, 0.8196078431372548767, 0.9333333333333333481 ) ;
#375 = CARTESIAN_POINT ( 'NONE',  ( -5.386214899725960237, 20.32737402105021118, 15.59693742076770562 ) ) ;
#376 = CARTESIAN_POINT ( 'NONE',  ( 4.603382898807161894, 19.13984141228357672, 13.22296235520826002 ) ) ;
#377 = CARTESIAN_POINT ( 'NONE',  ( -4.765243178854817074, 19.33337028114077327, -15.79855330022956039 ) ) ;
#378 = LINE ( 'NONE', #12, #570 ) ;
#379 = CARTESIAN_POINT ( 'NONE',  ( 0.3949360407136502382, 16.99999999999998934, 16.50000000000000711 ) ) ;
#380 = CARTESIAN_POINT ( 'NONE',  ( 5.656854249492380582, 20.99999999999999645, -13.89244398944980396 ) ) ;
#381 = EDGE_CURVE ( 'NONE', #562, #72, #633, .T. ) ;
#382 = VECTOR ( 'NONE', #608, 1000.000000000000000 ) ;
#383 = CARTESIAN_POINT ( 'NONE',  ( 5.158480054500838463, 19.87495134691010890, -13.02092729085184963 ) ) ;
#384 = CLOSED_SHELL ( 'NONE', ( #232, #213, #325, #366, #101, #490, #141, #224, #359, #50, #564, #409, #438, #25, #35, #484, #65 ) ) ;
#385 = LINE ( 'NONE', #536, #127 ) ;
#386 = CIRCLE ( 'NONE', #190, 21.00000000000000000 ) ;
#387 = CARTESIAN_POINT ( 'NONE',  ( -6.000000000000000888, 22.31021800190611515, -13.74772708486751860 ) ) ;
#388 = CARTESIAN_POINT ( 'NONE',  ( 0.000000000000000000, 0.000000000000000000, 0.000000000000000000 ) ) ;
#389 = CARTESIAN_POINT ( 'NONE',  ( 4.400622539115881082, 18.91014866767338276, -13.29235309343387783 ) ) ;
#390 = CARTESIAN_POINT ( 'NONE',  ( 0.000000000000000000, 20.99999999999999645, 0.000000000000000000 ) ) ;
#391 = ORIENTED_EDGE ( 'NONE', *, *, #320, .T. ) ;
#392 = CARTESIAN_POINT ( 'NONE',  ( -1.567602623143293794, 17.19504045515175861, -16.42992128361550286 ) ) ;
#393 = PLANE ( 'NONE',  #596 ) ;
#394 = CARTESIAN_POINT ( 'NONE',  ( 2.020667218593133100E-15, 23.00000000000000000, 16.50000000000000000 ) ) ;
#395 = ORIENTED_EDGE ( 'NONE', *, *, #427, .F. ) ;
#396 = DIRECTION ( 'NONE',  ( 0.000000000000000000, 1.000000000000000000, 0.000000000000000000 ) ) ;
#397 = DIRECTION ( 'NONE',  ( 0.000000000000000000, -0.000000000000000000, 1.000000000000000000 ) ) ;
#398 = FACE_BOUND ( 'NONE', #509, .T. ) ;
#399 = CARTESIAN_POINT ( 'NONE',  ( 0.000000000000000000, 0.000000000000000000, 0.000000000000000000 ) ) ;
#400 = CARTESIAN_POINT ( 'NONE',  ( 5.884545383091075443, 21.64400777833475331, -13.79973060095979775 ) ) ;
#401 = CARTESIAN_POINT ( 'NONE',  ( 0.000000000000000000, 23.00000000000000000, 25.00000000000000000 ) ) ;
#402 = ORIENTED_EDGE ( 'NONE', *, *, #303, .T. ) ;
#403 = ORIENTED_EDGE ( 'NONE', *, *, #179, .T. ) ;
#404 = DIRECTION ( 'NONE',  ( -0.000000000000000000, -1.000000000000000000, -0.000000000000000000 ) ) ;
#405 = EDGE_CURVE ( 'NONE', #542, #72, #610, .T. ) ;
#406 = ORIENTED_EDGE ( 'NONE', *, *, #259, .T. ) ;
#407 = CARTESIAN_POINT ( 'NONE',  ( -5.959846129565343986, 22.20160712081253607, -15.38626928162151764 ) ) ;
#408 = ORIENTED_EDGE ( 'NONE', *, *, #419, .F. ) ;
#409 = ADVANCED_FACE ( 'NONE', ( #499 ), #672, .T. ) ;
#410 = CARTESIAN_POINT ( 'NONE',  ( 2.970661992501827608, 17.77788692263510129, 13.68408447538138617 ) ) ;
#411 = ORIENTED_EDGE ( 'NONE', *, *, #110, .T. ) ;
#412 = DIRECTION ( 'NONE',  ( 0.000000000000000000, 0.000000000000000000, -1.000000000000000000 ) ) ;
#413 = CARTESIAN_POINT ( 'NONE',  ( -4.378254547157244936, 18.89287161700452344, 15.90914959480781832 ) ) ;
#414 = CARTESIAN_POINT ( 'NONE',  ( -5.656854249492380582, 20.99999999999999645, 12.80624847486569884 ) ) ;
#415 = ORIENTED_EDGE ( 'NONE', *, *, #320, .F. ) ;
#416 = CARTESIAN_POINT ( 'NONE',  ( -1.543416737560779906, 17.19370694368654995, -13.91781691951514155 ) ) ;
#417 = CARTESIAN_POINT ( 'NONE',  ( -4.519382474269957761, 19.03431708576183112, -15.87155360785561697 ) ) ;
#418 = CARTESIAN_POINT ( 'NONE',  ( 0.3103256489529286899, 16.99999999999999645, 14.00000000000000000 ) ) ;
#419 = EDGE_CURVE ( 'NONE', #93, #625, #372, .T. ) ;
#420 = CARTESIAN_POINT ( 'NONE',  ( -5.656854249492380582, 20.99999999999999645, 25.00000000000000000 ) ) ;
#421 = CARTESIAN_POINT ( 'NONE',  ( -3.961034522651997847, 18.48907720506517549, -16.01824890980672933 ) ) ;
#422 = CARTESIAN_POINT ( 'NONE',  ( 0.000000000000000000, 20.99999999999999645, 0.000000000000000000 ) ) ;
#423 =( NAMED_UNIT ( * ) SI_UNIT ( $, .STERADIAN. ) SOLID_ANGLE_UNIT ( ) );
#424 = CARTESIAN_POINT ( 'NONE',  ( -4.603382898807162782, 19.13984141228357672, -13.22296235520826002 ) ) ;
#425 = CARTESIAN_POINT ( 'NONE',  ( -3.666095041485345263, 18.23398427622164775, 16.09103579337474699 ) ) ;
#426 = CARTESIAN_POINT ( 'NONE',  ( -3.731614886257776043, 18.29163142244616225, 13.49597250241945190 ) ) ;
#427 = EDGE_CURVE ( 'NONE', #373, #51, #356, .T. ) ;
#428 = CARTESIAN_POINT ( 'NONE',  ( -3.963991438389386612, 18.48553450173243817, -13.42905811679356276 ) ) ;
#429 = PRODUCT ( 'TPW Movement Base', 'TPW Movement Base', '', ( #97 ) ) ;
#430 = FACE_OUTER_BOUND ( 'NONE', #440, .T. ) ;
#431 = PRODUCT_DEFINITION_CONTEXT ( 'detailed design', #67, 'design' ) ;
#432 = B_SPLINE_CURVE_WITH_KNOTS ( 'NONE', 3,
 ( #643, #387, #329, #183 ),
 .UNSPECIFIED., .F., .F.,
 ( 4, 4 ),
 ( 0.000000000000000000, 0.002034377543270501909 ),
 .UNSPECIFIED. ) ;
#433 = DIRECTION ( 'NONE',  ( 0.000000000000000000, 1.000000000000000000, 0.000000000000000000 ) ) ;
#434 = CARTESIAN_POINT ( 'NONE',  ( 0.7957902549229247668, 17.03999570708375444, 16.48533922126134144 ) ) ;
#435 = CARTESIAN_POINT ( 'NONE',  ( 1.545685656627461046, 17.19429563192192845, -13.91757011657387366 ) ) ;
#436 = DIRECTION ( 'NONE',  ( 0.000000000000000000, 0.000000000000000000, -1.000000000000000000 ) ) ;
#437 = DIRECTION ( 'NONE',  ( 0.000000000000000000, 1.000000000000000000, 0.000000000000000000 ) ) ;
#438 = ADVANCED_FACE ( 'NONE', ( #398, #309 ), #112, .T. ) ;
#439 = CYLINDRICAL_SURFACE ( 'NONE', #653, 21.00000000000000000 ) ;
#440 = EDGE_LOOP ( 'NONE', ( #616, #199, #21, #188, #167, #462 ) ) ;
#441 =( NAMED_UNIT ( * ) PLANE_ANGLE_UNIT ( ) SI_UNIT ( $, .RADIAN. ) );
#442 = AXIS2_PLACEMENT_3D ( 'NONE', #448, #532, #82 ) ;
#443 = DIRECTION ( 'NONE',  ( 0.000000000000000000, 0.000000000000000000, 1.000000000000000000 ) ) ;
#444 = VERTEX_POINT ( 'NONE', #463 ) ;
#445 = SURFACE_STYLE_FILL_AREA ( #555 ) ;
#446 = PRODUCT_DEFINITION_SHAPE ( 'NONE', 'NONE',  #593 ) ;
#447 = PRODUCT_RELATED_PRODUCT_CATEGORY ( 'part', '', ( #429 ) ) ;
#448 = CARTESIAN_POINT ( 'NONE',  ( 0.000000000000000000, 23.00000000000000000, 0.000000000000000000 ) ) ;
#449 = ORIENTED_EDGE ( 'NONE', *, *, #527, .F. ) ;
#450 = LINE ( 'NONE', #493, #512 ) ;
#451 = CARTESIAN_POINT ( 'NONE',  ( 5.656854249492380582, 20.99999999999999645, -13.89244398944980396 ) ) ;
#452 = CARTESIAN_POINT ( 'NONE',  ( 4.508960568168422611, 19.03673821288252199, -15.87249204987568518 ) ) ;
#453 = CARTESIAN_POINT ( 'NONE',  ( 0.000000000000000000, 23.00000000000000000, -16.50000000000000000 ) ) ;
#454 = VERTEX_POINT ( 'NONE', #615 ) ;
#455 = DIRECTION ( 'NONE',  ( 0.000000000000000000, -0.000000000000000000, 1.000000000000000000 ) ) ;
#456 = CARTESIAN_POINT ( 'NONE',  ( 0.000000000000000000, 23.00000000000000000, 0.000000000000000000 ) ) ;
#457 = FACE_OUTER_BOUND ( 'NONE', #332, .T. ) ;
#458 = ORIENTED_EDGE ( 'NONE', *, *, #381, .T. ) ;
#459 = ORIENTED_EDGE ( 'NONE', *, *, #290, .F. ) ;
#460 = CARTESIAN_POINT ( 'NONE',  ( 1.564078434365478554, 17.20408030462421678, -16.42680009120960349 ) ) ;
#461 = CARTESIAN_POINT ( 'NONE',  ( 0.000000000000000000, 0.000000000000000000, 0.000000000000000000 ) ) ;
#462 = ORIENTED_EDGE ( 'NONE', *, *, #303, .F. ) ;
#463 = CARTESIAN_POINT ( 'NONE',  ( 0.000000000000000000, 2.999999999999999112, -14.00000000000000000 ) ) ;
#464 = EDGE_CURVE ( 'NONE', #542, #607, #94, .T. ) ;
#465 = ORIENTED_EDGE ( 'NONE', *, *, #59, .T. ) ;
#466 = CARTESIAN_POINT ( 'NONE',  ( -5.960349106420547827, 22.20685043310837514, 15.38606798887808935 ) ) ;
#467 = CARTESIAN_POINT ( 'NONE',  ( 6.000000000000000888, 23.00000000000000000, -15.37042614893939785 ) ) ;
#468 = ORIENTED_EDGE ( 'NONE', *, *, #148, .F. ) ;
#469 = PLANE ( 'NONE',  #105 ) ;
#470 = CARTESIAN_POINT ( 'NONE',  ( -4.757236668669172275, 19.33846088689567821, 15.79985533341789505 ) ) ;
#471 = FACE_OUTER_BOUND ( 'NONE', #108, .T. ) ;
#472 = ORIENTED_EDGE ( 'NONE', *, *, #554, .F. ) ;
#473 = CARTESIAN_POINT ( 'NONE',  ( -3.964841228161377185, 18.48642085615192698, 13.42878116314983394 ) ) ;
#474 = B_SPLINE_CURVE_WITH_KNOTS ( 'NONE', 3,
 ( #251, #651, #196, #392, #341, #84, #293, #503, #152, #421, #319, #417, #377, #476, #265, #521, #4, #407, #361, #560 ),
 .UNSPECIFIED., .F., .F.,
 ( 4, 2, 2, 2, 2, 2, 2, 2, 2, 4 ),
 ( 0.009463742351652135176, 0.01064500992097973213, 0.01182627749030733082, 0.01300754505963492777, 0.01359817884429872711, 0.01418881262896252299, 0.01537008019829012688, 0.01655134776761773077, 0.01773261533694533293, 0.01891388290627293856 ),
 .UNSPECIFIED. ) ;
#475 = DIRECTION ( 'NONE',  ( 0.000000000000000000, 0.000000000000000000, 1.000000000000000000 ) ) ;
#476 = CARTESIAN_POINT ( 'NONE',  ( -5.199309077103111854, 19.98024816092493694, -15.66106682364167391 ) ) ;
#477 = CARTESIAN_POINT ( 'NONE',  ( 0.000000000000000000, 3.000000000000000000, 0.000000000000000000 ) ) ;
#478 = CARTESIAN_POINT ( 'NONE',  ( 0.000000000000000000, 3.000000000000000000, -21.00000000000000000 ) ) ;
#479 = CARTESIAN_POINT ( 'NONE',  ( 5.884545383091075443, 21.64400777833475331, 13.79973060095979775 ) ) ;
#480 = CARTESIAN_POINT ( 'NONE',  ( -2.126489956821473903, 17.38607025372676418, 16.36341082519388834 ) ) ;
#481 = DIRECTION ( 'NONE',  ( 0.000000000000000000, 0.000000000000000000, -1.000000000000000000 ) ) ;
#482 = CARTESIAN_POINT ( 'NONE',  ( 5.656854249492380582, 20.99999999999999645, 12.80624847486569884 ) ) ;
#483 = CARTESIAN_POINT ( 'NONE',  ( 2.419033611744534351, 17.50058420814259108, 13.79229049100688087 ) ) ;
#484 = ADVANCED_FACE ( 'NONE', ( #457 ), #209, .F. ) ;
#485 = CARTESIAN_POINT ( 'NONE',  ( 6.559378426912713162E-25, 16.99999999999999645, -16.50000000000000000 ) ) ;
#486 = DIRECTION ( 'NONE',  ( 0.000000000000000000, 0.000000000000000000, 1.000000000000000000 ) ) ;
#487 = CARTESIAN_POINT ( 'NONE',  ( 1.943173434178642633, 17.30959994927265555, 16.38933004593559062 ) ) ;
#488 = CARTESIAN_POINT ( 'NONE',  ( 0.000000000000000000, 23.00000000000000000, 0.000000000000000000 ) ) ;
#489 = VERTEX_POINT ( 'NONE', #262 ) ;
#490 = ADVANCED_FACE ( 'NONE', ( #471 ), #266, .T. ) ;
#491 = DIRECTION ( 'NONE',  ( 0.000000000000000000, 0.000000000000000000, 1.000000000000000000 ) ) ;
#492 = DIRECTION ( 'NONE',  ( 0.000000000000000000, 1.000000000000000000, 0.000000000000000000 ) ) ;
#493 = CARTESIAN_POINT ( 'NONE',  ( -6.000000000000000888, 23.00000000000000000, 25.00000000000000000 ) ) ;
#494 = CARTESIAN_POINT ( 'NONE',  ( 3.003521632312963884E-21, 16.99999999999999645, -14.00000000000000000 ) ) ;
#495 = CARTESIAN_POINT ( 'NONE',  ( 5.687826853063014276, 21.05040593339833421, 15.48948221137430892 ) ) ;
#496 = ORIENTED_EDGE ( 'NONE', *, *, #285, .F. ) ;
#497 = AXIS2_PLACEMENT_3D ( 'NONE', #96, #79, #298 ) ;
#498 = CARTESIAN_POINT ( 'NONE',  ( -0.6243435298764075103, 17.02438054658095368, -13.98949916150054484 ) ) ;
#499 = FACE_OUTER_BOUND ( 'NONE', #598, .T. ) ;
#500 = EDGE_CURVE ( 'NONE', #666, #358, #317, .T. ) ;
#501 = CIRCLE ( 'NONE', #673, 14.00000000000000000 ) ;
#502 = CARTESIAN_POINT ( 'NONE',  ( 4.765243178854817963, 19.33337028114077327, 15.79855330022956039 ) ) ;
#503 = CARTESIAN_POINT ( 'NONE',  ( -3.502717335836154966, 18.12467701798747655, -16.12476872588644028 ) ) ;
#504 = FACE_OUTER_BOUND ( 'NONE', #514, .T. ) ;
#505 = CARTESIAN_POINT ( 'NONE',  ( -5.656854249492380582, 20.99999999999999645, 13.89244398944980396 ) ) ;
#506 = ORIENTED_EDGE ( 'NONE', *, *, #405, .T. ) ;
#507 = ORIENTED_EDGE ( 'NONE', *, *, #611, .F. ) ;
#508 = DIRECTION ( 'NONE',  ( 0.000000000000000000, 0.000000000000000000, 1.000000000000000000 ) ) ;
#509 = EDGE_LOOP ( 'NONE', ( #415, #99 ) ) ;
#510 = VERTEX_POINT ( 'NONE', #64 ) ;
#511 = STYLED_ITEM ( 'NONE', ( #103 ), #640 ) ;
#512 = VECTOR ( 'NONE', #412, 1000.000000000000000 ) ;
#513 = ORIENTED_EDGE ( 'NONE', *, *, #74, .T. ) ;
#514 = EDGE_LOOP ( 'NONE', ( #240, #353 ) ) ;
#515 = CARTESIAN_POINT ( 'NONE',  ( 5.960349106420549603, 22.20685043310837870, -15.38606798887809290 ) ) ;
#516 = VERTEX_POINT ( 'NONE', #526 ) ;
#517 = DIRECTION ( 'NONE',  ( 0.000000000000000000, 0.000000000000000000, 1.000000000000000000 ) ) ;
#518 = DIRECTION ( 'NONE',  ( -0.000000000000000000, -1.000000000000000000, -0.000000000000000000 ) ) ;
#519 = ORIENTED_EDGE ( 'NONE', *, *, #230, .T. ) ;
#520 = CARTESIAN_POINT ( 'NONE',  ( 0.000000000000000000, 23.00000000000000000, 0.000000000000000000 ) ) ;
#521 = CARTESIAN_POINT ( 'NONE',  ( -5.687826853063012500, 21.05040593339833066, -15.48948221137430892 ) ) ;
#522 = DIRECTION ( 'NONE',  ( -0.000000000000000000, -1.000000000000000000, -0.000000000000000000 ) ) ;
#523 = DIRECTION ( 'NONE',  ( 0.000000000000000000, 0.000000000000000000, 1.000000000000000000 ) ) ;
#524 = CARTESIAN_POINT ( 'NONE',  ( -2.130789968893868291, 17.38262442149024167, -13.84006853810290671 ) ) ;
#525 = CIRCLE ( 'NONE', #578, 15.00000000000000000 ) ;
#526 = CARTESIAN_POINT ( 'NONE',  ( 6.000000000000000888, 23.00000000000000000, 15.37042614893939785 ) ) ;
#527 = EDGE_CURVE ( 'NONE', #562, #358, #631, .T. ) ;
#528 = LINE ( 'NONE', #76, #548 ) ;
#529 = FACE_OUTER_BOUND ( 'NONE', #310, .T. ) ;
#530 = CARTESIAN_POINT ( 'NONE',  ( 2.673650520009418941, 17.61407680806077991, 16.28611848313643051 ) ) ;
#531 = EDGE_CURVE ( 'NONE', #51, #510, #17, .T. ) ;
#532 = DIRECTION ( 'NONE',  ( -0.000000000000000000, -1.000000000000000000, -0.000000000000000000 ) ) ;
#533 = ORIENTED_EDGE ( 'NONE', *, *, #238, .F. ) ;
#534 = LINE ( 'NONE', #311, #618 ) ;
#535 = CARTESIAN_POINT ( 'NONE',  ( 1.238612598839220924, 17.12092346792771025, -13.94853458209119701 ) ) ;
#536 = CARTESIAN_POINT ( 'NONE',  ( 1.714505518806294638E-15, 23.00000000000000000, 14.00000000000000000 ) ) ;
#537 = DIRECTION ( 'NONE',  ( 0.000000000000000000, 1.000000000000000000, 0.000000000000000000 ) ) ;
#538 = CARTESIAN_POINT ( 'NONE',  ( 5.959846129565343986, 22.20160712081253607, 15.38626928162151586 ) ) ;
#539 = ORIENTED_EDGE ( 'NONE', *, *, #554, .T. ) ;
#540 = CARTESIAN_POINT ( 'NONE',  ( 0.000000000000000000, 20.99999999999999645, 0.000000000000000000 ) ) ;
#541 = CARTESIAN_POINT ( 'NONE',  ( 5.656854249492380582, 20.99999999999999645, -12.80624847486569884 ) ) ;
#542 = VERTEX_POINT ( 'NONE', #315 ) ;
#543 = ORIENTED_EDGE ( 'NONE', *, *, #285, .T. ) ;
#544 = CARTESIAN_POINT ( 'NONE',  ( 0.000000000000000000, 20.99999999999999645, 0.000000000000000000 ) ) ;
#545 = CARTESIAN_POINT ( 'NONE',  ( 6.000000000000000888, 22.31021800190611160, -13.74772708486751860 ) ) ;
#546 = VECTOR ( 'NONE', #139, 1000.000000000000000 ) ;
#547 = CARTESIAN_POINT ( 'NONE',  ( 5.386214899725962013, 20.32737402105021474, -15.59693742076770917 ) ) ;
#548 = VECTOR ( 'NONE', #23, 1000.000000000000000 ) ;
#549 = ORIENTED_EDGE ( 'NONE', *, *, #129, .T. ) ;
#550 = DIRECTION ( 'NONE',  ( 0.000000000000000000, 1.000000000000000000, 0.000000000000000000 ) ) ;
#551 = DIRECTION ( 'NONE',  ( 1.000000000000000000, 0.000000000000000000, 0.000000000000000000 ) ) ;
#552 = ORIENTED_EDGE ( 'NONE', *, *, #14, .T. ) ;
#553 = ORIENTED_EDGE ( 'NONE', *, *, #45, .T. ) ;
#554 = EDGE_CURVE ( 'NONE', #172, #454, #675, .T. ) ;
#555 = FILL_AREA_STYLE ('',( #27 ) ) ;
#556 = AXIS2_PLACEMENT_3D ( 'NONE', #477, #177, #574 ) ;
#557 = DIRECTION ( 'NONE',  ( 0.000000000000000000, 1.000000000000000000, 0.000000000000000000 ) ) ;
#558 = CIRCLE ( 'NONE', #270, 16.50000000000000000 ) ;
#559 = ORIENTED_EDGE ( 'NONE', *, *, #238, .T. ) ;
#560 = CARTESIAN_POINT ( 'NONE',  ( -6.000000000000000888, 23.00000000000000000, -15.37042614893939785 ) ) ;
#561 = CARTESIAN_POINT ( 'NONE',  ( 4.378254547157247600, 18.89287161700453055, -15.90914959480782542 ) ) ;
#562 = VERTEX_POINT ( 'NONE', #380 ) ;
#563 = CARTESIAN_POINT ( 'NONE',  ( -5.201668438074102951, 19.98411578224007457, 15.66029402136206272 ) ) ;
#564 = ADVANCED_FACE ( 'NONE', ( #220 ), #128, .F. ) ;
#565 = DIRECTION ( 'NONE',  ( -0.000000000000000000, -0.000000000000000000, 1.000000000000000000 ) ) ;
#566 = EDGE_LOOP ( 'NONE', ( #210, #364, #34, #406 ) ) ;
#567 = CARTESIAN_POINT ( 'NONE',  ( -3.232136982519479229, 17.93581244313629242, -13.62420120197945117 ) ) ;
#568 = CARTESIAN_POINT ( 'NONE',  ( -3.233112783252484856, 17.93633867125708647, 13.62399373077409770 ) ) ;
#569 = AXIS2_PLACEMENT_3D ( 'NONE', #520, #61, #481 ) ;
#570 = VECTOR ( 'NONE', #223, 1000.000000000000000 ) ;
#571 = CARTESIAN_POINT ( 'NONE',  ( -4.875081320704857113, 19.49688564914560729, 15.76377565687566928 ) ) ;
#572 = CARTESIAN_POINT ( 'NONE',  ( -0.3110760707841904726, 16.99999999999999645, 13.99999999999999822 ) ) ;
#573 = CARTESIAN_POINT ( 'NONE',  ( -0.3955044809220329416, 16.99999999999999645, 16.50000000000000711 ) ) ;
#574 = DIRECTION ( 'NONE',  ( 0.000000000000000000, 0.000000000000000000, 1.000000000000000000 ) ) ;
#575 = CARTESIAN_POINT ( 'NONE',  ( -1.369890822546745879, 17.15512169737910497, 16.44418710110083026 ) ) ;
#576 = EDGE_CURVE ( 'NONE', #669, #444, #588, .T. ) ;
#577 = CARTESIAN_POINT ( 'NONE',  ( 0.000000000000000000, 23.00000000000000000, 0.000000000000000000 ) ) ;
#578 = AXIS2_PLACEMENT_3D ( 'NONE', #20, #282, #30 ) ;
#579 = CARTESIAN_POINT ( 'NONE',  ( 3.731614886257780483, 18.29163142244616225, -13.49597250241945190 ) ) ;
#580 = CARTESIAN_POINT ( 'NONE',  ( 4.519382474269958649, 19.03431708576183823, 15.87155360785562408 ) ) ;
#581 = UNCERTAINTY_MEASURE_WITH_UNIT (LENGTH_MEASURE( 1.000000000000000082E-05 ), #7, 'distance_accuracy_value', 'NONE');
#582 = DIRECTION ( 'NONE',  ( -0.000000000000000000, -1.000000000000000000, -0.000000000000000000 ) ) ;
#583 = EDGE_CURVE ( 'NONE', #221, #334, #52, .T. ) ;
#584 = CARTESIAN_POINT ( 'NONE',  ( 0.000000000000000000, 3.000000000000000000, 0.000000000000000000 ) ) ;
#585 = CARTESIAN_POINT ( 'NONE',  ( 5.656854249492380582, 20.99999999999999645, 25.00000000000000000 ) ) ;
#586 = B_SPLINE_CURVE_WITH_KNOTS ( 'NONE', 3,
 ( #109, #170, #466, #48, #365, #626, #174, #375, #563, #571, #470, #125, #413, #370, #425, #267, #10, #480, #227, #63, #575, #628, #573, #3 ),
 .UNSPECIFIED., .F., .F.,
 ( 4, 2, 2, 2, 2, 2, 2, 2, 2, 2, 2, 4 ),
 ( 0.000000000000000000, 0.001182967793956526655, 0.001774451690934789874, 0.002365935587913053310, 0.003548903381869568472, 0.004140387278847826487, 0.004731871175826084068, 0.005914838969782597496, 0.007097806763739109188, 0.007689290660717365035, 0.008280774557695623483, 0.009463742351652136911 ),
 .UNSPECIFIED. ) ;
#587 = CARTESIAN_POINT ( 'NONE',  ( 1.567602623143295792, 17.19504045515176216, 16.42992128361551352 ) ) ;
#588 = CIRCLE ( 'NONE', #205, 14.00000000000000000 ) ;
#589 = ORIENTED_EDGE ( 'NONE', *, *, #179, .F. ) ;
#590 = PRESENTATION_LAYER_ASSIGNMENT (  '', '', ( #511 ) ) ;
#591 = AXIS2_PLACEMENT_3D ( 'NONE', #261, #299, #508 ) ;
#592 = SHAPE_DEFINITION_REPRESENTATION ( #446, #255 ) ;
#593 = PRODUCT_DEFINITION ( 'UNKNOWN', '', #107, #431 ) ;
#594 = DIRECTION ( 'NONE',  ( 0.000000000000000000, 1.000000000000000000, 0.000000000000000000 ) ) ;
#595 = LINE ( 'NONE', #585, #546 ) ;
#596 = AXIS2_PLACEMENT_3D ( 'NONE', #456, #86, #397 ) ;
#597 = DIRECTION ( 'NONE',  ( -0.000000000000000000, 1.000000000000000000, -0.000000000000000000 ) ) ;
#598 = EDGE_LOOP ( 'NONE', ( #472, #459, #254, #200 ) ) ;
#599 = EDGE_CURVE ( 'NONE', #334, #666, #122, .T. ) ;
#600 = DIRECTION ( 'NONE',  ( -1.000000000000000000, 0.000000000000000000, 0.000000000000000000 ) ) ;
#601 = DIRECTION ( 'NONE',  ( 0.000000000000000000, 0.000000000000000000, -1.000000000000000000 ) ) ;
#602 = LINE ( 'NONE', #241, #178 ) ;
#603 = VECTOR ( 'NONE', #565, 1000.000000000000000 ) ;
#604 =( NAMED_UNIT ( * ) SI_UNIT ( $, .STERADIAN. ) SOLID_ANGLE_UNIT ( ) );
#605 = DIRECTION ( 'NONE',  ( -0.000000000000000000, -1.000000000000000000, -0.000000000000000000 ) ) ;
#606 = PLANE ( 'NONE',  #157 ) ;
#607 = VERTEX_POINT ( 'NONE', #485 ) ;
#608 = DIRECTION ( 'NONE',  ( -0.000000000000000000, -1.000000000000000000, -0.000000000000000000 ) ) ;
#609 = DIRECTION ( 'NONE',  ( 0.000000000000000000, 0.000000000000000000, 1.000000000000000000 ) ) ;
#610 = LINE ( 'NONE', #300, #13 ) ;
#611 = EDGE_CURVE ( 'NONE', #156, #221, #305, .T. ) ;
#612 = EDGE_LOOP ( 'NONE', ( #513, #263, #114, #543 ) ) ;
#613 = EDGE_LOOP ( 'NONE', ( #408, #288, #533, #519 ) ) ;
#614 = SURFACE_STYLE_USAGE ( .BOTH. , #212 ) ;
#615 = CARTESIAN_POINT ( 'NONE',  ( 2.571758278209441661E-15, 0.000000000000000000, 21.00000000000000000 ) ) ;
#616 = ORIENTED_EDGE ( 'NONE', *, *, #187, .F. ) ;
#617 = DIRECTION ( 'NONE',  ( -0.000000000000000000, -1.000000000000000000, -0.000000000000000000 ) ) ;
#618 = VECTOR ( 'NONE', #75, 1000.000000000000000 ) ;
#619 = EDGE_CURVE ( 'NONE', #284, #444, #347, .T. ) ;
#620 = ORIENTED_EDGE ( 'NONE', *, *, #619, .F. ) ;
#621 = CARTESIAN_POINT ( 'NONE',  ( 3.232136982519479673, 17.93581244313629242, 13.62420120197945117 ) ) ;
#622 = VERTEX_POINT ( 'NONE', #667 ) ;
#623 = CARTESIAN_POINT ( 'NONE',  ( -5.656854249492380582, 20.99999999999999645, 13.89244398944980396 ) ) ;
#624 = CARTESIAN_POINT ( 'NONE',  ( 2.571758278209441661E-15, 3.000000000000000000, 21.00000000000000000 ) ) ;
#625 = VERTEX_POINT ( 'NONE', #41 ) ;
#626 = CARTESIAN_POINT ( 'NONE',  ( -5.680549220225676876, 21.05820546063089793, 15.49145458517928020 ) ) ;
#627 = CARTESIAN_POINT ( 'NONE',  ( 1.543416737560782126, 17.19370694368654995, 13.91781691951514155 ) ) ;
#628 = CARTESIAN_POINT ( 'NONE',  ( -0.7874124532878250537, 17.03872542311692584, 16.48579821407631840 ) ) ;
#629 = DIRECTION ( 'NONE',  ( 0.000000000000000000, 0.000000000000000000, -1.000000000000000000 ) ) ;
#630 = CIRCLE ( 'NONE', #330, 15.00000000000000000 ) ;
#631 = LINE ( 'NONE', #225, #603 ) ;
#632 = CARTESIAN_POINT ( 'NONE',  ( 2.020667217937319897E-15, 16.99999999999999645, 16.50000000000000000 ) ) ;
#633 = B_SPLINE_CURVE_WITH_KNOTS ( 'NONE', 3,
 ( #451, #400, #545, #90 ),
 .UNSPECIFIED., .F., .F.,
 ( 4, 4 ),
 ( 0.000000000000000000, 0.002034377543270502343 ),
 .UNSPECIFIED. ) ;
#634 = CARTESIAN_POINT ( 'NONE',  ( 3.964841228161375408, 18.48642085615193054, -13.42878116314983217 ) ) ;
#635 = CARTESIAN_POINT ( 'NONE',  ( -1.242293241546677196, 17.12168900130435389, -13.94821132385548523 ) ) ;
#636 = CYLINDRICAL_SURFACE ( 'NONE', #32, 16.50000000000000000 ) ;
#637 = DIRECTION ( 'NONE',  ( 0.000000000000000000, 0.000000000000000000, 1.000000000000000000 ) ) ;
#638 = AXIS2_PLACEMENT_3D ( 'NONE', #401, #601, #304 ) ;
#639 = FACE_OUTER_BOUND ( 'NONE', #47, .T. ) ;
#640 = MANIFOLD_SOLID_BREP ( 'Cut-Extrude2', #384 ) ;
#641 = ORIENTED_EDGE ( 'NONE', *, *, #259, .F. ) ;
#642 = EDGE_CURVE ( 'NONE', #607, #489, #474, .T. ) ;
#643 = CARTESIAN_POINT ( 'NONE',  ( -6.000000000000000888, 23.00000000000000000, -13.74772708486751860 ) ) ;
#644 =( GEOMETRIC_REPRESENTATION_CONTEXT ( 3 ) GLOBAL_UNCERTAINTY_ASSIGNED_CONTEXT ( ( #15 ) ) GLOBAL_UNIT_ASSIGNED_CONTEXT ( ( #656, #441, #604 ) ) REPRESENTATION_CONTEXT ( 'NONE', 'WORKASPACE' ) );
#645 = ORIENTED_EDGE ( 'NONE', *, *, #193, .F. ) ;
#646 = CARTESIAN_POINT ( 'NONE',  ( 3.003521632312963884E-21, 16.99999999999999645, -14.00000000000000000 ) ) ;
#647 = VECTOR ( 'NONE', #150, 1000.000000000000000 ) ;
#648 = CARTESIAN_POINT ( 'NONE',  ( -5.656854249492380582, 20.99999999999999645, -13.89244398944980396 ) ) ;
#649 = EDGE_CURVE ( 'NONE', #351, #373, #586, .T. ) ;
#650 = ORIENTED_EDGE ( 'NONE', *, *, #405, .F. ) ;
#651 = CARTESIAN_POINT ( 'NONE',  ( -0.3949360407136487394, 16.99999999999999289, -16.50000000000001066 ) ) ;
#652 = CARTESIAN_POINT ( 'NONE',  ( 5.656854249492380582, 20.99999999999999645, 13.89244398944980396 ) ) ;
#653 = AXIS2_PLACEMENT_3D ( 'NONE', #584, #68, #436 ) ;
#654 = ORIENTED_EDGE ( 'NONE', *, *, #45, .F. ) ;
#655 = VERTEX_POINT ( 'NONE', #478 ) ;
#656 =( LENGTH_UNIT ( ) NAMED_UNIT ( * ) SI_UNIT ( .MILLI., .METRE. ) );
#657 = CYLINDRICAL_SURFACE ( 'NONE', #132, 6.000000000000000888 ) ;
#658 = DIRECTION ( 'NONE',  ( 0.000000000000000000, 1.000000000000000000, 0.000000000000000000 ) ) ;
#659 = CARTESIAN_POINT ( 'NONE',  ( 3.966672199493619821, 18.48159570221910641, -16.01861812081406811 ) ) ;
#660 = FACE_OUTER_BOUND ( 'NONE', #250, .T. ) ;
#661 = ORIENTED_EDGE ( 'NONE', *, *, #276, .F. ) ;
#662 = CARTESIAN_POINT ( 'NONE',  ( 0.000000000000000000, 2.999999999999999112, 0.000000000000000000 ) ) ;
#663 = EDGE_CURVE ( 'NONE', #351, #625, #378, .T. ) ;
#664 = CARTESIAN_POINT ( 'NONE',  ( 1.369890822546747211, 17.15512169737909787, -16.44418710110083026 ) ) ;
#665 = ORIENTED_EDGE ( 'NONE', *, *, #663, .T. ) ;
#666 = VERTEX_POINT ( 'NONE', #482 ) ;
#667 = CARTESIAN_POINT ( 'NONE',  ( 6.000000000000000888, 23.00000000000000000, 13.74772708486751860 ) ) ;
#668 = CARTESIAN_POINT ( 'NONE',  ( 5.201668438074104728, 19.98411578224007812, -15.66029402136206272 ) ) ;
#669 = VERTEX_POINT ( 'NONE', #121 ) ;
#670 = CARTESIAN_POINT ( 'NONE',  ( 6.000000000000002665, 22.59970095541877555, -15.37042614893940318 ) ) ;
#671 = ORIENTED_EDGE ( 'NONE', *, *, #182, .T. ) ;
#672 = CYLINDRICAL_SURFACE ( 'NONE', #219, 21.00000000000000000 ) ;
#673 = AXIS2_PLACEMENT_3D ( 'NONE', #662, #605, #609 ) ;
#674 = ORIENTED_EDGE ( 'NONE', *, *, #649, .F. ) ;
#675 = LINE ( 'NONE', #624, #119 ) ;
ENDSEC;
END-ISO-10303-21;
