ISO-10303-21;
HEADER;
FILE_DESCRIPTION (( 'STEP AP214' ),
    '1' );
FILE_NAME ('Crystal Press.STEP',
    '2024-02-05T09:03:07',
    ( '' ),
    ( '' ),
    'SwSTEP 2.0',
    'SolidWorks 2023',
    '' );
FILE_SCHEMA (( 'AUTOMOTIVE_DESIGN' ));
ENDSEC;

DATA;
#1 = ADVANCED_FACE ( 'NONE', ( #78 ), #199, .T. ) ;
#2 = APPLICATION_PROTOCOL_DEFINITION ( 'draft international standard', 'automotive_design', 1998, #38 ) ;
#3 =( GEOMETRIC_REPRESENTATION_CONTEXT ( 3 ) GLOBAL_UNCERTAINTY_ASSIGNED_CONTEXT ( ( #157 ) ) GLOBAL_UNIT_ASSIGNED_CONTEXT ( ( #53, #186, #174 ) ) REPRESENTATION_CONTEXT ( 'NONE', 'WORKASPACE' ) );
#4 = DIRECTION ( 'NONE',  ( 0.000000000000000000, 1.000000000000000000, 0.000000000000000000 ) ) ;
#5 = CIRCLE ( 'NONE', #88, 14.00000000000000000 ) ;
#6 = ADVANCED_FACE ( 'NONE', ( #170 ), #152, .T. ) ;
#7 = EDGE_LOOP ( 'NONE', ( #9, #113, #20, #198 ) ) ;
#8 = ORIENTED_EDGE ( 'NONE', *, *, #201, .T. ) ;
#9 = ORIENTED_EDGE ( 'NONE', *, *, #62, .F. ) ;
#10 = ORIENTED_EDGE ( 'NONE', *, *, #69, .T. ) ;
#11 = VERTEX_POINT ( 'NONE', #155 ) ;
#12 = ADVANCED_BREP_SHAPE_REPRESENTATION ( 'Crystal Press', ( #154, #179 ), #79 ) ;
#13 = CARTESIAN_POINT ( 'NONE',  ( 1.898202538678397163E-15, 0.000000000000000000, 15.49999999999999822 ) ) ;
#14 = FACE_OUTER_BOUND ( 'NONE', #7, .T. ) ;
#15 = VECTOR ( 'NONE', #188, 1000.000000000000000 ) ;
#16 = CARTESIAN_POINT ( 'NONE',  ( 1.898202538678397163E-15, 20.00000000000000000, 15.49999999999999822 ) ) ;
#17 = DIRECTION ( 'NONE',  ( 0.000000000000000000, 0.000000000000000000, -1.000000000000000000 ) ) ;
#18 = CYLINDRICAL_SURFACE ( 'NONE', #57, 14.00000000000000000 ) ;
#19 = STYLED_ITEM ( 'NONE', ( #67 ), #154 ) ;
#20 = ORIENTED_EDGE ( 'NONE', *, *, #159, .T. ) ;
#21 = DIRECTION ( 'NONE',  ( 0.000000000000000000, 0.000000000000000000, 1.000000000000000000 ) ) ;
#22 = DIRECTION ( 'NONE',  ( 0.000000000000000000, 0.000000000000000000, 1.000000000000000000 ) ) ;
#23 = PRODUCT_DEFINITION_CONTEXT ( 'detailed design', #77, 'design' ) ;
#24 = AXIS2_PLACEMENT_3D ( 'NONE', #94, #71, #17 ) ;
#25 = CARTESIAN_POINT ( 'NONE',  ( 0.000000000000000000, 0.000000000000000000, 0.000000000000000000 ) ) ;
#26 = PRODUCT ( 'Crystal Press', 'Crystal Press', '', ( #106 ) ) ;
#27 = CARTESIAN_POINT ( 'NONE',  ( 0.000000000000000000, 20.00000000000000000, 0.000000000000000000 ) ) ;
#28 = FACE_OUTER_BOUND ( 'NONE', #98, .T. ) ;
#29 = CARTESIAN_POINT ( 'NONE',  ( 1.714505518806294638E-15, 0.000000000000000000, 14.00000000000000000 ) ) ;
#30 = ADVANCED_FACE ( 'NONE', ( #76 ), #180, .T. ) ;
#31 = ORIENTED_EDGE ( 'NONE', *, *, #74, .F. ) ;
#32 = CARTESIAN_POINT ( 'NONE',  ( 0.000000000000000000, 20.00000000000000000, 0.000000000000000000 ) ) ;
#33 = ORIENTED_EDGE ( 'NONE', *, *, #194, .T. ) ;
#34 = PRODUCT_DEFINITION_FORMATION_WITH_SPECIFIED_SOURCE ( 'ANY', '', #26, .NOT_KNOWN. ) ;
#35 = FACE_OUTER_BOUND ( 'NONE', #90, .T. ) ;
#36 = EDGE_CURVE ( 'NONE', #11, #110, #185, .T. ) ;
#37 = DIRECTION ( 'NONE',  ( 0.000000000000000000, -0.000000000000000000, 1.000000000000000000 ) ) ;
#38 = APPLICATION_CONTEXT ( 'automotive_design' ) ;
#39 = DIRECTION ( 'NONE',  ( 0.000000000000000000, 0.000000000000000000, 1.000000000000000000 ) ) ;
#40 = COLOUR_RGB ( '',0.7921568627450980005, 0.8196078431372548767, 0.9333333333333333481 ) ;
#41 = DIRECTION ( 'NONE',  ( 0.000000000000000000, -1.000000000000000000, 0.000000000000000000 ) ) ;
#42 = CARTESIAN_POINT ( 'NONE',  ( 0.000000000000000000, 0.000000000000000000, 0.000000000000000000 ) ) ;
#43 = PRODUCT_DEFINITION_SHAPE ( 'NONE', 'NONE',  #134 ) ;
#44 = AXIS2_PLACEMENT_3D ( 'NONE', #32, #123, #96 ) ;
#45 = ADVANCED_FACE ( 'NONE', ( #171, #28 ), #92, .F. ) ;
#46 = ORIENTED_EDGE ( 'NONE', *, *, #196, .F. ) ;
#47 = DIRECTION ( 'NONE',  ( -0.000000000000000000, -1.000000000000000000, -0.000000000000000000 ) ) ;
#48 = ORIENTED_EDGE ( 'NONE', *, *, #151, .F. ) ;
#49 = VERTEX_POINT ( 'NONE', #29 ) ;
#50 = CARTESIAN_POINT ( 'NONE',  ( 0.000000000000000000, 1.000000000000000000, -14.00000000000000000 ) ) ;
#51 = FACE_OUTER_BOUND ( 'NONE', #140, .T. ) ;
#52 = CARTESIAN_POINT ( 'NONE',  ( 1.898202538678397163E-15, 20.00000000000000000, 15.49999999999999822 ) ) ;
#53 =( LENGTH_UNIT ( ) NAMED_UNIT ( * ) SI_UNIT ( .MILLI., .METRE. ) );
#54 = MECHANICAL_DESIGN_GEOMETRIC_PRESENTATION_REPRESENTATION (  '', ( #19 ), #3 ) ;
#55 = DIRECTION ( 'NONE',  ( 0.000000000000000000, 0.000000000000000000, -1.000000000000000000 ) ) ;
#56 = ORIENTED_EDGE ( 'NONE', *, *, #201, .F. ) ;
#57 = AXIS2_PLACEMENT_3D ( 'NONE', #161, #70, #119 ) ;
#58 = SHAPE_DEFINITION_REPRESENTATION ( #43, #12 ) ;
#59 = AXIS2_PLACEMENT_3D ( 'NONE', #129, #187, #37 ) ;
#60 = ORIENTED_EDGE ( 'NONE', *, *, #132, .F. ) ;
#61 = CARTESIAN_POINT ( 'NONE',  ( 0.000000000000000000, 0.000000000000000000, 0.000000000000000000 ) ) ;
#62 = EDGE_CURVE ( 'NONE', #66, #11, #183, .T. ) ;
#63 = ORIENTED_EDGE ( 'NONE', *, *, #204, .T. ) ;
#64 = VECTOR ( 'NONE', #165, 1000.000000000000000 ) ;
#65 = ORIENTED_EDGE ( 'NONE', *, *, #97, .T. ) ;
#66 = VERTEX_POINT ( 'NONE', #68 ) ;
#67 = PRESENTATION_STYLE_ASSIGNMENT (( #145 ) ) ;
#68 = CARTESIAN_POINT ( 'NONE',  ( 1.714505518806294638E-15, 1.000000000000000000, 14.00000000000000000 ) ) ;
#69 = EDGE_CURVE ( 'NONE', #110, #49, #146, .T. ) ;
#70 = DIRECTION ( 'NONE',  ( -0.000000000000000000, -1.000000000000000000, -0.000000000000000000 ) ) ;
#71 = DIRECTION ( 'NONE',  ( 0.000000000000000000, -1.000000000000000000, 0.000000000000000000 ) ) ;
#72 = AXIS2_PLACEMENT_3D ( 'NONE', #42, #105, #173 ) ;
#73 = CIRCLE ( 'NONE', #138, 15.49999999999999822 ) ;
#74 = EDGE_CURVE ( 'NONE', #66, #49, #133, .T. ) ;
#75 = VERTEX_POINT ( 'NONE', #177 ) ;
#76 = FACE_OUTER_BOUND ( 'NONE', #95, .T. ) ;
#77 = APPLICATION_CONTEXT ( 'automotive_design' ) ;
#78 = FACE_OUTER_BOUND ( 'NONE', #153, .T. ) ;
#79 =( GEOMETRIC_REPRESENTATION_CONTEXT ( 3 ) GLOBAL_UNCERTAINTY_ASSIGNED_CONTEXT ( ( #191 ) ) GLOBAL_UNIT_ASSIGNED_CONTEXT ( ( #108, #178, #147 ) ) REPRESENTATION_CONTEXT ( 'NONE', 'WORKASPACE' ) );
#80 = ORIENTED_EDGE ( 'NONE', *, *, #196, .T. ) ;
#81 = ORIENTED_EDGE ( 'NONE', *, *, #151, .T. ) ;
#82 = PLANE ( 'NONE',  #59 ) ;
#83 = FILL_AREA_STYLE_COLOUR ( '', #40 ) ;
#84 = VECTOR ( 'NONE', #104, 1000.000000000000000 ) ;
#85 = DIRECTION ( 'NONE',  ( -0.000000000000000000, -1.000000000000000000, -0.000000000000000000 ) ) ;
#86 = FILL_AREA_STYLE ('',( #83 ) ) ;
#87 = CARTESIAN_POINT ( 'NONE',  ( 0.000000000000000000, 1.000000000000000000, 0.000000000000000000 ) ) ;
#88 = AXIS2_PLACEMENT_3D ( 'NONE', #87, #189, #55 ) ;
#89 = ADVANCED_FACE ( 'NONE', ( #14 ), #18, .F. ) ;
#90 = EDGE_LOOP ( 'NONE', ( #81, #63 ) ) ;
#91 = DIRECTION ( 'NONE',  ( 1.000000000000000000, 0.000000000000000000, 0.000000000000000000 ) ) ;
#92 = PLANE ( 'NONE',  #156 ) ;
#93 = AXIS2_PLACEMENT_3D ( 'NONE', #27, #4, #22 ) ;
#94 = CARTESIAN_POINT ( 'NONE',  ( 0.000000000000000000, 1.000000000000000000, 0.000000000000000000 ) ) ;
#95 = EDGE_LOOP ( 'NONE', ( #169, #182 ) ) ;
#96 = DIRECTION ( 'NONE',  ( 0.000000000000000000, 0.000000000000000000, -1.000000000000000000 ) ) ;
#97 = EDGE_CURVE ( 'NONE', #75, #124, #160, .T. ) ;
#98 = EDGE_LOOP ( 'NONE', ( #56, #46 ) ) ;
#99 = CARTESIAN_POINT ( 'NONE',  ( 1.714505518806294638E-15, 1.000000000000000000, 14.00000000000000000 ) ) ;
#100 = PRODUCT_RELATED_PRODUCT_CATEGORY ( 'part', '', ( #26 ) ) ;
#101 = CARTESIAN_POINT ( 'NONE',  ( 0.000000000000000000, 1.000000000000000000, 0.000000000000000000 ) ) ;
#102 = DIRECTION ( 'NONE',  ( 0.000000000000000000, 0.000000000000000000, -1.000000000000000000 ) ) ;
#103 = AXIS2_PLACEMENT_3D ( 'NONE', #118, #203, #39 ) ;
#104 = DIRECTION ( 'NONE',  ( -0.000000000000000000, -1.000000000000000000, -0.000000000000000000 ) ) ;
#105 = DIRECTION ( 'NONE',  ( 0.000000000000000000, -1.000000000000000000, 0.000000000000000000 ) ) ;
#106 = PRODUCT_CONTEXT ( 'NONE', #38, 'mechanical' ) ;
#107 = AXIS2_PLACEMENT_3D ( 'NONE', #128, #139, #202 ) ;
#108 =( LENGTH_UNIT ( ) NAMED_UNIT ( * ) SI_UNIT ( .MILLI., .METRE. ) );
#109 = APPLICATION_PROTOCOL_DEFINITION ( 'draft international standard', 'automotive_design', 1998, #77 ) ;
#110 = VERTEX_POINT ( 'NONE', #163 ) ;
#111 = DIRECTION ( 'NONE',  ( 0.000000000000000000, 0.000000000000000000, -1.000000000000000000 ) ) ;
#112 = CIRCLE ( 'NONE', #93, 15.49999999999999822 ) ;
#113 = ORIENTED_EDGE ( 'NONE', *, *, #74, .T. ) ;
#114 = VERTEX_POINT ( 'NONE', #52 ) ;
#115 = ORIENTED_EDGE ( 'NONE', *, *, #69, .F. ) ;
#116 = CIRCLE ( 'NONE', #72, 14.00000000000000000 ) ;
#117 = CYLINDRICAL_SURFACE ( 'NONE', #176, 14.00000000000000000 ) ;
#118 = CARTESIAN_POINT ( 'NONE',  ( 0.000000000000000000, 20.00000000000000000, 0.000000000000000000 ) ) ;
#119 = DIRECTION ( 'NONE',  ( 0.000000000000000000, 0.000000000000000000, -1.000000000000000000 ) ) ;
#120 = ORIENTED_EDGE ( 'NONE', *, *, #97, .F. ) ;
#121 = DIRECTION ( 'NONE',  ( 0.000000000000000000, 0.000000000000000000, 1.000000000000000000 ) ) ;
#122 = AXIS2_PLACEMENT_3D ( 'NONE', #25, #193, #121 ) ;
#123 = DIRECTION ( 'NONE',  ( -0.000000000000000000, -1.000000000000000000, -0.000000000000000000 ) ) ;
#124 = VERTEX_POINT ( 'NONE', #143 ) ;
#125 = EDGE_LOOP ( 'NONE', ( #115, #158 ) ) ;
#126 = CLOSED_SHELL ( 'NONE', ( #89, #6, #1, #166, #45, #172, #30 ) ) ;
#127 = CARTESIAN_POINT ( 'NONE',  ( 0.000000000000000000, 20.00000000000000000, 0.000000000000000000 ) ) ;
#128 = CARTESIAN_POINT ( 'NONE',  ( 0.000000000000000000, 1.000000000000000000, 0.000000000000000000 ) ) ;
#129 = CARTESIAN_POINT ( 'NONE',  ( 0.000000000000000000, 20.00000000000000000, 0.000000000000000000 ) ) ;
#130 = CARTESIAN_POINT ( 'NONE',  ( 0.000000000000000000, 0.000000000000000000, 0.000000000000000000 ) ) ;
#131 = SURFACE_STYLE_FILL_AREA ( #86 ) ;
#132 = EDGE_CURVE ( 'NONE', #11, #66, #5, .T. ) ;
#133 = LINE ( 'NONE', #99, #15 ) ;
#134 = PRODUCT_DEFINITION ( 'UNKNOWN', '', #34, #23 ) ;
#135 = CIRCLE ( 'NONE', #122, 15.49999999999999822 ) ;
#136 = VERTEX_POINT ( 'NONE', #13 ) ;
#137 = ORIENTED_EDGE ( 'NONE', *, *, #204, .F. ) ;
#138 = AXIS2_PLACEMENT_3D ( 'NONE', #144, #205, #148 ) ;
#139 = DIRECTION ( 'NONE',  ( 0.000000000000000000, -1.000000000000000000, 0.000000000000000000 ) ) ;
#140 = EDGE_LOOP ( 'NONE', ( #31, #60, #184, #10 ) ) ;
#141 = SURFACE_SIDE_STYLE ('',( #131 ) ) ;
#142 = AXIS2_PLACEMENT_3D ( 'NONE', #130, #41, #164 ) ;
#143 = CARTESIAN_POINT ( 'NONE',  ( 0.000000000000000000, 0.000000000000000000, -15.49999999999999822 ) ) ;
#144 = CARTESIAN_POINT ( 'NONE',  ( 0.000000000000000000, 0.000000000000000000, 0.000000000000000000 ) ) ;
#145 = SURFACE_STYLE_USAGE ( .BOTH. , #141 ) ;
#146 = CIRCLE ( 'NONE', #142, 14.00000000000000000 ) ;
#147 =( NAMED_UNIT ( * ) SI_UNIT ( $, .STERADIAN. ) SOLID_ANGLE_UNIT ( ) );
#148 = DIRECTION ( 'NONE',  ( 0.000000000000000000, 0.000000000000000000, 1.000000000000000000 ) ) ;
#149 = PRESENTATION_LAYER_ASSIGNMENT (  '', '', ( #19 ) ) ;
#150 = ORIENTED_EDGE ( 'NONE', *, *, #194, .F. ) ;
#151 = EDGE_CURVE ( 'NONE', #75, #114, #195, .T. ) ;
#152 = CYLINDRICAL_SURFACE ( 'NONE', #44, 15.49999999999999822 ) ;
#153 = EDGE_LOOP ( 'NONE', ( #150, #48, #65, #8 ) ) ;
#154 = MANIFOLD_SOLID_BREP ( 'Cut-Extrude1', #126 ) ;
#155 = CARTESIAN_POINT ( 'NONE',  ( 0.000000000000000000, 1.000000000000000000, -14.00000000000000000 ) ) ;
#156 = AXIS2_PLACEMENT_3D ( 'NONE', #61, #181, #167 ) ;
#157 = UNCERTAINTY_MEASURE_WITH_UNIT (LENGTH_MEASURE( 1.000000000000000082E-05 ), #53, 'distance_accuracy_value', 'NONE');
#158 = ORIENTED_EDGE ( 'NONE', *, *, #159, .F. ) ;
#159 = EDGE_CURVE ( 'NONE', #49, #110, #116, .T. ) ;
#160 = LINE ( 'NONE', #190, #84 ) ;
#161 = CARTESIAN_POINT ( 'NONE',  ( 0.000000000000000000, 1.000000000000000000, 0.000000000000000000 ) ) ;
#162 = LINE ( 'NONE', #16, #200 ) ;
#163 = CARTESIAN_POINT ( 'NONE',  ( 0.000000000000000000, 0.000000000000000000, -14.00000000000000000 ) ) ;
#164 = DIRECTION ( 'NONE',  ( 0.000000000000000000, 0.000000000000000000, -1.000000000000000000 ) ) ;
#165 = DIRECTION ( 'NONE',  ( -0.000000000000000000, -1.000000000000000000, -0.000000000000000000 ) ) ;
#166 = ADVANCED_FACE ( 'NONE', ( #35 ), #82, .T. ) ;
#167 = DIRECTION ( 'NONE',  ( 0.000000000000000000, -0.000000000000000000, 1.000000000000000000 ) ) ;
#168 = AXIS2_PLACEMENT_3D ( 'NONE', #127, #47, #111 ) ;
#169 = ORIENTED_EDGE ( 'NONE', *, *, #132, .T. ) ;
#170 = FACE_OUTER_BOUND ( 'NONE', #197, .T. ) ;
#171 = FACE_BOUND ( 'NONE', #125, .T. ) ;
#172 = ADVANCED_FACE ( 'NONE', ( #51 ), #117, .F. ) ;
#173 = DIRECTION ( 'NONE',  ( 0.000000000000000000, 0.000000000000000000, -1.000000000000000000 ) ) ;
#174 =( NAMED_UNIT ( * ) SI_UNIT ( $, .STERADIAN. ) SOLID_ANGLE_UNIT ( ) );
#175 = DIRECTION ( 'NONE',  ( -0.000000000000000000, -1.000000000000000000, -0.000000000000000000 ) ) ;
#176 = AXIS2_PLACEMENT_3D ( 'NONE', #101, #175, #102 ) ;
#177 = CARTESIAN_POINT ( 'NONE',  ( 0.000000000000000000, 20.00000000000000000, -15.49999999999999822 ) ) ;
#178 =( NAMED_UNIT ( * ) PLANE_ANGLE_UNIT ( ) SI_UNIT ( $, .RADIAN. ) );
#179 = AXIS2_PLACEMENT_3D ( 'NONE', #192, #21, #91 ) ;
#180 = PLANE ( 'NONE',  #107 ) ;
#181 = DIRECTION ( 'NONE',  ( 0.000000000000000000, 1.000000000000000000, 0.000000000000000000 ) ) ;
#182 = ORIENTED_EDGE ( 'NONE', *, *, #62, .T. ) ;
#183 = CIRCLE ( 'NONE', #24, 14.00000000000000000 ) ;
#184 = ORIENTED_EDGE ( 'NONE', *, *, #36, .T. ) ;
#185 = LINE ( 'NONE', #50, #64 ) ;
#186 =( NAMED_UNIT ( * ) PLANE_ANGLE_UNIT ( ) SI_UNIT ( $, .RADIAN. ) );
#187 = DIRECTION ( 'NONE',  ( 0.000000000000000000, 1.000000000000000000, 0.000000000000000000 ) ) ;
#188 = DIRECTION ( 'NONE',  ( -0.000000000000000000, -1.000000000000000000, -0.000000000000000000 ) ) ;
#189 = DIRECTION ( 'NONE',  ( 0.000000000000000000, -1.000000000000000000, 0.000000000000000000 ) ) ;
#190 = CARTESIAN_POINT ( 'NONE',  ( 0.000000000000000000, 20.00000000000000000, -15.49999999999999822 ) ) ;
#191 = UNCERTAINTY_MEASURE_WITH_UNIT (LENGTH_MEASURE( 1.000000000000000082E-05 ), #108, 'distance_accuracy_value', 'NONE');
#192 = CARTESIAN_POINT ( 'NONE',  ( 0.000000000000000000, 0.000000000000000000, 0.000000000000000000 ) ) ;
#193 = DIRECTION ( 'NONE',  ( 0.000000000000000000, 1.000000000000000000, 0.000000000000000000 ) ) ;
#194 = EDGE_CURVE ( 'NONE', #114, #136, #162, .T. ) ;
#195 = CIRCLE ( 'NONE', #103, 15.49999999999999822 ) ;
#196 = EDGE_CURVE ( 'NONE', #136, #124, #73, .T. ) ;
#197 = EDGE_LOOP ( 'NONE', ( #137, #33, #80, #120 ) ) ;
#198 = ORIENTED_EDGE ( 'NONE', *, *, #36, .F. ) ;
#199 = CYLINDRICAL_SURFACE ( 'NONE', #168, 15.49999999999999822 ) ;
#200 = VECTOR ( 'NONE', #85, 1000.000000000000000 ) ;
#201 = EDGE_CURVE ( 'NONE', #124, #136, #135, .T. ) ;
#202 = DIRECTION ( 'NONE',  ( 0.000000000000000000, -0.000000000000000000, -1.000000000000000000 ) ) ;
#203 = DIRECTION ( 'NONE',  ( 0.000000000000000000, 1.000000000000000000, 0.000000000000000000 ) ) ;
#204 = EDGE_CURVE ( 'NONE', #114, #75, #112, .T. ) ;
#205 = DIRECTION ( 'NONE',  ( 0.000000000000000000, 1.000000000000000000, 0.000000000000000000 ) ) ;
ENDSEC;
END-ISO-10303-21;
