ISO-10303-21;
HEADER;
FILE_DESCRIPTION (( 'STEP AP214' ),
    '1' );
FILE_NAME ('Glass ring.STEP',
    '2024-02-06T12:11:01',
    ( '' ),
    ( '' ),
    'SwSTEP 2.0',
    'SolidWorks 2023',
    '' );
FILE_SCHEMA (( 'AUTOMOTIVE_DESIGN' ));
ENDSEC;

DATA;
#1 = DIRECTION ( 'NONE',  ( 0.000000000000000000, 0.000000000000000000, -1.000000000000000000 ) ) ;
#2 = AXIS2_PLACEMENT_3D ( 'NONE', #5, #230, #253 ) ;
#3 = ORIENTED_EDGE ( 'NONE', *, *, #109, .T. ) ;
#4 = CIRCLE ( 'NONE', #221, 14.75000000000000000 ) ;
#5 = CARTESIAN_POINT ( 'NONE',  ( 0.000000000000000000, 0.000000000000000000, 0.000000000000000000 ) ) ;
#6 = DIRECTION ( 'NONE',  ( 0.000000000000000000, 0.000000000000000000, -1.000000000000000000 ) ) ;
#7 = PRODUCT_DEFINITION_SHAPE ( 'NONE', 'NONE',  #69 ) ;
#8 = DIRECTION ( 'NONE',  ( 1.000000000000000000, 0.000000000000000000, 0.000000000000000000 ) ) ;
#9 = EDGE_LOOP ( 'NONE', ( #60, #298, #245, #72 ) ) ;
#10 = FILL_AREA_STYLE_COLOUR ( '', #122 ) ;
#11 = CIRCLE ( 'NONE', #190, 15.00000000000000000 ) ;
#12 = DIRECTION ( 'NONE',  ( 0.000000000000000000, 0.000000000000000000, -1.000000000000000000 ) ) ;
#13 = ADVANCED_FACE ( 'NONE', ( #126 ), #129, .T. ) ;
#14 = AXIS2_PLACEMENT_3D ( 'NONE', #119, #209, #99 ) ;
#15 = ORIENTED_EDGE ( 'NONE', *, *, #17, .F. ) ;
#16 = VERTEX_POINT ( 'NONE', #261 ) ;
#17 = EDGE_CURVE ( 'NONE', #269, #143, #103, .T. ) ;
#18 = DIRECTION ( 'NONE',  ( -0.000000000000000000, -1.000000000000000000, -0.000000000000000000 ) ) ;
#19 = AXIS2_PLACEMENT_3D ( 'NONE', #278, #108, #121 ) ;
#20 = CARTESIAN_POINT ( 'NONE',  ( 0.000000000000000000, 1.253124999999998490, 0.000000000000000000 ) ) ;
#21 = PLANE ( 'NONE',  #267 ) ;
#22 = DIRECTION ( 'NONE',  ( -0.000000000000000000, -1.000000000000000000, -0.000000000000000000 ) ) ;
#23 = ORIENTED_EDGE ( 'NONE', *, *, #163, .F. ) ;
#24 = PLANE ( 'NONE',  #133 ) ;
#25 =( NAMED_UNIT ( * ) SI_UNIT ( $, .STERADIAN. ) SOLID_ANGLE_UNIT ( ) );
#26 = ORIENTED_EDGE ( 'NONE', *, *, #63, .F. ) ;
#27 = EDGE_CURVE ( 'NONE', #75, #16, #282, .T. ) ;
#28 = FACE_OUTER_BOUND ( 'NONE', #132, .T. ) ;
#29 = DIRECTION ( 'NONE',  ( 0.000000000000000000, 0.000000000000000000, -1.000000000000000000 ) ) ;
#30 =( NAMED_UNIT ( * ) SI_UNIT ( $, .STERADIAN. ) SOLID_ANGLE_UNIT ( ) );
#31 = VECTOR ( 'NONE', #188, 1000.000000000000000 ) ;
#32 =( GEOMETRIC_REPRESENTATION_CONTEXT ( 3 ) GLOBAL_UNCERTAINTY_ASSIGNED_CONTEXT ( ( #123 ) ) GLOBAL_UNIT_ASSIGNED_CONTEXT ( ( #251, #159, #30 ) ) REPRESENTATION_CONTEXT ( 'NONE', 'WORKASPACE' ) );
#33 = CARTESIAN_POINT ( 'NONE',  ( 1.836970198721029589E-15, 1.253124999999998490, 15.00000000000000000 ) ) ;
#34 = DIRECTION ( 'NONE',  ( -0.000000000000000000, -1.000000000000000000, -0.000000000000000000 ) ) ;
#35 = DIRECTION ( 'NONE',  ( -0.000000000000000000, -1.000000000000000000, -0.000000000000000000 ) ) ;
#36 = APPLICATION_CONTEXT ( 'automotive_design' ) ;
#37 = CIRCLE ( 'NONE', #197, 14.75000000000000000 ) ;
#38 = CARTESIAN_POINT ( 'NONE',  ( 0.000000000000000000, 1.253124999999998490, 0.000000000000000000 ) ) ;
#39 = ORIENTED_EDGE ( 'NONE', *, *, #242, .F. ) ;
#40 = ADVANCED_BREP_SHAPE_REPRESENTATION ( 'Glass ring', ( #286, #171 ), #32 ) ;
#41 = ORIENTED_EDGE ( 'NONE', *, *, #83, .F. ) ;
#42 = EDGE_CURVE ( 'NONE', #146, #279, #177, .T. ) ;
#43 = AXIS2_PLACEMENT_3D ( 'NONE', #294, #18, #223 ) ;
#44 = EDGE_CURVE ( 'NONE', #86, #143, #155, .T. ) ;
#45 = CARTESIAN_POINT ( 'NONE',  ( 0.000000000000000000, 0.7531249999999983791, -16.00000000000000000 ) ) ;
#46 = CARTESIAN_POINT ( 'NONE',  ( 1.836970198721029589E-15, 0.000000000000000000, 15.00000000000000000 ) ) ;
#47 = FACE_BOUND ( 'NONE', #93, .T. ) ;
#48 = DIRECTION ( 'NONE',  ( -0.000000000000000000, -1.000000000000000000, -0.000000000000000000 ) ) ;
#49 = EDGE_CURVE ( 'NONE', #263, #75, #273, .T. ) ;
#50 = ORIENTED_EDGE ( 'NONE', *, *, #170, .F. ) ;
#51 = CARTESIAN_POINT ( 'NONE',  ( 1.836970198721029589E-15, 0.05312499999999827083, 15.00000000000000000 ) ) ;
#52 = SURFACE_STYLE_FILL_AREA ( #77 ) ;
#53 = EDGE_LOOP ( 'NONE', ( #202, #195, #212, #41 ) ) ;
#54 = CARTESIAN_POINT ( 'NONE',  ( 0.000000000000000000, 1.253124999999998490, -15.00000000000000000 ) ) ;
#55 = DIRECTION ( 'NONE',  ( -0.000000000000000000, -1.000000000000000000, -0.000000000000000000 ) ) ;
#56 = CARTESIAN_POINT ( 'NONE',  ( 0.000000000000000000, 0.000000000000000000, -15.00000000000000000 ) ) ;
#57 = CARTESIAN_POINT ( 'NONE',  ( 1.959434878635765131E-15, 0.000000000000000000, 16.00000000000000000 ) ) ;
#58 = ORIENTED_EDGE ( 'NONE', *, *, #288, .F. ) ;
#59 = DIRECTION ( 'NONE',  ( 0.000000000000000000, 0.000000000000000000, -1.000000000000000000 ) ) ;
#60 = ORIENTED_EDGE ( 'NONE', *, *, #153, .F. ) ;
#61 = AXIS2_PLACEMENT_3D ( 'NONE', #20, #154, #247 ) ;
#62 = ORIENTED_EDGE ( 'NONE', *, *, #198, .T. ) ;
#63 = EDGE_CURVE ( 'NONE', #172, #111, #65, .T. ) ;
#64 = FACE_OUTER_BOUND ( 'NONE', #53, .T. ) ;
#65 = CIRCLE ( 'NONE', #84, 16.00000000000000000 ) ;
#66 = CARTESIAN_POINT ( 'NONE',  ( 0.000000000000000000, 0.000000000000000000, -14.75000000000000000 ) ) ;
#67 = PRODUCT_CONTEXT ( 'NONE', #36, 'mechanical' ) ;
#68 = VECTOR ( 'NONE', #176, 1000.000000000000000 ) ;
#69 = PRODUCT_DEFINITION ( 'UNKNOWN', '', #181, #145 ) ;
#70 = DIRECTION ( 'NONE',  ( 0.000000000000000000, 0.000000000000000000, -1.000000000000000000 ) ) ;
#71 = PRESENTATION_LAYER_ASSIGNMENT (  '', '', ( #210 ) ) ;
#72 = ORIENTED_EDGE ( 'NONE', *, *, #242, .T. ) ;
#73 = CYLINDRICAL_SURFACE ( 'NONE', #2, 14.75000000000000000 ) ;
#74 = DIRECTION ( 'NONE',  ( -0.000000000000000000, -1.000000000000000000, -0.000000000000000000 ) ) ;
#75 = VERTEX_POINT ( 'NONE', #161 ) ;
#76 = DIRECTION ( 'NONE',  ( -0.000000000000000000, -1.000000000000000000, -0.000000000000000000 ) ) ;
#77 = FILL_AREA_STYLE ('',( #10 ) ) ;
#78 = CIRCLE ( 'NONE', #208, 14.75000000000000000 ) ;
#79 = ORIENTED_EDGE ( 'NONE', *, *, #109, .F. ) ;
#80 = LINE ( 'NONE', #101, #215 ) ;
#81 = DIRECTION ( 'NONE',  ( 0.000000000000000000, 0.000000000000000000, -1.000000000000000000 ) ) ;
#82 = CARTESIAN_POINT ( 'NONE',  ( 0.000000000000000000, 0.05312499999999827083, 0.000000000000000000 ) ) ;
#83 = EDGE_CURVE ( 'NONE', #75, #146, #204, .T. ) ;
#84 = AXIS2_PLACEMENT_3D ( 'NONE', #94, #180, #185 ) ;
#85 = ORIENTED_EDGE ( 'NONE', *, *, #216, .T. ) ;
#86 = VERTEX_POINT ( 'NONE', #299 ) ;
#87 = CIRCLE ( 'NONE', #291, 15.00000000000000000 ) ;
#88 = ORIENTED_EDGE ( 'NONE', *, *, #83, .T. ) ;
#89 = LINE ( 'NONE', #46, #249 ) ;
#90 = DIRECTION ( 'NONE',  ( 0.000000000000000000, 0.000000000000000000, -1.000000000000000000 ) ) ;
#91 = CLOSED_SHELL ( 'NONE', ( #234, #149, #134, #92, #118, #100, #292, #271, #203, #13 ) ) ;
#92 = ADVANCED_FACE ( 'NONE', ( #277 ), #73, .F. ) ;
#93 = EDGE_LOOP ( 'NONE', ( #150, #179 ) ) ;
#94 = CARTESIAN_POINT ( 'NONE',  ( 0.000000000000000000, -0.3468750000000016542, 0.000000000000000000 ) ) ;
#95 = AXIS2_PLACEMENT_3D ( 'NONE', #240, #124, #191 ) ;
#96 = CYLINDRICAL_SURFACE ( 'NONE', #106, 16.00000000000000000 ) ;
#97 = MECHANICAL_DESIGN_GEOMETRIC_PRESENTATION_REPRESENTATION (  '', ( #210 ), #241 ) ;
#98 = VERTEX_POINT ( 'NONE', #51 ) ;
#99 = DIRECTION ( 'NONE',  ( 0.000000000000000000, 0.000000000000000000, -1.000000000000000000 ) ) ;
#100 = ADVANCED_FACE ( 'NONE', ( #28 ), #141, .F. ) ;
#101 = CARTESIAN_POINT ( 'NONE',  ( 0.000000000000000000, 0.000000000000000000, -16.00000000000000000 ) ) ;
#102 = DIRECTION ( 'NONE',  ( 0.000000000000000000, 0.000000000000000000, 1.000000000000000000 ) ) ;
#103 = LINE ( 'NONE', #167, #31 ) ;
#104 = SURFACE_STYLE_USAGE ( .BOTH. , #166 ) ;
#105 = PRODUCT ( 'Glass ring', 'Glass ring', '', ( #67 ) ) ;
#106 = AXIS2_PLACEMENT_3D ( 'NONE', #169, #35, #259 ) ;
#107 = DIRECTION ( 'NONE',  ( -0.000000000000000000, -1.000000000000000000, -0.000000000000000000 ) ) ;
#108 = DIRECTION ( 'NONE',  ( -0.000000000000000000, -1.000000000000000000, -0.000000000000000000 ) ) ;
#109 = EDGE_CURVE ( 'NONE', #279, #146, #246, .T. ) ;
#110 = EDGE_LOOP ( 'NONE', ( #227, #140, #184, #50 ) ) ;
#111 = VERTEX_POINT ( 'NONE', #165 ) ;
#112 = CARTESIAN_POINT ( 'NONE',  ( 1.836970198721029589E-15, 1.253124999999998490, 15.00000000000000000 ) ) ;
#113 = AXIS2_PLACEMENT_3D ( 'NONE', #236, #48, #6 ) ;
#114 = DIRECTION ( 'NONE',  ( 1.095357396528405372E-16, -0.4472135954999575946, 0.8944271909999159664 ) ) ;
#115 = EDGE_LOOP ( 'NONE', ( #23, #213, #88, #79 ) ) ;
#116 = DIRECTION ( 'NONE',  ( 0.000000000000000000, 0.000000000000000000, -1.000000000000000000 ) ) ;
#117 = ORIENTED_EDGE ( 'NONE', *, *, #288, .T. ) ;
#118 = ADVANCED_FACE ( 'NONE', ( #47, #138 ), #24, .F. ) ;
#119 = CARTESIAN_POINT ( 'NONE',  ( 0.000000000000000000, 0.000000000000000000, 0.000000000000000000 ) ) ;
#120 = CIRCLE ( 'NONE', #43, 15.00000000000000000 ) ;
#121 = DIRECTION ( 'NONE',  ( 0.000000000000000000, 0.000000000000000000, -1.000000000000000000 ) ) ;
#122 = COLOUR_RGB ( '',0.7921568627450980005, 0.8196078431372548767, 0.9333333333333333481 ) ;
#123 = UNCERTAINTY_MEASURE_WITH_UNIT (LENGTH_MEASURE( 1.000000000000000082E-05 ), #251, 'distance_accuracy_value', 'NONE');
#124 = DIRECTION ( 'NONE',  ( -0.000000000000000000, -1.000000000000000000, -0.000000000000000000 ) ) ;
#125 = CARTESIAN_POINT ( 'NONE',  ( 1.959434878635765131E-15, 0.7531249999999983791, 16.00000000000000000 ) ) ;
#126 = FACE_OUTER_BOUND ( 'NONE', #131, .T. ) ;
#127 = CYLINDRICAL_SURFACE ( 'NONE', #113, 15.00000000000000000 ) ;
#128 = CONICAL_SURFACE ( 'NONE', #137, 15.00000000000000000, 1.107148717794090853 ) ;
#129 = CYLINDRICAL_SURFACE ( 'NONE', #95, 16.00000000000000000 ) ;
#130 = EDGE_CURVE ( 'NONE', #75, #263, #120, .T. ) ;
#131 = EDGE_LOOP ( 'NONE', ( #252, #3, #62, #26 ) ) ;
#132 = EDGE_LOOP ( 'NONE', ( #15, #58, #220, #207 ) ) ;
#133 = AXIS2_PLACEMENT_3D ( 'NONE', #199, #136, #222 ) ;
#134 = ADVANCED_FACE ( 'NONE', ( #295 ), #296, .F. ) ;
#135 = LINE ( 'NONE', #112, #224 ) ;
#136 = DIRECTION ( 'NONE',  ( 0.000000000000000000, 1.000000000000000000, 0.000000000000000000 ) ) ;
#137 = AXIS2_PLACEMENT_3D ( 'NONE', #144, #142, #59 ) ;
#138 = FACE_OUTER_BOUND ( 'NONE', #244, .T. ) ;
#139 = FACE_BOUND ( 'NONE', #243, .T. ) ;
#140 = ORIENTED_EDGE ( 'NONE', *, *, #17, .T. ) ;
#141 = CYLINDRICAL_SURFACE ( 'NONE', #14, 14.75000000000000000 ) ;
#142 = DIRECTION ( 'NONE',  ( -0.000000000000000000, -1.000000000000000000, -0.000000000000000000 ) ) ;
#143 = VERTEX_POINT ( 'NONE', #156 ) ;
#144 = CARTESIAN_POINT ( 'NONE',  ( 0.000000000000000000, 1.253124999999998490, 0.000000000000000000 ) ) ;
#145 = PRODUCT_DEFINITION_CONTEXT ( 'detailed design', #219, 'design' ) ;
#146 = VERTEX_POINT ( 'NONE', #45 ) ;
#147 = CARTESIAN_POINT ( 'NONE',  ( 0.000000000000000000, 0.05312499999999830552, -14.75000000000000000 ) ) ;
#148 = CARTESIAN_POINT ( 'NONE',  ( 0.000000000000000000, 0.7531249999999983791, 0.000000000000000000 ) ) ;
#149 = ADVANCED_FACE ( 'NONE', ( #64 ), #151, .T. ) ;
#150 = ORIENTED_EDGE ( 'NONE', *, *, #44, .F. ) ;
#151 = CONICAL_SURFACE ( 'NONE', #61, 15.00000000000000000, 1.107148717794090853 ) ;
#152 = ORIENTED_EDGE ( 'NONE', *, *, #42, .T. ) ;
#153 = EDGE_CURVE ( 'NONE', #263, #98, #89, .T. ) ;
#154 = DIRECTION ( 'NONE',  ( -0.000000000000000000, -1.000000000000000000, -0.000000000000000000 ) ) ;
#155 = CIRCLE ( 'NONE', #193, 14.75000000000000000 ) ;
#156 = CARTESIAN_POINT ( 'NONE',  ( 1.806354028742345802E-15, -0.3468750000000017097, 14.75000000000000000 ) ) ;
#157 = VECTOR ( 'NONE', #189, 1000.000000000000000 ) ;
#158 = FACE_OUTER_BOUND ( 'NONE', #196, .T. ) ;
#159 =( NAMED_UNIT ( * ) PLANE_ANGLE_UNIT ( ) SI_UNIT ( $, .RADIAN. ) );
#160 = ORIENTED_EDGE ( 'NONE', *, *, #153, .T. ) ;
#161 = CARTESIAN_POINT ( 'NONE',  ( 0.000000000000000000, 1.253124999999998490, -15.00000000000000000 ) ) ;
#162 = CARTESIAN_POINT ( 'NONE',  ( 1.806354028742345802E-15, 0.05312499999999830552, 14.75000000000000000 ) ) ;
#163 = EDGE_CURVE ( 'NONE', #263, #279, #135, .T. ) ;
#164 = EDGE_LOOP ( 'NONE', ( #218, #160, #85, #194 ) ) ;
#165 = CARTESIAN_POINT ( 'NONE',  ( 0.000000000000000000, -0.3468750000000016542, -16.00000000000000000 ) ) ;
#166 = SURFACE_SIDE_STYLE ('',( #52 ) ) ;
#167 = CARTESIAN_POINT ( 'NONE',  ( 1.806354028742345802E-15, 0.000000000000000000, 14.75000000000000000 ) ) ;
#168 = DIRECTION ( 'NONE',  ( -0.000000000000000000, -1.000000000000000000, -0.000000000000000000 ) ) ;
#169 = CARTESIAN_POINT ( 'NONE',  ( 0.000000000000000000, 0.000000000000000000, 0.000000000000000000 ) ) ;
#170 = EDGE_CURVE ( 'NONE', #268, #86, #201, .T. ) ;
#171 = AXIS2_PLACEMENT_3D ( 'NONE', #178, #102, #8 ) ;
#172 = VERTEX_POINT ( 'NONE', #248 ) ;
#173 = ORIENTED_EDGE ( 'NONE', *, *, #256, .T. ) ;
#174 = AXIS2_PLACEMENT_3D ( 'NONE', #175, #272, #90 ) ;
#175 = CARTESIAN_POINT ( 'NONE',  ( 0.000000000000000000, 0.000000000000000000, 0.000000000000000000 ) ) ;
#176 = DIRECTION ( 'NONE',  ( -0.000000000000000000, -1.000000000000000000, -0.000000000000000000 ) ) ;
#177 = CIRCLE ( 'NONE', #287, 16.00000000000000000 ) ;
#178 = CARTESIAN_POINT ( 'NONE',  ( 0.000000000000000000, 0.000000000000000000, 0.000000000000000000 ) ) ;
#179 = ORIENTED_EDGE ( 'NONE', *, *, #265, .F. ) ;
#180 = DIRECTION ( 'NONE',  ( -0.000000000000000000, -1.000000000000000000, -0.000000000000000000 ) ) ;
#181 = PRODUCT_DEFINITION_FORMATION_WITH_SPECIFIED_SOURCE ( 'ANY', '', #105, .NOT_KNOWN. ) ;
#182 = EDGE_CURVE ( 'NONE', #111, #172, #270, .T. ) ;
#183 = LINE ( 'NONE', #57, #157 ) ;
#184 = ORIENTED_EDGE ( 'NONE', *, *, #265, .T. ) ;
#185 = DIRECTION ( 'NONE',  ( 0.000000000000000000, 0.000000000000000000, -1.000000000000000000 ) ) ;
#186 = FACE_OUTER_BOUND ( 'NONE', #115, .T. ) ;
#187 = SHAPE_DEFINITION_REPRESENTATION ( #7, #40 ) ;
#188 = DIRECTION ( 'NONE',  ( -0.000000000000000000, -1.000000000000000000, -0.000000000000000000 ) ) ;
#189 = DIRECTION ( 'NONE',  ( -0.000000000000000000, -1.000000000000000000, -0.000000000000000000 ) ) ;
#190 = AXIS2_PLACEMENT_3D ( 'NONE', #254, #231, #238 ) ;
#191 = DIRECTION ( 'NONE',  ( 0.000000000000000000, 0.000000000000000000, -1.000000000000000000 ) ) ;
#192 = CARTESIAN_POINT ( 'NONE',  ( 0.000000000000000000, -0.3468750000000017097, 0.000000000000000000 ) ) ;
#193 = AXIS2_PLACEMENT_3D ( 'NONE', #284, #107, #81 ) ;
#194 = ORIENTED_EDGE ( 'NONE', *, *, #27, .F. ) ;
#195 = ORIENTED_EDGE ( 'NONE', *, *, #163, .T. ) ;
#196 = EDGE_LOOP ( 'NONE', ( #152, #173, #257, #233 ) ) ;
#197 = AXIS2_PLACEMENT_3D ( 'NONE', #192, #55, #1 ) ;
#198 = EDGE_CURVE ( 'NONE', #146, #111, #80, .T. ) ;
#199 = CARTESIAN_POINT ( 'NONE',  ( 0.000000000000000000, -0.3468750000000017097, 16.00000000000000000 ) ) ;
#200 = DIRECTION ( 'NONE',  ( 0.000000000000000000, -1.000000000000000000, -0.000000000000000000 ) ) ;
#201 = LINE ( 'NONE', #66, #68 ) ;
#202 = ORIENTED_EDGE ( 'NONE', *, *, #130, .T. ) ;
#203 = ADVANCED_FACE ( 'NONE', ( #186 ), #128, .T. ) ;
#204 = LINE ( 'NONE', #54, #235 ) ;
#205 = DIRECTION ( 'NONE',  ( -0.000000000000000000, -1.000000000000000000, -0.000000000000000000 ) ) ;
#206 = APPLICATION_PROTOCOL_DEFINITION ( 'draft international standard', 'automotive_design', 1998, #36 ) ;
#207 = ORIENTED_EDGE ( 'NONE', *, *, #44, .T. ) ;
#208 = AXIS2_PLACEMENT_3D ( 'NONE', #281, #214, #29 ) ;
#209 = DIRECTION ( 'NONE',  ( -0.000000000000000000, -1.000000000000000000, -0.000000000000000000 ) ) ;
#210 = STYLED_ITEM ( 'NONE', ( #283 ), #286 ) ;
#211 = DIRECTION ( 'NONE',  ( 0.000000000000000000, 0.000000000000000000, -1.000000000000000000 ) ) ;
#212 = ORIENTED_EDGE ( 'NONE', *, *, #42, .F. ) ;
#213 = ORIENTED_EDGE ( 'NONE', *, *, #49, .T. ) ;
#214 = DIRECTION ( 'NONE',  ( -0.000000000000000000, -1.000000000000000000, -0.000000000000000000 ) ) ;
#215 = VECTOR ( 'NONE', #74, 1000.000000000000000 ) ;
#216 = EDGE_CURVE ( 'NONE', #98, #16, #11, .T. ) ;
#217 = AXIS2_PLACEMENT_3D ( 'NONE', #280, #76, #228 ) ;
#218 = ORIENTED_EDGE ( 'NONE', *, *, #49, .F. ) ;
#219 = APPLICATION_CONTEXT ( 'automotive_design' ) ;
#220 = ORIENTED_EDGE ( 'NONE', *, *, #170, .T. ) ;
#221 = AXIS2_PLACEMENT_3D ( 'NONE', #225, #22, #297 ) ;
#222 = DIRECTION ( 'NONE',  ( 0.000000000000000000, -0.000000000000000000, 1.000000000000000000 ) ) ;
#223 = DIRECTION ( 'NONE',  ( 0.000000000000000000, 0.000000000000000000, -1.000000000000000000 ) ) ;
#224 = VECTOR ( 'NONE', #114, 1000.000000000000114 ) ;
#225 = CARTESIAN_POINT ( 'NONE',  ( 0.000000000000000000, 0.05312499999999830552, 0.000000000000000000 ) ) ;
#226 = PRODUCT_RELATED_PRODUCT_CATEGORY ( 'part', '', ( #105 ) ) ;
#227 = ORIENTED_EDGE ( 'NONE', *, *, #285, .F. ) ;
#228 = DIRECTION ( 'NONE',  ( 0.000000000000000000, 0.000000000000000000, -1.000000000000000000 ) ) ;
#229 = ORIENTED_EDGE ( 'NONE', *, *, #285, .T. ) ;
#230 = DIRECTION ( 'NONE',  ( -0.000000000000000000, -1.000000000000000000, -0.000000000000000000 ) ) ;
#231 = DIRECTION ( 'NONE',  ( -0.000000000000000000, -1.000000000000000000, -0.000000000000000000 ) ) ;
#232 = CARTESIAN_POINT ( 'NONE',  ( 0.000000000000000000, 0.05312499999999828471, 14.75000000000000000 ) ) ;
#233 = ORIENTED_EDGE ( 'NONE', *, *, #198, .F. ) ;
#234 = ADVANCED_FACE ( 'NONE', ( #158 ), #96, .T. ) ;
#235 = VECTOR ( 'NONE', #258, 1000.000000000000114 ) ;
#236 = CARTESIAN_POINT ( 'NONE',  ( 0.000000000000000000, 0.000000000000000000, 0.000000000000000000 ) ) ;
#237 = DIRECTION ( 'NONE',  ( -0.000000000000000000, -1.000000000000000000, -0.000000000000000000 ) ) ;
#238 = DIRECTION ( 'NONE',  ( 0.000000000000000000, 0.000000000000000000, -1.000000000000000000 ) ) ;
#239 = UNCERTAINTY_MEASURE_WITH_UNIT (LENGTH_MEASURE( 1.000000000000000082E-05 ), #262, 'distance_accuracy_value', 'NONE');
#240 = CARTESIAN_POINT ( 'NONE',  ( 0.000000000000000000, 0.000000000000000000, 0.000000000000000000 ) ) ;
#241 =( GEOMETRIC_REPRESENTATION_CONTEXT ( 3 ) GLOBAL_UNCERTAINTY_ASSIGNED_CONTEXT ( ( #239 ) ) GLOBAL_UNIT_ASSIGNED_CONTEXT ( ( #262, #264, #25 ) ) REPRESENTATION_CONTEXT ( 'NONE', 'WORKASPACE' ) );
#242 = EDGE_CURVE ( 'NONE', #16, #98, #87, .T. ) ;
#243 = EDGE_LOOP ( 'NONE', ( #117, #229 ) ) ;
#244 = EDGE_LOOP ( 'NONE', ( #290, #293 ) ) ;
#245 = ORIENTED_EDGE ( 'NONE', *, *, #27, .T. ) ;
#246 = CIRCLE ( 'NONE', #217, 16.00000000000000000 ) ;
#247 = DIRECTION ( 'NONE',  ( 0.000000000000000000, 0.000000000000000000, -1.000000000000000000 ) ) ;
#248 = CARTESIAN_POINT ( 'NONE',  ( 1.959434878635765131E-15, -0.3468750000000016542, 16.00000000000000000 ) ) ;
#249 = VECTOR ( 'NONE', #274, 1000.000000000000000 ) ;
#250 = FACE_OUTER_BOUND ( 'NONE', #9, .T. ) ;
#251 =( LENGTH_UNIT ( ) NAMED_UNIT ( * ) SI_UNIT ( .MILLI., .METRE. ) );
#252 = ORIENTED_EDGE ( 'NONE', *, *, #256, .F. ) ;
#253 = DIRECTION ( 'NONE',  ( 0.000000000000000000, 0.000000000000000000, -1.000000000000000000 ) ) ;
#254 = CARTESIAN_POINT ( 'NONE',  ( 0.000000000000000000, 0.05312499999999827083, 0.000000000000000000 ) ) ;
#255 = APPLICATION_PROTOCOL_DEFINITION ( 'draft international standard', 'automotive_design', 1998, #219 ) ;
#256 = EDGE_CURVE ( 'NONE', #279, #172, #183, .T. ) ;
#257 = ORIENTED_EDGE ( 'NONE', *, *, #182, .F. ) ;
#258 = DIRECTION ( 'NONE',  ( 0.000000000000000000, -0.4472135954999575946, -0.8944271909999159664 ) ) ;
#259 = DIRECTION ( 'NONE',  ( 0.000000000000000000, 0.000000000000000000, -1.000000000000000000 ) ) ;
#260 = VECTOR ( 'NONE', #237, 1000.000000000000000 ) ;
#261 = CARTESIAN_POINT ( 'NONE',  ( 0.000000000000000000, 0.05312499999999827083, -15.00000000000000000 ) ) ;
#262 =( LENGTH_UNIT ( ) NAMED_UNIT ( * ) SI_UNIT ( .MILLI., .METRE. ) );
#263 = VERTEX_POINT ( 'NONE', #33 ) ;
#264 =( NAMED_UNIT ( * ) PLANE_ANGLE_UNIT ( ) SI_UNIT ( $, .RADIAN. ) );
#265 = EDGE_CURVE ( 'NONE', #143, #86, #37, .T. ) ;
#266 = AXIS2_PLACEMENT_3D ( 'NONE', #38, #168, #116 ) ;
#267 = AXIS2_PLACEMENT_3D ( 'NONE', #232, #200, #70 ) ;
#268 = VERTEX_POINT ( 'NONE', #147 ) ;
#269 = VERTEX_POINT ( 'NONE', #162 ) ;
#270 = CIRCLE ( 'NONE', #19, 16.00000000000000000 ) ;
#271 = ADVANCED_FACE ( 'NONE', ( #250 ), #127, .F. ) ;
#272 = DIRECTION ( 'NONE',  ( -0.000000000000000000, -1.000000000000000000, -0.000000000000000000 ) ) ;
#273 = CIRCLE ( 'NONE', #266, 15.00000000000000000 ) ;
#274 = DIRECTION ( 'NONE',  ( -0.000000000000000000, -1.000000000000000000, -0.000000000000000000 ) ) ;
#275 = FACE_OUTER_BOUND ( 'NONE', #276, .T. ) ;
#276 = EDGE_LOOP ( 'NONE', ( #39, #289 ) ) ;
#277 = FACE_OUTER_BOUND ( 'NONE', #110, .T. ) ;
#278 = CARTESIAN_POINT ( 'NONE',  ( 0.000000000000000000, -0.3468750000000016542, 0.000000000000000000 ) ) ;
#279 = VERTEX_POINT ( 'NONE', #125 ) ;
#280 = CARTESIAN_POINT ( 'NONE',  ( 0.000000000000000000, 0.7531249999999983791, 0.000000000000000000 ) ) ;
#281 = CARTESIAN_POINT ( 'NONE',  ( 0.000000000000000000, 0.05312499999999830552, 0.000000000000000000 ) ) ;
#282 = LINE ( 'NONE', #56, #260 ) ;
#283 = PRESENTATION_STYLE_ASSIGNMENT (( #104 ) ) ;
#284 = CARTESIAN_POINT ( 'NONE',  ( 0.000000000000000000, -0.3468750000000017097, 0.000000000000000000 ) ) ;
#285 = EDGE_CURVE ( 'NONE', #269, #268, #78, .T. ) ;
#286 = MANIFOLD_SOLID_BREP ( 'Revolve1', #91 ) ;
#287 = AXIS2_PLACEMENT_3D ( 'NONE', #148, #34, #12 ) ;
#288 = EDGE_CURVE ( 'NONE', #268, #269, #4, .T. ) ;
#289 = ORIENTED_EDGE ( 'NONE', *, *, #216, .F. ) ;
#290 = ORIENTED_EDGE ( 'NONE', *, *, #182, .T. ) ;
#291 = AXIS2_PLACEMENT_3D ( 'NONE', #82, #205, #211 ) ;
#292 = ADVANCED_FACE ( 'NONE', ( #275, #139 ), #21, .F. ) ;
#293 = ORIENTED_EDGE ( 'NONE', *, *, #63, .T. ) ;
#294 = CARTESIAN_POINT ( 'NONE',  ( 0.000000000000000000, 1.253124999999998490, 0.000000000000000000 ) ) ;
#295 = FACE_OUTER_BOUND ( 'NONE', #164, .T. ) ;
#296 = CYLINDRICAL_SURFACE ( 'NONE', #174, 15.00000000000000000 ) ;
#297 = DIRECTION ( 'NONE',  ( 0.000000000000000000, 0.000000000000000000, -1.000000000000000000 ) ) ;
#298 = ORIENTED_EDGE ( 'NONE', *, *, #130, .F. ) ;
#299 = CARTESIAN_POINT ( 'NONE',  ( 0.000000000000000000, -0.3468750000000017097, -14.75000000000000000 ) ) ;
ENDSEC;
END-ISO-10303-21;
