ISO-10303-21;
HEADER;
FILE_DESCRIPTION (( 'STEP AP214' ),
    '1' );
FILE_NAME ('Glass Bracket.STEP',
    '2024-01-16T15:18:40',
    ( '' ),
    ( '' ),
    'SwSTEP 2.0',
    'SolidWorks 2023',
    '' );
FILE_SCHEMA (( 'AUTOMOTIVE_DESIGN' ));
ENDSEC;

DATA;
#1 = ORIENTED_EDGE ( 'NONE', *, *, #92, .T. ) ;
#2 = ORIENTED_EDGE ( 'NONE', *, *, #11, .T. ) ;
#3 = EDGE_LOOP ( 'NONE', ( #15, #174 ) ) ;
#4 = CARTESIAN_POINT ( 'NONE',  ( 0.000000000000000000, -8.694992273946227961E-17, -16.00000000000000000 ) ) ;
#5 = DIRECTION ( 'NONE',  ( -0.000000000000000000, -1.000000000000000000, -0.000000000000000000 ) ) ;
#6 = DIRECTION ( 'NONE',  ( 0.000000000000000000, 0.000000000000000000, -1.000000000000000000 ) ) ;
#7 = EDGE_CURVE ( 'NONE', #109, #188, #50, .T. ) ;
#8 = SURFACE_STYLE_USAGE ( .BOTH. , #118 ) ;
#9 = CARTESIAN_POINT ( 'NONE',  ( 0.000000000000000000, 2.299999999999999822, 14.75000000000000000 ) ) ;
#10 = EDGE_LOOP ( 'NONE', ( #230, #63, #1, #249 ) ) ;
#11 = EDGE_CURVE ( 'NONE', #278, #104, #35, .T. ) ;
#12 = ORIENTED_EDGE ( 'NONE', *, *, #84, .F. ) ;
#13 = VECTOR ( 'NONE', #229, 1000.000000000000000 ) ;
#14 = VERTEX_POINT ( 'NONE', #241 ) ;
#15 = ORIENTED_EDGE ( 'NONE', *, *, #216, .T. ) ;
#16 = EDGE_CURVE ( 'NONE', #278, #103, #126, .T. ) ;
#17 = ORIENTED_EDGE ( 'NONE', *, *, #205, .T. ) ;
#18 = PRODUCT_DEFINITION_CONTEXT ( 'detailed design', #245, 'design' ) ;
#19 = CYLINDRICAL_SURFACE ( 'NONE', #121, 14.75000000000000000 ) ;
#20 = AXIS2_PLACEMENT_3D ( 'NONE', #9, #185, #28 ) ;
#21 = DIRECTION ( 'NONE',  ( 0.000000000000000000, 0.000000000000000000, -1.000000000000000000 ) ) ;
#22 = DIRECTION ( 'NONE',  ( -0.000000000000000000, -1.000000000000000000, -0.000000000000000000 ) ) ;
#23 = PRODUCT_DEFINITION_SHAPE ( 'NONE', 'NONE',  #221 ) ;
#24 = DIRECTION ( 'NONE',  ( -0.000000000000000000, -1.000000000000000000, -0.000000000000000000 ) ) ;
#25 = AXIS2_PLACEMENT_3D ( 'NONE', #67, #112, #94 ) ;
#26 = CARTESIAN_POINT ( 'NONE',  ( 0.000000000000000000, -4.347496136973113980E-17, 15.25000000000000178 ) ) ;
#27 = DIRECTION ( 'NONE',  ( 0.000000000000000000, 0.000000000000000000, -1.000000000000000000 ) ) ;
#28 = DIRECTION ( 'NONE',  ( 0.000000000000000000, -0.000000000000000000, 1.000000000000000000 ) ) ;
#29 = ADVANCED_FACE ( 'NONE', ( #66 ), #258, .F. ) ;
#30 = FACE_OUTER_BOUND ( 'NONE', #275, .T. ) ;
#31 = CIRCLE ( 'NONE', #72, 14.75000000000000000 ) ;
#32 = SURFACE_STYLE_FILL_AREA ( #223 ) ;
#33 = DIRECTION ( 'NONE',  ( 0.000000000000000000, 0.000000000000000000, -1.000000000000000000 ) ) ;
#34 =( NAMED_UNIT ( * ) SI_UNIT ( $, .STERADIAN. ) SOLID_ANGLE_UNIT ( ) );
#35 = CIRCLE ( 'NONE', #206, 16.00000000000000000 ) ;
#36 = CARTESIAN_POINT ( 'NONE',  ( 0.000000000000000000, 0.000000000000000000, 0.000000000000000000 ) ) ;
#37 = CARTESIAN_POINT ( 'NONE',  ( 1.806354028742345802E-15, 0.000000000000000000, 14.75000000000000000 ) ) ;
#38 = VERTEX_POINT ( 'NONE', #149 ) ;
#39 = EDGE_CURVE ( 'NONE', #103, #212, #191, .T. ) ;
#40 = ORIENTED_EDGE ( 'NONE', *, *, #272, .T. ) ;
#41 = AXIS2_PLACEMENT_3D ( 'NONE', #194, #77, #98 ) ;
#42 = ORIENTED_EDGE ( 'NONE', *, *, #16, .T. ) ;
#43 = PRESENTATION_LAYER_ASSIGNMENT (  '', '', ( #123 ) ) ;
#44 = PLANE ( 'NONE',  #41 ) ;
#45 = ADVANCED_FACE ( 'NONE', ( #209 ), #152, .T. ) ;
#46 = CIRCLE ( 'NONE', #64, 15.25000000000000178 ) ;
#47 = EDGE_LOOP ( 'NONE', ( #232, #58 ) ) ;
#48 = DIRECTION ( 'NONE',  ( -0.000000000000000000, -1.000000000000000000, -0.000000000000000000 ) ) ;
#49 = DIRECTION ( 'NONE',  ( 0.000000000000000000, 0.000000000000000000, -1.000000000000000000 ) ) ;
#50 = CIRCLE ( 'NONE', #101, 15.25000000000000000 ) ;
#51 = ORIENTED_EDGE ( 'NONE', *, *, #216, .F. ) ;
#52 = CARTESIAN_POINT ( 'NONE',  ( 0.000000000000000000, 2.299999999999999822, -14.75000000000000000 ) ) ;
#53 = CARTESIAN_POINT ( 'NONE',  ( 0.000000000000000000, 0.000000000000000000, -14.75000000000000000 ) ) ;
#54 = CARTESIAN_POINT ( 'NONE',  ( 0.000000000000000000, 2.899999999999999911, -16.00000000000000000 ) ) ;
#55 = CARTESIAN_POINT ( 'NONE',  ( 1.806354028742345802E-15, 2.899999999999999911, 14.75000000000000000 ) ) ;
#56 = AXIS2_PLACEMENT_3D ( 'NONE', #222, #202, #6 ) ;
#57 = ADVANCED_FACE ( 'NONE', ( #192 ), #19, .F. ) ;
#58 = ORIENTED_EDGE ( 'NONE', *, *, #92, .F. ) ;
#59 = AXIS2_PLACEMENT_3D ( 'NONE', #196, #22, #197 ) ;
#60 = APPLICATION_PROTOCOL_DEFINITION ( 'draft international standard', 'automotive_design', 1998, #198 ) ;
#61 = UNCERTAINTY_MEASURE_WITH_UNIT (LENGTH_MEASURE( 1.000000000000000082E-05 ), #207, 'distance_accuracy_value', 'NONE');
#62 = ORIENTED_EDGE ( 'NONE', *, *, #186, .T. ) ;
#63 = ORIENTED_EDGE ( 'NONE', *, *, #265, .T. ) ;
#64 = AXIS2_PLACEMENT_3D ( 'NONE', #181, #183, #33 ) ;
#65 = ORIENTED_EDGE ( 'NONE', *, *, #39, .T. ) ;
#66 = FACE_OUTER_BOUND ( 'NONE', #125, .T. ) ;
#67 = CARTESIAN_POINT ( 'NONE',  ( 0.000000000000000000, 0.000000000000000000, 0.000000000000000000 ) ) ;
#68 = AXIS2_PLACEMENT_3D ( 'NONE', #70, #114, #147 ) ;
#69 = DIRECTION ( 'NONE',  ( -0.000000000000000000, -1.000000000000000000, -0.000000000000000000 ) ) ;
#70 = CARTESIAN_POINT ( 'NONE',  ( 0.000000000000000000, 0.000000000000000000, 0.000000000000000000 ) ) ;
#71 = DIRECTION ( 'NONE',  ( 0.000000000000000000, -0.000000000000000000, 1.000000000000000000 ) ) ;
#72 = AXIS2_PLACEMENT_3D ( 'NONE', #108, #48, #127 ) ;
#73 = CARTESIAN_POINT ( 'NONE',  ( 0.000000000000000000, 0.000000000000000000, 0.000000000000000000 ) ) ;
#74 = DIRECTION ( 'NONE',  ( 0.000000000000000000, 0.000000000000000000, -1.000000000000000000 ) ) ;
#75 = CARTESIAN_POINT ( 'NONE',  ( 0.000000000000000000, 2.299999999999999822, 0.000000000000000000 ) ) ;
#76 = CIRCLE ( 'NONE', #233, 15.25000000000000178 ) ;
#77 = DIRECTION ( 'NONE',  ( 0.000000000000000000, -1.000000000000000000, -0.000000000000000000 ) ) ;
#78 = CARTESIAN_POINT ( 'NONE',  ( 0.000000000000000000, 2.299999999999999822, 0.000000000000000000 ) ) ;
#79 = PRESENTATION_STYLE_ASSIGNMENT (( #8 ) ) ;
#80 = EDGE_LOOP ( 'NONE', ( #239, #40 ) ) ;
#81 = CARTESIAN_POINT ( 'NONE',  ( 0.000000000000000000, 2.899999999999999911, -14.75000000000000000 ) ) ;
#82 = EDGE_LOOP ( 'NONE', ( #170, #195, #271, #17 ) ) ;
#83 = VECTOR ( 'NONE', #99, 1000.000000000000000 ) ;
#84 = EDGE_CURVE ( 'NONE', #104, #212, #91, .T. ) ;
#85 = ORIENTED_EDGE ( 'NONE', *, *, #88, .F. ) ;
#86 = AXIS2_PLACEMENT_3D ( 'NONE', #75, #124, #142 ) ;
#87 = ORIENTED_EDGE ( 'NONE', *, *, #205, .F. ) ;
#88 = EDGE_CURVE ( 'NONE', #212, #103, #277, .T. ) ;
#89 = CARTESIAN_POINT ( 'NONE',  ( 0.000000000000000000, 0.000000000000000000, -16.00000000000000000 ) ) ;
#90 = EDGE_LOOP ( 'NONE', ( #87, #164 ) ) ;
#91 = LINE ( 'NONE', #89, #163 ) ;
#92 = EDGE_CURVE ( 'NONE', #14, #228, #31, .T. ) ;
#93 = CARTESIAN_POINT ( 'NONE',  ( 1.959434878635765131E-15, 0.000000000000000000, 16.00000000000000000 ) ) ;
#94 = DIRECTION ( 'NONE',  ( 0.000000000000000000, 0.000000000000000000, -1.000000000000000000 ) ) ;
#95 = FACE_OUTER_BOUND ( 'NONE', #80, .T. ) ;
#96 = PLANE ( 'NONE',  #20 ) ;
#97 = ADVANCED_FACE ( 'NONE', ( #214, #128 ), #217, .F. ) ;
#98 = DIRECTION ( 'NONE',  ( 0.000000000000000000, 0.000000000000000000, -1.000000000000000000 ) ) ;
#99 = DIRECTION ( 'NONE',  ( -0.000000000000000000, -1.000000000000000000, -0.000000000000000000 ) ) ;
#100 = ADVANCED_FACE ( 'NONE', ( #153, #236 ), #44, .F. ) ;
#101 = AXIS2_PLACEMENT_3D ( 'NONE', #213, #172, #21 ) ;
#102 = DIRECTION ( 'NONE',  ( -0.000000000000000000, -1.000000000000000000, -0.000000000000000000 ) ) ;
#103 = VERTEX_POINT ( 'NONE', #263 ) ;
#104 = VERTEX_POINT ( 'NONE', #54 ) ;
#105 = LINE ( 'NONE', #37, #13 ) ;
#106 = ORIENTED_EDGE ( 'NONE', *, *, #110, .T. ) ;
#107 = DIRECTION ( 'NONE',  ( 0.000000000000000000, 0.000000000000000000, -1.000000000000000000 ) ) ;
#108 = CARTESIAN_POINT ( 'NONE',  ( 0.000000000000000000, 2.299999999999999822, 0.000000000000000000 ) ) ;
#109 = VERTEX_POINT ( 'NONE', #160 ) ;
#110 = EDGE_CURVE ( 'NONE', #188, #38, #135, .T. ) ;
#111 = PRODUCT ( 'Glass Bracket', 'Glass Bracket', '', ( #190 ) ) ;
#112 = DIRECTION ( 'NONE',  ( -0.000000000000000000, -1.000000000000000000, -0.000000000000000000 ) ) ;
#113 = AXIS2_PLACEMENT_3D ( 'NONE', #178, #134, #242 ) ;
#114 = DIRECTION ( 'NONE',  ( -0.000000000000000000, -1.000000000000000000, -0.000000000000000000 ) ) ;
#115 = DIRECTION ( 'NONE',  ( 0.000000000000000000, 0.000000000000000000, -1.000000000000000000 ) ) ;
#116 = CYLINDRICAL_SURFACE ( 'NONE', #56, 15.25000000000000000 ) ;
#117 = CYLINDRICAL_SURFACE ( 'NONE', #129, 14.75000000000000000 ) ;
#118 = SURFACE_SIDE_STYLE ('',( #32 ) ) ;
#119 =( GEOMETRIC_REPRESENTATION_CONTEXT ( 3 ) GLOBAL_UNCERTAINTY_ASSIGNED_CONTEXT ( ( #270 ) ) GLOBAL_UNIT_ASSIGNED_CONTEXT ( ( #137, #122, #34 ) ) REPRESENTATION_CONTEXT ( 'NONE', 'WORKASPACE' ) );
#120 = CYLINDRICAL_SURFACE ( 'NONE', #211, 16.00000000000000000 ) ;
#121 = AXIS2_PLACEMENT_3D ( 'NONE', #240, #69, #49 ) ;
#122 =( NAMED_UNIT ( * ) PLANE_ANGLE_UNIT ( ) SI_UNIT ( $, .RADIAN. ) );
#123 = STYLED_ITEM ( 'NONE', ( #79 ), #262 ) ;
#124 = DIRECTION ( 'NONE',  ( -0.000000000000000000, -1.000000000000000000, -0.000000000000000000 ) ) ;
#125 = EDGE_LOOP ( 'NONE', ( #146, #106, #276, #235 ) ) ;
#126 = LINE ( 'NONE', #93, #169 ) ;
#127 = DIRECTION ( 'NONE',  ( 0.000000000000000000, 0.000000000000000000, -1.000000000000000000 ) ) ;
#128 = FACE_OUTER_BOUND ( 'NONE', #253, .T. ) ;
#129 = AXIS2_PLACEMENT_3D ( 'NONE', #219, #133, #180 ) ;
#130 = FACE_OUTER_BOUND ( 'NONE', #10, .T. ) ;
#131 = EDGE_CURVE ( 'NONE', #38, #255, #46, .T. ) ;
#132 = FACE_OUTER_BOUND ( 'NONE', #82, .T. ) ;
#133 = DIRECTION ( 'NONE',  ( -0.000000000000000000, -1.000000000000000000, -0.000000000000000000 ) ) ;
#134 = DIRECTION ( 'NONE',  ( -0.000000000000000000, -1.000000000000000000, -0.000000000000000000 ) ) ;
#135 = LINE ( 'NONE', #246, #226 ) ;
#136 = CIRCLE ( 'NONE', #237, 14.75000000000000000 ) ;
#137 =( LENGTH_UNIT ( ) NAMED_UNIT ( * ) SI_UNIT ( .MILLI., .METRE. ) );
#138 = ORIENTED_EDGE ( 'NONE', *, *, #11, .F. ) ;
#139 = EDGE_CURVE ( 'NONE', #279, #228, #203, .T. ) ;
#140 = APPLICATION_PROTOCOL_DEFINITION ( 'draft international standard', 'automotive_design', 1998, #245 ) ;
#141 = ORIENTED_EDGE ( 'NONE', *, *, #176, .F. ) ;
#142 = DIRECTION ( 'NONE',  ( 0.000000000000000000, 0.000000000000000000, -1.000000000000000000 ) ) ;
#143 = ORIENTED_EDGE ( 'NONE', *, *, #176, .T. ) ;
#144 = CARTESIAN_POINT ( 'NONE',  ( 1.959434878635765131E-15, 2.899999999999999911, 16.00000000000000000 ) ) ;
#145 = ADVANCED_FACE ( 'NONE', ( #30 ), #120, .T. ) ;
#146 = ORIENTED_EDGE ( 'NONE', *, *, #272, .F. ) ;
#147 = DIRECTION ( 'NONE',  ( 0.000000000000000000, 0.000000000000000000, -1.000000000000000000 ) ) ;
#148 = AXIS2_PLACEMENT_3D ( 'NONE', #36, #251, #274 ) ;
#149 = CARTESIAN_POINT ( 'NONE',  ( 1.867586368699714165E-15, 0.000000000000000000, 15.25000000000000355 ) ) ;
#150 = CIRCLE ( 'NONE', #179, 16.00000000000000000 ) ;
#151 = DIRECTION ( 'NONE',  ( 0.000000000000000000, 0.000000000000000000, -1.000000000000000000 ) ) ;
#152 = CYLINDRICAL_SURFACE ( 'NONE', #25, 16.00000000000000000 ) ;
#153 = FACE_OUTER_BOUND ( 'NONE', #257, .T. ) ;
#154 = CLOSED_SHELL ( 'NONE', ( #29, #193, #45, #97, #145, #100, #57, #173, #254 ) ) ;
#155 = LINE ( 'NONE', #199, #83 ) ;
#156 = DIRECTION ( 'NONE',  ( 0.000000000000000000, 0.000000000000000000, -1.000000000000000000 ) ) ;
#157 = COLOUR_RGB ( '',0.7921568627450980005, 0.8196078431372548767, 0.9333333333333333481 ) ;
#158 = PRODUCT_RELATED_PRODUCT_CATEGORY ( 'part', '', ( #111 ) ) ;
#159 = DIRECTION ( 'NONE',  ( 0.000000000000000000, 0.000000000000000000, -1.000000000000000000 ) ) ;
#160 = CARTESIAN_POINT ( 'NONE',  ( 0.000000000000000000, 2.299999999999999822, -15.25000000000000000 ) ) ;
#161 = DIRECTION ( 'NONE',  ( -0.000000000000000000, -1.000000000000000000, -0.000000000000000000 ) ) ;
#162 = EDGE_LOOP ( 'NONE', ( #143, #42, #85, #12 ) ) ;
#163 = VECTOR ( 'NONE', #171, 1000.000000000000000 ) ;
#164 = ORIENTED_EDGE ( 'NONE', *, *, #131, .F. ) ;
#165 = ORIENTED_EDGE ( 'NONE', *, *, #16, .F. ) ;
#166 = EDGE_CURVE ( 'NONE', #167, #279, #136, .T. ) ;
#167 = VERTEX_POINT ( 'NONE', #55 ) ;
#168 =( NAMED_UNIT ( * ) PLANE_ANGLE_UNIT ( ) SI_UNIT ( $, .RADIAN. ) );
#169 = VECTOR ( 'NONE', #24, 1000.000000000000000 ) ;
#170 = ORIENTED_EDGE ( 'NONE', *, *, #110, .F. ) ;
#171 = DIRECTION ( 'NONE',  ( -0.000000000000000000, -1.000000000000000000, -0.000000000000000000 ) ) ;
#172 = DIRECTION ( 'NONE',  ( -0.000000000000000000, -1.000000000000000000, -0.000000000000000000 ) ) ;
#173 = ADVANCED_FACE ( 'NONE', ( #220, #95 ), #96, .F. ) ;
#174 = ORIENTED_EDGE ( 'NONE', *, *, #166, .T. ) ;
#175 = DIRECTION ( 'NONE',  ( -0.000000000000000000, -1.000000000000000000, -0.000000000000000000 ) ) ;
#176 = EDGE_CURVE ( 'NONE', #104, #278, #150, .T. ) ;
#177 = DIRECTION ( 'NONE',  ( 0.000000000000000000, 1.000000000000000000, 0.000000000000000000 ) ) ;
#178 = CARTESIAN_POINT ( 'NONE',  ( 0.000000000000000000, 2.899999999999999911, 0.000000000000000000 ) ) ;
#179 = AXIS2_PLACEMENT_3D ( 'NONE', #268, #161, #156 ) ;
#180 = DIRECTION ( 'NONE',  ( 0.000000000000000000, 0.000000000000000000, -1.000000000000000000 ) ) ;
#181 = CARTESIAN_POINT ( 'NONE',  ( 0.000000000000000000, 0.000000000000000000, 0.000000000000000000 ) ) ;
#182 = MECHANICAL_DESIGN_GEOMETRIC_PRESENTATION_REPRESENTATION (  '', ( #123 ), #248 ) ;
#183 = DIRECTION ( 'NONE',  ( -0.000000000000000000, -1.000000000000000000, -0.000000000000000000 ) ) ;
#184 = AXIS2_PLACEMENT_3D ( 'NONE', #26, #177, #71 ) ;
#185 = DIRECTION ( 'NONE',  ( 0.000000000000000000, 1.000000000000000000, 0.000000000000000000 ) ) ;
#186 = EDGE_CURVE ( 'NONE', #228, #14, #201, .T. ) ;
#187 = ORIENTED_EDGE ( 'NONE', *, *, #88, .T. ) ;
#188 = VERTEX_POINT ( 'NONE', #247 ) ;
#189 = EDGE_LOOP ( 'NONE', ( #260, #51, #208, #62 ) ) ;
#190 = PRODUCT_CONTEXT ( 'NONE', #198, 'mechanical' ) ;
#191 = CIRCLE ( 'NONE', #59, 16.00000000000000000 ) ;
#192 = FACE_OUTER_BOUND ( 'NONE', #189, .T. ) ;
#193 = ADVANCED_FACE ( 'NONE', ( #130 ), #117, .F. ) ;
#194 = CARTESIAN_POINT ( 'NONE',  ( 0.000000000000000000, 2.899999999999999911, 16.00000000000000000 ) ) ;
#195 = ORIENTED_EDGE ( 'NONE', *, *, #7, .F. ) ;
#196 = CARTESIAN_POINT ( 'NONE',  ( 0.000000000000000000, -8.694992273946227961E-17, 0.000000000000000000 ) ) ;
#197 = DIRECTION ( 'NONE',  ( 0.000000000000000000, 0.000000000000000000, -1.000000000000000000 ) ) ;
#198 = APPLICATION_CONTEXT ( 'automotive_design' ) ;
#199 = CARTESIAN_POINT ( 'NONE',  ( 0.000000000000000000, 0.000000000000000000, -15.25000000000000000 ) ) ;
#200 = CARTESIAN_POINT ( 'NONE',  ( 0.000000000000000000, 2.899999999999999911, 0.000000000000000000 ) ) ;
#201 = CIRCLE ( 'NONE', #250, 14.75000000000000000 ) ;
#202 = DIRECTION ( 'NONE',  ( -0.000000000000000000, -1.000000000000000000, -0.000000000000000000 ) ) ;
#203 = LINE ( 'NONE', #53, #273 ) ;
#204 = DIRECTION ( 'NONE',  ( -0.000000000000000000, -1.000000000000000000, -0.000000000000000000 ) ) ;
#205 = EDGE_CURVE ( 'NONE', #255, #38, #76, .T. ) ;
#206 = AXIS2_PLACEMENT_3D ( 'NONE', #238, #259, #107 ) ;
#207 =( LENGTH_UNIT ( ) NAMED_UNIT ( * ) SI_UNIT ( .MILLI., .METRE. ) );
#208 = ORIENTED_EDGE ( 'NONE', *, *, #139, .T. ) ;
#209 = FACE_OUTER_BOUND ( 'NONE', #162, .T. ) ;
#210 = EDGE_CURVE ( 'NONE', #109, #255, #155, .T. ) ;
#211 = AXIS2_PLACEMENT_3D ( 'NONE', #261, #102, #74 ) ;
#212 = VERTEX_POINT ( 'NONE', #4 ) ;
#213 = CARTESIAN_POINT ( 'NONE',  ( 0.000000000000000000, 2.299999999999999822, 0.000000000000000000 ) ) ;
#214 = FACE_BOUND ( 'NONE', #90, .T. ) ;
#215 = PRODUCT_DEFINITION_FORMATION_WITH_SPECIFIED_SOURCE ( 'ANY', '', #111, .NOT_KNOWN. ) ;
#216 = EDGE_CURVE ( 'NONE', #279, #167, #218, .T. ) ;
#217 = PLANE ( 'NONE',  #184 ) ;
#218 = CIRCLE ( 'NONE', #113, 14.75000000000000000 ) ;
#219 = CARTESIAN_POINT ( 'NONE',  ( 0.000000000000000000, 0.000000000000000000, 0.000000000000000000 ) ) ;
#220 = FACE_BOUND ( 'NONE', #47, .T. ) ;
#221 = PRODUCT_DEFINITION ( 'UNKNOWN', '', #215, #18 ) ;
#222 = CARTESIAN_POINT ( 'NONE',  ( 0.000000000000000000, 0.000000000000000000, 0.000000000000000000 ) ) ;
#223 = FILL_AREA_STYLE ('',( #244 ) ) ;
#224 = DIRECTION ( 'NONE',  ( -0.000000000000000000, -1.000000000000000000, -0.000000000000000000 ) ) ;
#225 = CIRCLE ( 'NONE', #86, 15.25000000000000000 ) ;
#226 = VECTOR ( 'NONE', #204, 1000.000000000000000 ) ;
#227 = SHAPE_DEFINITION_REPRESENTATION ( #23, #231 ) ;
#228 = VERTEX_POINT ( 'NONE', #52 ) ;
#229 = DIRECTION ( 'NONE',  ( -0.000000000000000000, -1.000000000000000000, -0.000000000000000000 ) ) ;
#230 = ORIENTED_EDGE ( 'NONE', *, *, #166, .F. ) ;
#231 = ADVANCED_BREP_SHAPE_REPRESENTATION ( 'Glass Bracket', ( #262, #148 ), #119 ) ;
#232 = ORIENTED_EDGE ( 'NONE', *, *, #186, .F. ) ;
#233 = AXIS2_PLACEMENT_3D ( 'NONE', #73, #243, #27 ) ;
#234 = ORIENTED_EDGE ( 'NONE', *, *, #84, .T. ) ;
#235 = ORIENTED_EDGE ( 'NONE', *, *, #210, .F. ) ;
#236 = FACE_BOUND ( 'NONE', #3, .T. ) ;
#237 = AXIS2_PLACEMENT_3D ( 'NONE', #200, #224, #115 ) ;
#238 = CARTESIAN_POINT ( 'NONE',  ( 0.000000000000000000, 2.899999999999999911, 0.000000000000000000 ) ) ;
#239 = ORIENTED_EDGE ( 'NONE', *, *, #7, .T. ) ;
#240 = CARTESIAN_POINT ( 'NONE',  ( 0.000000000000000000, 0.000000000000000000, 0.000000000000000000 ) ) ;
#241 = CARTESIAN_POINT ( 'NONE',  ( 1.806354028742345802E-15, 2.299999999999999822, 14.75000000000000000 ) ) ;
#242 = DIRECTION ( 'NONE',  ( 0.000000000000000000, 0.000000000000000000, -1.000000000000000000 ) ) ;
#243 = DIRECTION ( 'NONE',  ( -0.000000000000000000, -1.000000000000000000, -0.000000000000000000 ) ) ;
#244 = FILL_AREA_STYLE_COLOUR ( '', #157 ) ;
#245 = APPLICATION_CONTEXT ( 'automotive_design' ) ;
#246 = CARTESIAN_POINT ( 'NONE',  ( 1.867586368699713770E-15, 0.000000000000000000, 15.25000000000000000 ) ) ;
#247 = CARTESIAN_POINT ( 'NONE',  ( 1.867586368699713770E-15, 2.299999999999999822, 15.25000000000000000 ) ) ;
#248 =( GEOMETRIC_REPRESENTATION_CONTEXT ( 3 ) GLOBAL_UNCERTAINTY_ASSIGNED_CONTEXT ( ( #61 ) ) GLOBAL_UNIT_ASSIGNED_CONTEXT ( ( #207, #168, #269 ) ) REPRESENTATION_CONTEXT ( 'NONE', 'WORKASPACE' ) );
#249 = ORIENTED_EDGE ( 'NONE', *, *, #139, .F. ) ;
#250 = AXIS2_PLACEMENT_3D ( 'NONE', #78, #5, #159 ) ;
#251 = DIRECTION ( 'NONE',  ( 0.000000000000000000, 0.000000000000000000, 1.000000000000000000 ) ) ;
#252 = ORIENTED_EDGE ( 'NONE', *, *, #39, .F. ) ;
#253 = EDGE_LOOP ( 'NONE', ( #187, #65 ) ) ;
#254 = ADVANCED_FACE ( 'NONE', ( #132 ), #116, .F. ) ;
#255 = VERTEX_POINT ( 'NONE', #264 ) ;
#256 = CARTESIAN_POINT ( 'NONE',  ( 0.000000000000000000, -8.694992273946227961E-17, 0.000000000000000000 ) ) ;
#257 = EDGE_LOOP ( 'NONE', ( #141, #138 ) ) ;
#258 = CYLINDRICAL_SURFACE ( 'NONE', #68, 15.25000000000000000 ) ;
#259 = DIRECTION ( 'NONE',  ( -0.000000000000000000, -1.000000000000000000, -0.000000000000000000 ) ) ;
#260 = ORIENTED_EDGE ( 'NONE', *, *, #265, .F. ) ;
#261 = CARTESIAN_POINT ( 'NONE',  ( 0.000000000000000000, 0.000000000000000000, 0.000000000000000000 ) ) ;
#262 = MANIFOLD_SOLID_BREP ( 'Revolve1', #154 ) ;
#263 = CARTESIAN_POINT ( 'NONE',  ( 1.959434878635765131E-15, -8.694992273946227961E-17, 16.00000000000000000 ) ) ;
#264 = CARTESIAN_POINT ( 'NONE',  ( 0.000000000000000000, 0.000000000000000000, -15.25000000000000178 ) ) ;
#265 = EDGE_CURVE ( 'NONE', #167, #14, #105, .T. ) ;
#266 = DIRECTION ( 'NONE',  ( -0.000000000000000000, -1.000000000000000000, -0.000000000000000000 ) ) ;
#267 = AXIS2_PLACEMENT_3D ( 'NONE', #256, #175, #151 ) ;
#268 = CARTESIAN_POINT ( 'NONE',  ( 0.000000000000000000, 2.899999999999999911, 0.000000000000000000 ) ) ;
#269 =( NAMED_UNIT ( * ) SI_UNIT ( $, .STERADIAN. ) SOLID_ANGLE_UNIT ( ) );
#270 = UNCERTAINTY_MEASURE_WITH_UNIT (LENGTH_MEASURE( 1.000000000000000082E-05 ), #137, 'distance_accuracy_value', 'NONE');
#271 = ORIENTED_EDGE ( 'NONE', *, *, #210, .T. ) ;
#272 = EDGE_CURVE ( 'NONE', #188, #109, #225, .T. ) ;
#273 = VECTOR ( 'NONE', #266, 1000.000000000000000 ) ;
#274 = DIRECTION ( 'NONE',  ( 1.000000000000000000, 0.000000000000000000, 0.000000000000000000 ) ) ;
#275 = EDGE_LOOP ( 'NONE', ( #165, #2, #234, #252 ) ) ;
#276 = ORIENTED_EDGE ( 'NONE', *, *, #131, .T. ) ;
#277 = CIRCLE ( 'NONE', #267, 16.00000000000000000 ) ;
#278 = VERTEX_POINT ( 'NONE', #144 ) ;
#279 = VERTEX_POINT ( 'NONE', #81 ) ;
ENDSEC;
END-ISO-10303-21;
