ISO-10303-21;
HEADER;
FILE_DESCRIPTION (( 'STEP AP214' ),
    '1' );
FILE_NAME ('mvmt bracket mk4.STEP',
    '2024-01-24T14:35:27',
    ( '' ),
    ( '' ),
    'SwSTEP 2.0',
    'SolidWorks 2023',
    '' );
FILE_SCHEMA (( 'AUTOMOTIVE_DESIGN' ));
ENDSEC;

DATA;
#1 = CARTESIAN_POINT ( 'NONE',  ( -15.85997314880078335, 0.3082804532274478482, 1.129627152534252499 ) ) ;
#2 = LINE ( 'NONE', #761, #853 ) ;
#3 = CARTESIAN_POINT ( 'NONE',  ( 9.125145670222622130, 1.549999999999999822, -11.26861644112609540 ) ) ;
#4 = ADVANCED_FACE ( 'NONE', ( #836, #832 ), #411, .T. ) ;
#5 = ORIENTED_EDGE ( 'NONE', *, *, #289, .F. ) ;
#6 = DIRECTION ( 'NONE',  ( -0.000000000000000000, 1.000000000000000000, -0.000000000000000000 ) ) ;
#7 = DIRECTION ( 'NONE',  ( -0.000000000000000000, -1.000000000000000000, -0.000000000000000000 ) ) ;
#8 = CARTESIAN_POINT ( 'NONE',  ( 0.000000000000000000, 0.000000000000000000, 0.000000000000000000 ) ) ;
#9 = AXIS2_PLACEMENT_3D ( 'NONE', #483, #688, #684 ) ;
#10 = EDGE_CURVE ( 'NONE', #893, #174, #352, .T. ) ;
#11 = ORIENTED_EDGE ( 'NONE', *, *, #440, .F. ) ;
#12 =( GEOMETRIC_REPRESENTATION_CONTEXT ( 3 ) GLOBAL_UNCERTAINTY_ASSIGNED_CONTEXT ( ( #476 ) ) GLOBAL_UNIT_ASSIGNED_CONTEXT ( ( #225, #228, #102 ) ) REPRESENTATION_CONTEXT ( 'NONE', 'WORKASPACE' ) );
#13 = CARTESIAN_POINT ( 'NONE',  ( -14.75000477890383976, 2.800046992559844128, -0.09745600816111928133 ) ) ;
#14 = PLANE ( 'NONE',  #731 ) ;
#15 = CARTESIAN_POINT ( 'NONE',  ( -14.74238762661059354, 2.723695462032671433, -0.4825474734441105862 ) ) ;
#16 = CARTESIAN_POINT ( 'NONE',  ( -9.512855920362417450, 1.549999999999999822, 10.54328891323014439 ) ) ;
#17 = CARTESIAN_POINT ( 'NONE',  ( -14.67353059082918776, 1.398652587687017279, 1.500000000000001110 ) ) ;
#18 = CARTESIAN_POINT ( 'NONE',  ( 0.000000000000000000, 0.000000000000000000, 0.000000000000000000 ) ) ;
#19 = VECTOR ( 'NONE', #648, 1000.000000000000000 ) ;
#20 = DIRECTION ( 'NONE',  ( 0.000000000000000000, -1.000000000000000000, 0.000000000000000000 ) ) ;
#21 = CARTESIAN_POINT ( 'NONE',  ( 9.767458575362267581, 0.7999999999999999334, -12.92426992052480017 ) ) ;
#22 = EDGE_CURVE ( 'NONE', #871, #460, #629, .T. ) ;
#23 = ORIENTED_EDGE ( 'NONE', *, *, #501, .T. ) ;
#24 = FACE_OUTER_BOUND ( 'NONE', #115, .T. ) ;
#25 =( NAMED_UNIT ( * ) PLANE_ANGLE_UNIT ( ) SI_UNIT ( $, .RADIAN. ) );
#26 = CARTESIAN_POINT ( 'NONE',  ( -15.84602032673527638, 2.054258073288520503, -1.311208287683456541 ) ) ;
#27 = ORIENTED_EDGE ( 'NONE', *, *, #55, .F. ) ;
#28 = EDGE_CURVE ( 'NONE', #299, #90, #768, .T. ) ;
#29 = DIRECTION ( 'NONE',  ( 0.000000000000000000, -1.000000000000000000, 0.000000000000000000 ) ) ;
#30 = CARTESIAN_POINT ( 'NONE',  ( -15.83294268172157437, 1.693216236305433720, -1.460668821573351650 ) ) ;
#31 = VERTEX_POINT ( 'NONE', #891 ) ;
#32 = ADVANCED_FACE ( 'NONE', ( #757 ), #535, .F. ) ;
#33 =( GEOMETRIC_REPRESENTATION_CONTEXT ( 3 ) GLOBAL_UNCERTAINTY_ASSIGNED_CONTEXT ( ( #130 ) ) GLOBAL_UNIT_ASSIGNED_CONTEXT ( ( #794, #25, #183 ) ) REPRESENTATION_CONTEXT ( 'NONE', 'WORKASPACE' ) );
#34 = CARTESIAN_POINT ( 'NONE',  ( -9.912332260833693454, 1.549999999999999822, 10.92282789166045376 ) ) ;
#35 = PRESENTATION_LAYER_ASSIGNMENT (  '', '', ( #161 ) ) ;
#36 = CYLINDRICAL_SURFACE ( 'NONE', #644, 13.94999999999999929 ) ;
#37 = ORIENTED_EDGE ( 'NONE', *, *, #807, .T. ) ;
#38 = AXIS2_PLACEMENT_3D ( 'NONE', #341, #62, #138 ) ;
#39 = EDGE_CURVE ( 'NONE', #771, #185, #290, .T. ) ;
#40 = DIRECTION ( 'NONE',  ( 0.000000000000000000, 0.000000000000000000, -1.000000000000000000 ) ) ;
#41 = DIRECTION ( 'NONE',  ( 0.000000000000000000, -1.000000000000000000, 0.000000000000000000 ) ) ;
#42 = CARTESIAN_POINT ( 'NONE',  ( -14.73100471794099953, -1.653273178848924648E-16, 0.7483314773547886656 ) ) ;
#43 = ORIENTED_EDGE ( 'NONE', *, *, #231, .F. ) ;
#44 = VERTEX_POINT ( 'NONE', #133 ) ;
#45 = PLANE ( 'NONE',  #56 ) ;
#46 = CARTESIAN_POINT ( 'NONE',  ( 0.000000000000000000, 0.7999999999999999334, 0.000000000000000000 ) ) ;
#47 = DIRECTION ( 'NONE',  ( 0.000000000000000000, 0.000000000000000000, -1.000000000000000000 ) ) ;
#48 = EDGE_LOOP ( 'NONE', ( #729, #349, #838, #578, #667, #550, #721, #515, #119, #367, #742, #888 ) ) ;
#49 = ORIENTED_EDGE ( 'NONE', *, *, #732, .F. ) ;
#50 = PRODUCT ( 'mvmt bracket mk4', 'mvmt bracket mk4', '', ( #532 ) ) ;
#51 = CARTESIAN_POINT ( 'NONE',  ( -15.86927688275092230, 0.1691465097629044345, -0.9904438948655557295 ) ) ;
#52 =( LENGTH_UNIT ( ) NAMED_UNIT ( * ) SI_UNIT ( .MILLI., .METRE. ) );
#53 = ORIENTED_EDGE ( 'NONE', *, *, #10, .T. ) ;
#54 = AXIS2_PLACEMENT_3D ( 'NONE', #740, #326, #47 ) ;
#55 = EDGE_CURVE ( 'NONE', #798, #157, #525, .T. ) ;
#56 = AXIS2_PLACEMENT_3D ( 'NONE', #793, #97, #310 ) ;
#57 = AXIS2_PLACEMENT_3D ( 'NONE', #196, #474, #348 ) ;
#58 = DIRECTION ( 'NONE',  ( 0.000000000000000000, -1.000000000000000000, 0.000000000000000000 ) ) ;
#59 = DIRECTION ( 'NONE',  ( 0.000000000000000000, 0.000000000000000000, -1.000000000000000000 ) ) ;
#60 = DIRECTION ( 'NONE',  ( 0.000000000000000000, -1.000000000000000000, 0.000000000000000000 ) ) ;
#61 = CARTESIAN_POINT ( 'NONE',  ( -15.83356290952719903, 0.9115308817268436004, 1.452119983360156352 ) ) ;
#62 = DIRECTION ( 'NONE',  ( -1.000000000000000000, -0.000000000000000000, -0.000000000000000000 ) ) ;
#63 = EDGE_LOOP ( 'NONE', ( #875, #327 ) ) ;
#64 = EDGE_CURVE ( 'NONE', #814, #444, #846, .T. ) ;
#65 = CARTESIAN_POINT ( 'NONE',  ( 0.000000000000000000, -1.653273178848924648E-16, 0.000000000000000000 ) ) ;
#66 = EDGE_LOOP ( 'NONE', ( #207, #447, #319, #741 ) ) ;
#67 = AXIS2_PLACEMENT_3D ( 'NONE', #72, #406, #683 ) ;
#68 = AXIS2_PLACEMENT_3D ( 'NONE', #502, #370, #653 ) ;
#69 = EDGE_LOOP ( 'NONE', ( #604, #43, #857 ) ) ;
#70 = VECTOR ( 'NONE', #292, 1000.000000000000000 ) ;
#71 = CARTESIAN_POINT ( 'NONE',  ( -9.512855920362417450, 0.000000000000000000, 10.54328891323014439 ) ) ;
#72 = CARTESIAN_POINT ( 'NONE',  ( 9.125145670222622130, 1.549999999999999822, -11.26861644112609540 ) ) ;
#73 = CARTESIAN_POINT ( 'NONE',  ( 9.767458575362267581, 0.7999999999999999334, -12.92426992052480017 ) ) ;
#74 = VERTEX_POINT ( 'NONE', #613 ) ;
#75 = CARTESIAN_POINT ( 'NONE',  ( 0.000000000000000000, 0.7999999999999999334, 0.000000000000000000 ) ) ;
#76 = DIRECTION ( 'NONE',  ( 0.000000000000000000, -1.000000000000000000, 0.000000000000000000 ) ) ;
#77 = CARTESIAN_POINT ( 'NONE',  ( -5.900000000000000355, 1.300000000000000266, -1.500000000000000222 ) ) ;
#78 = VERTEX_POINT ( 'NONE', #680 ) ;
#79 = CARTESIAN_POINT ( 'NONE',  ( -14.67834967101614474, 1.688171741925334146, 1.452211570534180929 ) ) ;
#80 = CARTESIAN_POINT ( 'NONE',  ( 9.767458575362267581, -1.200000000000000178, -13.87426992052479946 ) ) ;
#81 = EDGE_CURVE ( 'NONE', #626, #444, #201, .T. ) ;
#82 = CIRCLE ( 'NONE', #587, 15.90000000000000036 ) ;
#83 = COLOUR_RGB ( '',0.7921568627450980005, 0.8196078431372548767, 0.9333333333333333481 ) ;
#84 = FACE_OUTER_BOUND ( 'NONE', #504, .T. ) ;
#85 = CARTESIAN_POINT ( 'NONE',  ( 9.767458575362267581, 0.7999999999999999334, -13.87426992052479946 ) ) ;
#86 = CARTESIAN_POINT ( 'NONE',  ( -10.28361152361844866, 0.7999999999999999334, 12.12671983808077947 ) ) ;
#87 = CARTESIAN_POINT ( 'NONE',  ( -14.67353059082918776, 1.300000000000000044, 1.500000000000000222 ) ) ;
#88 = ADVANCED_FACE ( 'NONE', ( #621 ), #904, .T. ) ;
#89 = CARTESIAN_POINT ( 'NONE',  ( 0.000000000000000000, 3.399999999999999911, 0.000000000000000000 ) ) ;
#90 = VERTEX_POINT ( 'NONE', #210 ) ;
#91 = AXIS2_PLACEMENT_3D ( 'NONE', #743, #122, #773 ) ;
#92 = PRODUCT_DEFINITION ( 'UNKNOWN', '', #358, #899 ) ;
#93 = LINE ( 'NONE', #175, #19 ) ;
#94 = CARTESIAN_POINT ( 'NONE',  ( -15.90000000000000036, -1.200000000000000178, 0.000000000000000000 ) ) ;
#95 = ADVANCED_FACE ( 'NONE', ( #539 ), #824, .T. ) ;
#96 = ORIENTED_EDGE ( 'NONE', *, *, #309, .F. ) ;
#97 = DIRECTION ( 'NONE',  ( 0.000000000000000000, -1.000000000000000000, 0.000000000000000000 ) ) ;
#98 = CARTESIAN_POINT ( 'NONE',  ( -14.68203188135838921, 0.7846856916886713051, -1.414780400009920003 ) ) ;
#99 = CARTESIAN_POINT ( 'NONE',  ( -15.89621498135829825, 2.761253614919783939, 0.3916966463558262390 ) ) ;
#100 = ORIENTED_EDGE ( 'NONE', *, *, #848, .T. ) ;
#101 = EDGE_CURVE ( 'NONE', #545, #74, #301, .T. ) ;
#102 =( NAMED_UNIT ( * ) SI_UNIT ( $, .STERADIAN. ) SOLID_ANGLE_UNIT ( ) );
#103 = CARTESIAN_POINT ( 'NONE',  ( -15.87384728047395299, 2.492466606785751271, -0.9152203257704975004 ) ) ;
#104 = VERTEX_POINT ( 'NONE', #16 ) ;
#105 = CIRCLE ( 'NONE', #614, 14.75000000000000000 ) ;
#106 = CARTESIAN_POINT ( 'NONE',  ( -14.70525084313519493, 0.3302568942563703924, 1.151839860777607027 ) ) ;
#107 = CARTESIAN_POINT ( 'NONE',  ( 0.000000000000000000, 0.7999999999999999334, 0.000000000000000000 ) ) ;
#108 = CIRCLE ( 'NONE', #844, 0.9499999999999995115 ) ;
#109 = DIRECTION ( 'NONE',  ( 0.000000000000000000, 0.000000000000000000, -1.000000000000000000 ) ) ;
#110 = CIRCLE ( 'NONE', #572, 14.75000000000000000 ) ;
#111 = EDGE_LOOP ( 'NONE', ( #259, #609 ) ) ;
#112 = DIRECTION ( 'NONE',  ( 0.000000000000000000, -1.000000000000000000, 0.000000000000000000 ) ) ;
#113 = CARTESIAN_POINT ( 'NONE',  ( -13.95000446548703010, -0.2000415290315212535, -0.1296526741679799588 ) ) ;
#114 = LINE ( 'NONE', #590, #470 ) ;
#115 = EDGE_LOOP ( 'NONE', ( #382, #554, #203 ) ) ;
#116 = EDGE_CURVE ( 'NONE', #586, #229, #706, .T. ) ;
#117 = CARTESIAN_POINT ( 'NONE',  ( -14.68685552504561720, 0.6641720087439869635, -1.364981467190031328 ) ) ;
#118 = CYLINDRICAL_SURFACE ( 'NONE', #645, 14.75000000000000000 ) ;
#119 = ORIENTED_EDGE ( 'NONE', *, *, #738, .T. ) ;
#120 = ORIENTED_EDGE ( 'NONE', *, *, #413, .T. ) ;
#121 = CARTESIAN_POINT ( 'NONE',  ( 0.000000000000000000, 0.000000000000000000, 0.000000000000000000 ) ) ;
#122 = DIRECTION ( 'NONE',  ( 0.000000000000000000, -1.000000000000000000, -0.000000000000000000 ) ) ;
#123 = DIRECTION ( 'NONE',  ( 0.000000000000000000, 0.000000000000000000, -1.000000000000000000 ) ) ;
#124 = CARTESIAN_POINT ( 'NONE',  ( 0.000000000000000000, -1.200000000000000178, 0.000000000000000000 ) ) ;
#125 = APPLICATION_PROTOCOL_DEFINITION ( 'draft international standard', 'automotive_design', 1998, #430 ) ;
#126 = DIRECTION ( 'NONE',  ( 0.000000000000000000, -1.000000000000000000, 0.000000000000000000 ) ) ;
#127 = FILL_AREA_STYLE ('',( #752 ) ) ;
#128 = ORIENTED_EDGE ( 'NONE', *, *, #792, .F. ) ;
#129 = VERTEX_POINT ( 'NONE', #436 ) ;
#130 = UNCERTAINTY_MEASURE_WITH_UNIT (LENGTH_MEASURE( 1.000000000000000082E-05 ), #794, 'distance_accuracy_value', 'NONE');
#131 = DIRECTION ( 'NONE',  ( 0.000000000000000000, 0.000000000000000000, -1.000000000000000000 ) ) ;
#132 = LINE ( 'NONE', #410, #811 ) ;
#133 = CARTESIAN_POINT ( 'NONE',  ( 8.859308380325854770, -1.200000000000000178, -13.20313050084289941 ) ) ;
#134 = EDGE_CURVE ( 'NONE', #661, #878, #258, .T. ) ;
#135 = VERTEX_POINT ( 'NONE', #649 ) ;
#136 = PLANE ( 'NONE',  #415 ) ;
#137 = CARTESIAN_POINT ( 'NONE',  ( 0.000000000000000000, 2.449293598294707770E-17, -13.94999999999999929 ) ) ;
#138 = DIRECTION ( 'NONE',  ( 0.000000000000000000, 0.000000000000000000, 1.000000000000000000 ) ) ;
#139 = VECTOR ( 'NONE', #345, 1000.000000000000000 ) ;
#140 =( GEOMETRIC_REPRESENTATION_CONTEXT ( 3 ) GLOBAL_UNCERTAINTY_ASSIGNED_CONTEXT ( ( #546 ) ) GLOBAL_UNIT_ASSIGNED_CONTEXT ( ( #240, #592, #520 ) ) REPRESENTATION_CONTEXT ( 'NONE', 'WORKASPACE' ) );
#141 = VERTEX_POINT ( 'NONE', #80 ) ;
#142 = CARTESIAN_POINT ( 'NONE',  ( -15.84278670176758652, 0.6350689402376424875, -1.348160523209376516 ) ) ;
#143 = CARTESIAN_POINT ( 'NONE',  ( 9.525092739855576696, -1.653273178848924648E-16, -11.26210940708491748 ) ) ;
#144 = ORIENTED_EDGE ( 'NONE', *, *, #359, .F. ) ;
#145 = ORIENTED_EDGE ( 'NONE', *, *, #64, .T. ) ;
#146 = EDGE_CURVE ( 'NONE', #677, #141, #499, .T. ) ;
#147 = DIRECTION ( 'NONE',  ( 0.000000000000000000, 0.000000000000000000, -1.000000000000000000 ) ) ;
#148 = CARTESIAN_POINT ( 'NONE',  ( 0.000000000000000000, 0.7999999999999999334, 0.000000000000000000 ) ) ;
#149 = CARTESIAN_POINT ( 'NONE',  ( -14.72176722983697594, 2.498713706851670047, 0.9226298061173426879 ) ) ;
#150 = FACE_OUTER_BOUND ( 'NONE', #111, .T. ) ;
#151 = CIRCLE ( 'NONE', #496, 14.75000000000000000 ) ;
#152 = CARTESIAN_POINT ( 'NONE',  ( -14.74999518588940361, 2.799952661240409757, 0.09889725705167452807 ) ) ;
#153 = CARTESIAN_POINT ( 'NONE',  ( -15.82908714992750276, 1.300000000000000266, -1.500000000000000222 ) ) ;
#154 = EDGE_CURVE ( 'NONE', #104, #374, #495, .T. ) ;
#155 = FACE_OUTER_BOUND ( 'NONE', #246, .T. ) ;
#156 = DIRECTION ( 'NONE',  ( 0.000000000000000000, 0.000000000000000000, -1.000000000000000000 ) ) ;
#157 = VERTEX_POINT ( 'NONE', #781 ) ;
#158 = DIRECTION ( 'NONE',  ( 0.000000000000000000, -1.000000000000000000, 0.000000000000000000 ) ) ;
#159 = CYLINDRICAL_SURFACE ( 'NONE', #829, 15.90000000000000036 ) ;
#160 = ORIENTED_EDGE ( 'NONE', *, *, #542, .T. ) ;
#161 = STYLED_ITEM ( 'NONE', ( #209 ), #564 ) ;
#162 = AXIS2_PLACEMENT_3D ( 'NONE', #516, #112, #803 ) ;
#163 = ADVANCED_FACE ( 'NONE', ( #852, #150 ), #14, .F. ) ;
#164 = FACE_OUTER_BOUND ( 'NONE', #260, .T. ) ;
#165 = DIRECTION ( 'NONE',  ( 0.000000000000000000, -0.000000000000000000, -1.000000000000000000 ) ) ;
#166 = DIRECTION ( 'NONE',  ( 0.000000000000000000, -0.000000000000000000, -1.000000000000000000 ) ) ;
#167 = VERTEX_POINT ( 'NONE', #364 ) ;
#168 = DIRECTION ( 'NONE',  ( 0.000000000000000000, -1.000000000000000000, 0.000000000000000000 ) ) ;
#169 = FACE_OUTER_BOUND ( 'NONE', #689, .T. ) ;
#170 = ORIENTED_EDGE ( 'NONE', *, *, #561, .T. ) ;
#171 = CARTESIAN_POINT ( 'NONE',  ( 1.708382284810557565E-15, -1.200000000000000178, 13.94999999999999929 ) ) ;
#172 = DIRECTION ( 'NONE',  ( 0.000000000000000000, 0.000000000000000000, -1.000000000000000000 ) ) ;
#173 = CARTESIAN_POINT ( 'NONE',  ( -15.88240319572620862, 2.601414767129596850, -0.7522795071644555742 ) ) ;
#174 = VERTEX_POINT ( 'NONE', #153 ) ;
#175 = CARTESIAN_POINT ( 'NONE',  ( 0.000000000000000000, 0.000000000000000000, -15.90000000000000036 ) ) ;
#176 = DIRECTION ( 'NONE',  ( -0.000000000000000000, -1.000000000000000000, -0.000000000000000000 ) ) ;
#177 = AXIS2_PLACEMENT_3D ( 'NONE', #121, #182, #900 ) ;
#178 = LINE ( 'NONE', #735, #455 ) ;
#179 = CIRCLE ( 'NONE', #601, 14.75000000000000000 ) ;
#180 = ORIENTED_EDGE ( 'NONE', *, *, #202, .F. ) ;
#181 = EDGE_CURVE ( 'NONE', #545, #736, #216, .T. ) ;
#182 = DIRECTION ( 'NONE',  ( 0.000000000000000000, 0.000000000000000000, 1.000000000000000000 ) ) ;
#183 =( NAMED_UNIT ( * ) SI_UNIT ( $, .STERADIAN. ) SOLID_ANGLE_UNIT ( ) );
#184 = CARTESIAN_POINT ( 'NONE',  ( -15.85528985942382185, 2.221561886672096087, -1.199567180462899341 ) ) ;
#185 = VERTEX_POINT ( 'NONE', #493 ) ;
#186 = ORIENTED_EDGE ( 'NONE', *, *, #426, .T. ) ;
#187 = PLANE ( 'NONE',  #91 ) ;
#188 = ADVANCED_FACE ( 'NONE', ( #295 ), #491, .F. ) ;
#189 =( NAMED_UNIT ( * ) PLANE_ANGLE_UNIT ( ) SI_UNIT ( $, .RADIAN. ) );
#190 = CARTESIAN_POINT ( 'NONE',  ( 0.000000000000000000, -1.200000000000000178, 0.000000000000000000 ) ) ;
#191 = ORIENTED_EDGE ( 'NONE', *, *, #454, .F. ) ;
#192 = CARTESIAN_POINT ( 'NONE',  ( -15.83002588095041041, 1.102608527678222483, -1.490185241564585983 ) ) ;
#193 = CIRCLE ( 'NONE', #703, 0.3999999999999993006 ) ;
#194 = EDGE_CURVE ( 'NONE', #90, #529, #640, .T. ) ;
#195 = DIRECTION ( 'NONE',  ( -0.000000000000000000, 1.000000000000000000, -0.000000000000000000 ) ) ;
#196 = CARTESIAN_POINT ( 'NONE',  ( 9.767458575362267581, 0.7999999999999999334, -12.92426992052480017 ) ) ;
#197 = VECTOR ( 'NONE', #745, 1000.000000000000000 ) ;
#198 = VERTEX_POINT ( 'NONE', #87 ) ;
#199 = CARTESIAN_POINT ( 'NONE',  ( -13.94808833103358303, -0.1824943472278331980, 0.2628933261640963304 ) ) ;
#200 = FACE_OUTER_BOUND ( 'NONE', #817, .T. ) ;
#201 = LINE ( 'NONE', #479, #872 ) ;
#202 = EDGE_CURVE ( 'NONE', #31, #167, #179, .T. ) ;
#203 = ORIENTED_EDGE ( 'NONE', *, *, #542, .F. ) ;
#204 = CARTESIAN_POINT ( 'NONE',  ( -15.88240530899714997, -0.001433031221134958627, -0.7522100574081443947 ) ) ;
#205 = DIRECTION ( 'NONE',  ( -0.000000000000000000, -1.000000000000000000, -0.000000000000000000 ) ) ;
#206 = DIRECTION ( 'NONE',  ( 0.000000000000000000, 0.000000000000000000, -1.000000000000000000 ) ) ;
#207 = ORIENTED_EDGE ( 'NONE', *, *, #296, .T. ) ;
#208 = CARTESIAN_POINT ( 'NONE',  ( -15.89907330060386492, -0.1902670667845785812, -0.1967960894514877435 ) ) ;
#209 = PRESENTATION_STYLE_ASSIGNMENT (( #895 ) ) ;
#210 = CARTESIAN_POINT ( 'NONE',  ( -13.92991385472286225, 2.449293598294707770E-17, 0.7483314773547888876 ) ) ;
#211 = AXIS2_PLACEMENT_3D ( 'NONE', #75, #845, #166 ) ;
#212 = ORIENTED_EDGE ( 'NONE', *, *, #505, .T. ) ;
#213 = ADVANCED_FACE ( 'NONE', ( #789 ), #159, .T. ) ;
#214 = CARTESIAN_POINT ( 'NONE',  ( 1.806354028742345802E-15, 3.399999999999999911, 14.75000000000000000 ) ) ;
#215 = CARTESIAN_POINT ( 'NONE',  ( -14.70184989907403761, 2.222428661954658491, 1.198868497265122679 ) ) ;
#216 = LINE ( 'NONE', #286, #717 ) ;
#217 = CARTESIAN_POINT ( 'NONE',  ( -14.67353059082919486, 1.495592516980683406, -1.500000000000000444 ) ) ;
#218 = CARTESIAN_POINT ( 'NONE',  ( 9.767458575362267581, -1.200000000000000178, -12.92426992052480017 ) ) ;
#219 = DIRECTION ( 'NONE',  ( -0.000000000000000000, -1.000000000000000000, -0.000000000000000000 ) ) ;
#220 = DIRECTION ( 'NONE',  ( 0.000000000000000000, 0.000000000000000000, -1.000000000000000000 ) ) ;
#221 = EDGE_CURVE ( 'NONE', #141, #746, #560, .T. ) ;
#222 = AXIS2_PLACEMENT_3D ( 'NONE', #65, #541, #901 ) ;
#223 = AXIS2_PLACEMENT_3D ( 'NONE', #190, #336, #417 ) ;
#224 = CARTESIAN_POINT ( 'NONE',  ( 0.000000000000000000, -1.653273178848924648E-16, -14.75000000000000000 ) ) ;
#225 =( LENGTH_UNIT ( ) NAMED_UNIT ( * ) SI_UNIT ( .MILLI., .METRE. ) );
#226 = ORIENTED_EDGE ( 'NONE', *, *, #685, .T. ) ;
#227 = CARTESIAN_POINT ( 'NONE',  ( -14.70678250759192807, 2.290847911963959760, -1.130452943808336830 ) ) ;
#228 =( NAMED_UNIT ( * ) PLANE_ANGLE_UNIT ( ) SI_UNIT ( $, .RADIAN. ) );
#229 = VERTEX_POINT ( 'NONE', #714 ) ;
#230 = MANIFOLD_SOLID_BREP ( 'Boss-Extrude2[2]', #343 ) ;
#231 = EDGE_CURVE ( 'NONE', #677, #582, #427, .T. ) ;
#232 = CARTESIAN_POINT ( 'NONE',  ( -9.512855920362417450, 1.549999999999999822, 10.94328891323014297 ) ) ;
#233 = FILL_AREA_STYLE_COLOUR ( '', #83 ) ;
#234 = LINE ( 'NONE', #870, #540 ) ;
#235 = EDGE_LOOP ( 'NONE', ( #898, #53, #144, #625, #675, #433, #453, #378 ) ) ;
#236 = AXIS2_PLACEMENT_3D ( 'NONE', #896, #821, #762 ) ;
#237 = CIRCLE ( 'NONE', #764, 0.3999999999999993006 ) ;
#238 = EDGE_CURVE ( 'NONE', #586, #737, #750, .T. ) ;
#239 = AXIS2_PLACEMENT_3D ( 'NONE', #365, #20, #576 ) ;
#240 =( LENGTH_UNIT ( ) NAMED_UNIT ( * ) SI_UNIT ( .MILLI., .METRE. ) );
#241 = CLOSED_SHELL ( 'NONE', ( #264, #346, #269, #902 ) ) ;
#242 = LINE ( 'NONE', #655, #253 ) ;
#243 = ORIENTED_EDGE ( 'NONE', *, *, #181, .F. ) ;
#244 = DIRECTION ( 'NONE',  ( 0.000000000000000000, 0.000000000000000000, -1.000000000000000000 ) ) ;
#245 = DIRECTION ( 'NONE',  ( 0.000000000000000000, -1.000000000000000000, 0.000000000000000000 ) ) ;
#246 = EDGE_LOOP ( 'NONE', ( #818, #754, #500, #268 ) ) ;
#247 = CARTESIAN_POINT ( 'NONE',  ( -10.28361152361844866, 0.7999999999999999334, 12.12671983808077947 ) ) ;
#248 = CARTESIAN_POINT ( 'NONE',  ( -14.72518695694064661, 0.06592420364923377851, -0.8628548768607698927 ) ) ;
#249 = CYLINDRICAL_SURFACE ( 'NONE', #54, 0.3999999999999993006 ) ;
#250 = ORIENTED_EDGE ( 'NONE', *, *, #278, .T. ) ;
#251 = EDGE_CURVE ( 'NONE', #893, #586, #791, .T. ) ;
#252 = ORIENTED_EDGE ( 'NONE', *, *, #39, .T. ) ;
#253 = VECTOR ( 'NONE', #877, 1000.000000000000000 ) ;
#254 = CARTESIAN_POINT ( 'NONE',  ( -14.71846874147015960, 0.1470328576772177709, -0.9683862051604296139 ) ) ;
#255 = MANIFOLD_SOLID_BREP ( 'Boss-Extrude1', #663 ) ;
#256 = AXIS2_PLACEMENT_3D ( 'NONE', #568, #855, #498 ) ;
#257 = CARTESIAN_POINT ( 'NONE',  ( -15.82908714992750276, 1.300000000000000044, 1.500000000000000222 ) ) ;
#258 = CIRCLE ( 'NONE', #369, 15.90000000000000036 ) ;
#259 = ORIENTED_EDGE ( 'NONE', *, *, #55, .T. ) ;
#260 = EDGE_LOOP ( 'NONE', ( #243, #464, #882, #864 ) ) ;
#261 = CARTESIAN_POINT ( 'NONE',  ( -15.85530708137659595, 0.3849374498251114662, -1.192562429134838009 ) ) ;
#262 = CARTESIAN_POINT ( 'NONE',  ( -14.73100471794099953, -1.653273178848924648E-16, -0.7483314773547886656 ) ) ;
#263 = ORIENTED_EDGE ( 'NONE', *, *, #146, .T. ) ;
#264 = ADVANCED_FACE ( 'NONE', ( #316 ), #659, .F. ) ;
#265 = CARTESIAN_POINT ( 'NONE',  ( -15.89292938727442817, -0.1235895158199639826, -0.4827609698447003495 ) ) ;
#266 = DIRECTION ( 'NONE',  ( 0.000000000000000000, -1.000000000000000000, 0.000000000000000000 ) ) ;
#267 = DIRECTION ( 'NONE',  ( 0.000000000000000000, -1.000000000000000000, 0.000000000000000000 ) ) ;
#268 = ORIENTED_EDGE ( 'NONE', *, *, #22, .F. ) ;
#269 = ADVANCED_FACE ( 'NONE', ( #808 ), #862, .F. ) ;
#270 = FACE_OUTER_BOUND ( 'NONE', #787, .T. ) ;
#271 = DIRECTION ( 'NONE',  ( -0.000000000000000000, -1.000000000000000000, -0.000000000000000000 ) ) ;
#272 = EDGE_LOOP ( 'NONE', ( #698, #412 ) ) ;
#273 = CIRCLE ( 'NONE', #828, 15.90000000000000036 ) ;
#274 = STYLED_ITEM ( 'NONE', ( #777 ), #230 ) ;
#275 = EDGE_LOOP ( 'NONE', ( #344, #573 ) ) ;
#276 = CARTESIAN_POINT ( 'NONE',  ( -15.85527752398441592, 0.3854229225794922886, 1.192961188622100988 ) ) ;
#277 = EDGE_LOOP ( 'NONE', ( #354, #281, #37, #790 ) ) ;
#278 = EDGE_CURVE ( 'NONE', #393, #668, #82, .T. ) ;
#279 = ORIENTED_EDGE ( 'NONE', *, *, #101, .F. ) ;
#280 = CARTESIAN_POINT ( 'NONE',  ( -15.83621784180382086, 0.8162302895549131687, 1.423247625045706677 ) ) ;
#281 = ORIENTED_EDGE ( 'NONE', *, *, #231, .T. ) ;
#282 = EDGE_CURVE ( 'NONE', #374, #167, #193, .T. ) ;
#283 = EDGE_LOOP ( 'NONE', ( #128, #833 ) ) ;
#284 = FACE_OUTER_BOUND ( 'NONE', #69, .T. ) ;
#285 = DIRECTION ( 'NONE',  ( -0.000000000000000000, -1.000000000000000000, -0.000000000000000000 ) ) ;
#286 = CARTESIAN_POINT ( 'NONE',  ( 9.525092739855574919, 0.1749999999999998224, -11.26210940708491570 ) ) ;
#287 = CIRCLE ( 'NONE', #690, 14.75000000000000000 ) ;
#288 = CIRCLE ( 'NONE', #782, 15.90000000000000036 ) ;
#289 = EDGE_CURVE ( 'NONE', #460, #529, #287, .T. ) ;
#290 = CIRCLE ( 'NONE', #236, 0.9499999999999995115 ) ;
#291 = CARTESIAN_POINT ( 'NONE',  ( -14.73172596149697178, 2.610310324361838408, -0.7563928772996438843 ) ) ;
#292 = DIRECTION ( 'NONE',  ( 0.000000000000000000, -1.000000000000000000, 0.000000000000000000 ) ) ;
#293 = EDGE_CURVE ( 'NONE', #229, #90, #702, .T. ) ;
#294 = CARTESIAN_POINT ( 'NONE',  ( -14.67767479439956979, 1.692905858904575345, -1.460834407039281135 ) ) ;
#295 = FACE_OUTER_BOUND ( 'NONE', #235, .T. ) ;
#296 = EDGE_CURVE ( 'NONE', #771, #185, #779, .T. ) ;
#297 = CARTESIAN_POINT ( 'NONE',  ( 0.000000000000000000, 0.7999999999999999334, 0.000000000000000000 ) ) ;
#298 = SURFACE_SIDE_STYLE ('',( #303 ) ) ;
#299 = VERTEX_POINT ( 'NONE', #551 ) ;
#300 = CIRCLE ( 'NONE', #897, 0.9499999999999995115 ) ;
#301 = CIRCLE ( 'NONE', #439, 0.3999999999999993006 ) ;
#302 = CARTESIAN_POINT ( 'NONE',  ( -14.70182507247665171, 2.215290417679927071, -1.192401482743402852 ) ) ;
#303 = SURFACE_STYLE_FILL_AREA ( #635 ) ;
#304 = EDGE_LOOP ( 'NONE', ( #308, #536 ) ) ;
#305 = DIRECTION ( 'NONE',  ( -0.000000000000000000, -1.000000000000000000, -0.000000000000000000 ) ) ;
#306 = CARTESIAN_POINT ( 'NONE',  ( -14.73100471794099953, -1.653273178848924648E-16, -0.7483314773547886656 ) ) ;
#307 = CARTESIAN_POINT ( 'NONE',  ( -15.89999271685643656, 2.799922798655290368, -0.1002307213732575447 ) ) ;
#308 = ORIENTED_EDGE ( 'NONE', *, *, #134, .T. ) ;
#309 = EDGE_CURVE ( 'NONE', #157, #798, #398, .T. ) ;
#310 = DIRECTION ( 'NONE',  ( 0.000000000000000000, -0.000000000000000000, -1.000000000000000000 ) ) ;
#311 = CARTESIAN_POINT ( 'NONE',  ( -14.67533065662934355, 1.037667095980651766, -1.482677936731841006 ) ) ;
#312 = CARTESIAN_POINT ( 'NONE',  ( -15.82908714992750632, 1.495803551894089090, -1.500000000000000444 ) ) ;
#313 = ORIENTED_EDGE ( 'NONE', *, *, #719, .T. ) ;
#314 = AXIS2_PLACEMENT_3D ( 'NONE', #107, #41, #172 ) ;
#315 = CARTESIAN_POINT ( 'NONE',  ( 0.000000000000000000, -1.200000000000000178, 0.000000000000000000 ) ) ;
#316 = FACE_OUTER_BOUND ( 'NONE', #66, .T. ) ;
#317 = PRESENTATION_LAYER_ASSIGNMENT (  '', '', ( #707 ) ) ;
#318 = CARTESIAN_POINT ( 'NONE',  ( -15.89906040178363433, 2.790129025004873142, -0.1976675311789767020 ) ) ;
#319 = ORIENTED_EDGE ( 'NONE', *, *, #134, .F. ) ;
#320 = PLANE ( 'NONE',  #797 ) ;
#321 = CARTESIAN_POINT ( 'NONE',  ( -13.94110792579654579, -0.1153152284663850891, -0.5137602308102579007 ) ) ;
#322 = FACE_OUTER_BOUND ( 'NONE', #594, .T. ) ;
#323 = ORIENTED_EDGE ( 'NONE', *, *, #466, .T. ) ;
#324 = ORIENTED_EDGE ( 'NONE', *, *, #181, .T. ) ;
#325 = PRESENTATION_STYLE_ASSIGNMENT (( #815 ) ) ;
#326 = DIRECTION ( 'NONE',  ( 0.000000000000000000, -1.000000000000000000, 0.000000000000000000 ) ) ;
#327 = ORIENTED_EDGE ( 'NONE', *, *, #599, .T. ) ;
#328 = ORIENTED_EDGE ( 'NONE', *, *, #565, .T. ) ;
#329 = LINE ( 'NONE', #533, #139 ) ;
#330 = ORIENTED_EDGE ( 'NONE', *, *, #744, .T. ) ;
#331 = CYLINDRICAL_SURFACE ( 'NONE', #523, 0.9499999999999995115 ) ;
#332 =( NAMED_UNIT ( * ) SI_UNIT ( $, .STERADIAN. ) SOLID_ANGLE_UNIT ( ) );
#333 = ORIENTED_EDGE ( 'NONE', *, *, #466, .F. ) ;
#334 = CARTESIAN_POINT ( 'NONE',  ( -15.83620124549078589, 0.8167684569310490472, -1.423431553099787195 ) ) ;
#335 = CARTESIAN_POINT ( 'NONE',  ( 0.000000000000000000, -1.200000000000000178, 0.000000000000000000 ) ) ;
#336 = DIRECTION ( 'NONE',  ( -0.000000000000000000, -1.000000000000000000, -0.000000000000000000 ) ) ;
#337 = ORIENTED_EDGE ( 'NONE', *, *, #876, .T. ) ;
#338 = APPLICATION_PROTOCOL_DEFINITION ( 'draft international standard', 'automotive_design', 1998, #892 ) ;
#339 = CARTESIAN_POINT ( 'NONE',  ( -15.84280704753377655, 0.6345882890537829502, 1.347922175007888024 ) ) ;
#340 = AXIS2_PLACEMENT_3D ( 'NONE', #543, #756, #624 ) ;
#341 = CARTESIAN_POINT ( 'NONE',  ( -5.900000000000000355, 1.300000000000000044, 0.000000000000000000 ) ) ;
#342 = VECTOR ( 'NONE', #697, 1000.000000000000000 ) ;
#343 = CLOSED_SHELL ( 'NONE', ( #95, #708, #88, #434, #641 ) ) ;
#344 = ORIENTED_EDGE ( 'NONE', *, *, #278, .F. ) ;
#345 = DIRECTION ( 'NONE',  ( -0.000000000000000000, -1.000000000000000000, -0.000000000000000000 ) ) ;
#346 = ADVANCED_FACE ( 'NONE', ( #889 ), #331, .T. ) ;
#347 = CARTESIAN_POINT ( 'NONE',  ( 0.000000000000000000, 0.000000000000000000, 0.000000000000000000 ) ) ;
#348 = DIRECTION ( 'NONE',  ( 0.000000000000000000, 0.000000000000000000, -1.000000000000000000 ) ) ;
#349 = ORIENTED_EDGE ( 'NONE', *, *, #732, .T. ) ;
#350 = DIRECTION ( 'NONE',  ( 0.000000000000000000, 0.000000000000000000, -1.000000000000000000 ) ) ;
#351 = CARTESIAN_POINT ( 'NONE',  ( -14.67452521265556165, 1.496006258760350427, 1.490361463991024982 ) ) ;
#352 = LINE ( 'NONE', #77, #401 ) ;
#353 = EDGE_CURVE ( 'NONE', #737, #758, #795, .T. ) ;
#354 = ORIENTED_EDGE ( 'NONE', *, *, #146, .F. ) ;
#355 = CARTESIAN_POINT ( 'NONE',  ( -14.67353059082918776, 1.300000000000000044, 1.500000000000000222 ) ) ;
#356 = DIRECTION ( 'NONE',  ( 0.000000000000000000, 0.000000000000000000, -1.000000000000000000 ) ) ;
#357 = AXIS2_PLACEMENT_3D ( 'NONE', #830, #477, #687 ) ;
#358 = PRODUCT_DEFINITION_FORMATION_WITH_SPECIFIED_SOURCE ( 'ANY', '', #50, .NOT_KNOWN. ) ;
#359 = EDGE_CURVE ( 'NONE', #135, #174, #866, .T. ) ;
#360 = AXIS2_PLACEMENT_3D ( 'NONE', #589, #176, #451 ) ;
#361 = DIRECTION ( 'NONE',  ( 0.000000000000000000, 0.000000000000000000, -1.000000000000000000 ) ) ;
#362 = DIRECTION ( 'NONE',  ( 0.000000000000000000, -1.000000000000000000, 0.000000000000000000 ) ) ;
#363 = LINE ( 'NONE', #769, #418 ) ;
#364 = CARTESIAN_POINT ( 'NONE',  ( -9.436997662984559554, -1.653273178848924648E-16, 11.33602995359592214 ) ) ;
#365 = CARTESIAN_POINT ( 'NONE',  ( -9.512855920362417450, 1.549999999999999822, 10.94328891323014297 ) ) ;
#366 = CARTESIAN_POINT ( 'NONE',  ( -9.512855920362417450, 1.549999999999999822, 10.54328891323014439 ) ) ;
#367 = ORIENTED_EDGE ( 'NONE', *, *, #251, .T. ) ;
#368 = AXIS2_PLACEMENT_3D ( 'NONE', #566, #219, #494 ) ;
#369 = AXIS2_PLACEMENT_3D ( 'NONE', #148, #371, #356 ) ;
#370 = DIRECTION ( 'NONE',  ( -0.000000000000000000, -1.000000000000000000, -0.000000000000000000 ) ) ;
#371 = DIRECTION ( 'NONE',  ( 0.000000000000000000, -1.000000000000000000, 0.000000000000000000 ) ) ;
#372 = ADVANCED_FACE ( 'NONE', ( #270 ), #136, .F. ) ;
#373 = CARTESIAN_POINT ( 'NONE',  ( -15.89286913797443113, 2.722919374105371215, -0.4847212823142675320 ) ) ;
#374 = VERTEX_POINT ( 'NONE', #71 ) ;
#375 = CARTESIAN_POINT ( 'NONE',  ( -14.67533839834242571, 1.037367135144048991, 1.482599647276224841 ) ) ;
#376 = CARTESIAN_POINT ( 'NONE',  ( 0.000000000000000000, -1.653273178848924648E-16, 0.000000000000000000 ) ) ;
#377 = CARTESIAN_POINT ( 'NONE',  ( 0.000000000000000000, -1.200000000000000178, -13.94999999999999929 ) ) ;
#378 = ORIENTED_EDGE ( 'NONE', *, *, #116, .F. ) ;
#379 = CARTESIAN_POINT ( 'NONE',  ( -14.73100471794099953, -1.653273178848924648E-16, 0.7483314773547886656 ) ) ;
#380 = SURFACE_STYLE_FILL_AREA ( #394 ) ;
#381 = DIRECTION ( 'NONE',  ( 0.000000000000000000, -1.000000000000000000, 0.000000000000000000 ) ) ;
#382 = ORIENTED_EDGE ( 'NONE', *, *, #887, .F. ) ;
#383 = EDGE_CURVE ( 'NONE', #78, #737, #329, .T. ) ;
#384 =( GEOMETRIC_REPRESENTATION_CONTEXT ( 3 ) GLOBAL_UNCERTAINTY_ASSIGNED_CONTEXT ( ( #759 ) ) GLOBAL_UNIT_ASSIGNED_CONTEXT ( ( #52, #189, #332 ) ) REPRESENTATION_CONTEXT ( 'NONE', 'WORKASPACE' ) );
#385 = CARTESIAN_POINT ( 'NONE',  ( -14.67353059082919309, 1.168313632233579202, 1.500000000000001110 ) ) ;
#386 = CARTESIAN_POINT ( 'NONE',  ( 0.000000000000000000, 3.399999999999999911, 0.000000000000000000 ) ) ;
#387 = CARTESIAN_POINT ( 'NONE',  ( -15.82908714992750276, 1.498289376517360161, 1.500000000000000222 ) ) ;
#388 = ORIENTED_EDGE ( 'NONE', *, *, #353, .F. ) ;
#389 = EDGE_LOOP ( 'NONE', ( #333, #313, #100, #96 ) ) ;
#390 = CARTESIAN_POINT ( 'NONE',  ( -14.68698312439415332, 0.6615031806323744545, 1.363571291248647288 ) ) ;
#391 = CARTESIAN_POINT ( 'NONE',  ( -13.94999551802587412, -0.1999583176385527072, 0.1306118298051712756 ) ) ;
#392 = DIRECTION ( 'NONE',  ( 0.000000000000000000, 0.000000000000000000, -1.000000000000000000 ) ) ;
#393 = VERTEX_POINT ( 'NONE', #602 ) ;
#394 = FILL_AREA_STYLE ('',( #233 ) ) ;
#395 = FACE_OUTER_BOUND ( 'NONE', #48, .T. ) ;
#396 = ORIENTED_EDGE ( 'NONE', *, *, #282, .T. ) ;
#397 = ORIENTED_EDGE ( 'NONE', *, *, #765, .F. ) ;
#398 = CIRCLE ( 'NONE', #357, 15.90000000000000036 ) ;
#399 = CARTESIAN_POINT ( 'NONE',  ( -15.83001845139420460, 1.103332724182127578, 1.490262622677024140 ) ) ;
#400 = SURFACE_STYLE_FILL_AREA ( #127 ) ;
#401 = VECTOR ( 'NONE', #841, 1000.000000000000000 ) ;
#402 = DIRECTION ( 'NONE',  ( 0.000000000000000000, 0.000000000000000000, -1.000000000000000000 ) ) ;
#403 = ADVANCED_FACE ( 'NONE', ( #623, #884 ), #187, .F. ) ;
#404 = EDGE_LOOP ( 'NONE', ( #524, #226, #672 ) ) ;
#405 = CARTESIAN_POINT ( 'NONE',  ( -13.93605213849596325, -0.06577366475008213087, 0.6340695937342396560 ) ) ;
#406 = DIRECTION ( 'NONE',  ( 0.000000000000000000, -1.000000000000000000, 0.000000000000000000 ) ) ;
#407 = VERTEX_POINT ( 'NONE', #214 ) ;
#408 = ORIENTED_EDGE ( 'NONE', *, *, #383, .T. ) ;
#409 = CARTESIAN_POINT ( 'NONE',  ( 0.000000000000000000, -1.200000000000000178, 0.000000000000000000 ) ) ;
#410 = CARTESIAN_POINT ( 'NONE',  ( -5.900000000000000355, 1.300000000000000044, 1.500000000000000222 ) ) ;
#411 = CYLINDRICAL_SURFACE ( 'NONE', #856, 15.90000000000000036 ) ;
#412 = ORIENTED_EDGE ( 'NONE', *, *, #440, .T. ) ;
#413 = EDGE_CURVE ( 'NONE', #661, #878, #869, .T. ) ;
#414 = CARTESIAN_POINT ( 'NONE',  ( -13.92991385472286225, 2.449293598294707770E-17, 0.7483314773547888876 ) ) ;
#415 = AXIS2_PLACEMENT_3D ( 'NONE', #471, #673, #691 ) ;
#416 = CARTESIAN_POINT ( 'NONE',  ( 0.000000000000000000, 3.399999999999999911, 0.000000000000000000 ) ) ;
#417 = DIRECTION ( 'NONE',  ( 0.000000000000000000, 0.000000000000000000, -1.000000000000000000 ) ) ;
#418 = VECTOR ( 'NONE', #7, 1000.000000000000000 ) ;
#419 = ORIENTED_EDGE ( 'NONE', *, *, #744, .F. ) ;
#420 = DIRECTION ( 'NONE',  ( 8.704148513061227277E-14, 0.000000000000000000, -1.000000000000000000 ) ) ;
#421 = CARTESIAN_POINT ( 'NONE',  ( -14.73175694891398813, 2.610620328783503918, 0.7553195275617790028 ) ) ;
#422 = ORIENTED_EDGE ( 'NONE', *, *, #426, .F. ) ;
#423 = ORIENTED_EDGE ( 'NONE', *, *, #10, .F. ) ;
#424 = CARTESIAN_POINT ( 'NONE',  ( 9.767458575362267581, -1.200000000000000178, -12.92426992052480017 ) ) ;
#425 = DIRECTION ( 'NONE',  ( 0.000000000000000000, -1.000000000000000000, 0.000000000000000000 ) ) ;
#426 = EDGE_CURVE ( 'NONE', #545, #74, #704, .T. ) ;
#427 = CIRCLE ( 'NONE', #636, 0.9499999999999995115 ) ;
#428 = CARTESIAN_POINT ( 'NONE',  ( -14.74899849370284954, 2.790240982497611100, -0.1968820877824260518 ) ) ;
#429 = DIRECTION ( 'NONE',  ( -1.000000000000000000, -0.000000000000000000, -0.000000000000000000 ) ) ;
#430 = APPLICATION_CONTEXT ( 'automotive_design' ) ;
#431 = CARTESIAN_POINT ( 'NONE',  ( -14.74518545106275447, 2.752017770173382338, -0.3888767639056552872 ) ) ;
#432 = CARTESIAN_POINT ( 'NONE',  ( -5.900000000000000355, 0.000000000000000000, 0.7483314773547888876 ) ) ;
#433 = ORIENTED_EDGE ( 'NONE', *, *, #194, .F. ) ;
#434 = ADVANCED_FACE ( 'NONE', ( #284 ), #695, .F. ) ;
#435 = CARTESIAN_POINT ( 'NONE',  ( -14.71859786296530892, 0.1453908092796198648, 0.9664441901721522177 ) ) ;
#436 = CARTESIAN_POINT ( 'NONE',  ( 8.859308380325854770, 0.7999999999999999334, -13.20313050084289941 ) ) ;
#437 = ORIENTED_EDGE ( 'NONE', *, *, #296, .F. ) ;
#438 = AXIS2_PLACEMENT_3D ( 'NONE', #796, #245, #518 ) ;
#439 = AXIS2_PLACEMENT_3D ( 'NONE', #3, #487, #220 ) ;
#440 = EDGE_CURVE ( 'NONE', #174, #135, #448, .T. ) ;
#441 = DIRECTION ( 'NONE',  ( 0.000000000000000000, -1.000000000000000000, 0.000000000000000000 ) ) ;
#442 = DIRECTION ( 'NONE',  ( 0.000000000000000000, 0.000000000000000000, -1.000000000000000000 ) ) ;
#443 = CARTESIAN_POINT ( 'NONE',  ( -15.90001443888569987, 2.800153052233937956, 0.1969751700212202805 ) ) ;
#444 = VERTEX_POINT ( 'NONE', #377 ) ;
#445 = DIRECTION ( 'NONE',  ( 0.000000000000000000, -1.000000000000000000, 0.000000000000000000 ) ) ;
#446 = CARTESIAN_POINT ( 'NONE',  ( 0.000000000000000000, 2.449293598294707770E-17, 0.000000000000000000 ) ) ;
#447 = ORIENTED_EDGE ( 'NONE', *, *, #696, .F. ) ;
#448 = B_SPLINE_CURVE_WITH_KNOTS ( 'NONE', 3,
 ( #881, #312, #30, #26, #184, #514, #103, #173, #581, #373, #452, #318, #307, #443, #99, #463, #805, #671, #459, #720, #863, #724, #387, #257 ),
 .UNSPECIFIED., .F., .F.,
 ( 4, 2, 2, 2, 2, 2, 2, 2, 2, 2, 2, 4 ),
 ( 0.004692290488640045096, 0.005278689775604939252, 0.005865089062569832541, 0.006158288706052278752, 0.006451488349534724963, 0.006744687993017171174, 0.007037887636499618252, 0.007624286923464510674, 0.007917486566946956017, 0.008210686210429401360, 0.008797085497394295517, 0.009383484784359187938 ),
 .UNSPECIFIED. ) ;
#449 = ADVANCED_FACE ( 'NONE', ( #322 ), #36, .F. ) ;
#450 = LINE ( 'NONE', #861, #615 ) ;
#451 = DIRECTION ( 'NONE',  ( 0.000000000000000000, 0.000000000000000000, -1.000000000000000000 ) ) ;
#452 = CARTESIAN_POINT ( 'NONE',  ( -15.89552001417612459, 2.751867546531479913, -0.3894067171647465075 ) ) ;
#453 = ORIENTED_EDGE ( 'NONE', *, *, #293, .F. ) ;
#454 = EDGE_CURVE ( 'NONE', #661, #771, #234, .T. ) ;
#455 = VECTOR ( 'NONE', #890, 1000.000000000000000 ) ;
#456 = AXIS2_PLACEMENT_3D ( 'NONE', #297, #76, #634 ) ;
#457 = AXIS2_PLACEMENT_3D ( 'NONE', #638, #429, #503 ) ;
#458 = CARTESIAN_POINT ( 'NONE',  ( -9.512855920362417450, 0.000000000000000000, 10.94328891323014297 ) ) ;
#459 = CARTESIAN_POINT ( 'NONE',  ( -15.86925611847784445, 2.430506194743318638, 0.9907173276872994760 ) ) ;
#460 = VERTEX_POINT ( 'NONE', #666 ) ;
#461 = ORIENTED_EDGE ( 'NONE', *, *, #238, .F. ) ;
#462 = DIRECTION ( 'NONE',  ( -0.000000000000000000, -1.000000000000000000, -0.000000000000000000 ) ) ;
#463 = CARTESIAN_POINT ( 'NONE',  ( -15.88637595604693686, 2.648459812250693712, 0.6643253963348590974 ) ) ;
#464 = ORIENTED_EDGE ( 'NONE', *, *, #101, .T. ) ;
#465 = EDGE_LOOP ( 'NONE', ( #842, #170, #145, #622, #419, #827 ) ) ;
#466 = EDGE_CURVE ( 'NONE', #668, #157, #242, .T. ) ;
#467 = DIRECTION ( 'NONE',  ( 0.000000000000000000, 0.000000000000000000, -1.000000000000000000 ) ) ;
#468 = DIRECTION ( 'NONE',  ( -0.000000000000000000, -1.000000000000000000, -0.000000000000000000 ) ) ;
#469 = ORIENTED_EDGE ( 'NONE', *, *, #685, .F. ) ;
#470 = VECTOR ( 'NONE', #381, 1000.000000000000000 ) ;
#471 = CARTESIAN_POINT ( 'NONE',  ( -13.94999999999999929, -7.041719095097270279E-17, 0.000000000000000000 ) ) ;
#472 = DIRECTION ( 'NONE',  ( 0.000000000000000000, 0.000000000000000000, -1.000000000000000000 ) ) ;
#473 = PRESENTATION_LAYER_ASSIGNMENT (  '', '', ( #274 ) ) ;
#474 = DIRECTION ( 'NONE',  ( 0.000000000000000000, -1.000000000000000000, 0.000000000000000000 ) ) ;
#475 = ORIENTED_EDGE ( 'NONE', *, *, #848, .F. ) ;
#476 = UNCERTAINTY_MEASURE_WITH_UNIT (LENGTH_MEASURE( 1.000000000000000082E-05 ), #225, 'distance_accuracy_value', 'NONE');
#477 = DIRECTION ( 'NONE',  ( -0.000000000000000000, -1.000000000000000000, -0.000000000000000000 ) ) ;
#478 = CARTESIAN_POINT ( 'NONE',  ( 1.947188410644291774E-15, 3.399999999999999911, 15.90000000000000036 ) ) ;
#479 = CARTESIAN_POINT ( 'NONE',  ( 0.000000000000000000, 0.000000000000000000, -13.94999999999999929 ) ) ;
#480 = ADVANCED_FACE ( 'NONE', ( #169 ), #249, .T. ) ;
#481 = CARTESIAN_POINT ( 'NONE',  ( -15.82908714992750276, 1.202075347312626219, -1.500000000000000666 ) ) ;
#482 = FACE_OUTER_BOUND ( 'NONE', #860, .T. ) ;
#483 = CARTESIAN_POINT ( 'NONE',  ( 0.000000000000000000, 2.449293598294707770E-17, 0.000000000000000000 ) ) ;
#484 = PRODUCT_RELATED_PRODUCT_CATEGORY ( 'part', '', ( #50 ) ) ;
#485 = ORIENTED_EDGE ( 'NONE', *, *, #353, .T. ) ;
#486 = CARTESIAN_POINT ( 'NONE',  ( -15.88309987149692404, -0.01088352928964397316, 0.7548249226437909742 ) ) ;
#487 = DIRECTION ( 'NONE',  ( 0.000000000000000000, -1.000000000000000000, 0.000000000000000000 ) ) ;
#488 = ORIENTED_EDGE ( 'NONE', *, *, #669, .T. ) ;
#489 = CARTESIAN_POINT ( 'NONE',  ( -9.767458575362267581, 0.7999999999999999334, 12.92426992052480017 ) ) ;
#490 = CARTESIAN_POINT ( 'NONE',  ( 9.767458575362267581, 0.7999999999999999334, -13.87426992052479946 ) ) ;
#491 = CYLINDRICAL_SURFACE ( 'NONE', #457, 1.500000000000000222 ) ;
#492 = CARTESIAN_POINT ( 'NONE',  ( -14.67353059082918776, 1.300000000000000266, -1.500000000000000222 ) ) ;
#493 = CARTESIAN_POINT ( 'NONE',  ( -10.28361152361844866, -1.200000000000000178, 12.12671983808077947 ) ) ;
#494 = DIRECTION ( 'NONE',  ( 0.000000000000000000, 0.000000000000000000, -1.000000000000000000 ) ) ;
#495 = LINE ( 'NONE', #366, #813 ) ;
#496 = AXIS2_PLACEMENT_3D ( 'NONE', #416, #205, #820 ) ;
#497 = AXIS2_PLACEMENT_3D ( 'NONE', #347, #835, #123 ) ;
#498 = DIRECTION ( 'NONE',  ( 0.000000000000000000, 0.000000000000000000, -1.000000000000000000 ) ) ;
#499 = LINE ( 'NONE', #85, #70 ) ;
#500 = ORIENTED_EDGE ( 'NONE', *, *, #778, .F. ) ;
#501 = EDGE_CURVE ( 'NONE', #626, #299, #510, .T. ) ;
#502 = CARTESIAN_POINT ( 'NONE',  ( -9.512855920362417450, 0.000000000000000000, 10.94328891323014297 ) ) ;
#503 = DIRECTION ( 'NONE',  ( 0.000000000000000000, 0.000000000000000000, 1.000000000000000000 ) ) ;
#504 = EDGE_LOOP ( 'NONE', ( #337, #652, #397, #212 ) ) ;
#505 = EDGE_CURVE ( 'NONE', #129, #44, #114, .T. ) ;
#506 = FACE_OUTER_BOUND ( 'NONE', #810, .T. ) ;
#507 = CARTESIAN_POINT ( 'NONE',  ( 0.000000000000000000, 0.000000000000000000, 0.000000000000000000 ) ) ;
#508 = ORIENTED_EDGE ( 'NONE', *, *, #610, .F. ) ;
#509 = MECHANICAL_DESIGN_GEOMETRIC_PRESENTATION_REPRESENTATION (  '', ( #274 ), #12 ) ;
#510 = CIRCLE ( 'NONE', #556, 13.94999999999999929 ) ;
#511 = AXIS2_PLACEMENT_3D ( 'NONE', #73, #60, #608 ) ;
#512 = EDGE_CURVE ( 'NONE', #736, #758, #237, .T. ) ;
#513 = DIRECTION ( 'NONE',  ( -0.000000000000000000, 1.000000000000000000, -0.000000000000000000 ) ) ;
#514 = CARTESIAN_POINT ( 'NONE',  ( -15.86915648665641854, 2.429111395808324136, -0.9923038288288338338 ) ) ;
#515 = ORIENTED_EDGE ( 'NONE', *, *, #837, .T. ) ;
#516 = CARTESIAN_POINT ( 'NONE',  ( 9.125145670222622130, 1.549999999999999822, -11.26861644112609540 ) ) ;
#517 = DIRECTION ( 'NONE',  ( -0.000000000000000000, -1.000000000000000000, -0.000000000000000000 ) ) ;
#518 = DIRECTION ( 'NONE',  ( 0.000000000000000000, 0.000000000000000000, -1.000000000000000000 ) ) ;
#519 = EDGE_LOOP ( 'NONE', ( #905, #191, #120, #806 ) ) ;
#520 =( NAMED_UNIT ( * ) SI_UNIT ( $, .STERADIAN. ) SOLID_ANGLE_UNIT ( ) );
#521 = CYLINDRICAL_SURFACE ( 'NONE', #843, 13.94999999999999929 ) ;
#522 = ORIENTED_EDGE ( 'NONE', *, *, #81, .T. ) ;
#523 = AXIS2_PLACEMENT_3D ( 'NONE', #607, #58, #467 ) ;
#524 = ORIENTED_EDGE ( 'NONE', *, *, #876, .F. ) ;
#525 = CIRCLE ( 'NONE', #223, 15.90000000000000036 ) ;
#526 = B_SPLINE_CURVE_WITH_KNOTS ( 'NONE', 3,
 ( #379, #726, #435, #106, #722, #390, #658, #375, #385, #733 ),
 .UNSPECIFIED., .F., .F.,
 ( 4, 2, 2, 2, 4 ),
 ( 0.000000000000000000, 0.0003915433819492445864, 0.0007830867638984889559, 0.001174630145847733271, 0.001566173527796977912 ),
 .UNSPECIFIED. ) ;
#527 = CARTESIAN_POINT ( 'NONE',  ( -13.94812298742136747, -0.1828222649576013992, -0.2613520637704515592 ) ) ;
#528 = DIRECTION ( 'NONE',  ( -0.000000000000000000, -1.000000000000000000, -0.000000000000000000 ) ) ;
#529 = VERTEX_POINT ( 'NONE', #42 ) ;
#530 = ADVANCED_FACE ( 'NONE', ( #874 ), #521, .F. ) ;
#531 = ORIENTED_EDGE ( 'NONE', *, *, #154, .F. ) ;
#532 = PRODUCT_CONTEXT ( 'NONE', #892, 'mechanical' ) ;
#533 = CARTESIAN_POINT ( 'NONE',  ( 0.000000000000000000, 0.000000000000000000, -14.75000000000000000 ) ) ;
#534 = PLANE ( 'NONE',  #570 ) ;
#535 = CYLINDRICAL_SURFACE ( 'NONE', #38, 1.500000000000000222 ) ;
#536 = ORIENTED_EDGE ( 'NONE', *, *, #413, .F. ) ;
#537 = CARTESIAN_POINT ( 'NONE',  ( -15.84670962379549763, 0.5484470950954024593, 1.301835573039527238 ) ) ;
#538 = CARTESIAN_POINT ( 'NONE',  ( -9.436997662984559554, 0.1749999999999998224, 11.33602995359592214 ) ) ;
#539 = FACE_OUTER_BOUND ( 'NONE', #681, .T. ) ;
#540 = VECTOR ( 'NONE', #801, 1000.000000000000000 ) ;
#541 = DIRECTION ( 'NONE',  ( -0.000000000000000000, -1.000000000000000000, -0.000000000000000000 ) ) ;
#542 = EDGE_CURVE ( 'NONE', #104, #712, #748, .T. ) ;
#543 = CARTESIAN_POINT ( 'NONE',  ( 0.000000000000000000, 3.399999999999999911, 0.000000000000000000 ) ) ;
#544 = ORIENTED_EDGE ( 'NONE', *, *, #616, .T. ) ;
#545 = VERTEX_POINT ( 'NONE', #809 ) ;
#546 = UNCERTAINTY_MEASURE_WITH_UNIT (LENGTH_MEASURE( 1.000000000000000082E-05 ), #240, 'distance_accuracy_value', 'NONE');
#547 = CARTESIAN_POINT ( 'NONE',  ( -15.82908714992750276, 1.300000000000000044, 1.500000000000000222 ) ) ;
#548 = CARTESIAN_POINT ( 'NONE',  ( 10.28361152361844866, 0.7999999999999999334, -12.12671983808077947 ) ) ;
#549 = ORIENTED_EDGE ( 'NONE', *, *, #792, .T. ) ;
#550 = ORIENTED_EDGE ( 'NONE', *, *, #22, .T. ) ;
#551 = CARTESIAN_POINT ( 'NONE',  ( 1.708382284810557565E-15, 2.449293598294707770E-17, 13.94999999999999929 ) ) ;
#552 = FACE_OUTER_BOUND ( 'NONE', #404, .T. ) ;
#553 = CARTESIAN_POINT ( 'NONE',  ( -9.912332260833693454, 0.1749999999999998224, 10.92282789166045553 ) ) ;
#554 = ORIENTED_EDGE ( 'NONE', *, *, #800, .T. ) ;
#555 = CARTESIAN_POINT ( 'NONE',  ( 0.000000000000000000, 1.549999999999999822, 0.000000000000000000 ) ) ;
#556 = AXIS2_PLACEMENT_3D ( 'NONE', #446, #528, #392 ) ;
#557 = CARTESIAN_POINT ( 'NONE',  ( -14.74518460100440898, 2.752009961832997398, 0.3890109964210233251 ) ) ;
#558 = CARTESIAN_POINT ( 'NONE',  ( -5.900000000000000355, 0.000000000000000000, -0.7483314773547888876 ) ) ;
#559 = CIRCLE ( 'NONE', #68, 0.3999999999999993006 ) ;
#560 = CIRCLE ( 'NONE', #783, 0.9499999999999995115 ) ;
#561 = EDGE_CURVE ( 'NONE', #299, #814, #178, .T. ) ;
#562 = CARTESIAN_POINT ( 'NONE',  ( -14.72184786666967149, 2.499840008289349047, -0.9215192487090363427 ) ) ;
#563 = FILL_AREA_STYLE_COLOUR ( '', #799 ) ;
#564 = MANIFOLD_SOLID_BREP ( 'Boss-Extrude2[1]', #241 ) ;
#565 = EDGE_CURVE ( 'NONE', #129, #677, #300, .T. ) ;
#566 = CARTESIAN_POINT ( 'NONE',  ( 0.000000000000000000, 2.449293598294707770E-17, 0.000000000000000000 ) ) ;
#567 = CARTESIAN_POINT ( 'NONE',  ( 0.000000000000000000, -1.653273178848924648E-16, 0.000000000000000000 ) ) ;
#568 = CARTESIAN_POINT ( 'NONE',  ( 0.000000000000000000, 0.7999999999999999334, 0.000000000000000000 ) ) ;
#569 = SURFACE_STYLE_USAGE ( .BOTH. , #298 ) ;
#570 = AXIS2_PLACEMENT_3D ( 'NONE', #335, #612, #840 ) ;
#571 = EDGE_CURVE ( 'NONE', #167, #712, #603, .T. ) ;
#572 = AXIS2_PLACEMENT_3D ( 'NONE', #579, #513, #788 ) ;
#573 = ORIENTED_EDGE ( 'NONE', *, *, #719, .F. ) ;
#574 = VECTOR ( 'NONE', #859, 1000.000000000000000 ) ;
#575 = ADVANCED_BREP_SHAPE_REPRESENTATION ( 'mvmt bracket mk4', ( #255, #564, #230, #177 ), #140 ) ;
#576 = DIRECTION ( 'NONE',  ( 0.000000000000000000, 0.000000000000000000, -1.000000000000000000 ) ) ;
#577 = DIRECTION ( 'NONE',  ( 0.000000000000000000, -0.000000000000000000, 1.000000000000000000 ) ) ;
#578 = ORIENTED_EDGE ( 'NONE', *, *, #571, .T. ) ;
#579 = CARTESIAN_POINT ( 'NONE',  ( 0.000000000000000000, 1.549999999999999822, 0.000000000000000000 ) ) ;
#580 = DIRECTION ( 'NONE',  ( 0.000000000000000000, -1.000000000000000000, 0.000000000000000000 ) ) ;
#581 = CARTESIAN_POINT ( 'NONE',  ( -15.88629679033066999, 2.647529524312884242, -0.6661970037743362161 ) ) ;
#582 = VERTEX_POINT ( 'NONE', #548 ) ;
#583 = ADVANCED_FACE ( 'NONE', ( #395 ), #823, .F. ) ;
#584 = CARTESIAN_POINT ( 'NONE',  ( -14.67353059082918776, 1.300000000000000266, -1.500000000000000222 ) ) ;
#585 = CARTESIAN_POINT ( 'NONE',  ( 0.000000000000000000, 0.000000000000000000, 0.000000000000000000 ) ) ;
#586 = VERTEX_POINT ( 'NONE', #262 ) ;
#587 = AXIS2_PLACEMENT_3D ( 'NONE', #386, #462, #596 ) ;
#588 = CARTESIAN_POINT ( 'NONE',  ( -14.67353059082918776, 1.300000000000000266, -1.500000000000000222 ) ) ;
#589 = CARTESIAN_POINT ( 'NONE',  ( 0.000000000000000000, -1.653273178848924648E-16, 0.000000000000000000 ) ) ;
#590 = CARTESIAN_POINT ( 'NONE',  ( 8.859308380325854770, 0.7999999999999999334, -13.20313050084289941 ) ) ;
#591 = ORIENTED_EDGE ( 'NONE', *, *, #28, .T. ) ;
#592 =( NAMED_UNIT ( * ) PLANE_ANGLE_UNIT ( ) SI_UNIT ( $, .RADIAN. ) );
#593 = DIRECTION ( 'NONE',  ( 0.000000000000000000, 0.000000000000000000, -1.000000000000000000 ) ) ;
#594 = EDGE_LOOP ( 'NONE', ( #598, #656, #522, #549 ) ) ;
#595 = ORIENTED_EDGE ( 'NONE', *, *, #512, .T. ) ;
#596 = DIRECTION ( 'NONE',  ( 0.000000000000000000, 0.000000000000000000, -1.000000000000000000 ) ) ;
#597 = DIRECTION ( 'NONE',  ( -0.000000000000000000, -1.000000000000000000, -0.000000000000000000 ) ) ;
#598 = ORIENTED_EDGE ( 'NONE', *, *, #561, .F. ) ;
#599 = EDGE_CURVE ( 'NONE', #407, #78, #151, .T. ) ;
#600 = AXIS2_PLACEMENT_3D ( 'NONE', #489, #627, #350 ) ;
#601 = AXIS2_PLACEMENT_3D ( 'NONE', #567, #643, #786 ) ;
#602 = CARTESIAN_POINT ( 'NONE',  ( 0.000000000000000000, 3.399999999999999911, -15.90000000000000036 ) ) ;
#603 = LINE ( 'NONE', #538, #197 ) ;
#604 = ORIENTED_EDGE ( 'NONE', *, *, #765, .T. ) ;
#605 = EDGE_CURVE ( 'NONE', #736, #31, #105, .T. ) ;
#606 = ORIENTED_EDGE ( 'NONE', *, *, #505, .F. ) ;
#607 = CARTESIAN_POINT ( 'NONE',  ( -9.767458575362267581, 0.7999999999999999334, 12.92426992052480017 ) ) ;
#608 = DIRECTION ( 'NONE',  ( 0.000000000000000000, 0.000000000000000000, -1.000000000000000000 ) ) ;
#609 = ORIENTED_EDGE ( 'NONE', *, *, #309, .T. ) ;
#610 = EDGE_CURVE ( 'NONE', #78, #407, #730, .T. ) ;
#611 = CARTESIAN_POINT ( 'NONE',  ( -15.85991272898542093, 0.3091858872612962550, -1.130529132422374516 ) ) ;
#612 = DIRECTION ( 'NONE',  ( 0.000000000000000000, -1.000000000000000000, 0.000000000000000000 ) ) ;
#613 = CARTESIAN_POINT ( 'NONE',  ( 9.035627159002354247, 1.549999999999999822, -11.65847081925837614 ) ) ;
#614 = AXIS2_PLACEMENT_3D ( 'NONE', #679, #271, #472 ) ;
#615 = VECTOR ( 'NONE', #158, 1000.000000000000000 ) ;
#616 = EDGE_CURVE ( 'NONE', #758, #74, #2, .T. ) ;
#617 = SHAPE_DEFINITION_REPRESENTATION ( #632, #575 ) ;
#618 = CARTESIAN_POINT ( 'NONE',  ( -15.89999330738776528, -0.1999290583056900217, 0.1963346307188937601 ) ) ;
#619 = CIRCLE ( 'NONE', #812, 13.94999999999999929 ) ;
#620 = DIRECTION ( 'NONE',  ( 0.000000000000000000, 0.000000000000000000, -1.000000000000000000 ) ) ;
#621 = FACE_OUTER_BOUND ( 'NONE', #277, .T. ) ;
#622 = ORIENTED_EDGE ( 'NONE', *, *, #81, .F. ) ;
#623 = FACE_OUTER_BOUND ( 'NONE', #275, .T. ) ;
#624 = DIRECTION ( 'NONE',  ( 0.000000000000000000, 0.000000000000000000, -1.000000000000000000 ) ) ;
#625 = ORIENTED_EDGE ( 'NONE', *, *, #669, .F. ) ;
#626 = VERTEX_POINT ( 'NONE', #137 ) ;
#627 = DIRECTION ( 'NONE',  ( 0.000000000000000000, -1.000000000000000000, 0.000000000000000000 ) ) ;
#628 = CARTESIAN_POINT ( 'NONE',  ( -14.68122588831949749, 1.783815835663705940, 1.423210161667294305 ) ) ;
#629 = LINE ( 'NONE', #553, #747 ) ;
#630 = ADVANCED_FACE ( 'NONE', ( #482 ), #692, .F. ) ;
#631 = EDGE_LOOP ( 'NONE', ( #423, #686, #488, #11 ) ) ;
#632 = PRODUCT_DEFINITION_SHAPE ( 'NONE', 'NONE',  #92 ) ;
#633 = COLOUR_RGB ( '',0.7921568627450980005, 0.8196078431372548767, 0.9333333333333333481 ) ;
#634 = DIRECTION ( 'NONE',  ( 0.000000000000000000, 0.000000000000000000, -1.000000000000000000 ) ) ;
#635 = FILL_AREA_STYLE ('',( #563 ) ) ;
#636 = AXIS2_PLACEMENT_3D ( 'NONE', #21, #168, #739 ) ;
#637 = CARTESIAN_POINT ( 'NONE',  ( -14.74901038252728469, 2.790359445054257925, 0.1961917662296350229 ) ) ;
#638 = CARTESIAN_POINT ( 'NONE',  ( -5.900000000000000355, 1.300000000000000044, 0.000000000000000000 ) ) ;
#639 = CARTESIAN_POINT ( 'NONE',  ( 9.035627159002354247, -1.653273178848924648E-16, -11.65847081925837614 ) ) ;
#640 = LINE ( 'NONE', #432, #574 ) ;
#641 = ADVANCED_FACE ( 'NONE', ( #552 ), #534, .T. ) ;
#642 = CARTESIAN_POINT ( 'NONE',  ( -14.68829118479049889, 1.964516621422353948, -1.348339981066073001 ) ) ;
#643 = DIRECTION ( 'NONE',  ( -0.000000000000000000, -1.000000000000000000, -0.000000000000000000 ) ) ;
#644 = AXIS2_PLACEMENT_3D ( 'NONE', #585, #597, #593 ) ;
#645 = AXIS2_PLACEMENT_3D ( 'NONE', #885, #468, #59 ) ;
#646 = ORIENTED_EDGE ( 'NONE', *, *, #194, .T. ) ;
#647 = VECTOR ( 'NONE', #850, 1000.000000000000000 ) ;
#648 = DIRECTION ( 'NONE',  ( -0.000000000000000000, -1.000000000000000000, -0.000000000000000000 ) ) ;
#649 = CARTESIAN_POINT ( 'NONE',  ( -15.82908714992750276, 1.300000000000000044, 1.500000000000000222 ) ) ;
#650 = B_SPLINE_CURVE_WITH_KNOTS ( 'NONE', 3,
 ( #355, #17, #351, #79, #628, #858, #215, #149, #421, #709, #557, #637, #152, #13, #428, #431, #15, #291, #562, #227, #302, #849, #642, #294, #217, #492 ),
 .UNSPECIFIED., .F., .F.,
 ( 4, 2, 2, 2, 2, 2, 2, 2, 2, 2, 2, 2, 4 ),
 ( 0.001566173527796977912, 0.001859497495009235528, 0.002152821462221492926, 0.002739469396646009025, 0.003326117331070525124, 0.003619441298282783173, 0.003912765265495041223, 0.004206089232707299272, 0.004499413199919557321, 0.005086061134344072553, 0.005379385101556330602, 0.005672709068768587784, 0.006259357003193103015 ),
 .UNSPECIFIED. ) ;
#651 = DIRECTION ( 'NONE',  ( 0.000000000000000000, 0.000000000000000000, -1.000000000000000000 ) ) ;
#652 = ORIENTED_EDGE ( 'NONE', *, *, #807, .F. ) ;
#653 = DIRECTION ( 'NONE',  ( 0.000000000000000000, 0.000000000000000000, -1.000000000000000000 ) ) ;
#654 = DIRECTION ( 'NONE',  ( -0.000000000000000000, -1.000000000000000000, -0.000000000000000000 ) ) ;
#655 = CARTESIAN_POINT ( 'NONE',  ( 1.947188410644291774E-15, 0.000000000000000000, 15.90000000000000036 ) ) ;
#656 = ORIENTED_EDGE ( 'NONE', *, *, #501, .F. ) ;
#657 = ADVANCED_FACE ( 'NONE', ( #200 ), #118, .F. ) ;
#658 = CARTESIAN_POINT ( 'NONE',  ( -14.68202539728393496, 0.7849381762065421597, 1.414845946906089003 ) ) ;
#659 = CYLINDRICAL_SURFACE ( 'NONE', #314, 15.90000000000000036 ) ;
#660 = DIRECTION ( 'NONE',  ( -0.000000000000000000, -1.000000000000000000, -0.000000000000000000 ) ) ;
#661 = VERTEX_POINT ( 'NONE', #831 ) ;
#662 = CIRCLE ( 'NONE', #368, 13.94999999999999929 ) ;
#663 = CLOSED_SHELL ( 'NONE', ( #772, #188, #213, #583, #530, #449, #372, #657, #403, #4, #163, #32, #873, #480, #630, #784 ) ) ;
#664 = DIRECTION ( 'NONE',  ( 0.000000000000000000, 0.000000000000000000, -1.000000000000000000 ) ) ;
#665 = CARTESIAN_POINT ( 'NONE',  ( -13.93605222186589998, -0.06577455808554774630, -0.6340680418335904456 ) ) ;
#666 = CARTESIAN_POINT ( 'NONE',  ( -9.912332260833693454, -1.653273178848924648E-16, 10.92282789166045553 ) ) ;
#667 = ORIENTED_EDGE ( 'NONE', *, *, #800, .F. ) ;
#668 = VERTEX_POINT ( 'NONE', #478 ) ;
#669 = EDGE_CURVE ( 'NONE', #198, #135, #132, .T. ) ;
#670 = CARTESIAN_POINT ( 'NONE',  ( -9.512855920362417450, 1.549999999999999822, 10.94328891323014297 ) ) ;
#671 = CARTESIAN_POINT ( 'NONE',  ( -15.87394549321739845, 2.493767140064112819, 0.9135192221225139075 ) ) ;
#672 = ORIENTED_EDGE ( 'NONE', *, *, #221, .T. ) ;
#673 = DIRECTION ( 'NONE',  ( 0.000000000000000000, -1.000000000000000000, -0.000000000000000000 ) ) ;
#674 = CARTESIAN_POINT ( 'NONE',  ( 9.767458575362267581, 0.7999999999999999334, -12.92426992052480017 ) ) ;
#675 = ORIENTED_EDGE ( 'NONE', *, *, #837, .F. ) ;
#676 = MECHANICAL_DESIGN_GEOMETRIC_PRESENTATION_REPRESENTATION (  '', ( #161 ), #384 ) ;
#677 = VERTEX_POINT ( 'NONE', #490 ) ;
#678 = CARTESIAN_POINT ( 'NONE',  ( -15.83359196642368438, 0.9102839995814924201, -1.451804699861542813 ) ) ;
#679 = CARTESIAN_POINT ( 'NONE',  ( 0.000000000000000000, -1.653273178848924648E-16, 0.000000000000000000 ) ) ;
#680 = CARTESIAN_POINT ( 'NONE',  ( 0.000000000000000000, 3.399999999999999911, -14.75000000000000000 ) ) ;
#681 = EDGE_LOOP ( 'NONE', ( #328, #263, #469, #606 ) ) ;
#682 = CARTESIAN_POINT ( 'NONE',  ( -15.88637091356622655, -0.04840031298732150322, -0.6644410128021965845 ) ) ;
#683 = DIRECTION ( 'NONE',  ( 0.000000000000000000, -0.000000000000000000, -1.000000000000000000 ) ) ;
#684 = DIRECTION ( 'NONE',  ( 0.000000000000000000, 0.000000000000000000, -1.000000000000000000 ) ) ;
#685 = EDGE_CURVE ( 'NONE', #44, #141, #108, .T. ) ;
#686 = ORIENTED_EDGE ( 'NONE', *, *, #738, .F. ) ;
#687 = DIRECTION ( 'NONE',  ( 0.000000000000000000, 0.000000000000000000, -1.000000000000000000 ) ) ;
#688 = DIRECTION ( 'NONE',  ( -0.000000000000000000, -1.000000000000000000, -0.000000000000000000 ) ) ;
#689 = EDGE_LOOP ( 'NONE', ( #531, #160, #725, #699 ) ) ;
#690 = AXIS2_PLACEMENT_3D ( 'NONE', #376, #654, #727 ) ;
#691 = DIRECTION ( 'NONE',  ( 0.000000000000000000, 0.000000000000000000, -1.000000000000000000 ) ) ;
#692 = PLANE ( 'NONE',  #67 ) ;
#693 = DIRECTION ( 'NONE',  ( -0.000000000000000000, -1.000000000000000000, -0.000000000000000000 ) ) ;
#694 = EDGE_LOOP ( 'NONE', ( #250, #323, #27, #475 ) ) ;
#695 = PLANE ( 'NONE',  #211 ) ;
#696 = EDGE_CURVE ( 'NONE', #878, #185, #851, .T. ) ;
#697 = DIRECTION ( 'NONE',  ( 0.000000000000000000, -1.000000000000000000, 0.000000000000000000 ) ) ;
#698 = ORIENTED_EDGE ( 'NONE', *, *, #359, .T. ) ;
#699 = ORIENTED_EDGE ( 'NONE', *, *, #282, .F. ) ;
#700 = DIRECTION ( 'NONE',  ( 0.000000000000000000, -1.000000000000000000, 0.000000000000000000 ) ) ;
#701 = DIRECTION ( 'NONE',  ( 0.000000000000000000, 0.000000000000000000, -1.000000000000000000 ) ) ;
#702 = B_SPLINE_CURVE_WITH_KNOTS ( 'NONE', 3,
 ( #734, #665, #321, #527, #113, #391, #199, #755, #405, #414 ),
 .UNSPECIFIED., .F., .F.,
 ( 4, 2, 2, 2, 4 ),
 ( 0.000000000000000000, 0.0003903589872001008462, 0.0007807179744002016924, 0.001171076961600302268, 0.001561435948800402951 ),
 .UNSPECIFIED. ) ;
#703 = AXIS2_PLACEMENT_3D ( 'NONE', #458, #517, #442 ) ;
#704 = CIRCLE ( 'NONE', #715, 14.75000000000000000 ) ;
#705 = CARTESIAN_POINT ( 'NONE',  ( -9.436997662984559554, 1.549999999999999822, 11.33602995359592214 ) ) ;
#706 = LINE ( 'NONE', #558, #647 ) ;
#707 = STYLED_ITEM ( 'NONE', ( #325 ), #255 ) ;
#708 = ADVANCED_FACE ( 'NONE', ( #84 ), #774, .F. ) ;
#709 = CARTESIAN_POINT ( 'NONE',  ( -14.74232081974974662, 2.722994681477474810, 0.4844011201690271440 ) ) ;
#710 = DIRECTION ( 'NONE',  ( 0.000000000000000000, 1.000000000000000000, 0.000000000000000000 ) ) ;
#711 = CYLINDRICAL_SURFACE ( 'NONE', #239, 0.3999999999999993006 ) ;
#712 = VERTEX_POINT ( 'NONE', #705 ) ;
#713 = CARTESIAN_POINT ( 'NONE',  ( 0.000000000000000000, -1.200000000000000178, 0.000000000000000000 ) ) ;
#714 = CARTESIAN_POINT ( 'NONE',  ( -13.92991385472286225, 2.449293598294707770E-17, -0.7483314773547888876 ) ) ;
#715 = AXIS2_PLACEMENT_3D ( 'NONE', #555, #6, #420 ) ;
#716 = ORIENTED_EDGE ( 'NONE', *, *, #605, .F. ) ;
#717 = VECTOR ( 'NONE', #847, 1000.000000000000000 ) ;
#718 = DIRECTION ( 'NONE',  ( 0.000000000000000000, -0.000000000000000000, -1.000000000000000000 ) ) ;
#719 = EDGE_CURVE ( 'NONE', #668, #393, #288, .T. ) ;
#720 = CARTESIAN_POINT ( 'NONE',  ( -15.85538548244186074, 2.223182975825413799, 1.198329467249162672 ) ) ;
#721 = ORIENTED_EDGE ( 'NONE', *, *, #289, .T. ) ;
#722 = CARTESIAN_POINT ( 'NONE',  ( -14.69852640379612119, 0.4357758767567288527, 1.232932082259390549 ) ) ;
#723 = CARTESIAN_POINT ( 'NONE',  ( -14.69853771945957632, 0.4353826792865584383, -1.232837592288301920 ) ) ;
#724 = CARTESIAN_POINT ( 'NONE',  ( -15.83299585941501419, 1.695289161070651751, 1.460104619914214696 ) ) ;
#725 = ORIENTED_EDGE ( 'NONE', *, *, #571, .F. ) ;
#726 = CARTESIAN_POINT ( 'NONE',  ( -14.72518148757045431, 0.06598618004782971780, 0.8629625421409479191 ) ) ;
#727 = DIRECTION ( 'NONE',  ( 0.000000000000000000, 0.000000000000000000, -1.000000000000000000 ) ) ;
#728 = CARTESIAN_POINT ( 'NONE',  ( 9.125145670222622130, 0.000000000000000000, -11.26861644112609540 ) ) ;
#729 = ORIENTED_EDGE ( 'NONE', *, *, #599, .F. ) ;
#730 = CIRCLE ( 'NONE', #340, 14.75000000000000000 ) ;
#731 = AXIS2_PLACEMENT_3D ( 'NONE', #94, #710, #577 ) ;
#732 = EDGE_CURVE ( 'NONE', #407, #31, #363, .T. ) ;
#733 = CARTESIAN_POINT ( 'NONE',  ( -14.67353059082918776, 1.300000000000000044, 1.500000000000000222 ) ) ;
#734 = CARTESIAN_POINT ( 'NONE',  ( -13.92991385472286225, 2.449293598294707770E-17, -0.7483314773547888876 ) ) ;
#735 = CARTESIAN_POINT ( 'NONE',  ( 1.708382284810557565E-15, 0.000000000000000000, 13.94999999999999929 ) ) ;
#736 = VERTEX_POINT ( 'NONE', #143 ) ;
#737 = VERTEX_POINT ( 'NONE', #224 ) ;
#738 = EDGE_CURVE ( 'NONE', #198, #893, #650, .T. ) ;
#739 = DIRECTION ( 'NONE',  ( 0.000000000000000000, 0.000000000000000000, -1.000000000000000000 ) ) ;
#740 = CARTESIAN_POINT ( 'NONE',  ( -9.512855920362417450, 1.549999999999999822, 10.94328891323014297 ) ) ;
#741 = ORIENTED_EDGE ( 'NONE', *, *, #454, .T. ) ;
#742 = ORIENTED_EDGE ( 'NONE', *, *, #238, .T. ) ;
#743 = CARTESIAN_POINT ( 'NONE',  ( -14.75000000000000000, 3.399999999999999911, 0.000000000000000000 ) ) ;
#744 = EDGE_CURVE ( 'NONE', #229, #626, #662, .T. ) ;
#745 = DIRECTION ( 'NONE',  ( -0.000000000000000000, 1.000000000000000000, -0.000000000000000000 ) ) ;
#746 = VERTEX_POINT ( 'NONE', #780 ) ;
#747 = VECTOR ( 'NONE', #267, 1000.000000000000000 ) ;
#748 = CIRCLE ( 'NONE', #438, 0.3999999999999993006 ) ;
#749 = CIRCLE ( 'NONE', #766, 0.3999999999999993006 ) ;
#750 = CIRCLE ( 'NONE', #360, 14.75000000000000000 ) ;
#751 = CARTESIAN_POINT ( 'NONE',  ( -15.84676287909915438, 0.5473576065775279664, -1.301181788121801519 ) ) ;
#752 = FILL_AREA_STYLE_COLOUR ( '', #633 ) ;
#753 = DIRECTION ( 'NONE',  ( -0.000000000000000000, -1.000000000000000000, -0.000000000000000000 ) ) ;
#754 = ORIENTED_EDGE ( 'NONE', *, *, #154, .T. ) ;
#755 = CARTESIAN_POINT ( 'NONE',  ( -13.94109189147364170, -0.1151553009331963140, 0.5140407228467176459 ) ) ;
#756 = DIRECTION ( 'NONE',  ( -0.000000000000000000, -1.000000000000000000, -0.000000000000000000 ) ) ;
#757 = FACE_OUTER_BOUND ( 'NONE', #631, .T. ) ;
#758 = VERTEX_POINT ( 'NONE', #639 ) ;
#759 = UNCERTAINTY_MEASURE_WITH_UNIT (LENGTH_MEASURE( 1.000000000000000082E-05 ), #52, 'distance_accuracy_value', 'NONE');
#760 = CARTESIAN_POINT ( 'NONE',  ( -15.82908714992750276, 1.300000000000000266, -1.500000000000000222 ) ) ;
#761 = CARTESIAN_POINT ( 'NONE',  ( 9.035627159002354247, 0.1749999999999998224, -11.65847081925837614 ) ) ;
#762 = DIRECTION ( 'NONE',  ( 0.000000000000000000, 0.000000000000000000, -1.000000000000000000 ) ) ;
#763 = ORIENTED_EDGE ( 'NONE', *, *, #605, .T. ) ;
#764 = AXIS2_PLACEMENT_3D ( 'NONE', #728, #816, #651 ) ;
#765 = EDGE_CURVE ( 'NONE', #129, #582, #854, .T. ) ;
#766 = AXIS2_PLACEMENT_3D ( 'NONE', #232, #445, #40 ) ;
#767 = CARTESIAN_POINT ( 'NONE',  ( -15.87387649277172841, 0.1071527997000566307, -0.9146930971402278399 ) ) ;
#768 = CIRCLE ( 'NONE', #9, 13.94999999999999929 ) ;
#769 = CARTESIAN_POINT ( 'NONE',  ( 1.806354028742345802E-15, 0.000000000000000000, 14.75000000000000000 ) ) ;
#770 = DIRECTION ( 'NONE',  ( -0.000000000000000000, -1.000000000000000000, -0.000000000000000000 ) ) ;
#771 = VERTEX_POINT ( 'NONE', #785 ) ;
#772 = ADVANCED_FACE ( 'NONE', ( #155 ), #711, .T. ) ;
#773 = DIRECTION ( 'NONE',  ( 0.000000000000000000, 0.000000000000000000, -1.000000000000000000 ) ) ;
#774 = CYLINDRICAL_SURFACE ( 'NONE', #456, 15.90000000000000036 ) ;
#775 = DIRECTION ( 'NONE',  ( -0.000000000000000000, -1.000000000000000000, -0.000000000000000000 ) ) ;
#776 = DIRECTION ( 'NONE',  ( -1.000000000000000000, -0.000000000000000000, -0.000000000000000000 ) ) ;
#777 = PRESENTATION_STYLE_ASSIGNMENT (( #569 ) ) ;
#778 = EDGE_CURVE ( 'NONE', #460, #374, #559, .T. ) ;
#779 = CIRCLE ( 'NONE', #826, 15.90000000000000036 ) ;
#780 = CARTESIAN_POINT ( 'NONE',  ( 10.28361152361844866, -1.200000000000000178, -12.12671983808077947 ) ) ;
#781 = CARTESIAN_POINT ( 'NONE',  ( 1.947188410644291774E-15, -1.200000000000000178, 15.90000000000000036 ) ) ;
#782 = AXIS2_PLACEMENT_3D ( 'NONE', #89, #285, #361 ) ;
#783 = AXIS2_PLACEMENT_3D ( 'NONE', #218, #425, #701 ) ;
#784 = ADVANCED_FACE ( 'NONE', ( #164 ), #867, .T. ) ;
#785 = CARTESIAN_POINT ( 'NONE',  ( -8.859308380325854770, -1.200000000000000178, 13.20313050084289941 ) ) ;
#786 = DIRECTION ( 'NONE',  ( 0.000000000000000000, 0.000000000000000000, -1.000000000000000000 ) ) ;
#787 = EDGE_LOOP ( 'NONE', ( #716, #595, #388, #461, #802, #330, #23, #591, #646, #5, #886, #396, #180 ) ) ;
#788 = DIRECTION ( 'NONE',  ( 0.000000000000000000, 0.000000000000000000, -1.000000000000000000 ) ) ;
#789 = FACE_OUTER_BOUND ( 'NONE', #694, .T. ) ;
#790 = ORIENTED_EDGE ( 'NONE', *, *, #221, .F. ) ;
#791 = B_SPLINE_CURVE_WITH_KNOTS ( 'NONE', 3,
 ( #584, #868, #311, #98, #117, #723, #804, #254, #248, #306 ),
 .UNSPECIFIED., .F., .F.,
 ( 4, 2, 2, 2, 4 ),
 ( 0.006259357003193103015, 0.006650536524094452159, 0.007041716044995802171, 0.007432895565897151315, 0.007824075086798500459 ),
 .UNSPECIFIED. ) ;
#792 = EDGE_CURVE ( 'NONE', #444, #814, #619, .T. ) ;
#793 = CARTESIAN_POINT ( 'NONE',  ( 0.000000000000000000, -1.200000000000000178, 0.000000000000000000 ) ) ;
#794 =( LENGTH_UNIT ( ) NAMED_UNIT ( * ) SI_UNIT ( .MILLI., .METRE. ) );
#795 = CIRCLE ( 'NONE', #222, 14.75000000000000000 ) ;
#796 = CARTESIAN_POINT ( 'NONE',  ( -9.512855920362417450, 1.549999999999999822, 10.94328891323014297 ) ) ;
#797 = AXIS2_PLACEMENT_3D ( 'NONE', #670, #441, #718 ) ;
#798 = VERTEX_POINT ( 'NONE', #879 ) ;
#799 = COLOUR_RGB ( '',0.7921568627450980005, 0.8196078431372548767, 0.9333333333333333481 ) ;
#800 = EDGE_CURVE ( 'NONE', #871, #712, #110, .T. ) ;
#801 = DIRECTION ( 'NONE',  ( 0.000000000000000000, -1.000000000000000000, 0.000000000000000000 ) ) ;
#802 = ORIENTED_EDGE ( 'NONE', *, *, #116, .T. ) ;
#803 = DIRECTION ( 'NONE',  ( 0.000000000000000000, 0.000000000000000000, -1.000000000000000000 ) ) ;
#804 = CARTESIAN_POINT ( 'NONE',  ( -14.70513390009235799, 0.3320257455452236273, -1.153313017499455695 ) ) ;
#805 = CARTESIAN_POINT ( 'NONE',  ( -15.88248808994520367, 2.602444774380657133, 0.7504898157688035809 ) ) ;
#806 = ORIENTED_EDGE ( 'NONE', *, *, #696, .T. ) ;
#807 = EDGE_CURVE ( 'NONE', #582, #746, #450, .T. ) ;
#808 = FACE_OUTER_BOUND ( 'NONE', #304, .T. ) ;
#809 = CARTESIAN_POINT ( 'NONE',  ( 9.525092739855574919, 1.549999999999999822, -11.26210940708491925 ) ) ;
#810 = EDGE_LOOP ( 'NONE', ( #437, #252 ) ) ;
#811 = VECTOR ( 'NONE', #776, 1000.000000000000000 ) ;
#812 = AXIS2_PLACEMENT_3D ( 'NONE', #713, #305, #244 ) ;
#813 = VECTOR ( 'NONE', #362, 1000.000000000000000 ) ;
#814 = VERTEX_POINT ( 'NONE', #171 ) ;
#815 = SURFACE_STYLE_USAGE ( .BOTH. , #880 ) ;
#816 = DIRECTION ( 'NONE',  ( -0.000000000000000000, -1.000000000000000000, -0.000000000000000000 ) ) ;
#817 = EDGE_LOOP ( 'NONE', ( #49, #508, #408, #485, #544, #422, #324, #763 ) ) ;
#818 = ORIENTED_EDGE ( 'NONE', *, *, #887, .T. ) ;
#819 = CARTESIAN_POINT ( 'NONE',  ( -15.82908714992750276, 1.200832144569260684, 1.500000000000000666 ) ) ;
#820 = DIRECTION ( 'NONE',  ( 0.000000000000000000, 0.000000000000000000, -1.000000000000000000 ) ) ;
#821 = DIRECTION ( 'NONE',  ( 0.000000000000000000, -1.000000000000000000, 0.000000000000000000 ) ) ;
#822 = CARTESIAN_POINT ( 'NONE',  ( -15.89552651485818124, -0.1519391505595273917, -0.3892265847017488123 ) ) ;
#823 = CYLINDRICAL_SURFACE ( 'NONE', #497, 14.75000000000000000 ) ;
#824 = CYLINDRICAL_SURFACE ( 'NONE', #57, 0.9499999999999995115 ) ;
#825 = MECHANICAL_DESIGN_GEOMETRIC_PRESENTATION_REPRESENTATION (  '', ( #707 ), #33 ) ;
#826 = AXIS2_PLACEMENT_3D ( 'NONE', #409, #126, #131 ) ;
#827 = ORIENTED_EDGE ( 'NONE', *, *, #293, .T. ) ;
#828 = AXIS2_PLACEMENT_3D ( 'NONE', #315, #29, #664 ) ;
#829 = AXIS2_PLACEMENT_3D ( 'NONE', #18, #775, #156 ) ;
#830 = CARTESIAN_POINT ( 'NONE',  ( 0.000000000000000000, -1.200000000000000178, 0.000000000000000000 ) ) ;
#831 = CARTESIAN_POINT ( 'NONE',  ( -8.859308380325854770, 0.7999999999999999334, 13.20313050084289941 ) ) ;
#832 = FACE_BOUND ( 'NONE', #272, .T. ) ;
#833 = ORIENTED_EDGE ( 'NONE', *, *, #64, .F. ) ;
#834 = CARTESIAN_POINT ( 'NONE',  ( -15.89614800539192174, -0.1605052237985645780, 0.3938283667591540582 ) ) ;
#835 = DIRECTION ( 'NONE',  ( -0.000000000000000000, -1.000000000000000000, -0.000000000000000000 ) ) ;
#836 = FACE_OUTER_BOUND ( 'NONE', #389, .T. ) ;
#837 = EDGE_CURVE ( 'NONE', #529, #198, #526, .T. ) ;
#838 = ORIENTED_EDGE ( 'NONE', *, *, #202, .T. ) ;
#839 = CARTESIAN_POINT ( 'NONE',  ( -15.90000333241116337, -0.2000353235605804025, -0.09735319646953308204 ) ) ;
#840 = DIRECTION ( 'NONE',  ( 0.000000000000000000, -0.000000000000000000, -1.000000000000000000 ) ) ;
#841 = DIRECTION ( 'NONE',  ( -1.000000000000000000, -0.000000000000000000, -0.000000000000000000 ) ) ;
#842 = ORIENTED_EDGE ( 'NONE', *, *, #28, .F. ) ;
#843 = AXIS2_PLACEMENT_3D ( 'NONE', #507, #660, #109 ) ;
#844 = AXIS2_PLACEMENT_3D ( 'NONE', #424, #700, #147 ) ;
#845 = DIRECTION ( 'NONE',  ( 0.000000000000000000, -1.000000000000000000, 0.000000000000000000 ) ) ;
#846 = CIRCLE ( 'NONE', #883, 13.94999999999999929 ) ;
#847 = DIRECTION ( 'NONE',  ( 0.000000000000000000, -1.000000000000000000, 0.000000000000000000 ) ) ;
#848 = EDGE_CURVE ( 'NONE', #393, #798, #93, .T. ) ;
#849 = CARTESIAN_POINT ( 'NONE',  ( -14.69259351536650549, 2.052595704733558346, -1.301221560673646582 ) ) ;
#850 = DIRECTION ( 'NONE',  ( 1.000000000000000000, 0.000000000000000000, 0.000000000000000000 ) ) ;
#851 = LINE ( 'NONE', #86, #342 ) ;
#852 = FACE_BOUND ( 'NONE', #283, .T. ) ;
#853 = VECTOR ( 'NONE', #195, 1000.000000000000000 ) ;
#854 = CIRCLE ( 'NONE', #256, 15.90000000000000036 ) ;
#855 = DIRECTION ( 'NONE',  ( 0.000000000000000000, -1.000000000000000000, 0.000000000000000000 ) ) ;
#856 = AXIS2_PLACEMENT_3D ( 'NONE', #8, #753, #206 ) ;
#857 = ORIENTED_EDGE ( 'NONE', *, *, #565, .F. ) ;
#858 = CARTESIAN_POINT ( 'NONE',  ( -14.69184900616683898, 2.055423017858811541, 1.310631821884830295 ) ) ;
#859 = DIRECTION ( 'NONE',  ( -1.000000000000000000, -0.000000000000000000, -0.000000000000000000 ) ) ;
#860 = EDGE_LOOP ( 'NONE', ( #279, #186 ) ) ;
#861 = CARTESIAN_POINT ( 'NONE',  ( 10.28361152361844866, 0.7999999999999999334, -12.12671983808077947 ) ) ;
#862 = PLANE ( 'NONE',  #865 ) ;
#863 = CARTESIAN_POINT ( 'NONE',  ( -15.84610768343332232, 2.056058431320986202, 1.310165894222263150 ) ) ;
#864 = ORIENTED_EDGE ( 'NONE', *, *, #512, .F. ) ;
#865 = AXIS2_PLACEMENT_3D ( 'NONE', #46, #580, #165 ) ;
#866 = B_SPLINE_CURVE_WITH_KNOTS ( 'NONE', 3,
 ( #547, #819, #399, #61, #280, #339, #537, #276, #1, #894, #486, #834, #618, #839, #208, #822, #265, #682, #204, #767, #51, #611, #261, #751, #142, #334, #678, #192, #481, #760 ),
 .UNSPECIFIED., .F., .F.,
 ( 4, 2, 2, 2, 2, 2, 2, 2, 2, 2, 2, 2, 2, 2, 4 ),
 ( 0.000000000000000000, 0.0002932681555400033606, 0.0005865363110800067212, 0.0008798044666200099733, 0.001173072622160013009, 0.001759608933240019079, 0.002346145244320024716, 0.002639413399860028077, 0.002932681555400031004, 0.003225949710940033497, 0.003519217866480036424, 0.003812486022020038917, 0.004105754177560040977, 0.004399022333100043036, 0.004692290488640045096 ),
 .UNSPECIFIED. ) ;
#867 = CYLINDRICAL_SURFACE ( 'NONE', #162, 0.3999999999999993006 ) ;
#868 = CARTESIAN_POINT ( 'NONE',  ( -14.67353059082919131, 1.169578016737673698, -1.500000000000000222 ) ) ;
#869 = CIRCLE ( 'NONE', #600, 0.9499999999999995115 ) ;
#870 = CARTESIAN_POINT ( 'NONE',  ( -8.859308380325854770, 0.7999999999999999334, 13.20313050084289941 ) ) ;
#871 = VERTEX_POINT ( 'NONE', #34 ) ;
#872 = VECTOR ( 'NONE', #770, 1000.000000000000000 ) ;
#873 = ADVANCED_FACE ( 'NONE', ( #24 ), #320, .F. ) ;
#874 = FACE_OUTER_BOUND ( 'NONE', #465, .T. ) ;
#875 = ORIENTED_EDGE ( 'NONE', *, *, #610, .T. ) ;
#876 = EDGE_CURVE ( 'NONE', #44, #746, #273, .T. ) ;
#877 = DIRECTION ( 'NONE',  ( -0.000000000000000000, -1.000000000000000000, -0.000000000000000000 ) ) ;
#878 = VERTEX_POINT ( 'NONE', #247 ) ;
#879 = CARTESIAN_POINT ( 'NONE',  ( 0.000000000000000000, -1.200000000000000178, -15.90000000000000036 ) ) ;
#880 = SURFACE_SIDE_STYLE ('',( #380 ) ) ;
#881 = CARTESIAN_POINT ( 'NONE',  ( -15.82908714992750276, 1.300000000000000266, -1.500000000000000222 ) ) ;
#882 = ORIENTED_EDGE ( 'NONE', *, *, #616, .F. ) ;
#883 = AXIS2_PLACEMENT_3D ( 'NONE', #124, #693, #402 ) ;
#884 = FACE_BOUND ( 'NONE', #63, .T. ) ;
#885 = CARTESIAN_POINT ( 'NONE',  ( 0.000000000000000000, 0.000000000000000000, 0.000000000000000000 ) ) ;
#886 = ORIENTED_EDGE ( 'NONE', *, *, #778, .T. ) ;
#887 = EDGE_CURVE ( 'NONE', #871, #104, #749, .T. ) ;
#888 = ORIENTED_EDGE ( 'NONE', *, *, #383, .F. ) ;
#889 = FACE_OUTER_BOUND ( 'NONE', #519, .T. ) ;
#890 = DIRECTION ( 'NONE',  ( -0.000000000000000000, -1.000000000000000000, -0.000000000000000000 ) ) ;
#891 = CARTESIAN_POINT ( 'NONE',  ( 1.806354028742345802E-15, -1.653273178848924648E-16, 14.75000000000000000 ) ) ;
#892 = APPLICATION_CONTEXT ( 'automotive_design' ) ;
#893 = VERTEX_POINT ( 'NONE', #588 ) ;
#894 = CARTESIAN_POINT ( 'NONE',  ( -15.87384388913012145, 0.1008514138985780323, 0.9221189300868015692 ) ) ;
#895 = SURFACE_STYLE_USAGE ( .BOTH. , #903 ) ;
#896 = CARTESIAN_POINT ( 'NONE',  ( -9.767458575362267581, -1.200000000000000178, 12.92426992052480017 ) ) ;
#897 = AXIS2_PLACEMENT_3D ( 'NONE', #674, #266, #620 ) ;
#898 = ORIENTED_EDGE ( 'NONE', *, *, #251, .F. ) ;
#899 = PRODUCT_DEFINITION_CONTEXT ( 'detailed design', #430, 'design' ) ;
#900 = DIRECTION ( 'NONE',  ( 1.000000000000000000, 0.000000000000000000, 0.000000000000000000 ) ) ;
#901 = DIRECTION ( 'NONE',  ( 0.000000000000000000, 0.000000000000000000, -1.000000000000000000 ) ) ;
#902 = ADVANCED_FACE ( 'NONE', ( #506 ), #45, .T. ) ;
#903 = SURFACE_SIDE_STYLE ('',( #400 ) ) ;
#904 = CYLINDRICAL_SURFACE ( 'NONE', #511, 0.9499999999999995115 ) ;
#905 = ORIENTED_EDGE ( 'NONE', *, *, #39, .F. ) ;
ENDSEC;
END-ISO-10303-21;
