ISO-10303-21;
HEADER;
FILE_DESCRIPTION (( 'STEP AP214' ),
    '1' );
FILE_NAME ('Glass Bracket_with Chapter Ring.STEP',
    '2024-02-05T17:18:13',
    ( '' ),
    ( '' ),
    'SwSTEP 2.0',
    'SolidWorks 2023',
    '' );
FILE_SCHEMA (( 'AUTOMOTIVE_DESIGN' ));
ENDSEC;

DATA;
#1 = ORIENTED_EDGE ( 'NONE', *, *, #200, .F. ) ;
#2 = AXIS2_PLACEMENT_3D ( 'NONE', #247, #77, #155 ) ;
#3 = EDGE_CURVE ( 'NONE', #6, #142, #135, .T. ) ;
#4 = EDGE_LOOP ( 'NONE', ( #80, #84 ) ) ;
#5 = ORIENTED_EDGE ( 'NONE', *, *, #21, .F. ) ;
#6 = VERTEX_POINT ( 'NONE', #143 ) ;
#7 = CLOSED_SHELL ( 'NONE', ( #249, #240, #83, #42, #221, #208, #245, #95 ) ) ;
#8 = EDGE_LOOP ( 'NONE', ( #65, #175, #121, #161 ) ) ;
#9 = FACE_OUTER_BOUND ( 'NONE', #178, .T. ) ;
#10 = CARTESIAN_POINT ( 'NONE',  ( 0.000000000000000000, 0.000000000000000000, 0.000000000000000000 ) ) ;
#11 = CYLINDRICAL_SURFACE ( 'NONE', #176, 16.00000000000000000 ) ;
#12 = EDGE_CURVE ( 'NONE', #193, #6, #29, .T. ) ;
#13 = FACE_BOUND ( 'NONE', #174, .T. ) ;
#14 = CARTESIAN_POINT ( 'NONE',  ( 0.000000000000000000, 2.899999999999999911, 0.000000000000000000 ) ) ;
#15 = EDGE_CURVE ( 'NONE', #103, #213, #233, .T. ) ;
#16 = APPLICATION_PROTOCOL_DEFINITION ( 'draft international standard', 'automotive_design', 1998, #148 ) ;
#17 = DIRECTION ( 'NONE',  ( 0.000000000000000000, 0.000000000000000000, -1.000000000000000000 ) ) ;
#18 = CARTESIAN_POINT ( 'NONE',  ( 0.000000000000000000, 2.899999999999999911, -14.75000000000000000 ) ) ;
#19 = CARTESIAN_POINT ( 'NONE',  ( 0.000000000000000000, 2.899999999999999911, 0.000000000000000000 ) ) ;
#20 = FACE_OUTER_BOUND ( 'NONE', #25, .T. ) ;
#21 = EDGE_CURVE ( 'NONE', #160, #193, #194, .T. ) ;
#22 = ORIENTED_EDGE ( 'NONE', *, *, #3, .T. ) ;
#23 = CIRCLE ( 'NONE', #210, 16.00000000000000000 ) ;
#24 = AXIS2_PLACEMENT_3D ( 'NONE', #58, #149, #170 ) ;
#25 = EDGE_LOOP ( 'NONE', ( #1, #195, #81, #66 ) ) ;
#26 = EDGE_LOOP ( 'NONE', ( #197, #44, #106, #22 ) ) ;
#27 = VERTEX_POINT ( 'NONE', #217 ) ;
#28 = DIRECTION ( 'NONE',  ( 3.796657352526744832E-17, 0.9507298394814789333, -0.3100205998309166211 ) ) ;
#29 = LINE ( 'NONE', #108, #115 ) ;
#30 = CARTESIAN_POINT ( 'NONE',  ( 0.000000000000000000, 0.000000000000000000, 0.000000000000000000 ) ) ;
#31 = SHAPE_DEFINITION_REPRESENTATION ( #114, #78 ) ;
#32 = PRESENTATION_STYLE_ASSIGNMENT (( #128 ) ) ;
#33 = CARTESIAN_POINT ( 'NONE',  ( 0.000000000000000000, 0.000000000000000000, -14.75000000000000000 ) ) ;
#34 =( NAMED_UNIT ( * ) SI_UNIT ( $, .STERADIAN. ) SOLID_ANGLE_UNIT ( ) );
#35 =( NAMED_UNIT ( * ) PLANE_ANGLE_UNIT ( ) SI_UNIT ( $, .RADIAN. ) );
#36 = VECTOR ( 'NONE', #91, 1000.000000000000000 ) ;
#37 = CIRCLE ( 'NONE', #229, 14.75000000000000000 ) ;
#38 = FACE_BOUND ( 'NONE', #192, .T. ) ;
#39 = DIRECTION ( 'NONE',  ( 0.000000000000000000, 0.000000000000000000, -1.000000000000000000 ) ) ;
#40 = AXIS2_PLACEMENT_3D ( 'NONE', #69, #167, #87 ) ;
#41 = EDGE_LOOP ( 'NONE', ( #231, #123, #62, #43 ) ) ;
#42 = ADVANCED_FACE ( 'NONE', ( #13, #109 ), #163, .F. ) ;
#43 = ORIENTED_EDGE ( 'NONE', *, *, #49, .F. ) ;
#44 = ORIENTED_EDGE ( 'NONE', *, *, #97, .F. ) ;
#45 = VECTOR ( 'NONE', #201, 1000.000000000000000 ) ;
#46 = AXIS2_PLACEMENT_3D ( 'NONE', #99, #172, #246 ) ;
#47 = ORIENTED_EDGE ( 'NONE', *, *, #3, .F. ) ;
#48 = ORIENTED_EDGE ( 'NONE', *, *, #181, .F. ) ;
#49 = EDGE_CURVE ( 'NONE', #160, #142, #93, .T. ) ;
#50 = EDGE_LOOP ( 'NONE', ( #54, #85 ) ) ;
#51 =( GEOMETRIC_REPRESENTATION_CONTEXT ( 3 ) GLOBAL_UNCERTAINTY_ASSIGNED_CONTEXT ( ( #75 ) ) GLOBAL_UNIT_ASSIGNED_CONTEXT ( ( #165, #35, #57 ) ) REPRESENTATION_CONTEXT ( 'NONE', 'WORKASPACE' ) );
#52 = CARTESIAN_POINT ( 'NONE',  ( 0.000000000000000000, -4.347496136973113980E-17, 14.00000000000000000 ) ) ;
#53 = DIRECTION ( 'NONE',  ( 0.000000000000000000, 0.000000000000000000, -1.000000000000000000 ) ) ;
#54 = ORIENTED_EDGE ( 'NONE', *, *, #196, .F. ) ;
#55 = FILL_AREA_STYLE ('',( #74 ) ) ;
#56 = DIRECTION ( 'NONE',  ( -0.000000000000000000, -1.000000000000000000, -0.000000000000000000 ) ) ;
#57 =( NAMED_UNIT ( * ) SI_UNIT ( $, .STERADIAN. ) SOLID_ANGLE_UNIT ( ) );
#58 = CARTESIAN_POINT ( 'NONE',  ( 0.000000000000000000, 0.000000000000000000, 0.000000000000000000 ) ) ;
#59 = PRODUCT_DEFINITION_FORMATION_WITH_SPECIFIED_SOURCE ( 'ANY', '', #232, .NOT_KNOWN. ) ;
#60 = DIRECTION ( 'NONE',  ( -0.000000000000000000, -1.000000000000000000, -0.000000000000000000 ) ) ;
#61 = DIRECTION ( 'NONE',  ( -0.000000000000000000, -1.000000000000000000, -0.000000000000000000 ) ) ;
#62 = ORIENTED_EDGE ( 'NONE', *, *, #223, .F. ) ;
#63 = AXIS2_PLACEMENT_3D ( 'NONE', #137, #117, #17 ) ;
#64 = ORIENTED_EDGE ( 'NONE', *, *, #141, .F. ) ;
#65 = ORIENTED_EDGE ( 'NONE', *, *, #215, .F. ) ;
#66 = ORIENTED_EDGE ( 'NONE', *, *, #15, .F. ) ;
#67 = CONICAL_SURFACE ( 'NONE', #214, 14.00000000000000000, 0.3152146997507106474 ) ;
#68 = DIRECTION ( 'NONE',  ( 0.000000000000000000, 0.000000000000000000, -1.000000000000000000 ) ) ;
#69 = CARTESIAN_POINT ( 'NONE',  ( 0.000000000000000000, 0.000000000000000000, 0.000000000000000000 ) ) ;
#70 = STYLED_ITEM ( 'NONE', ( #32 ), #166 ) ;
#71 = LINE ( 'NONE', #147, #105 ) ;
#72 = CARTESIAN_POINT ( 'NONE',  ( 0.000000000000000000, 0.000000000000000000, 14.00000000000000000 ) ) ;
#73 = DIRECTION ( 'NONE',  ( 0.000000000000000000, 1.000000000000000000, 0.000000000000000000 ) ) ;
#74 = FILL_AREA_STYLE_COLOUR ( '', #104 ) ;
#75 = UNCERTAINTY_MEASURE_WITH_UNIT (LENGTH_MEASURE( 1.000000000000000082E-05 ), #165, 'distance_accuracy_value', 'NONE');
#76 = EDGE_CURVE ( 'NONE', #100, #142, #169, .T. ) ;
#77 = DIRECTION ( 'NONE',  ( -0.000000000000000000, -1.000000000000000000, -0.000000000000000000 ) ) ;
#78 = ADVANCED_BREP_SHAPE_REPRESENTATION ( 'Glass Bracket_with Chapter Ring', ( #166, #131 ), #153 ) ;
#79 = DIRECTION ( 'NONE',  ( -0.000000000000000000, -1.000000000000000000, -0.000000000000000000 ) ) ;
#80 = ORIENTED_EDGE ( 'NONE', *, *, #133, .T. ) ;
#81 = ORIENTED_EDGE ( 'NONE', *, *, #141, .T. ) ;
#82 = ORIENTED_EDGE ( 'NONE', *, *, #181, .T. ) ;
#83 = ADVANCED_FACE ( 'NONE', ( #9 ), #11, .T. ) ;
#84 = ORIENTED_EDGE ( 'NONE', *, *, #15, .T. ) ;
#85 = ORIENTED_EDGE ( 'NONE', *, *, #173, .F. ) ;
#86 = EDGE_CURVE ( 'NONE', #212, #6, #107, .T. ) ;
#87 = DIRECTION ( 'NONE',  ( 0.000000000000000000, 0.000000000000000000, 1.000000000000000000 ) ) ;
#88 = DIRECTION ( 'NONE',  ( 0.000000000000000000, 0.000000000000000000, -1.000000000000000000 ) ) ;
#89 = CYLINDRICAL_SURFACE ( 'NONE', #120, 14.75000000000000000 ) ;
#90 = AXIS2_PLACEMENT_3D ( 'NONE', #52, #113, #218 ) ;
#91 = DIRECTION ( 'NONE',  ( -0.000000000000000000, -1.000000000000000000, -0.000000000000000000 ) ) ;
#92 = DIRECTION ( 'NONE',  ( 1.000000000000000000, 0.000000000000000000, 0.000000000000000000 ) ) ;
#93 = LINE ( 'NONE', #198, #152 ) ;
#94 = APPLICATION_PROTOCOL_DEFINITION ( 'draft international standard', 'automotive_design', 1998, #136 ) ;
#95 = ADVANCED_FACE ( 'NONE', ( #186 ), #237, .F. ) ;
#96 = CYLINDRICAL_SURFACE ( 'NONE', #24, 14.75000000000000000 ) ;
#97 = EDGE_CURVE ( 'NONE', #212, #100, #179, .T. ) ;
#98 = CARTESIAN_POINT ( 'NONE',  ( 1.959434878635765131E-15, 0.000000000000000000, 16.00000000000000000 ) ) ;
#99 = CARTESIAN_POINT ( 'NONE',  ( 0.000000000000000000, 0.000000000000000000, 0.000000000000000000 ) ) ;
#100 = VERTEX_POINT ( 'NONE', #241 ) ;
#101 = AXIS2_PLACEMENT_3D ( 'NONE', #30, #56, #124 ) ;
#102 = CIRCLE ( 'NONE', #46, 14.00000000000000000 ) ;
#103 = VERTEX_POINT ( 'NONE', #164 ) ;
#104 = COLOUR_RGB ( '',0.7921568627450980005, 0.8196078431372548767, 0.9333333333333333481 ) ;
#105 = VECTOR ( 'NONE', #150, 1000.000000000000000 ) ;
#106 = ORIENTED_EDGE ( 'NONE', *, *, #86, .T. ) ;
#107 = LINE ( 'NONE', #33, #36 ) ;
#108 = CARTESIAN_POINT ( 'NONE',  ( 1.714505518806294638E-15, 0.000000000000000000, -14.00000000000000000 ) ) ;
#109 = FACE_OUTER_BOUND ( 'NONE', #4, .T. ) ;
#110 = DIRECTION ( 'NONE',  ( 0.000000000000000000, 0.000000000000000000, 1.000000000000000000 ) ) ;
#111 = DIRECTION ( 'NONE',  ( 0.000000000000000000, 0.000000000000000000, -1.000000000000000000 ) ) ;
#112 = FACE_OUTER_BOUND ( 'NONE', #8, .T. ) ;
#113 = DIRECTION ( 'NONE',  ( 0.000000000000000000, 1.000000000000000000, 0.000000000000000000 ) ) ;
#114 = PRODUCT_DEFINITION_SHAPE ( 'NONE', 'NONE',  #156 ) ;
#115 = VECTOR ( 'NONE', #28, 1000.000000000000000 ) ;
#116 = AXIS2_PLACEMENT_3D ( 'NONE', #225, #191, #39 ) ;
#117 = DIRECTION ( 'NONE',  ( 0.000000000000000000, -1.000000000000000000, -0.000000000000000000 ) ) ;
#118 = CARTESIAN_POINT ( 'NONE',  ( 0.000000000000000000, 0.000000000000000000, 0.000000000000000000 ) ) ;
#119 = DIRECTION ( 'NONE',  ( -0.000000000000000000, -1.000000000000000000, -0.000000000000000000 ) ) ;
#120 = AXIS2_PLACEMENT_3D ( 'NONE', #244, #168, #220 ) ;
#121 = ORIENTED_EDGE ( 'NONE', *, *, #223, .T. ) ;
#122 = ORIENTED_EDGE ( 'NONE', *, *, #49, .T. ) ;
#123 = ORIENTED_EDGE ( 'NONE', *, *, #12, .T. ) ;
#124 = DIRECTION ( 'NONE',  ( 0.000000000000000000, 0.000000000000000000, -1.000000000000000000 ) ) ;
#125 = AXIS2_PLACEMENT_3D ( 'NONE', #203, #180, #235 ) ;
#126 = DIRECTION ( 'NONE',  ( 0.000000000000000000, 0.000000000000000000, -1.000000000000000000 ) ) ;
#127 = CARTESIAN_POINT ( 'NONE',  ( 0.000000000000000000, 0.000000000000000000, 0.000000000000000000 ) ) ;
#128 = SURFACE_STYLE_USAGE ( .BOTH. , #243 ) ;
#129 = CARTESIAN_POINT ( 'NONE',  ( 1.806354028742345802E-15, 0.000000000000000000, 14.75000000000000000 ) ) ;
#130 = CARTESIAN_POINT ( 'NONE',  ( 0.000000000000000000, 0.000000000000000000, 0.000000000000000000 ) ) ;
#131 = AXIS2_PLACEMENT_3D ( 'NONE', #127, #188, #92 ) ;
#132 =( LENGTH_UNIT ( ) NAMED_UNIT ( * ) SI_UNIT ( .MILLI., .METRE. ) );
#133 = EDGE_CURVE ( 'NONE', #213, #103, #23, .T. ) ;
#134 = PLANE ( 'NONE',  #63 ) ;
#135 = CIRCLE ( 'NONE', #228, 14.75000000000000000 ) ;
#136 = APPLICATION_CONTEXT ( 'automotive_design' ) ;
#137 = CARTESIAN_POINT ( 'NONE',  ( 0.000000000000000000, 2.899999999999999911, 16.00000000000000000 ) ) ;
#138 = DIRECTION ( 'NONE',  ( 0.000000000000000000, 0.000000000000000000, -1.000000000000000000 ) ) ;
#139 = VERTEX_POINT ( 'NONE', #236 ) ;
#140 = ORIENTED_EDGE ( 'NONE', *, *, #12, .F. ) ;
#141 = EDGE_CURVE ( 'NONE', #139, #213, #71, .T. ) ;
#142 = VERTEX_POINT ( 'NONE', #184 ) ;
#143 = CARTESIAN_POINT ( 'NONE',  ( 0.000000000000000000, 2.299999999999999822, -14.75000000000000000 ) ) ;
#144 = DIRECTION ( 'NONE',  ( -0.000000000000000000, -1.000000000000000000, -0.000000000000000000 ) ) ;
#145 = PRESENTATION_LAYER_ASSIGNMENT (  '', '', ( #70 ) ) ;
#146 = ORIENTED_EDGE ( 'NONE', *, *, #200, .T. ) ;
#147 = CARTESIAN_POINT ( 'NONE',  ( 0.000000000000000000, 0.000000000000000000, -16.00000000000000000 ) ) ;
#148 = APPLICATION_CONTEXT ( 'automotive_design' ) ;
#149 = DIRECTION ( 'NONE',  ( -0.000000000000000000, -1.000000000000000000, -0.000000000000000000 ) ) ;
#150 = DIRECTION ( 'NONE',  ( -0.000000000000000000, -1.000000000000000000, -0.000000000000000000 ) ) ;
#151 = UNCERTAINTY_MEASURE_WITH_UNIT (LENGTH_MEASURE( 1.000000000000000082E-05 ), #132, 'distance_accuracy_value', 'NONE');
#152 = VECTOR ( 'NONE', #182, 1000.000000000000000 ) ;
#153 =( GEOMETRIC_REPRESENTATION_CONTEXT ( 3 ) GLOBAL_UNCERTAINTY_ASSIGNED_CONTEXT ( ( #151 ) ) GLOBAL_UNIT_ASSIGNED_CONTEXT ( ( #132, #204, #34 ) ) REPRESENTATION_CONTEXT ( 'NONE', 'WORKASPACE' ) );
#154 = CIRCLE ( 'NONE', #189, 16.00000000000000000 ) ;
#155 = DIRECTION ( 'NONE',  ( 0.000000000000000000, 0.000000000000000000, -1.000000000000000000 ) ) ;
#156 = PRODUCT_DEFINITION ( 'UNKNOWN', '', #59, #185 ) ;
#157 = FACE_OUTER_BOUND ( 'NONE', #50, .T. ) ;
#158 = ORIENTED_EDGE ( 'NONE', *, *, #97, .T. ) ;
#159 = PRODUCT_RELATED_PRODUCT_CATEGORY ( 'part', '', ( #232 ) ) ;
#160 = VERTEX_POINT ( 'NONE', #72 ) ;
#161 = ORIENTED_EDGE ( 'NONE', *, *, #86, .F. ) ;
#162 = CARTESIAN_POINT ( 'NONE',  ( 0.000000000000000000, 2.299999999999999822, 0.000000000000000000 ) ) ;
#163 = PLANE ( 'NONE',  #90 ) ;
#164 = CARTESIAN_POINT ( 'NONE',  ( 1.959434878635765131E-15, -8.694992273946227961E-17, 16.00000000000000000 ) ) ;
#165 =( LENGTH_UNIT ( ) NAMED_UNIT ( * ) SI_UNIT ( .MILLI., .METRE. ) );
#166 = MANIFOLD_SOLID_BREP ( 'Revolve1', #7 ) ;
#167 = DIRECTION ( 'NONE',  ( 0.000000000000000000, 1.000000000000000000, 0.000000000000000000 ) ) ;
#168 = DIRECTION ( 'NONE',  ( -0.000000000000000000, -1.000000000000000000, -0.000000000000000000 ) ) ;
#169 = LINE ( 'NONE', #129, #45 ) ;
#170 = DIRECTION ( 'NONE',  ( 0.000000000000000000, 0.000000000000000000, -1.000000000000000000 ) ) ;
#171 = VECTOR ( 'NONE', #60, 1000.000000000000000 ) ;
#172 = DIRECTION ( 'NONE',  ( -0.000000000000000000, -1.000000000000000000, -0.000000000000000000 ) ) ;
#173 = EDGE_CURVE ( 'NONE', #27, #139, #154, .T. ) ;
#174 = EDGE_LOOP ( 'NONE', ( #5, #48 ) ) ;
#175 = ORIENTED_EDGE ( 'NONE', *, *, #76, .T. ) ;
#176 = AXIS2_PLACEMENT_3D ( 'NONE', #10, #222, #126 ) ;
#177 = MECHANICAL_DESIGN_GEOMETRIC_PRESENTATION_REPRESENTATION (  '', ( #70 ), #51 ) ;
#178 = EDGE_LOOP ( 'NONE', ( #227, #146, #216, #64 ) ) ;
#179 = CIRCLE ( 'NONE', #207, 14.75000000000000000 ) ;
#180 = DIRECTION ( 'NONE',  ( -0.000000000000000000, -1.000000000000000000, -0.000000000000000000 ) ) ;
#181 = EDGE_CURVE ( 'NONE', #193, #160, #102, .T. ) ;
#182 = DIRECTION ( 'NONE',  ( 0.000000000000000000, 0.9507298394814789333, 0.3100205998309166211 ) ) ;
#183 = CIRCLE ( 'NONE', #116, 16.00000000000000000 ) ;
#184 = CARTESIAN_POINT ( 'NONE',  ( 1.806354028742345802E-15, 2.299999999999999822, 14.75000000000000000 ) ) ;
#185 = PRODUCT_DEFINITION_CONTEXT ( 'detailed design', #148, 'design' ) ;
#186 = FACE_OUTER_BOUND ( 'NONE', #211, .T. ) ;
#187 = PRODUCT_CONTEXT ( 'NONE', #136, 'mechanical' ) ;
#188 = DIRECTION ( 'NONE',  ( 0.000000000000000000, 0.000000000000000000, 1.000000000000000000 ) ) ;
#189 = AXIS2_PLACEMENT_3D ( 'NONE', #19, #79, #206 ) ;
#190 = CARTESIAN_POINT ( 'NONE',  ( 0.000000000000000000, -8.694992273946227961E-17, -16.00000000000000000 ) ) ;
#191 = DIRECTION ( 'NONE',  ( -0.000000000000000000, -1.000000000000000000, -0.000000000000000000 ) ) ;
#192 = EDGE_LOOP ( 'NONE', ( #158, #230 ) ) ;
#193 = VERTEX_POINT ( 'NONE', #248 ) ;
#194 = CIRCLE ( 'NONE', #101, 14.00000000000000000 ) ;
#195 = ORIENTED_EDGE ( 'NONE', *, *, #173, .T. ) ;
#196 = EDGE_CURVE ( 'NONE', #139, #27, #183, .T. ) ;
#197 = ORIENTED_EDGE ( 'NONE', *, *, #76, .F. ) ;
#198 = CARTESIAN_POINT ( 'NONE',  ( 0.000000000000000000, 0.000000000000000000, 14.00000000000000000 ) ) ;
#199 = CIRCLE ( 'NONE', #2, 14.75000000000000000 ) ;
#200 = EDGE_CURVE ( 'NONE', #27, #103, #224, .T. ) ;
#201 = DIRECTION ( 'NONE',  ( -0.000000000000000000, -1.000000000000000000, -0.000000000000000000 ) ) ;
#202 = SURFACE_STYLE_FILL_AREA ( #55 ) ;
#203 = CARTESIAN_POINT ( 'NONE',  ( 0.000000000000000000, -8.694992273946227961E-17, 0.000000000000000000 ) ) ;
#204 =( NAMED_UNIT ( * ) PLANE_ANGLE_UNIT ( ) SI_UNIT ( $, .RADIAN. ) );
#205 = CARTESIAN_POINT ( 'NONE',  ( 0.000000000000000000, -8.694992273946227961E-17, 0.000000000000000000 ) ) ;
#206 = DIRECTION ( 'NONE',  ( 0.000000000000000000, 0.000000000000000000, -1.000000000000000000 ) ) ;
#207 = AXIS2_PLACEMENT_3D ( 'NONE', #14, #144, #88 ) ;
#208 = ADVANCED_FACE ( 'NONE', ( #157, #38 ), #134, .F. ) ;
#209 = CARTESIAN_POINT ( 'NONE',  ( 0.000000000000000000, 2.299999999999999822, 0.000000000000000000 ) ) ;
#210 = AXIS2_PLACEMENT_3D ( 'NONE', #205, #239, #111 ) ;
#211 = EDGE_LOOP ( 'NONE', ( #140, #82, #122, #47 ) ) ;
#212 = VERTEX_POINT ( 'NONE', #18 ) ;
#213 = VERTEX_POINT ( 'NONE', #190 ) ;
#214 = AXIS2_PLACEMENT_3D ( 'NONE', #130, #73, #110 ) ;
#215 = EDGE_CURVE ( 'NONE', #100, #212, #199, .T. ) ;
#216 = ORIENTED_EDGE ( 'NONE', *, *, #133, .F. ) ;
#217 = CARTESIAN_POINT ( 'NONE',  ( 1.959434878635765131E-15, 2.899999999999999911, 16.00000000000000000 ) ) ;
#218 = DIRECTION ( 'NONE',  ( 0.000000000000000000, -0.000000000000000000, 1.000000000000000000 ) ) ;
#219 = FACE_OUTER_BOUND ( 'NONE', #41, .T. ) ;
#220 = DIRECTION ( 'NONE',  ( 0.000000000000000000, 0.000000000000000000, -1.000000000000000000 ) ) ;
#221 = ADVANCED_FACE ( 'NONE', ( #20 ), #226, .T. ) ;
#222 = DIRECTION ( 'NONE',  ( -0.000000000000000000, -1.000000000000000000, -0.000000000000000000 ) ) ;
#223 = EDGE_CURVE ( 'NONE', #142, #6, #37, .T. ) ;
#224 = LINE ( 'NONE', #98, #171 ) ;
#225 = CARTESIAN_POINT ( 'NONE',  ( 0.000000000000000000, 2.899999999999999911, 0.000000000000000000 ) ) ;
#226 = CYLINDRICAL_SURFACE ( 'NONE', #238, 16.00000000000000000 ) ;
#227 = ORIENTED_EDGE ( 'NONE', *, *, #196, .T. ) ;
#228 = AXIS2_PLACEMENT_3D ( 'NONE', #162, #234, #68 ) ;
#229 = AXIS2_PLACEMENT_3D ( 'NONE', #209, #119, #53 ) ;
#230 = ORIENTED_EDGE ( 'NONE', *, *, #215, .T. ) ;
#231 = ORIENTED_EDGE ( 'NONE', *, *, #21, .T. ) ;
#232 = PRODUCT ( 'Glass Bracket_with Chapter Ring', 'Glass Bracket_with Chapter Ring', '', ( #187 ) ) ;
#233 = CIRCLE ( 'NONE', #125, 16.00000000000000000 ) ;
#234 = DIRECTION ( 'NONE',  ( -0.000000000000000000, -1.000000000000000000, -0.000000000000000000 ) ) ;
#235 = DIRECTION ( 'NONE',  ( 0.000000000000000000, 0.000000000000000000, -1.000000000000000000 ) ) ;
#236 = CARTESIAN_POINT ( 'NONE',  ( 0.000000000000000000, 2.899999999999999911, -16.00000000000000000 ) ) ;
#237 = CONICAL_SURFACE ( 'NONE', #40, 14.00000000000000000, 0.3152146997507106474 ) ;
#238 = AXIS2_PLACEMENT_3D ( 'NONE', #118, #61, #138 ) ;
#239 = DIRECTION ( 'NONE',  ( -0.000000000000000000, -1.000000000000000000, -0.000000000000000000 ) ) ;
#240 = ADVANCED_FACE ( 'NONE', ( #112 ), #96, .F. ) ;
#241 = CARTESIAN_POINT ( 'NONE',  ( 1.806354028742345802E-15, 2.899999999999999911, 14.75000000000000000 ) ) ;
#242 = FACE_OUTER_BOUND ( 'NONE', #26, .T. ) ;
#243 = SURFACE_SIDE_STYLE ('',( #202 ) ) ;
#244 = CARTESIAN_POINT ( 'NONE',  ( 0.000000000000000000, 0.000000000000000000, 0.000000000000000000 ) ) ;
#245 = ADVANCED_FACE ( 'NONE', ( #242 ), #89, .F. ) ;
#246 = DIRECTION ( 'NONE',  ( 0.000000000000000000, 0.000000000000000000, -1.000000000000000000 ) ) ;
#247 = CARTESIAN_POINT ( 'NONE',  ( 0.000000000000000000, 2.899999999999999911, 0.000000000000000000 ) ) ;
#248 = CARTESIAN_POINT ( 'NONE',  ( 1.760429773774320121E-15, 0.000000000000000000, -14.00000000000000000 ) ) ;
#249 = ADVANCED_FACE ( 'NONE', ( #219 ), #67, .F. ) ;
ENDSEC;
END-ISO-10303-21;
